<?xml version="1.0" encoding="UTF-8" standalone="no"?>
<!-- Created with Inkscape (http://www.inkscape.org/) -->

<svg
   xmlns:dc="http://purl.org/dc/elements/1.1/"
   xmlns:cc="http://creativecommons.org/ns#"
   xmlns:rdf="http://www.w3.org/1999/02/22-rdf-syntax-ns#"
   xmlns:svg="http://www.w3.org/2000/svg"
   xmlns="http://www.w3.org/2000/svg"
   xmlns:sodipodi="http://sodipodi.sourceforge.net/DTD/sodipodi-0.dtd"
   xmlns:inkscape="http://www.inkscape.org/namespaces/inkscape"
   width="24in"
   height="12in"
   viewBox="0 0 2160 1080"
   id="svg2"
   version="1.1"
   inkscape:version="0.48.5 r10040"
   sodipodi:docname="spacer thumb section.svg">
  <defs
     id="defs4">
    <clipPath
       id="clipPath7279"
       clipPathUnits="userSpaceOnUse">
      <path
         inkscape:connector-curvature="0"
         id="path7281"
         d="m 825.16,16.84006 -10e-5,561.24004 -808.19995,-10e-5 2e-5,-561.23997 808.20003,3e-5 z" />
    </clipPath>
    <clipPath
       id="clipPath8307"
       clipPathUnits="userSpaceOnUse">
      <path
         inkscape:connector-curvature="0"
         id="path8309"
         d="m 773.4,16.60001 0,578.75999 -754.8,0 2e-5,-578.76002 754.79998,3e-5 z" />
    </clipPath>
    <clipPath
       id="clipPath8795"
       clipPathUnits="userSpaceOnUse">
      <path
         inkscape:connector-curvature="0"
         id="path8797"
         d="m 773.4,16.60001 0,578.75999 -754.8,0 2e-5,-578.76002 754.79998,3e-5 z" />
    </clipPath>
    <clipPath
       id="clipPath4837"
       clipPathUnits="userSpaceOnUse">
      <path
         inkscape:connector-curvature="0"
         id="path4839"
         d="m 825.16,16.84006 -10e-5,561.24004 -808.19995,-10e-5 2e-5,-561.23997 808.20003,3e-5 z" />
    </clipPath>
    <clipPath
       id="clipPath8307-5"
       clipPathUnits="userSpaceOnUse">
      <path
         inkscape:connector-curvature="0"
         id="path8309-8"
         d="m 773.4,16.60001 0,578.75999 -754.8,0 2e-5,-578.76002 754.79998,3e-5 z" />
    </clipPath>
    <clipPath
       id="clipPath8795-0"
       clipPathUnits="userSpaceOnUse">
      <path
         inkscape:connector-curvature="0"
         id="path8797-1"
         d="m 773.4,16.60001 0,578.75999 -754.8,0 2e-5,-578.76002 754.79998,3e-5 z" />
    </clipPath>
    <clipPath
       id="clipPath8795-0-8"
       clipPathUnits="userSpaceOnUse">
      <path
         inkscape:connector-curvature="0"
         id="path8797-1-0"
         d="m 773.4,16.60001 0,578.75999 -754.8,0 2e-5,-578.76002 754.79998,3e-5 z" />
    </clipPath>
    <clipPath
       id="clipPath8795-0-7"
       clipPathUnits="userSpaceOnUse">
      <path
         inkscape:connector-curvature="0"
         id="path8797-1-9"
         d="m 773.4,16.60001 0,578.75999 -754.8,0 2e-5,-578.76002 754.79998,3e-5 z" />
    </clipPath>
  </defs>
  <sodipodi:namedview
     id="base"
     pagecolor="#ffffff"
     bordercolor="#666666"
     borderopacity="1.0"
     inkscape:pageopacity="0.0"
     inkscape:pageshadow="2"
     inkscape:zoom="2"
     inkscape:cx="535.84951"
     inkscape:cy="593.72645"
     inkscape:document-units="in"
     inkscape:current-layer="layer1"
     showgrid="false"
     units="in"
     inkscape:window-width="1920"
     inkscape:window-height="1017"
     inkscape:window-x="-8"
     inkscape:window-y="-8"
     inkscape:window-maximized="1" />
  <metadata
     id="metadata7">
    <rdf:RDF>
      <cc:Work
         rdf:about="">
        <dc:format>image/svg+xml</dc:format>
        <dc:type
           rdf:resource="http://purl.org/dc/dcmitype/StillImage" />
        <dc:title />
      </cc:Work>
    </rdf:RDF>
  </metadata>
  <g
     inkscape:label="Layer 1"
     inkscape:groupmode="layer"
     id="layer1"
     transform="translate(0,27.63783)">
    <text
       xml:space="preserve"
       style="color:#000000;font-style:normal;font-variant:normal;font-weight:normal;font-stretch:normal;font-size:40px;line-height:125%;font-family:Meiryo;-inkscape-font-specification:Meiryo;text-indent:0;text-align:start;text-decoration:none;text-decoration-line:none;letter-spacing:0px;word-spacing:0px;text-transform:none;direction:ltr;block-progression:tb;writing-mode:lr-tb;baseline-shift:baseline;text-anchor:start;display:inline;overflow:visible;visibility:visible;fill:none;fill-opacity:1;fill-rule:nonzero;stroke:#000000;stroke-width:1px;stroke-linecap:butt;stroke-linejoin:miter;stroke-opacity:1;marker:none;enable-background:accumulate;"
       x="-127.21381"
       y="770.49512"
       id="text4135"
       sodipodi:linespacing="125%"><tspan
         sodipodi:role="line"
         id="tspan4137"
         x="-127.21381"
         y="770.49512" /></text>
    <g
       id="g3247">
      <path
         d="m 495.02777,425.59606 c -2.8995,0 -5.25,2.3505 -5.25,5.25 0,2.8995 2.3505,5.25 5.25,5.25 2.8995,0 5.25,-2.3505 5.25,-5.25 0,-2.8995 -2.3505,-5.25 -5.25,-5.25 z"
         style="fill:none;stroke:#000000;stroke-width:0.09;stroke-linecap:round;stroke-linejoin:round;stroke-miterlimit:4;stroke-opacity:1;stroke-dasharray:none"
         id="path8809"
         inkscape:connector-curvature="0" />
      <path
         d="m 589.22777,627.49609 c -2.8995,0 -5.25,2.3505 -5.25,5.25 0,2.8995 2.3505,5.25 5.25,5.25 2.8995,0 5.25,-2.3505 5.25,-5.25 0,-2.8995 -2.3505,-5.25 -5.25,-5.25 z"
         style="fill:none;stroke:#000000;stroke-width:0.09;stroke-linecap:round;stroke-linejoin:round;stroke-miterlimit:4;stroke-opacity:1;stroke-dasharray:none"
         id="path8813"
         inkscape:connector-curvature="0" />
      <path
         d="m 884.27777,496.99606 c -2.8995,0 -5.25,2.3505 -5.25,5.25 0,2.8995 2.3505,5.25 5.25,5.25 2.8995,0 5.25,-2.3505 5.25,-5.25 0,-2.8995 -2.3505,-5.25 -5.25,-5.25 z"
         style="fill:none;stroke:#000000;stroke-width:0.09;stroke-linecap:round;stroke-linejoin:round;stroke-miterlimit:4;stroke-opacity:1;stroke-dasharray:none"
         id="path8817"
         inkscape:connector-curvature="0" />
      <path
         d="m 606.28684,354.27753 c 8.71783,-4.06485 14.29093,-12.81255 14.29093,-22.43147"
         style="fill:none;stroke:#000000;stroke-width:0.09;stroke-linecap:round;stroke-linejoin:round;stroke-miterlimit:4;stroke-opacity:1;stroke-dasharray:none"
         id="path8845"
         inkscape:connector-curvature="0" />
      <path
         d="m 606.3278,354.34605 -118.35,55.2"
         style="fill:none;stroke:#000000;stroke-width:0.09;stroke-linecap:round;stroke-linejoin:round;stroke-miterlimit:4;stroke-opacity:1;stroke-dasharray:none"
         id="path8849"
         inkscape:connector-curvature="0" />
      <path
         d="m 488.0187,409.61459 c -12.38855,5.7764 -17.74878,20.50199 -11.97239,32.89054 10e-5,2.2e-4 1.5e-4,4.3e-4 2.9e-4,6.6e-4"
         style="fill:none;stroke:#000000;stroke-width:0.09;stroke-linecap:round;stroke-linejoin:round;stroke-miterlimit:4;stroke-opacity:1;stroke-dasharray:none"
         id="path8853"
         inkscape:connector-curvature="0" />
      <path
         d="m 475.9778,442.54605 91.95,197.25"
         style="fill:none;stroke:#000000;stroke-width:0.09;stroke-linecap:round;stroke-linejoin:round;stroke-miterlimit:4;stroke-opacity:1;stroke-dasharray:none"
         id="path8857"
         inkscape:connector-curvature="0" />
      <path
         d="m 567.99662,639.75582 c 5.77643,12.3877 20.501,17.74771 32.88915,11.97223"
         style="fill:none;stroke:#000000;stroke-width:0.09;stroke-linecap:round;stroke-linejoin:round;stroke-miterlimit:4;stroke-opacity:1;stroke-dasharray:none"
         id="path8861"
         inkscape:connector-curvature="0" />
      <path
         d="m 600.9278,651.79605 281.85,-131.4"
         style="fill:none;stroke:#000000;stroke-width:0.09;stroke-linecap:round;stroke-linejoin:round;stroke-miterlimit:4;stroke-opacity:1;stroke-dasharray:none"
         id="path8865"
         inkscape:connector-curvature="0" />
      <path
         sodipodi:nodetypes="cc"
         d="m 893.34417,517.99762 c -3.61342,0 -7.28457,0.86933 -10.55956,2.39617"
         style="fill:none;stroke:#000000;stroke-width:0.09;stroke-linecap:round;stroke-linejoin:round;stroke-miterlimit:4;stroke-opacity:1;stroke-dasharray:none"
         id="path8869"
         inkscape:connector-curvature="0" />
      <path
         sodipodi:nodetypes="ccccccc"
         d="m 893.2778,517.99605 12.14407,-0.004 0.0273,-31.4961 -24.62141,5.4e-4 -276.9,129.15 -15,-5.4 -76.8,-164.7"
         style="fill:none;stroke:#000000;stroke-width:0.09;stroke-linecap:round;stroke-linejoin:round;stroke-miterlimit:4;stroke-opacity:1;stroke-dasharray:none"
         id="path8873"
         inkscape:connector-curvature="0" />
      <path
         sodipodi:nodetypes="ccccccc"
         d="m 620.5778,331.84605 -1.5e-4,-18.14401 31.44333,0.0396 0.0324,35.43695 m -17.2256,26.76742 -117.3,54.6 -5.4,15"
         style="fill:none;stroke:#000000;stroke-width:0.09;stroke-linecap:round;stroke-linejoin:round;stroke-miterlimit:4;stroke-opacity:1;stroke-dasharray:none"
         id="path8841"
         inkscape:connector-curvature="0" />
    </g>
    <path
       style="fill:none;stroke:#000000;stroke-width:0.09;stroke-linecap:butt;stroke-linejoin:miter;stroke-miterlimit:4;stroke-opacity:1;stroke-dasharray:none"
       d="m 634.80611,403.59278 17.25671,-26.79094"
       id="path16692"
       inkscape:connector-curvature="0"
       transform="translate(0,-27.63783)"
       sodipodi:nodetypes="cc" />
  </g>
</svg>
