<?xml version="1.0" encoding="UTF-8" standalone="no"?>
<!-- Created with Inkscape (http://www.inkscape.org/) -->

<svg
   xmlns:dc="http://purl.org/dc/elements/1.1/"
   xmlns:cc="http://creativecommons.org/ns#"
   xmlns:rdf="http://www.w3.org/1999/02/22-rdf-syntax-ns#"
   xmlns:svg="http://www.w3.org/2000/svg"
   xmlns="http://www.w3.org/2000/svg"
   xmlns:sodipodi="http://sodipodi.sourceforge.net/DTD/sodipodi-0.dtd"
   xmlns:inkscape="http://www.inkscape.org/namespaces/inkscape"
   width="24in"
   height="12in"
   viewBox="0 0 2160 1080"
   id="svg2"
   version="1.1"
   inkscape:version="0.48.5 r10040"
   sodipodi:docname="top spacer with lines.svg">
  <defs
     id="defs4">
    <clipPath
       id="clipPath7279"
       clipPathUnits="userSpaceOnUse">
      <path
         inkscape:connector-curvature="0"
         id="path7281"
         d="m 825.16,16.84006 -10e-5,561.24004 -808.19995,-10e-5 2e-5,-561.23997 808.20003,3e-5 z" />
    </clipPath>
    <clipPath
       id="clipPath8307"
       clipPathUnits="userSpaceOnUse">
      <path
         inkscape:connector-curvature="0"
         id="path8309"
         d="m 773.4,16.60001 0,578.75999 -754.8,0 2e-5,-578.76002 754.79998,3e-5 z" />
    </clipPath>
    <clipPath
       id="clipPath8795"
       clipPathUnits="userSpaceOnUse">
      <path
         inkscape:connector-curvature="0"
         id="path8797"
         d="m 773.4,16.60001 0,578.75999 -754.8,0 2e-5,-578.76002 754.79998,3e-5 z" />
    </clipPath>
    <clipPath
       id="clipPath4837"
       clipPathUnits="userSpaceOnUse">
      <path
         inkscape:connector-curvature="0"
         id="path4839"
         d="m 825.16,16.84006 -10e-5,561.24004 -808.19995,-10e-5 2e-5,-561.23997 808.20003,3e-5 z" />
    </clipPath>
    <clipPath
       id="clipPath7279-6"
       clipPathUnits="userSpaceOnUse">
      <path
         inkscape:connector-curvature="0"
         id="path7281-0"
         d="m 825.16,16.84006 -10e-5,561.24004 -808.19995,-10e-5 2e-5,-561.23997 808.20003,3e-5 z" />
    </clipPath>
    <clipPath
       id="clipPath8307-2"
       clipPathUnits="userSpaceOnUse">
      <path
         inkscape:connector-curvature="0"
         id="path8309-4"
         d="m 773.4,16.60001 0,578.75999 -754.8,0 2e-5,-578.76002 754.79998,3e-5 z" />
    </clipPath>
    <clipPath
       id="clipPath8795-8"
       clipPathUnits="userSpaceOnUse">
      <path
         inkscape:connector-curvature="0"
         id="path8797-6"
         d="m 773.4,16.60001 0,578.75999 -754.8,0 2e-5,-578.76002 754.79998,3e-5 z" />
    </clipPath>
    <clipPath
       id="clipPath4837-5"
       clipPathUnits="userSpaceOnUse">
      <path
         inkscape:connector-curvature="0"
         id="path4839-0"
         d="m 825.16,16.84006 -10e-5,561.24004 -808.19995,-10e-5 2e-5,-561.23997 808.20003,3e-5 z" />
    </clipPath>
    <clipPath
       id="clipPath8307-5-9"
       clipPathUnits="userSpaceOnUse">
      <path
         inkscape:connector-curvature="0"
         id="path8309-8-0"
         d="m 773.4,16.60001 0,578.75999 -754.8,0 2e-5,-578.76002 754.79998,3e-5 z" />
    </clipPath>
    <clipPath
       id="clipPath8795-0-0"
       clipPathUnits="userSpaceOnUse">
      <path
         inkscape:connector-curvature="0"
         id="path8797-1-6"
         d="m 773.4,16.60001 0,578.75999 -754.8,0 2e-5,-578.76002 754.79998,3e-5 z" />
    </clipPath>
    <clipPath
       id="clipPath8795-0-8-1"
       clipPathUnits="userSpaceOnUse">
      <path
         inkscape:connector-curvature="0"
         id="path8797-1-0-3"
         d="m 773.4,16.60001 0,578.75999 -754.8,0 2e-5,-578.76002 754.79998,3e-5 z" />
    </clipPath>
    <clipPath
       id="clipPath8795-0-7-8"
       clipPathUnits="userSpaceOnUse">
      <path
         inkscape:connector-curvature="0"
         id="path8797-1-9-9"
         d="m 773.4,16.60001 0,578.75999 -754.8,0 2e-5,-578.76002 754.79998,3e-5 z" />
    </clipPath>
    <clipPath
       clipPathUnits="userSpaceOnUse"
       id="clipPath8795-0-7">
      <path
         d="m 773.4,16.60001 0,578.75999 -754.8,0 2e-5,-578.76002 754.79998,3e-5 z"
         id="path8797-1-9"
         inkscape:connector-curvature="0" />
    </clipPath>
    <clipPath
       clipPathUnits="userSpaceOnUse"
       id="clipPath8795-0-8">
      <path
         d="m 773.4,16.60001 0,578.75999 -754.8,0 2e-5,-578.76002 754.79998,3e-5 z"
         id="path8797-1-0"
         inkscape:connector-curvature="0" />
    </clipPath>
    <clipPath
       clipPathUnits="userSpaceOnUse"
       id="clipPath8795-0">
      <path
         d="m 773.4,16.60001 0,578.75999 -754.8,0 2e-5,-578.76002 754.79998,3e-5 z"
         id="path8797-1"
         inkscape:connector-curvature="0" />
    </clipPath>
    <clipPath
       clipPathUnits="userSpaceOnUse"
       id="clipPath8307-5">
      <path
         d="m 773.4,16.60001 0,578.75999 -754.8,0 2e-5,-578.76002 754.79998,3e-5 z"
         id="path8309-8"
         inkscape:connector-curvature="0" />
    </clipPath>
    <clipPath
       clipPathUnits="userSpaceOnUse"
       id="clipPath4837-55">
      <path
         d="m 825.16,16.84006 -10e-5,561.24004 -808.19995,-10e-5 2e-5,-561.23997 808.20003,3e-5 z"
         id="path4839-1"
         inkscape:connector-curvature="0" />
    </clipPath>
    <clipPath
       clipPathUnits="userSpaceOnUse"
       id="clipPath8795-2">
      <path
         d="m 773.4,16.60001 0,578.75999 -754.8,0 2e-5,-578.76002 754.79998,3e-5 z"
         id="path8797-4"
         inkscape:connector-curvature="0" />
    </clipPath>
    <clipPath
       clipPathUnits="userSpaceOnUse"
       id="clipPath8307-4">
      <path
         d="m 773.4,16.60001 0,578.75999 -754.8,0 2e-5,-578.76002 754.79998,3e-5 z"
         id="path8309-88"
         inkscape:connector-curvature="0" />
    </clipPath>
    <clipPath
       clipPathUnits="userSpaceOnUse"
       id="clipPath7279-4">
      <path
         d="m 825.16,16.84006 -10e-5,561.24004 -808.19995,-10e-5 2e-5,-561.23997 808.20003,3e-5 z"
         id="path7281-09"
         inkscape:connector-curvature="0" />
    </clipPath>
  </defs>
  <sodipodi:namedview
     id="base"
     pagecolor="#ffffff"
     bordercolor="#666666"
     borderopacity="1.0"
     inkscape:pageopacity="0.0"
     inkscape:pageshadow="2"
     inkscape:zoom="16"
     inkscape:cx="862.52653"
     inkscape:cy="512.1071"
     inkscape:document-units="in"
     inkscape:current-layer="layer1"
     showgrid="false"
     units="in"
     inkscape:window-width="1920"
     inkscape:window-height="1017"
     inkscape:window-x="-8"
     inkscape:window-y="-8"
     inkscape:window-maximized="1" />
  <metadata
     id="metadata7">
    <rdf:RDF>
      <cc:Work
         rdf:about="">
        <dc:format>image/svg+xml</dc:format>
        <dc:type
           rdf:resource="http://purl.org/dc/dcmitype/StillImage" />
        <dc:title></dc:title>
      </cc:Work>
    </rdf:RDF>
  </metadata>
  <g
     inkscape:label="Layer 1"
     inkscape:groupmode="layer"
     id="layer1"
     transform="translate(0,27.63783)">
    <text
       xml:space="preserve"
       style="color:#000000;font-style:normal;font-variant:normal;font-weight:normal;font-stretch:normal;font-size:40px;line-height:125%;font-family:Meiryo;-inkscape-font-specification:Meiryo;text-indent:0;text-align:start;text-decoration:none;text-decoration-line:none;letter-spacing:0px;word-spacing:0px;text-transform:none;direction:ltr;block-progression:tb;writing-mode:lr-tb;baseline-shift:baseline;text-anchor:start;display:inline;overflow:visible;visibility:visible;fill:none;fill-opacity:1;fill-rule:nonzero;stroke:#000000;stroke-width:1px;stroke-linecap:butt;stroke-linejoin:miter;stroke-opacity:1;marker:none;enable-background:accumulate;"
       x="-127.21381"
       y="770.49512"
       id="text4135"
       sodipodi:linespacing="125%"><tspan
         sodipodi:role="line"
         id="tspan4137"
         x="-127.21381"
         y="770.49512" /></text>
    <path
       style="fill:none;stroke:#000000;stroke-width:0.09;stroke-linecap:butt;stroke-linejoin:miter;stroke-opacity:1;stroke-miterlimit:4;stroke-dasharray:none"
       d="m 854.95839,598.10673 0.0442,-48.03907"
       id="path3650"
       inkscape:connector-curvature="0"
       transform="translate(0,-27.63783)" />
    <g
       id="g5290">
      <g
         transform="matrix(1.25,0,0,-1.25,211.78146,800.76515)"
         inkscape:label="ErgoDOX Case Layer 2 Spacer - Right"
         id="g4505"
         style="fill:none;stroke:#000000;stroke-width:0.072;stroke-miterlimit:4;stroke-opacity:1;stroke-dasharray:none">
        <g
           id="g4507"
           style="fill:none;stroke:#000000;stroke-width:0.072;stroke-miterlimit:4;stroke-opacity:1;stroke-dasharray:none" />
        <g
           id="g4509"
           style="fill:none;stroke:#000000;stroke-width:0.072;stroke-miterlimit:4;stroke-opacity:1;stroke-dasharray:none">
          <g
             clip-path="url(#clipPath8307)"
             id="g4511"
             style="fill:none;stroke:#000000;stroke-width:0.072;stroke-miterlimit:4;stroke-opacity:1;stroke-dasharray:none">
            <g
               transform="matrix(0,0.12,-0.12,0,456,564.04)"
               id="g4513"
               style="fill:none;stroke:#000000;stroke-width:0.60000002;stroke-miterlimit:4;stroke-opacity:1;stroke-dasharray:none">
              <path
                 inkscape:connector-curvature="0"
                 id="path4515"
                 style="fill:none;stroke:#000000;stroke-width:0.60000002;stroke-linecap:butt;stroke-linejoin:miter;stroke-miterlimit:4;stroke-opacity:1;stroke-dasharray:none"
                 d="M 35,0 C 35,19.32997 19.32997,35 0,35 -19.32997,35 -35,19.32997 -35,0 c 0,-19.32997 15.67003,-35 35,-35 19.32997,0 35,15.67003 35,35 z" />
            </g>
            <g
               transform="matrix(0,0.12,-0.12,0,304.44,558.88)"
               id="g4517"
               style="fill:none;stroke:#000000;stroke-width:0.60000002;stroke-miterlimit:4;stroke-opacity:1;stroke-dasharray:none">
              <path
                 inkscape:connector-curvature="0"
                 id="path4519"
                 style="fill:none;stroke:#000000;stroke-width:0.60000002;stroke-linecap:butt;stroke-linejoin:miter;stroke-miterlimit:4;stroke-opacity:1;stroke-dasharray:none"
                 d="M 35,0 C 35,19.32997 19.32997,35 0,35 -19.32997,35 -35,19.32997 -35,0 c 0,-19.32997 15.67003,-35 35,-35 19.32997,0 35,15.67003 35,35 z" />
            </g>
            <g
               transform="matrix(0,0.12,-0.12,0,186.12,254.08)"
               id="g4521"
               style="fill:none;stroke:#000000;stroke-width:0.60000002;stroke-miterlimit:4;stroke-opacity:1;stroke-dasharray:none" />
            <g
               transform="matrix(0,0.12,-0.12,0,261.48,92.43998)"
               id="g4525"
               style="fill:none;stroke:#000000;stroke-width:0.60000002;stroke-miterlimit:4;stroke-opacity:1;stroke-dasharray:none" />
            <g
               transform="matrix(0,0.12,-0.12,0,497.64,196.84)"
               id="g4529"
               style="fill:none;stroke:#000000;stroke-width:0.60000002;stroke-miterlimit:4;stroke-opacity:1;stroke-dasharray:none" />
            <g
               transform="matrix(0,0.12,-0.12,0,725.52,206.44)"
               id="g4533"
               style="fill:none;stroke:#000000;stroke-width:0.60000002;stroke-miterlimit:4;stroke-opacity:1;stroke-dasharray:none">
              <path
                 inkscape:connector-curvature="0"
                 id="path4535"
                 style="fill:none;stroke:#000000;stroke-width:0.60000002;stroke-linecap:butt;stroke-linejoin:miter;stroke-miterlimit:4;stroke-opacity:1;stroke-dasharray:none"
                 d="M 35,0 C 35,19.32997 19.32997,35 0,35 -19.32997,35 -35,19.32997 -35,0 c 0,-19.32997 15.67003,-35 35,-35 19.32997,0 35,15.67003 35,35 z" />
            </g>
            <g
               transform="matrix(0,0.12,-0.12,0,725.52,558.88)"
               id="g4537"
               style="fill:none;stroke:#000000;stroke-width:0.60000002;stroke-miterlimit:4;stroke-opacity:1;stroke-dasharray:none">
              <path
                 inkscape:connector-curvature="0"
                 id="path4539"
                 style="fill:none;stroke:#000000;stroke-width:0.60000002;stroke-linecap:butt;stroke-linejoin:miter;stroke-miterlimit:4;stroke-opacity:1;stroke-dasharray:none"
                 d="M 35,0 C 35,19.32997 19.32997,35 0,35 -19.32997,35 -35,19.32997 -35,0 c 0,-19.32997 15.67003,-35 35,-35 19.32997,0 35,15.67003 35,35 z" />
            </g>
            <g
               transform="matrix(0,0.12,-0.12,0,456,564.04)"
               id="g4541"
               style="fill:none;stroke:#000000;stroke-width:0.60000002;stroke-miterlimit:4;stroke-opacity:1;stroke-dasharray:none">
              <path
                 inkscape:connector-curvature="0"
                 id="path4543"
                 style="fill:none;stroke:#000000;stroke-width:0.60000002;stroke-linecap:butt;stroke-linejoin:miter;stroke-miterlimit:4;stroke-opacity:1;stroke-dasharray:none"
                 d="M 35,0 C 35,19.32997 19.32997,35 0,35 -19.32997,35 -35,19.32997 -35,0 c 0,-19.32997 15.67003,-35 35,-35 19.32997,0 35,15.67003 35,35 z" />
            </g>
            <g
               transform="matrix(0,0.12,-0.12,0,773.4,16.60001)"
               id="g4545"
               style="fill:none;stroke:#000000;stroke-width:0.60000002;stroke-miterlimit:4;stroke-opacity:1;stroke-dasharray:none">
              <path
                 inkscape:connector-curvature="0"
                 id="path4547"
                 style="fill:none;stroke:#000000;stroke-width:0.60000002;stroke-linecap:round;stroke-linejoin:round;stroke-miterlimit:4;stroke-opacity:1;stroke-dasharray:none"
                 d="m 4667,1728 -121,219 0,253 121,219 0,451 0,829 0,192" />
            </g>
            <g
               transform="matrix(0,0.12,-0.12,0,306.48,556.72)"
               id="g4549"
               style="fill:none;stroke:#000000;stroke-width:0.60000002;stroke-miterlimit:4;stroke-opacity:1;stroke-dasharray:none">
              <path
                 sodipodi:nodetypes="csc"
                 inkscape:connector-curvature="0"
                 id="path4551"
                 style="fill:none;stroke:#000000;stroke-width:0.60000002;stroke-linecap:round;stroke-linejoin:round;stroke-miterlimit:4;stroke-opacity:1;stroke-dasharray:none"
                 d="M 166.0312,-0.22097087 C 166.0312,90.906009 91.12698,165 0,165 l -7.2123788e-6,0" />
            </g>
            <g
               transform="matrix(0,0.12,-0.12,0,773.4,16.60001)"
               id="g4553"
               style="fill:none;stroke:#000000;stroke-width:0.60000002;stroke-miterlimit:4;stroke-opacity:1;stroke-dasharray:none">
              <path
                 sodipodi:nodetypes="cc"
                 inkscape:connector-curvature="0"
                 id="path4555"
                 style="fill:none;stroke:#000000;stroke-width:0.60000002;stroke-linecap:round;stroke-linejoin:round;stroke-miterlimit:4;stroke-opacity:1;stroke-dasharray:none"
                 d="m 4501,4056 -1741.9975,0" />
            </g>
            <g
               transform="matrix(0,0.12,-0.12,0,266.88,333.16)"
               id="g4557"
               style="fill:none;stroke:#000000;stroke-width:0.60000002;stroke-miterlimit:4;stroke-opacity:1;stroke-dasharray:none" />
            <g
               transform="matrix(0,0.12,-0.12,0,773.4,16.60001)"
               id="g4561"
               style="fill:none;stroke:#000000;stroke-width:0.60000002;stroke-miterlimit:4;stroke-opacity:1;stroke-dasharray:none" />
            <g
               transform="matrix(0,0.12,-0.12,0,188.88,253)"
               id="g4565"
               style="fill:none;stroke:#000000;stroke-width:0.60000002;stroke-miterlimit:4;stroke-opacity:1;stroke-dasharray:none" />
            <g
               transform="matrix(0,0.12,-0.12,0,773.4,16.60001)"
               id="g4569"
               style="fill:none;stroke:#000000;stroke-width:0.60000002;stroke-miterlimit:4;stroke-opacity:1;stroke-dasharray:none" />
            <g
               transform="matrix(0,0.12,-0.12,0,262.56,95.19998)"
               id="g4573"
               style="fill:none;stroke:#000000;stroke-width:0.60000002;stroke-miterlimit:4;stroke-opacity:1;stroke-dasharray:none" />
            <g
               transform="matrix(0,0.12,-0.12,0,773.4,16.60001)"
               id="g4577"
               style="fill:none;stroke:#000000;stroke-width:0.60000002;stroke-miterlimit:4;stroke-opacity:1;stroke-dasharray:none" />
            <g
               transform="matrix(0,0.12,-0.12,0,504.84,164.44)"
               id="g4581"
               style="fill:none;stroke:#000000;stroke-width:0.60000002;stroke-miterlimit:4;stroke-opacity:1;stroke-dasharray:none" />
            <g
               transform="matrix(0,0.12,-0.12,0,773.4,16.60001)"
               id="g4585"
               style="fill:none;stroke:#000000;stroke-width:0.60000002;stroke-miterlimit:4;stroke-opacity:1;stroke-dasharray:none">
              <path
                 sodipodi:nodetypes="cc"
                 inkscape:connector-curvature="0"
                 id="path4587"
                 style="fill:none;stroke:#000000;stroke-width:0.60000002;stroke-linecap:round;stroke-linejoin:round;stroke-miterlimit:4;stroke-opacity:1;stroke-dasharray:none"
                 d="M 1397,2157.1629 1397,417" />
            </g>
            <g
               transform="matrix(0,0.12,-0.12,0,723.36,204.04)"
               id="g4589"
               style="fill:none;stroke:#000000;stroke-width:0.60000002;stroke-miterlimit:4;stroke-opacity:1;stroke-dasharray:none">
              <path
                 sodipodi:nodetypes="cc"
                 inkscape:connector-curvature="0"
                 id="path4591"
                 style="fill:none;stroke:#000000;stroke-width:0.60000002;stroke-linecap:round;stroke-linejoin:round;stroke-miterlimit:4;stroke-opacity:1;stroke-dasharray:none"
                 d="M -165,-1.442476e-5 C -165,-91.12699 -91.153022,-165.96354 -0.0260397,-165.96354" />
            </g>
            <g
               transform="matrix(0,0.12,-0.12,0,773.4,16.60001)"
               id="g4593"
               style="fill:none;stroke:#000000;stroke-width:0.60000002;stroke-miterlimit:4;stroke-opacity:1;stroke-dasharray:none">
              <path
                 inkscape:connector-curvature="0"
                 id="path4595"
                 style="fill:none;stroke:#000000;stroke-width:0.60000002;stroke-linecap:round;stroke-linejoin:round;stroke-miterlimit:4;stroke-opacity:1;stroke-dasharray:none"
                 d="m 1562,251 2939,0" />
            </g>
            <g
               transform="matrix(0,0.12,-0.12,0,723.36,556.72)"
               id="g4597"
               style="fill:none;stroke:#000000;stroke-width:0.60000002;stroke-miterlimit:4;stroke-opacity:1;stroke-dasharray:none">
              <path
                 sodipodi:nodetypes="cc"
                 inkscape:connector-curvature="0"
                 id="path4599"
                 style="fill:none;stroke:#000000;stroke-width:0.60000002;stroke-linecap:round;stroke-linejoin:round;stroke-miterlimit:4;stroke-opacity:1;stroke-dasharray:none"
                 d="m 0.02604363,-165.96354 c 91.12698837,0 165.96353637,74.810518 165.96353637,165.9375003" />
            </g>
            <g
               transform="matrix(0,0.12,-0.12,0,773.4,16.60001)"
               id="g4601"
               style="fill:none;stroke:#000000;stroke-width:0.60000002;stroke-miterlimit:4;stroke-opacity:1;stroke-dasharray:none">
              <path
                 inkscape:connector-curvature="0"
                 id="path4603"
                 style="fill:none;stroke:#000000;stroke-width:0.60000002;stroke-linecap:round;stroke-linejoin:round;stroke-miterlimit:4;stroke-opacity:1;stroke-dasharray:none"
                 d="m 4667,417 0,1311" />
            </g>
            <g
               transform="matrix(0,0.12,-0.12,0,320.16,253.12)"
               id="g4605"
               style="fill:none;stroke:#000000;stroke-width:0.60000002;stroke-miterlimit:4;stroke-opacity:1;stroke-dasharray:none" />
            <g
               transform="matrix(0,0.12,-0.12,0,773.4,16.60001)"
               id="g4609"
               style="fill:none;stroke:#000000;stroke-width:0.60000002;stroke-miterlimit:4;stroke-opacity:1;stroke-dasharray:none" />
            <g
               transform="matrix(0,0.12,-0.12,0,293.88,292.48)"
               id="g4613"
               style="fill:none;stroke:#000000;stroke-width:0.60000002;stroke-miterlimit:4;stroke-opacity:1;stroke-dasharray:none" />
            <g
               transform="matrix(0,0.12,-0.12,0,773.4,16.60001)"
               id="g4617"
               style="fill:none;stroke:#000000;stroke-width:0.60000002;stroke-miterlimit:4;stroke-opacity:1;stroke-dasharray:none" />
            <g
               transform="matrix(0,0.12,-0.12,0,199.92,248.68)"
               id="g4621"
               style="fill:none;stroke:#000000;stroke-width:0.60000002;stroke-miterlimit:4;stroke-opacity:1;stroke-dasharray:none" />
            <g
               transform="matrix(0,0.12,-0.12,0,773.4,16.60001)"
               id="g4625"
               style="fill:none;stroke:#000000;stroke-width:0.60000002;stroke-miterlimit:4;stroke-opacity:1;stroke-dasharray:none" />
            <g
               transform="matrix(0,0.12,-0.12,0,266.52,105.88)"
               id="g4629"
               style="fill:none;stroke:#000000;stroke-width:0.60000002;stroke-miterlimit:4;stroke-opacity:1;stroke-dasharray:none" />
            <g
               transform="matrix(0,0.12,-0.12,0,773.4,16.60001)"
               id="g4633"
               style="fill:none;stroke:#000000;stroke-width:0.60000002;stroke-miterlimit:4;stroke-opacity:1;stroke-dasharray:none" />
            <g
               transform="matrix(0,0.12,-0.12,0,409.44,172.48)"
               id="g4637"
               style="fill:none;stroke:#000000;stroke-width:0.60000002;stroke-miterlimit:4;stroke-opacity:1;stroke-dasharray:none" />
            <g
               transform="matrix(0,0.12,-0.12,0,773.4,16.60001)"
               id="g4641"
               style="fill:none;stroke:#000000;stroke-width:0.60000002;stroke-miterlimit:4;stroke-opacity:1;stroke-dasharray:none" />
            <g
               transform="matrix(0,0.12,-0.12,0,374.52,264.28)"
               id="g4645"
               style="fill:none;stroke:#000000;stroke-width:0.60000002;stroke-miterlimit:4;stroke-opacity:1;stroke-dasharray:none" />
            <g
               transform="matrix(0,0.12,-0.12,0,773.4,16.60001)"
               id="g4649"
               style="fill:none;stroke:#000000;stroke-width:0.60000002;stroke-miterlimit:4;stroke-opacity:1;stroke-dasharray:none" />
            <g
               transform="matrix(0,0.12,-0.12,0,415.56,264.28)"
               id="g4653"
               style="fill:none;stroke:#000000;stroke-width:0.60000002;stroke-miterlimit:4;stroke-opacity:1;stroke-dasharray:none" />
            <g
               transform="matrix(0,0.12,-0.12,0,773.4,16.60001)"
               id="g4657"
               style="fill:none;stroke:#000000;stroke-width:0.60000002;stroke-miterlimit:4;stroke-opacity:1;stroke-dasharray:none" />
            <g
               transform="matrix(0,0.12,-0.12,0,422.76,221.08)"
               id="g4661"
               style="fill:none;stroke:#000000;stroke-width:0.60000002;stroke-miterlimit:4;stroke-opacity:1;stroke-dasharray:none" />
            <g
               transform="matrix(0,0.12,-0.12,0,773.4,16.60001)"
               id="g4665"
               style="fill:none;stroke:#000000;stroke-width:0.60000002;stroke-miterlimit:4;stroke-opacity:1;stroke-dasharray:none" />
            <g
               transform="matrix(0,0.12,-0.12,0,473.04,221.08)"
               id="g4669"
               style="fill:none;stroke:#000000;stroke-width:0.60000002;stroke-miterlimit:4;stroke-opacity:1;stroke-dasharray:none" />
            <g
               transform="matrix(0,0.12,-0.12,0,479.64,218.32)"
               id="g4673"
               style="fill:none;stroke:#000000;stroke-width:0.60000002;stroke-miterlimit:4;stroke-opacity:1;stroke-dasharray:none" />
            <g
               transform="matrix(0,0.12,-0.12,0,773.4,16.60001)"
               id="g4677"
               style="fill:none;stroke:#000000;stroke-width:0.60000002;stroke-miterlimit:4;stroke-opacity:1;stroke-dasharray:none">
              <path
                 sodipodi:nodetypes="cc"
                 inkscape:connector-curvature="0"
                 id="path4679"
                 style="fill:none;stroke:#000000;stroke-width:0.60000002;stroke-linecap:round;stroke-linejoin:round;stroke-miterlimit:4;stroke-opacity:1;stroke-dasharray:none"
                 d="M 1717,2156.8764 1717,2082" />
            </g>
            <g
               transform="matrix(0,0.12,-0.12,0,523.56,218.32)"
               id="g4681"
               style="fill:none;stroke:#000000;stroke-width:0.60000002;stroke-miterlimit:4;stroke-opacity:1;stroke-dasharray:none">
              <path
                 sodipodi:nodetypes="cc"
                 inkscape:connector-curvature="0"
                 id="path4683"
                 style="fill:none;stroke:#000000;stroke-width:0.60000002;stroke-linecap:round;stroke-linejoin:round;stroke-miterlimit:4;stroke-opacity:1;stroke-dasharray:none"
                 d="m 13.12499,-32.44587 c 13.22125,5.34825 22.910112,18.263364 22.910112,32.52539014" />
            </g>
            <g
               transform="matrix(0,0.12,-0.12,0,530.28,221.08)"
               id="g4685"
               style="fill:none;stroke:#000000;stroke-width:0.60000002;stroke-miterlimit:4;stroke-opacity:1;stroke-dasharray:none">
              <path
                 sodipodi:nodetypes="cc"
                 inkscape:connector-curvature="0"
                 id="path4687"
                 style="fill:none;stroke:#000000;stroke-width:0.60000002;stroke-linecap:round;stroke-linejoin:round;stroke-miterlimit:4;stroke-opacity:1;stroke-dasharray:none"
                 d="M -9.6835293,23.665459 C -18.37178,20.150889 -24.05853,9.0697458 -24.05853,-0.30243925" />
            </g>
            <g
               transform="matrix(0,0.12,-0.12,0,773.4,16.60001)"
               id="g4689"
               style="fill:none;stroke:#000000;stroke-width:0.60000002;stroke-miterlimit:4;stroke-opacity:1;stroke-dasharray:none">
              <path
                 inkscape:connector-curvature="0"
                 id="path4691"
                 style="fill:none;stroke:#000000;stroke-width:0.60000002;stroke-linecap:round;stroke-linejoin:round;stroke-miterlimit:4;stroke-opacity:1;stroke-dasharray:none"
                 d="m 1680,2026 0,-394" />
            </g>
            <g
               transform="matrix(0,0.12,-0.12,0,577.56,213.88)"
               id="g4693"
               style="fill:none;stroke:#000000;stroke-width:0.60000002;stroke-miterlimit:4;stroke-opacity:1;stroke-dasharray:none">
              <path
                 sodipodi:nodetypes="cc"
                 inkscape:connector-curvature="0"
                 id="path4695"
                 style="fill:none;stroke:#000000;stroke-width:0.60000002;stroke-linecap:round;stroke-linejoin:round;stroke-miterlimit:4;stroke-opacity:1;stroke-dasharray:none"
                 d="M -0.05208333,-36.041667 C 19.277887,-36.041667 35.9375,-19.17372 35.9375,0.15625" />
            </g>
            <g
               transform="matrix(0,0.12,-0.12,0,773.4,16.60001)"
               id="g4697"
               style="fill:none;stroke:#000000;stroke-width:0.60000002;stroke-miterlimit:4;stroke-opacity:1;stroke-dasharray:none">
              <path
                 inkscape:connector-curvature="0"
                 id="path4699"
                 style="fill:none;stroke:#000000;stroke-width:0.60000002;stroke-linecap:round;stroke-linejoin:round;stroke-miterlimit:4;stroke-opacity:1;stroke-dasharray:none"
                 d="m 1644,1596 -15,0" />
            </g>
            <g
               transform="matrix(0,0.12,-0.12,0,584.76,212.08)"
               id="g4701"
               style="fill:none;stroke:#000000;stroke-width:0.60000002;stroke-miterlimit:4;stroke-opacity:1;stroke-dasharray:none">
              <path
                 sodipodi:nodetypes="cc"
                 inkscape:connector-curvature="0"
                 id="path4703"
                 style="fill:none;stroke:#000000;stroke-width:0.60000002;stroke-linecap:round;stroke-linejoin:round;stroke-miterlimit:4;stroke-opacity:1;stroke-dasharray:none"
                 d="M -1.0053621e-6,24.041667 C -12.70255,24.041667 -24.041667,12.5463 -24.041667,-0.15625101" />
            </g>
            <g
               transform="matrix(0,0.12,-0.12,0,773.4,16.60001)"
               id="g4705"
               style="fill:none;stroke:#000000;stroke-width:0.60000002;stroke-miterlimit:4;stroke-opacity:1;stroke-dasharray:none">
              <path
                 inkscape:connector-curvature="0"
                 id="path4707"
                 style="fill:none;stroke:#000000;stroke-width:0.60000002;stroke-linecap:round;stroke-linejoin:round;stroke-miterlimit:4;stroke-opacity:1;stroke-dasharray:none"
                 d="m 1605,1572 0,-864" />
            </g>
            <g
               transform="matrix(0,0.12,-0.12,0,688.44,212.08)"
               id="g4709"
               style="fill:none;stroke:#000000;stroke-width:0.60000002;stroke-miterlimit:4;stroke-opacity:1;stroke-dasharray:none">
              <path
                 sodipodi:nodetypes="cc"
                 inkscape:connector-curvature="0"
                 id="path4711"
                 style="fill:none;stroke:#000000;stroke-width:0.60000002;stroke-linecap:round;stroke-linejoin:round;stroke-miterlimit:4;stroke-opacity:1;stroke-dasharray:none"
                 d="m -23.989583,0.18228966 c 0,-12.70254766 11.260991,-24.19791466 23.96354133,-24.19791466" />
            </g>
            <g
               transform="matrix(0,0.12,-0.12,0,773.4,16.60001)"
               id="g4713"
               style="fill:none;stroke:#000000;stroke-width:0.60000002;stroke-miterlimit:4;stroke-opacity:1;stroke-dasharray:none">
              <path
                 inkscape:connector-curvature="0"
                 id="path4715"
                 style="fill:none;stroke:#000000;stroke-width:0.60000002;stroke-linecap:round;stroke-linejoin:round;stroke-miterlimit:4;stroke-opacity:1;stroke-dasharray:none"
                 d="m 1629,684 390,0" />
            </g>
            <g
               transform="matrix(0,0.12,-0.12,0,695.64,258.88)"
               id="g4717"
               style="fill:none;stroke:#000000;stroke-width:0.60000002;stroke-miterlimit:4;stroke-opacity:1;stroke-dasharray:none">
              <path
                 sodipodi:nodetypes="cc"
                 inkscape:connector-curvature="0"
                 id="path4719"
                 style="fill:none;stroke:#000000;stroke-width:0.60000002;stroke-linecap:round;stroke-linejoin:round;stroke-miterlimit:4;stroke-opacity:1;stroke-dasharray:none"
                 d="M 35.9375,-0.10416667 C 35.9375,19.225803 19.382053,35.9375 0.05208333,35.9375" />
            </g>
            <g
               transform="matrix(0,0.12,-0.12,0,773.4,16.60001)"
               id="g4721"
               style="fill:none;stroke:#000000;stroke-width:0.60000002;stroke-miterlimit:4;stroke-opacity:1;stroke-dasharray:none">
              <path
                 inkscape:connector-curvature="0"
                 id="path4723"
                 style="fill:none;stroke:#000000;stroke-width:0.60000002;stroke-linecap:round;stroke-linejoin:round;stroke-miterlimit:4;stroke-opacity:1;stroke-dasharray:none"
                 d="m 2055,648 0,-163" />
            </g>
            <g
               transform="matrix(0,0.12,-0.12,0,715.2,265.96)"
               id="g4725"
               style="fill:none;stroke:#000000;stroke-width:0.60000002;stroke-miterlimit:4;stroke-opacity:1;stroke-dasharray:none">
              <path
                 sodipodi:nodetypes="cc"
                 inkscape:connector-curvature="0"
                 id="path4727"
                 style="fill:none;stroke:#000000;stroke-width:0.60000002;stroke-linecap:round;stroke-linejoin:round;stroke-miterlimit:4;stroke-opacity:1;stroke-dasharray:none"
                 d="M -23,-2.0107243e-6 C -23,-12.70255 -12.635211,-23.980647 0.06733819,-23.980647" />
            </g>
            <g
               transform="matrix(0,0.12,-0.12,0,773.4,16.60001)"
               id="g4729"
               style="fill:none;stroke:#000000;stroke-width:0.60000002;stroke-miterlimit:4;stroke-opacity:1;stroke-dasharray:none">
              <path
                 inkscape:connector-curvature="0"
                 id="path4731"
                 style="fill:none;stroke:#000000;stroke-width:0.60000002;stroke-linecap:round;stroke-linejoin:round;stroke-miterlimit:4;stroke-opacity:1;stroke-dasharray:none"
                 d="m 2078,461 1765,0" />
            </g>
            <g
               transform="matrix(0,0.12,-0.12,0,715.2,477.76)"
               id="g4733"
               style="fill:none;stroke:#000000;stroke-width:0.60000002;stroke-miterlimit:4;stroke-opacity:1;stroke-dasharray:none">
              <path
                 sodipodi:nodetypes="cc"
                 inkscape:connector-curvature="0"
                 id="path4735"
                 style="fill:none;stroke:#000000;stroke-width:0.60000002;stroke-linecap:round;stroke-linejoin:round;stroke-miterlimit:4;stroke-opacity:1;stroke-dasharray:none"
                 d="m 0.10416667,-23.9375 c 12.70255033,0 23.93750033,11.3912 23.93750033,24.09375" />
            </g>
            <g
               transform="matrix(0,0.12,-0.12,0,773.4,16.60001)"
               id="g4737"
               style="fill:none;stroke:#000000;stroke-width:0.60000002;stroke-miterlimit:4;stroke-opacity:1;stroke-dasharray:none">
              <path
                 inkscape:connector-curvature="0"
                 id="path4739"
                 style="fill:none;stroke:#000000;stroke-width:0.60000002;stroke-linecap:round;stroke-linejoin:round;stroke-miterlimit:4;stroke-opacity:1;stroke-dasharray:none"
                 d="m 3867,485 0,1063" />
            </g>
            <g
               transform="matrix(0,0.12,-0.12,0,587.64,484.96)"
               id="g4741"
               style="fill:none;stroke:#000000;stroke-width:0.60000002;stroke-miterlimit:4;stroke-opacity:1;stroke-dasharray:none">
              <path
                 inkscape:connector-curvature="0"
                 id="path4743"
                 style="fill:none;stroke:#000000;stroke-width:0.60000002;stroke-linecap:round;stroke-linejoin:round;stroke-miterlimit:4;stroke-opacity:1;stroke-dasharray:none"
                 d="M -1.529898e-6,35 C -19.32997,35 -35,19.32996 -35,-1.529899e-6 c 0,-4.74114e-7 0,-1.055785e-6 0,-1.529899e-6" />
            </g>
            <g
               transform="matrix(0,0.12,-0.12,0,773.4,16.60001)"
               id="g4745"
               style="fill:none;stroke:#000000;stroke-width:0.60000002;stroke-miterlimit:4;stroke-opacity:1;stroke-dasharray:none">
              <path
                 inkscape:connector-curvature="0"
                 id="path4747"
                 style="fill:none;stroke:#000000;stroke-width:0.60000002;stroke-linecap:round;stroke-linejoin:round;stroke-miterlimit:4;stroke-opacity:1;stroke-dasharray:none"
                 d="m 3903,1584 15,0" />
            </g>
            <g
               transform="matrix(0,0.12,-0.12,0,580.44,486.76)"
               id="g4749"
               style="fill:none;stroke:#000000;stroke-width:0.60000002;stroke-miterlimit:4;stroke-opacity:1;stroke-dasharray:none">
              <path
                 inkscape:connector-curvature="0"
                 id="path4751"
                 style="fill:none;stroke:#000000;stroke-width:0.60000002;stroke-linecap:round;stroke-linejoin:round;stroke-miterlimit:4;stroke-opacity:1;stroke-dasharray:none"
                 d="m 0,-23 c 12.70255,0 23,10.29745 23,23 0,1.528141e-6 0,2.767581e-6 0,4.021448e-6" />
            </g>
            <g
               transform="matrix(0,0.12,-0.12,0,773.4,16.60001)"
               id="g4753"
               style="fill:none;stroke:#000000;stroke-width:0.60000002;stroke-miterlimit:4;stroke-opacity:1;stroke-dasharray:none">
              <path
                 inkscape:connector-curvature="0"
                 id="path4755"
                 style="fill:none;stroke:#000000;stroke-width:0.60000002;stroke-linecap:round;stroke-linejoin:round;stroke-miterlimit:4;stroke-opacity:1;stroke-dasharray:none"
                 d="m 3942,1608 0,390" />
            </g>
            <g
               transform="matrix(0,0.12,-0.12,0,533.64,493.96)"
               id="g4757"
               style="fill:none;stroke:#000000;stroke-width:0.60000002;stroke-miterlimit:4;stroke-opacity:1;stroke-dasharray:none">
              <path
                 inkscape:connector-curvature="0"
                 id="path4759"
                 style="fill:none;stroke:#000000;stroke-width:0.60000002;stroke-linecap:round;stroke-linejoin:round;stroke-miterlimit:4;stroke-opacity:1;stroke-dasharray:none"
                 d="M -13.125,32.44587 C -26.34625,27.09761 -35,14.26202 -35,-3.059797e-6" />
            </g>
            <g
               transform="matrix(0,0.12,-0.12,0,527.04,491.2)"
               id="g4761"
               style="fill:none;stroke:#000000;stroke-width:0.60000002;stroke-miterlimit:4;stroke-opacity:1;stroke-dasharray:none">
              <path
                 inkscape:connector-curvature="0"
                 id="path4763"
                 style="fill:none;stroke:#000000;stroke-width:0.60000002;stroke-linecap:round;stroke-linejoin:round;stroke-miterlimit:4;stroke-opacity:1;stroke-dasharray:none"
                 d="M 8.624996,-21.32157 C 17.31325,-17.807 23,-9.372183 23,4.021448e-6" />
            </g>
            <g
               transform="matrix(0,0.12,-0.12,0,773.4,16.60001)"
               id="g4765"
               style="fill:none;stroke:#000000;stroke-width:0.60000002;stroke-miterlimit:4;stroke-opacity:1;stroke-dasharray:none">
              <path
                 inkscape:connector-curvature="0"
                 id="path4767"
                 style="fill:none;stroke:#000000;stroke-width:0.60000002;stroke-linecap:round;stroke-linejoin:round;stroke-miterlimit:4;stroke-opacity:1;stroke-dasharray:none"
                 d="m 3979,2053 0,423" />
            </g>
            <g
               transform="matrix(0,0.12,-0.12,0,476.28,491.2)"
               id="g4769"
               style="fill:none;stroke:#000000;stroke-width:0.60000002;stroke-miterlimit:4;stroke-opacity:1;stroke-dasharray:none">
              <path
                 inkscape:connector-curvature="0"
                 id="path4771"
                 style="fill:none;stroke:#000000;stroke-width:0.60000002;stroke-linecap:round;stroke-linejoin:round;stroke-miterlimit:4;stroke-opacity:1;stroke-dasharray:none"
                 d="M 23,4.021449e-6 C 23,9.372187 17.31324,17.807 8.624998,21.32157" />
            </g>
            <g
               transform="matrix(0,0.12,-0.12,0,469.56,493.96)"
               id="g4773"
               style="fill:none;stroke:#000000;stroke-width:0.60000002;stroke-miterlimit:4;stroke-opacity:1;stroke-dasharray:none">
              <path
                 inkscape:connector-curvature="0"
                 id="path4775"
                 style="fill:none;stroke:#000000;stroke-width:0.60000002;stroke-linecap:round;stroke-linejoin:round;stroke-miterlimit:4;stroke-opacity:1;stroke-dasharray:none"
                 d="M -35,-3.059797e-6 C -35,-14.26202 -26.34624,-27.09762 -13.12499,-32.44587" />
            </g>
            <g
               transform="matrix(0,0.12,-0.12,0,773.4,16.60001)"
               id="g4777"
               style="fill:none;stroke:#000000;stroke-width:0.60000002;stroke-miterlimit:4;stroke-opacity:1;stroke-dasharray:none">
              <path
                 inkscape:connector-curvature="0"
                 id="path4779"
                 style="fill:none;stroke:#000000;stroke-width:0.60000002;stroke-linecap:round;stroke-linejoin:round;stroke-miterlimit:4;stroke-opacity:1;stroke-dasharray:none"
                 d="m 3942,2532 0,398" />
            </g>
            <g
               transform="matrix(0,0.12,-0.12,0,421.8,486.76)"
               id="g4781"
               style="fill:none;stroke:#000000;stroke-width:0.60000002;stroke-miterlimit:4;stroke-opacity:1;stroke-dasharray:none">
              <path
                 inkscape:connector-curvature="0"
                 id="path4783"
                 style="fill:none;stroke:#000000;stroke-width:0.60000002;stroke-linecap:round;stroke-linejoin:round;stroke-miterlimit:4;stroke-opacity:1;stroke-dasharray:none"
                 d="M 23,4.021448e-6 C 23,8.217111 18.61622,15.81003 11.5,19.91858" />
            </g>
            <g
               transform="matrix(0,0.12,-0.12,0,415.56,490.36)"
               id="g4785"
               style="fill:none;stroke:#000000;stroke-width:0.60000002;stroke-miterlimit:4;stroke-opacity:1;stroke-dasharray:none">
              <path
                 inkscape:connector-curvature="0"
                 id="path4787"
                 style="fill:none;stroke:#000000;stroke-width:0.60000002;stroke-linecap:round;stroke-linejoin:round;stroke-miterlimit:4;stroke-opacity:1;stroke-dasharray:none"
                 d="M -35,-3.059797e-6 C -35,-12.5043 -28.32904,-24.05874 -17.5,-30.31089" />
            </g>
            <g
               transform="matrix(0,0.12,-0.12,0,773.4,16.60001)"
               id="g4789"
               style="fill:none;stroke:#000000;stroke-width:0.60000002;stroke-miterlimit:4;stroke-opacity:1;stroke-dasharray:none">
              <path
                 inkscape:connector-curvature="0"
                 id="path4791"
                 style="fill:none;stroke:#000000;stroke-width:0.60000002;stroke-linecap:round;stroke-linejoin:round;stroke-miterlimit:4;stroke-opacity:1;stroke-dasharray:none"
                 d="m 3912,2982 0,840" />
            </g>
            <g
               transform="matrix(0,0.12,-0.12,0,314.76,483.16)"
               id="g4793"
               style="fill:none;stroke:#000000;stroke-width:0.60000002;stroke-miterlimit:4;stroke-opacity:1;stroke-dasharray:none">
              <path
                 sodipodi:nodetypes="cc"
                 inkscape:connector-curvature="0"
                 id="path4795"
                 style="fill:none;stroke:#000000;stroke-width:0.60000002;stroke-linecap:round;stroke-linejoin:round;stroke-miterlimit:4;stroke-opacity:1;stroke-dasharray:none"
                 d="M 23.953815,-0.20080321 C 23.953815,12.501747 12.70255,24.004016 0,24.004016" />
            </g>
            <g
               transform="matrix(0,0.12,-0.12,0,773.4,16.60001)"
               id="g4797"
               style="fill:none;stroke:#000000;stroke-width:0.60000002;stroke-miterlimit:4;stroke-opacity:1;stroke-dasharray:none">
              <path
                 sodipodi:nodetypes="cc"
                 inkscape:connector-curvature="0"
                 id="path4799"
                 style="fill:none;stroke:#000000;stroke-width:0.60000002;stroke-linecap:round;stroke-linejoin:round;stroke-miterlimit:4;stroke-opacity:1;stroke-dasharray:none"
                 d="m 3888,3846 -1129.1448,0" />
            </g>
            <g
               transform="matrix(0,0.12,-0.12,0,314.76,271.48)"
               id="g4801"
               style="fill:none;stroke:#000000;stroke-width:0.60000002;stroke-miterlimit:4;stroke-opacity:1;stroke-dasharray:none" />
            <g
               transform="matrix(0,0.12,-0.12,0,773.4,16.60001)"
               id="g4805"
               style="fill:none;stroke:#000000;stroke-width:0.60000002;stroke-miterlimit:4;stroke-opacity:1;stroke-dasharray:none" />
            <g
               transform="matrix(0,0.12,-0.12,0,350.4,265.72)"
               id="g4809"
               style="fill:none;stroke:#000000;stroke-width:0.60000002;stroke-miterlimit:4;stroke-opacity:1;stroke-dasharray:none" />
            <g
               transform="matrix(0,0.12,-0.12,0,773.4,16.60001)"
               id="g4813"
               style="fill:none;stroke:#000000;stroke-width:0.60000002;stroke-miterlimit:4;stroke-opacity:1;stroke-dasharray:none" />
            <g
               transform="matrix(0,0.12,-0.12,0,773.4,16.60001)"
               id="g4817"
               style="fill:none;stroke:#000000;stroke-width:0.60000002;stroke-miterlimit:4;stroke-opacity:1;stroke-dasharray:none">
              <path
                 inkscape:connector-curvature="0"
                 id="path4819"
                 style="fill:none;stroke:#000000;stroke-width:0.60000002;stroke-linecap:round;stroke-linejoin:round;stroke-miterlimit:4;stroke-opacity:1;stroke-dasharray:none"
                 d="m 4451,790 -460,0 0,774 47,0 0,950 304,0 0,-283 109,0 0,-1441" />
            </g>
          </g>
        </g>
      </g>
      <path
         transform="translate(0,-27.63783)"
         inkscape:connector-curvature="0"
         id="path4420"
         d="m 570.10484,393.79706 31.5215,0.0221"
         style="fill:none;stroke:#000000;stroke-width:0.09;stroke-linecap:butt;stroke-linejoin:miter;stroke-opacity:1;stroke-miterlimit:4;stroke-dasharray:none" />
    </g>
  </g>
</svg>
