<?xml version="1.0" encoding="UTF-8" standalone="no"?>
<!-- Created with Inkscape (http://www.inkscape.org/) -->

<svg
   xmlns:dc="http://purl.org/dc/elements/1.1/"
   xmlns:cc="http://creativecommons.org/ns#"
   xmlns:rdf="http://www.w3.org/1999/02/22-rdf-syntax-ns#"
   xmlns:svg="http://www.w3.org/2000/svg"
   xmlns="http://www.w3.org/2000/svg"
   xmlns:sodipodi="http://sodipodi.sourceforge.net/DTD/sodipodi-0.dtd"
   xmlns:inkscape="http://www.inkscape.org/namespaces/inkscape"
   width="24in"
   height="12in"
   viewBox="0 0 2160 1080"
   id="svg2"
   version="1.1"
   inkscape:version="0.48.5 r10040"
   sodipodi:docname="top spacer with lines.svg">
  <defs
     id="defs4">
    <clipPath
       id="clipPath7279"
       clipPathUnits="userSpaceOnUse">
      <path
         inkscape:connector-curvature="0"
         id="path7281"
         d="m 825.16,16.84006 -10e-5,561.24004 -808.19995,-10e-5 2e-5,-561.23997 808.20003,3e-5 z" />
    </clipPath>
    <clipPath
       id="clipPath8307"
       clipPathUnits="userSpaceOnUse">
      <path
         inkscape:connector-curvature="0"
         id="path8309"
         d="m 773.4,16.60001 0,578.75999 -754.8,0 2e-5,-578.76002 754.79998,3e-5 z" />
    </clipPath>
    <clipPath
       id="clipPath8795"
       clipPathUnits="userSpaceOnUse">
      <path
         inkscape:connector-curvature="0"
         id="path8797"
         d="m 773.4,16.60001 0,578.75999 -754.8,0 2e-5,-578.76002 754.79998,3e-5 z" />
    </clipPath>
    <clipPath
       id="clipPath4837"
       clipPathUnits="userSpaceOnUse">
      <path
         inkscape:connector-curvature="0"
         id="path4839"
         d="m 825.16,16.84006 -10e-5,561.24004 -808.19995,-10e-5 2e-5,-561.23997 808.20003,3e-5 z" />
    </clipPath>
    <clipPath
       id="clipPath7279-6"
       clipPathUnits="userSpaceOnUse">
      <path
         inkscape:connector-curvature="0"
         id="path7281-0"
         d="m 825.16,16.84006 -10e-5,561.24004 -808.19995,-10e-5 2e-5,-561.23997 808.20003,3e-5 z" />
    </clipPath>
    <clipPath
       id="clipPath8307-2"
       clipPathUnits="userSpaceOnUse">
      <path
         inkscape:connector-curvature="0"
         id="path8309-4"
         d="m 773.4,16.60001 0,578.75999 -754.8,0 2e-5,-578.76002 754.79998,3e-5 z" />
    </clipPath>
    <clipPath
       id="clipPath8795-8"
       clipPathUnits="userSpaceOnUse">
      <path
         inkscape:connector-curvature="0"
         id="path8797-6"
         d="m 773.4,16.60001 0,578.75999 -754.8,0 2e-5,-578.76002 754.79998,3e-5 z" />
    </clipPath>
    <clipPath
       id="clipPath4837-5"
       clipPathUnits="userSpaceOnUse">
      <path
         inkscape:connector-curvature="0"
         id="path4839-0"
         d="m 825.16,16.84006 -10e-5,561.24004 -808.19995,-10e-5 2e-5,-561.23997 808.20003,3e-5 z" />
    </clipPath>
    <clipPath
       id="clipPath8307-5-9"
       clipPathUnits="userSpaceOnUse">
      <path
         inkscape:connector-curvature="0"
         id="path8309-8-0"
         d="m 773.4,16.60001 0,578.75999 -754.8,0 2e-5,-578.76002 754.79998,3e-5 z" />
    </clipPath>
    <clipPath
       id="clipPath8795-0-0"
       clipPathUnits="userSpaceOnUse">
      <path
         inkscape:connector-curvature="0"
         id="path8797-1-6"
         d="m 773.4,16.60001 0,578.75999 -754.8,0 2e-5,-578.76002 754.79998,3e-5 z" />
    </clipPath>
    <clipPath
       id="clipPath8795-0-8-1"
       clipPathUnits="userSpaceOnUse">
      <path
         inkscape:connector-curvature="0"
         id="path8797-1-0-3"
         d="m 773.4,16.60001 0,578.75999 -754.8,0 2e-5,-578.76002 754.79998,3e-5 z" />
    </clipPath>
    <clipPath
       id="clipPath8795-0-7-8"
       clipPathUnits="userSpaceOnUse">
      <path
         inkscape:connector-curvature="0"
         id="path8797-1-9-9"
         d="m 773.4,16.60001 0,578.75999 -754.8,0 2e-5,-578.76002 754.79998,3e-5 z" />
    </clipPath>
    <clipPath
       clipPathUnits="userSpaceOnUse"
       id="clipPath8795-0-7">
      <path
         d="m 773.4,16.60001 0,578.75999 -754.8,0 2e-5,-578.76002 754.79998,3e-5 z"
         id="path8797-1-9"
         inkscape:connector-curvature="0" />
    </clipPath>
    <clipPath
       clipPathUnits="userSpaceOnUse"
       id="clipPath8795-0-8">
      <path
         d="m 773.4,16.60001 0,578.75999 -754.8,0 2e-5,-578.76002 754.79998,3e-5 z"
         id="path8797-1-0"
         inkscape:connector-curvature="0" />
    </clipPath>
    <clipPath
       clipPathUnits="userSpaceOnUse"
       id="clipPath8795-0">
      <path
         d="m 773.4,16.60001 0,578.75999 -754.8,0 2e-5,-578.76002 754.79998,3e-5 z"
         id="path8797-1"
         inkscape:connector-curvature="0" />
    </clipPath>
    <clipPath
       clipPathUnits="userSpaceOnUse"
       id="clipPath8307-5">
      <path
         d="m 773.4,16.60001 0,578.75999 -754.8,0 2e-5,-578.76002 754.79998,3e-5 z"
         id="path8309-8"
         inkscape:connector-curvature="0" />
    </clipPath>
    <clipPath
       clipPathUnits="userSpaceOnUse"
       id="clipPath4837-55">
      <path
         d="m 825.16,16.84006 -10e-5,561.24004 -808.19995,-10e-5 2e-5,-561.23997 808.20003,3e-5 z"
         id="path4839-1"
         inkscape:connector-curvature="0" />
    </clipPath>
    <clipPath
       clipPathUnits="userSpaceOnUse"
       id="clipPath8795-2">
      <path
         d="m 773.4,16.60001 0,578.75999 -754.8,0 2e-5,-578.76002 754.79998,3e-5 z"
         id="path8797-4"
         inkscape:connector-curvature="0" />
    </clipPath>
    <clipPath
       clipPathUnits="userSpaceOnUse"
       id="clipPath8307-4">
      <path
         d="m 773.4,16.60001 0,578.75999 -754.8,0 2e-5,-578.76002 754.79998,3e-5 z"
         id="path8309-88"
         inkscape:connector-curvature="0" />
    </clipPath>
    <clipPath
       clipPathUnits="userSpaceOnUse"
       id="clipPath7279-4">
      <path
         d="m 825.16,16.84006 -10e-5,561.24004 -808.19995,-10e-5 2e-5,-561.23997 808.20003,3e-5 z"
         id="path7281-09"
         inkscape:connector-curvature="0" />
    </clipPath>
  </defs>
  <sodipodi:namedview
     id="base"
     pagecolor="#ffffff"
     bordercolor="#666666"
     borderopacity="1.0"
     inkscape:pageopacity="0.0"
     inkscape:pageshadow="2"
     inkscape:zoom="2.0000001"
     inkscape:cx="741.15073"
     inkscape:cy="590.15119"
     inkscape:document-units="in"
     inkscape:current-layer="layer1"
     showgrid="false"
     units="in"
     inkscape:window-width="1920"
     inkscape:window-height="1017"
     inkscape:window-x="-8"
     inkscape:window-y="-8"
     inkscape:window-maximized="1" />
  <metadata
     id="metadata7">
    <rdf:RDF>
      <cc:Work
         rdf:about="">
        <dc:format>image/svg+xml</dc:format>
        <dc:type
           rdf:resource="http://purl.org/dc/dcmitype/StillImage" />
        <dc:title></dc:title>
      </cc:Work>
    </rdf:RDF>
  </metadata>
  <g
     inkscape:label="Layer 1"
     inkscape:groupmode="layer"
     id="layer1"
     transform="translate(0,27.63783)">
    <text
       xml:space="preserve"
       style="color:#000000;font-style:normal;font-variant:normal;font-weight:normal;font-stretch:normal;font-size:40px;line-height:125%;font-family:Meiryo;-inkscape-font-specification:Meiryo;text-indent:0;text-align:start;text-decoration:none;text-decoration-line:none;letter-spacing:0px;word-spacing:0px;text-transform:none;direction:ltr;block-progression:tb;writing-mode:lr-tb;baseline-shift:baseline;text-anchor:start;display:inline;overflow:visible;visibility:visible;fill:none;fill-opacity:1;fill-rule:nonzero;stroke:#000000;stroke-width:1px;stroke-linecap:butt;stroke-linejoin:miter;stroke-opacity:1;marker:none;enable-background:accumulate;"
       x="-127.21381"
       y="770.49512"
       id="text4135"
       sodipodi:linespacing="125%"><tspan
         sodipodi:role="line"
         id="tspan4137"
         x="-127.21381"
         y="770.49512" /></text>
    <g
       style="fill:none;stroke:#000000;stroke-width:0.072;stroke-miterlimit:4;stroke-opacity:1;stroke-dasharray:none"
       id="g4505"
       inkscape:label="ErgoDOX Case Layer 2 Spacer - Right"
       transform="matrix(1.25,0,0,-1.25,211.78146,800.76515)">
      <g
         style="fill:none;stroke:#000000;stroke-width:0.072;stroke-miterlimit:4;stroke-opacity:1;stroke-dasharray:none"
         id="g4507" />
      <g
         style="fill:none;stroke:#000000;stroke-width:0.072;stroke-miterlimit:4;stroke-opacity:1;stroke-dasharray:none"
         id="g4509">
        <g
           style="fill:none;stroke:#000000;stroke-width:0.072;stroke-miterlimit:4;stroke-opacity:1;stroke-dasharray:none"
           id="g4511"
           clip-path="url(#clipPath8307)">
          <g
             style="fill:none;stroke:#000000;stroke-width:0.60000002;stroke-miterlimit:4;stroke-opacity:1;stroke-dasharray:none"
             id="g4513"
             transform="matrix(0,0.12,-0.12,0,456,564.04)" />
          <g
             style="fill:none;stroke:#000000;stroke-width:0.60000002;stroke-miterlimit:4;stroke-opacity:1;stroke-dasharray:none"
             id="g4517"
             transform="matrix(0,0.12,-0.12,0,304.44,558.88)" />
          <g
             style="fill:none;stroke:#000000;stroke-width:0.60000002;stroke-miterlimit:4;stroke-opacity:1;stroke-dasharray:none"
             id="g4521"
             transform="matrix(0,0.12,-0.12,0,186.12,254.08)">
            <path
               d="M 35,0 C 35,19.32997 19.32997,35 0,35 -19.32997,35 -35,19.32997 -35,0 c 0,-19.32997 15.67003,-35 35,-35 19.32997,0 35,15.67003 35,35 z"
               style="fill:none;stroke:#000000;stroke-width:0.60000002;stroke-linecap:butt;stroke-linejoin:miter;stroke-miterlimit:4;stroke-opacity:1;stroke-dasharray:none"
               id="path4523"
               inkscape:connector-curvature="0" />
          </g>
          <g
             style="fill:none;stroke:#000000;stroke-width:0.60000002;stroke-miterlimit:4;stroke-opacity:1;stroke-dasharray:none"
             id="g4525"
             transform="matrix(0,0.12,-0.12,0,261.48,92.43998)">
            <path
               d="M 35,0 C 35,19.32997 19.32997,35 0,35 -19.32997,35 -35,19.32997 -35,0 c 0,-19.32997 15.67003,-35 35,-35 19.32997,0 35,15.67003 35,35 z"
               style="fill:none;stroke:#000000;stroke-width:0.60000002;stroke-linecap:butt;stroke-linejoin:miter;stroke-miterlimit:4;stroke-opacity:1;stroke-dasharray:none"
               id="path4527"
               inkscape:connector-curvature="0" />
          </g>
          <g
             style="fill:none;stroke:#000000;stroke-width:0.60000002;stroke-miterlimit:4;stroke-opacity:1;stroke-dasharray:none"
             id="g4529"
             transform="matrix(0,0.12,-0.12,0,497.64,196.84)">
            <path
               d="M 35,0 C 35,19.32997 19.32997,35 0,35 -19.32997,35 -35,19.32997 -35,0 c 0,-19.32997 15.67003,-35 35,-35 19.32997,0 35,15.67003 35,35 z"
               style="fill:none;stroke:#000000;stroke-width:0.60000002;stroke-linecap:butt;stroke-linejoin:miter;stroke-miterlimit:4;stroke-opacity:1;stroke-dasharray:none"
               id="path4531"
               inkscape:connector-curvature="0" />
          </g>
          <g
             style="fill:none;stroke:#000000;stroke-width:0.60000002;stroke-miterlimit:4;stroke-opacity:1;stroke-dasharray:none"
             id="g4533"
             transform="matrix(0,0.12,-0.12,0,725.52,206.44)" />
          <g
             style="fill:none;stroke:#000000;stroke-width:0.60000002;stroke-miterlimit:4;stroke-opacity:1;stroke-dasharray:none"
             id="g4537"
             transform="matrix(0,0.12,-0.12,0,725.52,558.88)" />
          <g
             style="fill:none;stroke:#000000;stroke-width:0.60000002;stroke-miterlimit:4;stroke-opacity:1;stroke-dasharray:none"
             id="g4541"
             transform="matrix(0,0.12,-0.12,0,456,564.04)" />
          <g
             style="fill:none;stroke:#000000;stroke-width:0.60000002;stroke-miterlimit:4;stroke-opacity:1;stroke-dasharray:none"
             id="g4545"
             transform="matrix(0,0.12,-0.12,0,773.4,16.60001)" />
          <g
             style="fill:none;stroke:#000000;stroke-width:0.60000002;stroke-miterlimit:4;stroke-opacity:1;stroke-dasharray:none"
             id="g4549"
             transform="matrix(0,0.12,-0.12,0,306.48,556.72)" />
          <g
             style="fill:none;stroke:#000000;stroke-width:0.60000002;stroke-miterlimit:4;stroke-opacity:1;stroke-dasharray:none"
             id="g4553"
             transform="matrix(0,0.12,-0.12,0,773.4,16.60001)">
            <path
               d="M 2759.0025,4056 2638,4056"
               style="fill:none;stroke:#000000;stroke-width:0.60000002;stroke-linecap:round;stroke-linejoin:round;stroke-miterlimit:4;stroke-opacity:1;stroke-dasharray:none"
               id="path4555"
               inkscape:connector-curvature="0"
               sodipodi:nodetypes="cc" />
          </g>
          <g
             style="fill:none;stroke:#000000;stroke-width:0.60000002;stroke-miterlimit:4;stroke-opacity:1;stroke-dasharray:none"
             id="g4557"
             transform="matrix(0,0.12,-0.12,0,266.88,333.16)">
            <path
               d="M -150.09553,-69.763958 C -122.99653,-127.88283 -64.1261,-165 1.967605e-6,-165"
               style="fill:none;stroke:#000000;stroke-width:0.60000002;stroke-linecap:round;stroke-linejoin:round;stroke-miterlimit:4;stroke-opacity:1;stroke-dasharray:none"
               id="path4559"
               inkscape:connector-curvature="0"
               sodipodi:nodetypes="cc" />
          </g>
          <g
             style="fill:none;stroke:#000000;stroke-width:0.60000002;stroke-miterlimit:4;stroke-opacity:1;stroke-dasharray:none"
             id="g4561"
             transform="matrix(0,0.12,-0.12,0,773.4,16.60001)">
            <path
               d="m 2488,4151 -368,789"
               style="fill:none;stroke:#000000;stroke-width:0.60000002;stroke-linecap:round;stroke-linejoin:round;stroke-miterlimit:4;stroke-opacity:1;stroke-dasharray:none"
               id="path4563"
               inkscape:connector-curvature="0" />
          </g>
          <g
             style="fill:none;stroke:#000000;stroke-width:0.60000002;stroke-miterlimit:4;stroke-opacity:1;stroke-dasharray:none"
             id="g4565"
             transform="matrix(0,0.12,-0.12,0,188.88,253)">
            <path
               d="M 150.0587,68.99055 C 111.5494,151.58093 12.715916,187.5367 -69.874434,149.0275"
               style="fill:none;stroke:#000000;stroke-width:0.60000002;stroke-linecap:round;stroke-linejoin:round;stroke-miterlimit:4;stroke-opacity:1;stroke-dasharray:none"
               id="path4567"
               inkscape:connector-curvature="0"
               sodipodi:nodetypes="cc" />
          </g>
          <g
             style="fill:none;stroke:#000000;stroke-width:0.60000002;stroke-miterlimit:4;stroke-opacity:1;stroke-dasharray:none"
             id="g4569"
             transform="matrix(0,0.12,-0.12,0,773.4,16.60001)">
            <path
               d="M 1900,5020 585,4407"
               style="fill:none;stroke:#000000;stroke-width:0.60000002;stroke-linecap:round;stroke-linejoin:round;stroke-miterlimit:4;stroke-opacity:1;stroke-dasharray:none"
               id="path4571"
               inkscape:connector-curvature="0" />
          </g>
          <g
             style="fill:none;stroke:#000000;stroke-width:0.60000002;stroke-miterlimit:4;stroke-opacity:1;stroke-dasharray:none"
             id="g4573"
             transform="matrix(0,0.12,-0.12,0,262.56,95.19998)">
            <path
               d="M -69.878844,150.0566 C -152.46351,111.5471 -188.5652,12.646719 -150.062,-69.940971"
               style="fill:none;stroke:#000000;stroke-width:0.60000002;stroke-linecap:round;stroke-linejoin:round;stroke-miterlimit:4;stroke-opacity:1;stroke-dasharray:none"
               id="path4575"
               inkscape:connector-curvature="0"
               sodipodi:nodetypes="cc" />
          </g>
          <g
             style="fill:none;stroke:#000000;stroke-width:0.60000002;stroke-miterlimit:4;stroke-opacity:1;stroke-dasharray:none"
             id="g4577"
             transform="matrix(0,0.12,-0.12,0,773.4,16.60001)">
            <path
               d="M 505,4187 1381,2308"
               style="fill:none;stroke:#000000;stroke-width:0.60000002;stroke-linecap:round;stroke-linejoin:round;stroke-miterlimit:4;stroke-opacity:1;stroke-dasharray:none"
               id="path4579"
               inkscape:connector-curvature="0" />
          </g>
          <g
             style="fill:none;stroke:#000000;stroke-width:0.60000002;stroke-miterlimit:4;stroke-opacity:1;stroke-dasharray:none"
             id="g4581"
             transform="matrix(0,0.12,-0.12,0,504.84,164.44)">
            <path
               d="M 165,2.884952e-5 C 165,24.08948 159.7253,47.88677 149.5464,69.72005"
               style="fill:none;stroke:#000000;stroke-width:0.60000002;stroke-linecap:round;stroke-linejoin:round;stroke-miterlimit:4;stroke-opacity:1;stroke-dasharray:none"
               id="path4583"
               inkscape:connector-curvature="0" />
          </g>
          <g
             style="fill:none;stroke:#000000;stroke-width:0.60000002;stroke-miterlimit:4;stroke-opacity:1;stroke-dasharray:none"
             id="g4585"
             transform="matrix(0,0.12,-0.12,0,773.4,16.60001)">
            <path
               d="m 1397,2238 0,-80.8371"
               style="fill:none;stroke:#000000;stroke-width:0.60000002;stroke-linecap:round;stroke-linejoin:round;stroke-miterlimit:4;stroke-opacity:1;stroke-dasharray:none"
               id="path4587"
               inkscape:connector-curvature="0"
               sodipodi:nodetypes="cc" />
          </g>
          <g
             style="fill:none;stroke:#000000;stroke-width:0.60000002;stroke-miterlimit:4;stroke-opacity:1;stroke-dasharray:none"
             id="g4589"
             transform="matrix(0,0.12,-0.12,0,723.36,204.04)" />
          <g
             style="fill:none;stroke:#000000;stroke-width:0.60000002;stroke-miterlimit:4;stroke-opacity:1;stroke-dasharray:none"
             id="g4593"
             transform="matrix(0,0.12,-0.12,0,773.4,16.60001)" />
          <g
             style="fill:none;stroke:#000000;stroke-width:0.60000002;stroke-miterlimit:4;stroke-opacity:1;stroke-dasharray:none"
             id="g4597"
             transform="matrix(0,0.12,-0.12,0,723.36,556.72)" />
          <g
             style="fill:none;stroke:#000000;stroke-width:0.60000002;stroke-miterlimit:4;stroke-opacity:1;stroke-dasharray:none"
             id="g4601"
             transform="matrix(0,0.12,-0.12,0,773.4,16.60001)" />
          <g
             style="fill:none;stroke:#000000;stroke-width:0.60000002;stroke-miterlimit:4;stroke-opacity:1;stroke-dasharray:none"
             id="g4605"
             transform="matrix(0,0.12,-0.12,0,320.16,253.12)">
            <path
               d="M -14.79164,31.72077 C -32.31054,23.55157 -39.88997,2.727259 -31.72077,-14.79164"
               style="fill:none;stroke:#000000;stroke-width:0.60000002;stroke-linecap:round;stroke-linejoin:round;stroke-miterlimit:4;stroke-opacity:1;stroke-dasharray:none"
               id="path4607"
               inkscape:connector-curvature="0" />
          </g>
          <g
             style="fill:none;stroke:#000000;stroke-width:0.60000002;stroke-miterlimit:4;stroke-opacity:1;stroke-dasharray:none"
             id="g4609"
             transform="matrix(0,0.12,-0.12,0,773.4,16.60001)">
            <path
               d="m 1956,3810 354,165"
               style="fill:none;stroke:#000000;stroke-width:0.60000002;stroke-linecap:round;stroke-linejoin:round;stroke-miterlimit:4;stroke-opacity:1;stroke-dasharray:none"
               id="path4611"
               inkscape:connector-curvature="0" />
          </g>
          <g
             style="fill:none;stroke:#000000;stroke-width:0.60000002;stroke-miterlimit:4;stroke-opacity:1;stroke-dasharray:none"
             id="g4613"
             transform="matrix(0,0.12,-0.12,0,293.88,292.48)">
            <path
               d="m 9.720218,-20.84508 c 11.512422,5.36833 16.493192,19.052879 11.124862,30.565298 0,2e-6 0,3e-6 0,4e-6"
               style="fill:none;stroke:#000000;stroke-width:0.60000002;stroke-linecap:round;stroke-linejoin:round;stroke-miterlimit:4;stroke-opacity:1;stroke-dasharray:none"
               id="path4615"
               inkscape:connector-curvature="0" />
          </g>
          <g
             style="fill:none;stroke:#000000;stroke-width:0.60000002;stroke-miterlimit:4;stroke-opacity:1;stroke-dasharray:none"
             id="g4617"
             transform="matrix(0,0.12,-0.12,0,773.4,16.60001)">
            <path
               d="m 2321,4006 -365,783"
               style="fill:none;stroke:#000000;stroke-width:0.60000002;stroke-linecap:round;stroke-linejoin:round;stroke-miterlimit:4;stroke-opacity:1;stroke-dasharray:none"
               id="path4619"
               inkscape:connector-curvature="0" />
          </g>
          <g
             style="fill:none;stroke:#000000;stroke-width:0.60000002;stroke-miterlimit:4;stroke-opacity:1;stroke-dasharray:none"
             id="g4621"
             transform="matrix(0,0.12,-0.12,0,199.92,248.68)">
            <path
               d="M 21.876277,10.088505 C 16.507947,21.600925 1.4239142,27.391921 -10.088505,22.023591"
               style="fill:none;stroke:#000000;stroke-width:0.60000002;stroke-linecap:round;stroke-linejoin:round;stroke-miterlimit:4;stroke-opacity:1;stroke-dasharray:none"
               id="path4623"
               inkscape:connector-curvature="0"
               sodipodi:nodetypes="cc" />
          </g>
          <g
             style="fill:none;stroke:#000000;stroke-width:0.60000002;stroke-miterlimit:4;stroke-opacity:1;stroke-dasharray:none"
             id="g4625"
             transform="matrix(0,0.12,-0.12,0,773.4,16.60001)">
            <path
               d="M 1924,4801 733,4246"
               style="fill:none;stroke:#000000;stroke-width:0.60000002;stroke-linecap:round;stroke-linejoin:round;stroke-miterlimit:4;stroke-opacity:1;stroke-dasharray:none"
               id="path4627"
               inkscape:connector-curvature="0" />
          </g>
          <g
             style="fill:none;stroke:#000000;stroke-width:0.60000002;stroke-miterlimit:4;stroke-opacity:1;stroke-dasharray:none"
             id="g4629"
             transform="matrix(0,0.12,-0.12,0,266.52,105.88)">
            <path
               d="M -10.825076,22.170905 C -22.337494,16.802575 -27.244607,1.4239142 -21.876277,-10.088505"
               style="fill:none;stroke:#000000;stroke-width:0.60000002;stroke-linecap:round;stroke-linejoin:round;stroke-miterlimit:4;stroke-opacity:1;stroke-dasharray:none"
               id="path4631"
               inkscape:connector-curvature="0"
               sodipodi:nodetypes="cc" />
          </g>
          <g
             style="fill:none;stroke:#000000;stroke-width:0.60000002;stroke-miterlimit:4;stroke-opacity:1;stroke-dasharray:none"
             id="g4633"
             transform="matrix(0,0.12,-0.12,0,773.4,16.60001)">
            <path
               d="M 722,4214 1277,3023"
               style="fill:none;stroke:#000000;stroke-width:0.60000002;stroke-linecap:round;stroke-linejoin:round;stroke-miterlimit:4;stroke-opacity:1;stroke-dasharray:none"
               id="path4635"
               inkscape:connector-curvature="0" />
          </g>
          <g
             style="fill:none;stroke:#000000;stroke-width:0.60000002;stroke-miterlimit:4;stroke-opacity:1;stroke-dasharray:none"
             id="g4637"
             transform="matrix(0,0.12,-0.12,0,409.44,172.48)">
            <path
               d="M -22.058569,-9.8630659 C -16.690239,-21.375486 -1.4975732,-26.360724 10.014846,-20.992394"
               style="fill:none;stroke:#000000;stroke-width:0.60000002;stroke-linecap:round;stroke-linejoin:round;stroke-miterlimit:4;stroke-opacity:1;stroke-dasharray:none"
               id="path4639"
               inkscape:connector-curvature="0"
               sodipodi:nodetypes="cc" />
          </g>
          <g
             style="fill:none;stroke:#000000;stroke-width:0.60000002;stroke-miterlimit:4;stroke-opacity:1;stroke-dasharray:none"
             id="g4641"
             transform="matrix(0,0.12,-0.12,0,773.4,16.60001)">
            <path
               d="m 1309,3012 740,344"
               style="fill:none;stroke:#000000;stroke-width:0.60000002;stroke-linecap:round;stroke-linejoin:round;stroke-miterlimit:4;stroke-opacity:1;stroke-dasharray:none"
               id="path4643"
               inkscape:connector-curvature="0" />
          </g>
          <g
             style="fill:none;stroke:#000000;stroke-width:0.60000002;stroke-miterlimit:4;stroke-opacity:1;stroke-dasharray:none"
             id="g4645"
             transform="matrix(0,0.12,-0.12,0,374.52,264.28)">
            <path
               d="M 35.994369,-0.14731391 C 35.994369,19.182656 19.32997,35 0,35 -5.110832,35 -10.270135,34.212156 -14.902125,32.052226"
               style="fill:none;stroke:#000000;stroke-width:0.60000002;stroke-linecap:round;stroke-linejoin:round;stroke-miterlimit:4;stroke-opacity:1;stroke-dasharray:none"
               id="path4647"
               inkscape:connector-curvature="0"
               sodipodi:nodetypes="csc" />
          </g>
          <g
             style="fill:none;stroke:#000000;stroke-width:0.60000002;stroke-miterlimit:4;stroke-opacity:1;stroke-dasharray:none"
             id="g4649"
             transform="matrix(0,0.12,-0.12,0,773.4,16.60001)">
            <path
               d="m 2100,3324 0,-342"
               style="fill:none;stroke:#000000;stroke-width:0.60000002;stroke-linecap:round;stroke-linejoin:round;stroke-miterlimit:4;stroke-opacity:1;stroke-dasharray:none"
               id="path4651"
               inkscape:connector-curvature="0" />
          </g>
          <g
             style="fill:none;stroke:#000000;stroke-width:0.60000002;stroke-miterlimit:4;stroke-opacity:1;stroke-dasharray:none"
             id="g4653"
             transform="matrix(0,0.12,-0.12,0,415.56,264.28)">
            <path
               d="m -0.14731391,-36.031197 c 19.32996991,0 36.14800091,16.874583 36.14800091,36.20455258"
               style="fill:none;stroke:#000000;stroke-width:0.60000002;stroke-linecap:round;stroke-linejoin:round;stroke-miterlimit:4;stroke-opacity:1;stroke-dasharray:none"
               id="path4655"
               inkscape:connector-curvature="0"
               sodipodi:nodetypes="cc" />
          </g>
          <g
             style="fill:none;stroke:#000000;stroke-width:0.60000002;stroke-miterlimit:4;stroke-opacity:1;stroke-dasharray:none"
             id="g4657"
             transform="matrix(0,0.12,-0.12,0,773.4,16.60001)">
            <path
               d="m 2064,2946 -360,0"
               style="fill:none;stroke:#000000;stroke-width:0.60000002;stroke-linecap:round;stroke-linejoin:round;stroke-miterlimit:4;stroke-opacity:1;stroke-dasharray:none"
               id="path4659"
               inkscape:connector-curvature="0" />
          </g>
          <g
             style="fill:none;stroke:#000000;stroke-width:0.60000002;stroke-miterlimit:4;stroke-opacity:1;stroke-dasharray:none"
             id="g4661"
             transform="matrix(0,0.12,-0.12,0,422.76,221.08)">
            <path
               d="M -1.0053621e-6,23.988956 C -12.70255,23.988956 -23.988956,12.63191 -23.988956,-0.07064069"
               style="fill:none;stroke:#000000;stroke-width:0.60000002;stroke-linecap:round;stroke-linejoin:round;stroke-miterlimit:4;stroke-opacity:1;stroke-dasharray:none"
               id="path4663"
               inkscape:connector-curvature="0"
               sodipodi:nodetypes="cc" />
          </g>
          <g
             style="fill:none;stroke:#000000;stroke-width:0.60000002;stroke-miterlimit:4;stroke-opacity:1;stroke-dasharray:none"
             id="g4665"
             transform="matrix(0,0.12,-0.12,0,773.4,16.60001)">
            <path
               d="m 1680,2922 0,-419"
               style="fill:none;stroke:#000000;stroke-width:0.60000002;stroke-linecap:round;stroke-linejoin:round;stroke-miterlimit:4;stroke-opacity:1;stroke-dasharray:none"
               id="path4667"
               inkscape:connector-curvature="0" />
          </g>
          <g
             style="fill:none;stroke:#000000;stroke-width:0.60000002;stroke-miterlimit:4;stroke-opacity:1;stroke-dasharray:none"
             id="g4669"
             transform="matrix(0,0.12,-0.12,0,473.04,221.08)">
            <path
               d="m -23.988956,0.14127736 c 0,-9.37218496 5.969319,-18.58404436 14.6575642,-22.09860436"
               style="fill:none;stroke:#000000;stroke-width:0.60000002;stroke-linecap:round;stroke-linejoin:round;stroke-miterlimit:4;stroke-opacity:1;stroke-dasharray:none"
               id="path4671"
               inkscape:connector-curvature="0"
               sodipodi:nodetypes="cc" />
          </g>
          <g
             style="fill:none;stroke:#000000;stroke-width:0.60000002;stroke-miterlimit:4;stroke-opacity:1;stroke-dasharray:none"
             id="g4673"
             transform="matrix(0,0.12,-0.12,0,479.64,218.32)">
            <path
               d="M 35.988956,6.1195949e-6 C 35.988956,14.26202 26.699438,27.662727 13.478198,33.010987"
               style="fill:none;stroke:#000000;stroke-width:0.60000002;stroke-linecap:round;stroke-linejoin:round;stroke-miterlimit:4;stroke-opacity:1;stroke-dasharray:none"
               id="path4675"
               inkscape:connector-curvature="0"
               sodipodi:nodetypes="cc" />
          </g>
          <g
             style="fill:none;stroke:#000000;stroke-width:0.60000002;stroke-miterlimit:4;stroke-opacity:1;stroke-dasharray:none"
             id="g4677"
             transform="matrix(0,0.12,-0.12,0,773.4,16.60001)">
            <path
               d="m 1717,2448 0,-291.1236"
               style="fill:none;stroke:#000000;stroke-width:0.60000002;stroke-linecap:round;stroke-linejoin:round;stroke-miterlimit:4;stroke-opacity:1;stroke-dasharray:none"
               id="path4679"
               inkscape:connector-curvature="0"
               sodipodi:nodetypes="cc" />
          </g>
          <g
             style="fill:none;stroke:#000000;stroke-width:0.60000002;stroke-miterlimit:4;stroke-opacity:1;stroke-dasharray:none"
             id="g4681"
             transform="matrix(0,0.12,-0.12,0,523.56,218.32)" />
          <g
             style="fill:none;stroke:#000000;stroke-width:0.60000002;stroke-miterlimit:4;stroke-opacity:1;stroke-dasharray:none"
             id="g4685"
             transform="matrix(0,0.12,-0.12,0,530.28,221.08)" />
          <g
             style="fill:none;stroke:#000000;stroke-width:0.60000002;stroke-miterlimit:4;stroke-opacity:1;stroke-dasharray:none"
             id="g4689"
             transform="matrix(0,0.12,-0.12,0,773.4,16.60001)" />
          <g
             style="fill:none;stroke:#000000;stroke-width:0.60000002;stroke-miterlimit:4;stroke-opacity:1;stroke-dasharray:none"
             id="g4693"
             transform="matrix(0,0.12,-0.12,0,577.56,213.88)" />
          <g
             style="fill:none;stroke:#000000;stroke-width:0.60000002;stroke-miterlimit:4;stroke-opacity:1;stroke-dasharray:none"
             id="g4697"
             transform="matrix(0,0.12,-0.12,0,773.4,16.60001)" />
          <g
             style="fill:none;stroke:#000000;stroke-width:0.60000002;stroke-miterlimit:4;stroke-opacity:1;stroke-dasharray:none"
             id="g4701"
             transform="matrix(0,0.12,-0.12,0,584.76,212.08)" />
          <g
             style="fill:none;stroke:#000000;stroke-width:0.60000002;stroke-miterlimit:4;stroke-opacity:1;stroke-dasharray:none"
             id="g4705"
             transform="matrix(0,0.12,-0.12,0,773.4,16.60001)" />
          <g
             style="fill:none;stroke:#000000;stroke-width:0.60000002;stroke-miterlimit:4;stroke-opacity:1;stroke-dasharray:none"
             id="g4709"
             transform="matrix(0,0.12,-0.12,0,688.44,212.08)" />
          <g
             style="fill:none;stroke:#000000;stroke-width:0.60000002;stroke-miterlimit:4;stroke-opacity:1;stroke-dasharray:none"
             id="g4713"
             transform="matrix(0,0.12,-0.12,0,773.4,16.60001)" />
          <g
             style="fill:none;stroke:#000000;stroke-width:0.60000002;stroke-miterlimit:4;stroke-opacity:1;stroke-dasharray:none"
             id="g4717"
             transform="matrix(0,0.12,-0.12,0,695.64,258.88)" />
          <g
             style="fill:none;stroke:#000000;stroke-width:0.60000002;stroke-miterlimit:4;stroke-opacity:1;stroke-dasharray:none"
             id="g4721"
             transform="matrix(0,0.12,-0.12,0,773.4,16.60001)" />
          <g
             style="fill:none;stroke:#000000;stroke-width:0.60000002;stroke-miterlimit:4;stroke-opacity:1;stroke-dasharray:none"
             id="g4725"
             transform="matrix(0,0.12,-0.12,0,715.2,265.96)" />
          <g
             style="fill:none;stroke:#000000;stroke-width:0.60000002;stroke-miterlimit:4;stroke-opacity:1;stroke-dasharray:none"
             id="g4729"
             transform="matrix(0,0.12,-0.12,0,773.4,16.60001)" />
          <g
             style="fill:none;stroke:#000000;stroke-width:0.60000002;stroke-miterlimit:4;stroke-opacity:1;stroke-dasharray:none"
             id="g4733"
             transform="matrix(0,0.12,-0.12,0,715.2,477.76)" />
          <g
             style="fill:none;stroke:#000000;stroke-width:0.60000002;stroke-miterlimit:4;stroke-opacity:1;stroke-dasharray:none"
             id="g4737"
             transform="matrix(0,0.12,-0.12,0,773.4,16.60001)" />
          <g
             style="fill:none;stroke:#000000;stroke-width:0.60000002;stroke-miterlimit:4;stroke-opacity:1;stroke-dasharray:none"
             id="g4741"
             transform="matrix(0,0.12,-0.12,0,587.64,484.96)" />
          <g
             style="fill:none;stroke:#000000;stroke-width:0.60000002;stroke-miterlimit:4;stroke-opacity:1;stroke-dasharray:none"
             id="g4745"
             transform="matrix(0,0.12,-0.12,0,773.4,16.60001)" />
          <g
             style="fill:none;stroke:#000000;stroke-width:0.60000002;stroke-miterlimit:4;stroke-opacity:1;stroke-dasharray:none"
             id="g4749"
             transform="matrix(0,0.12,-0.12,0,580.44,486.76)" />
          <g
             style="fill:none;stroke:#000000;stroke-width:0.60000002;stroke-miterlimit:4;stroke-opacity:1;stroke-dasharray:none"
             id="g4753"
             transform="matrix(0,0.12,-0.12,0,773.4,16.60001)" />
          <g
             style="fill:none;stroke:#000000;stroke-width:0.60000002;stroke-miterlimit:4;stroke-opacity:1;stroke-dasharray:none"
             id="g4757"
             transform="matrix(0,0.12,-0.12,0,533.64,493.96)" />
          <g
             style="fill:none;stroke:#000000;stroke-width:0.60000002;stroke-miterlimit:4;stroke-opacity:1;stroke-dasharray:none"
             id="g4761"
             transform="matrix(0,0.12,-0.12,0,527.04,491.2)" />
          <g
             style="fill:none;stroke:#000000;stroke-width:0.60000002;stroke-miterlimit:4;stroke-opacity:1;stroke-dasharray:none"
             id="g4765"
             transform="matrix(0,0.12,-0.12,0,773.4,16.60001)" />
          <g
             style="fill:none;stroke:#000000;stroke-width:0.60000002;stroke-miterlimit:4;stroke-opacity:1;stroke-dasharray:none"
             id="g4769"
             transform="matrix(0,0.12,-0.12,0,476.28,491.2)" />
          <g
             style="fill:none;stroke:#000000;stroke-width:0.60000002;stroke-miterlimit:4;stroke-opacity:1;stroke-dasharray:none"
             id="g4773"
             transform="matrix(0,0.12,-0.12,0,469.56,493.96)" />
          <g
             style="fill:none;stroke:#000000;stroke-width:0.60000002;stroke-miterlimit:4;stroke-opacity:1;stroke-dasharray:none"
             id="g4777"
             transform="matrix(0,0.12,-0.12,0,773.4,16.60001)" />
          <g
             style="fill:none;stroke:#000000;stroke-width:0.60000002;stroke-miterlimit:4;stroke-opacity:1;stroke-dasharray:none"
             id="g4781"
             transform="matrix(0,0.12,-0.12,0,421.8,486.76)" />
          <g
             style="fill:none;stroke:#000000;stroke-width:0.60000002;stroke-miterlimit:4;stroke-opacity:1;stroke-dasharray:none"
             id="g4785"
             transform="matrix(0,0.12,-0.12,0,415.56,490.36)" />
          <g
             style="fill:none;stroke:#000000;stroke-width:0.60000002;stroke-miterlimit:4;stroke-opacity:1;stroke-dasharray:none"
             id="g4789"
             transform="matrix(0,0.12,-0.12,0,773.4,16.60001)" />
          <g
             style="fill:none;stroke:#000000;stroke-width:0.60000002;stroke-miterlimit:4;stroke-opacity:1;stroke-dasharray:none"
             id="g4793"
             transform="matrix(0,0.12,-0.12,0,314.76,483.16)" />
          <g
             style="fill:none;stroke:#000000;stroke-width:0.60000002;stroke-miterlimit:4;stroke-opacity:1;stroke-dasharray:none"
             id="g4797"
             transform="matrix(0,0.12,-0.12,0,773.4,16.60001)">
            <path
               d="M 2758.8552,3846 2124,3846"
               style="fill:none;stroke:#000000;stroke-width:0.60000002;stroke-linecap:round;stroke-linejoin:round;stroke-miterlimit:4;stroke-opacity:1;stroke-dasharray:none"
               id="path4799"
               inkscape:connector-curvature="0"
               sodipodi:nodetypes="cc" />
          </g>
          <g
             style="fill:none;stroke:#000000;stroke-width:0.60000002;stroke-miterlimit:4;stroke-opacity:1;stroke-dasharray:none"
             id="g4801"
             transform="matrix(0,0.12,-0.12,0,314.76,271.48)">
            <path
               d="M -1.005362e-6,23 C -12.70255,23 -23,12.70255 -23,-1.005362e-6 c 0,-3.11561e-7 0,-6.93802e-7 0,-1.005362e-6"
               style="fill:none;stroke:#000000;stroke-width:0.60000002;stroke-linecap:round;stroke-linejoin:round;stroke-miterlimit:4;stroke-opacity:1;stroke-dasharray:none"
               id="path4803"
               inkscape:connector-curvature="0" />
          </g>
          <g
             style="fill:none;stroke:#000000;stroke-width:0.60000002;stroke-miterlimit:4;stroke-opacity:1;stroke-dasharray:none"
             id="g4805"
             transform="matrix(0,0.12,-0.12,0,773.4,16.60001)">
            <path
               d="m 2100,3822 0,-297"
               style="fill:none;stroke:#000000;stroke-width:0.60000002;stroke-linecap:round;stroke-linejoin:round;stroke-miterlimit:4;stroke-opacity:1;stroke-dasharray:none"
               id="path4807"
               inkscape:connector-curvature="0" />
          </g>
          <g
             style="fill:none;stroke:#000000;stroke-width:0.60000002;stroke-miterlimit:4;stroke-opacity:1;stroke-dasharray:none"
             id="g4809"
             transform="matrix(0,0.12,-0.12,0,350.4,265.72)">
            <path
               d="M -20.84508,-9.72022 C -15.47675,-21.23264 -1.792199,-26.21341 9.72022,-20.84508 17.82127,-17.0675 23,-8.938516 23,4.021448e-6"
               style="fill:none;stroke:#000000;stroke-width:0.60000002;stroke-linecap:round;stroke-linejoin:round;stroke-miterlimit:4;stroke-opacity:1;stroke-dasharray:none"
               id="path4811"
               inkscape:connector-curvature="0" />
          </g>
          <g
             style="fill:none;stroke:#000000;stroke-width:0.60000002;stroke-miterlimit:4;stroke-opacity:1;stroke-dasharray:none"
             id="g4813"
             transform="matrix(0,0.12,-0.12,0,773.4,16.60001)">
            <path
               d="m 2054,3515 -115,247"
               style="fill:none;stroke:#000000;stroke-width:0.60000002;stroke-linecap:round;stroke-linejoin:round;stroke-miterlimit:4;stroke-opacity:1;stroke-dasharray:none"
               id="path4815"
               inkscape:connector-curvature="0" />
          </g>
          <g
             style="fill:none;stroke:#000000;stroke-width:0.60000002;stroke-miterlimit:4;stroke-opacity:1;stroke-dasharray:none"
             id="g4817"
             transform="matrix(0,0.12,-0.12,0,773.4,16.60001)" />
        </g>
      </g>
    </g>
    <path
       style="fill:none;stroke:#000000;stroke-width:0.09;stroke-linecap:butt;stroke-linejoin:miter;stroke-opacity:1;stroke-miterlimit:4;stroke-dasharray:none"
       d="m 854.95839,598.10673 0.0442,-48.03907"
       id="path3650"
       inkscape:connector-curvature="0"
       transform="translate(0,-27.63783)" />
    <path
       style="fill:none;stroke:#000000;stroke-width:0.09;stroke-linecap:butt;stroke-linejoin:miter;stroke-opacity:1;stroke-miterlimit:4;stroke-dasharray:none"
       d="m 570.10484,393.79706 31.5215,0.0221"
       id="path4420"
       inkscape:connector-curvature="0"
       transform="translate(0,-27.63783)" />
  </g>
</svg>
