<?xml version="1.0" encoding="UTF-8" standalone="no"?>
<!-- Created with Inkscape (http://www.inkscape.org/) -->

<svg
   xmlns:dc="http://purl.org/dc/elements/1.1/"
   xmlns:cc="http://creativecommons.org/ns#"
   xmlns:rdf="http://www.w3.org/1999/02/22-rdf-syntax-ns#"
   xmlns:svg="http://www.w3.org/2000/svg"
   xmlns="http://www.w3.org/2000/svg"
   xmlns:sodipodi="http://sodipodi.sourceforge.net/DTD/sodipodi-0.dtd"
   xmlns:inkscape="http://www.inkscape.org/namespaces/inkscape"
   width="24in"
   height="12in"
   viewBox="0 0 2160 1080"
   id="svg2"
   version="1.1"
   inkscape:version="0.48.5 r10040"
   sodipodi:docname="spacer with marking lines.svg">
  <defs
     id="defs4">
    <clipPath
       id="clipPath7279"
       clipPathUnits="userSpaceOnUse">
      <path
         inkscape:connector-curvature="0"
         id="path7281"
         d="m 825.16,16.84006 -10e-5,561.24004 -808.19995,-10e-5 2e-5,-561.23997 808.20003,3e-5 z" />
    </clipPath>
    <clipPath
       id="clipPath8307"
       clipPathUnits="userSpaceOnUse">
      <path
         inkscape:connector-curvature="0"
         id="path8309"
         d="m 773.4,16.60001 0,578.75999 -754.8,0 2e-5,-578.76002 754.79998,3e-5 z" />
    </clipPath>
    <clipPath
       id="clipPath8795"
       clipPathUnits="userSpaceOnUse">
      <path
         inkscape:connector-curvature="0"
         id="path8797"
         d="m 773.4,16.60001 0,578.75999 -754.8,0 2e-5,-578.76002 754.79998,3e-5 z" />
    </clipPath>
    <clipPath
       id="clipPath4837"
       clipPathUnits="userSpaceOnUse">
      <path
         inkscape:connector-curvature="0"
         id="path4839"
         d="m 825.16,16.84006 -10e-5,561.24004 -808.19995,-10e-5 2e-5,-561.23997 808.20003,3e-5 z" />
    </clipPath>
    <clipPath
       id="clipPath8307-5"
       clipPathUnits="userSpaceOnUse">
      <path
         inkscape:connector-curvature="0"
         id="path8309-8"
         d="m 773.4,16.60001 0,578.75999 -754.8,0 2e-5,-578.76002 754.79998,3e-5 z" />
    </clipPath>
    <clipPath
       id="clipPath8795-0"
       clipPathUnits="userSpaceOnUse">
      <path
         inkscape:connector-curvature="0"
         id="path8797-1"
         d="m 773.4,16.60001 0,578.75999 -754.8,0 2e-5,-578.76002 754.79998,3e-5 z" />
    </clipPath>
    <clipPath
       id="clipPath8795-0-8"
       clipPathUnits="userSpaceOnUse">
      <path
         inkscape:connector-curvature="0"
         id="path8797-1-0"
         d="m 773.4,16.60001 0,578.75999 -754.8,0 2e-5,-578.76002 754.79998,3e-5 z" />
    </clipPath>
    <clipPath
       id="clipPath8795-0-7"
       clipPathUnits="userSpaceOnUse">
      <path
         inkscape:connector-curvature="0"
         id="path8797-1-9"
         d="m 773.4,16.60001 0,578.75999 -754.8,0 2e-5,-578.76002 754.79998,3e-5 z" />
    </clipPath>
  </defs>
  <sodipodi:namedview
     id="base"
     pagecolor="#ffffff"
     bordercolor="#666666"
     borderopacity="1.0"
     inkscape:pageopacity="0.0"
     inkscape:pageshadow="2"
     inkscape:zoom="256"
     inkscape:cx="905.94922"
     inkscape:cy="535.02344"
     inkscape:document-units="in"
     inkscape:current-layer="layer1"
     showgrid="false"
     units="in"
     inkscape:window-width="1920"
     inkscape:window-height="1017"
     inkscape:window-x="-8"
     inkscape:window-y="-8"
     inkscape:window-maximized="1" />
  <metadata
     id="metadata7">
    <rdf:RDF>
      <cc:Work
         rdf:about="">
        <dc:format>image/svg+xml</dc:format>
        <dc:type
           rdf:resource="http://purl.org/dc/dcmitype/StillImage" />
        <dc:title />
      </cc:Work>
    </rdf:RDF>
  </metadata>
  <g
     inkscape:label="Layer 1"
     inkscape:groupmode="layer"
     id="layer1"
     transform="translate(0,27.63783)">
    <text
       xml:space="preserve"
       style="color:#000000;font-style:normal;font-variant:normal;font-weight:normal;font-stretch:normal;font-size:40px;line-height:125%;font-family:Meiryo;-inkscape-font-specification:Meiryo;text-indent:0;text-align:start;text-decoration:none;text-decoration-line:none;letter-spacing:0px;word-spacing:0px;text-transform:none;direction:ltr;block-progression:tb;writing-mode:lr-tb;baseline-shift:baseline;text-anchor:start;display:inline;overflow:visible;visibility:visible;fill:none;fill-opacity:1;fill-rule:nonzero;stroke:#000000;stroke-width:1px;stroke-linecap:butt;stroke-linejoin:miter;stroke-opacity:1;marker:none;enable-background:accumulate;"
       x="-127.21381"
       y="770.49512"
       id="text4135"
       sodipodi:linespacing="125%"><tspan
         sodipodi:role="line"
         id="tspan4137"
         x="-127.21381"
         y="770.49512" /></text>
    <g
       transform="matrix(1.25,0,0,-1.25,292.82777,740.49606)"
       inkscape:label="ErgoDOX Case Layer 4 Spacer - Right.dxf"
       id="g8787"
       style="fill:none;stroke:#000000;stroke-width:0.072;stroke-miterlimit:4;stroke-opacity:1;stroke-dasharray:none">
      <g
         id="g8789"
         style="fill:none;stroke:#000000;stroke-width:0.072;stroke-miterlimit:4;stroke-opacity:1;stroke-dasharray:none" />
      <g
         id="g8791"
         style="fill:none;stroke:#000000;stroke-width:0.072;stroke-miterlimit:4;stroke-opacity:1;stroke-dasharray:none">
        <g
           clip-path="url(#clipPath8795)"
           id="g8793"
           style="fill:none;stroke:#000000;stroke-width:0.072;stroke-miterlimit:4;stroke-opacity:1;stroke-dasharray:none">
          <g
             transform="matrix(0,0.12,-0.12,0,431.64,557.68)"
             id="g8799"
             style="fill:none;stroke:#000000;stroke-width:0.60000002;stroke-miterlimit:4;stroke-opacity:1;stroke-dasharray:none">
            <path
               inkscape:connector-curvature="0"
               id="path8801"
               style="fill:none;stroke:#000000;stroke-width:0.60000002;stroke-linecap:round;stroke-linejoin:round;stroke-miterlimit:4;stroke-opacity:1;stroke-dasharray:none"
               d="M 35,0 C 35,19.32997 19.32997,35 0,35 -19.32997,35 -35,19.32997 -35,0 c 0,-19.32997 15.67003,-35 35,-35 19.32997,0 35,15.67003 35,35 z" />
          </g>
          <g
             transform="matrix(0,0.12,-0.12,0,280.08,552.52)"
             id="g8803"
             style="fill:none;stroke:#000000;stroke-width:0.60000002;stroke-miterlimit:4;stroke-opacity:1;stroke-dasharray:none">
            <path
               inkscape:connector-curvature="0"
               id="path8805"
               style="fill:none;stroke:#000000;stroke-width:0.60000002;stroke-linecap:round;stroke-linejoin:round;stroke-miterlimit:4;stroke-opacity:1;stroke-dasharray:none"
               d="M 35,0 C 35,19.32997 19.32997,35 0,35 -19.32997,35 -35,19.32997 -35,0 c 0,-19.32997 15.67003,-35 35,-35 19.32997,0 35,15.67003 35,35 z" />
          </g>
          <g
             transform="matrix(0,0.12,-0.12,0,161.76,247.72)"
             id="g8807"
             style="fill:none;stroke:#000000;stroke-width:0.60000002;stroke-miterlimit:4;stroke-opacity:1;stroke-dasharray:none">
            <path
               inkscape:connector-curvature="0"
               id="path8809"
               style="fill:none;stroke:#000000;stroke-width:0.60000002;stroke-linecap:round;stroke-linejoin:round;stroke-miterlimit:4;stroke-opacity:1;stroke-dasharray:none"
               d="M 35,0 C 35,19.32997 19.32997,35 0,35 -19.32997,35 -35,19.32997 -35,0 c 0,-19.32997 15.67003,-35 35,-35 19.32997,0 35,15.67003 35,35 z" />
          </g>
          <g
             transform="matrix(0,0.12,-0.12,0,237.12,86.19998)"
             id="g8811"
             style="fill:none;stroke:#000000;stroke-width:0.60000002;stroke-miterlimit:4;stroke-opacity:1;stroke-dasharray:none">
            <path
               inkscape:connector-curvature="0"
               id="path8813"
               style="fill:none;stroke:#000000;stroke-width:0.60000002;stroke-linecap:round;stroke-linejoin:round;stroke-miterlimit:4;stroke-opacity:1;stroke-dasharray:none"
               d="M 35,0 C 35,19.32997 19.32997,35 0,35 -19.32997,35 -35,19.32997 -35,0 c 0,-19.32997 15.67003,-35 35,-35 19.32997,0 35,15.67003 35,35 z" />
          </g>
          <g
             transform="matrix(0,0.12,-0.12,0,473.16,190.6)"
             id="g8815"
             style="fill:none;stroke:#000000;stroke-width:0.60000002;stroke-miterlimit:4;stroke-opacity:1;stroke-dasharray:none">
            <path
               inkscape:connector-curvature="0"
               id="path8817"
               style="fill:none;stroke:#000000;stroke-width:0.60000002;stroke-linecap:round;stroke-linejoin:round;stroke-miterlimit:4;stroke-opacity:1;stroke-dasharray:none"
               d="M 35,0 C 35,19.32997 19.32997,35 0,35 -19.32997,35 -35,19.32997 -35,0 c 0,-19.32997 15.67003,-35 35,-35 19.32997,0 35,15.67003 35,35 z" />
          </g>
          <g
             transform="matrix(0,0.12,-0.12,0,701.04,200.2)"
             id="g8819"
             style="fill:none;stroke:#000000;stroke-width:0.60000002;stroke-miterlimit:4;stroke-opacity:1;stroke-dasharray:none">
            <path
               inkscape:connector-curvature="0"
               id="path8821"
               style="fill:none;stroke:#000000;stroke-width:0.60000002;stroke-linecap:round;stroke-linejoin:round;stroke-miterlimit:4;stroke-opacity:1;stroke-dasharray:none"
               d="M 35,0 C 35,19.32997 19.32997,35 0,35 -19.32997,35 -35,19.32997 -35,0 c 0,-19.32997 15.67003,-35 35,-35 19.32997,0 35,15.67003 35,35 z" />
          </g>
          <g
             transform="matrix(0,0.12,-0.12,0,701.04,552.52)"
             id="g8823"
             style="fill:none;stroke:#000000;stroke-width:0.60000002;stroke-miterlimit:4;stroke-opacity:1;stroke-dasharray:none">
            <path
               inkscape:connector-curvature="0"
               id="path8825"
               style="fill:none;stroke:#000000;stroke-width:0.60000002;stroke-linecap:round;stroke-linejoin:round;stroke-miterlimit:4;stroke-opacity:1;stroke-dasharray:none"
               d="M 35,0 C 35,19.32997 19.32997,35 0,35 -19.32997,35 -35,19.32997 -35,0 c 0,-19.32997 15.67003,-35 35,-35 19.32997,0 35,15.67003 35,35 z" />
          </g>
          <g
             transform="matrix(0,0.12,-0.12,0,773.4,16.60001)"
             id="g8827"
             style="fill:none;stroke:#000000;stroke-width:0.60000002;stroke-miterlimit:4;stroke-opacity:1;stroke-dasharray:none" />
          <g
             transform="matrix(0,0.12,-0.12,0,773.4,16.60001)"
             id="g8831"
             style="fill:none;stroke:#000000;stroke-width:0.60000002;stroke-miterlimit:4;stroke-opacity:1;stroke-dasharray:none">
            <path
               inkscape:connector-curvature="0"
               id="path8833"
               style="fill:none;stroke:#000000;stroke-width:0.60000002;stroke-linecap:round;stroke-linejoin:round;stroke-miterlimit:4;stroke-opacity:1;stroke-dasharray:none"
               d="m 4614,620 0,1311 -120,220 0,253 120,219 0,451 0,829 0,191" />
          </g>
          <g
             transform="matrix(0,0.12,-0.12,0,282.12,550.48)"
             id="g8835"
             style="fill:none;stroke:#000000;stroke-width:0.60000002;stroke-miterlimit:4;stroke-opacity:1;stroke-dasharray:none">
            <path
               inkscape:connector-curvature="0"
               id="path8837"
               style="fill:none;stroke:#000000;stroke-width:0.60000002;stroke-linecap:round;stroke-linejoin:round;stroke-miterlimit:4;stroke-opacity:1;stroke-dasharray:none"
               d="m 165,0 c 0,91.12698 -73.87302,165 -165,165 -2.235142e-6,0 -4.977264e-6,0 -7.212379e-6,0" />
          </g>
          <g
             transform="matrix(0,0.12,-0.12,0,773.4,16.60001)"
             id="g8839"
             style="fill:none;stroke:#000000;stroke-width:0.60000002;stroke-miterlimit:4;stroke-opacity:1;stroke-dasharray:none">
            <path
               inkscape:connector-curvature="0"
               id="path8841"
               style="fill:none;stroke:#000000;stroke-width:0.60000002;stroke-linecap:round;stroke-linejoin:round;stroke-miterlimit:4;stroke-opacity:1;stroke-dasharray:none"
               d="M 4449,4260 2706.9686,4260 2586,4260"
               sodipodi:nodetypes="ccc" />
          </g>
          <g
             transform="matrix(0,0.12,-0.12,0,242.4,326.92)"
             id="g8843"
             style="fill:none;stroke:#000000;stroke-width:0.60000002;stroke-miterlimit:4;stroke-opacity:1;stroke-dasharray:none">
            <path
               inkscape:connector-curvature="0"
               id="path8845"
               style="fill:none;stroke:#000000;stroke-width:0.60000002;stroke-linecap:round;stroke-linejoin:round;stroke-miterlimit:4;stroke-opacity:1;stroke-dasharray:none"
               d="M -149.5431,-69.72713 C -122.4441,-127.846 -64.1261,-165 1.967605e-6,-165" />
          </g>
          <g
             transform="matrix(0,0.12,-0.12,0,773.4,16.60001)"
             id="g8847"
             style="fill:none;stroke:#000000;stroke-width:0.60000002;stroke-miterlimit:4;stroke-opacity:1;stroke-dasharray:none">
            <path
               inkscape:connector-curvature="0"
               id="path8849"
               style="fill:none;stroke:#000000;stroke-width:0.60000002;stroke-linecap:round;stroke-linejoin:round;stroke-miterlimit:4;stroke-opacity:1;stroke-dasharray:none"
               d="m 2436,4355 -368,789" />
          </g>
          <g
             transform="matrix(0,0.12,-0.12,0,164.52,246.76)"
             id="g8851"
             style="fill:none;stroke:#000000;stroke-width:0.60000002;stroke-miterlimit:4;stroke-opacity:1;stroke-dasharray:none">
            <path
               inkscape:connector-curvature="0"
               id="path8853"
               style="fill:none;stroke:#000000;stroke-width:0.60000002;stroke-linecap:round;stroke-linejoin:round;stroke-miterlimit:4;stroke-opacity:1;stroke-dasharray:none"
               d="M 149.5431,69.72712 C 111.0338,152.3175 12.86323,188.0523 -69.72712,149.5431 c -0.0015,-7e-4 -0.0029,-0.001 -0.0044,-0.002" />
          </g>
          <g
             transform="matrix(0,0.12,-0.12,0,773.4,16.60001)"
             id="g8855"
             style="fill:none;stroke:#000000;stroke-width:0.60000002;stroke-miterlimit:4;stroke-opacity:1;stroke-dasharray:none">
            <path
               inkscape:connector-curvature="0"
               id="path8857"
               style="fill:none;stroke:#000000;stroke-width:0.60000002;stroke-linecap:round;stroke-linejoin:round;stroke-miterlimit:4;stroke-opacity:1;stroke-dasharray:none"
               d="M 1848,5224 533,4611" />
          </g>
          <g
             transform="matrix(0,0.12,-0.12,0,238.08,88.95998)"
             id="g8859"
             style="fill:none;stroke:#000000;stroke-width:0.60000002;stroke-miterlimit:4;stroke-opacity:1;stroke-dasharray:none">
            <path
               inkscape:connector-curvature="0"
               id="path8861"
               style="fill:none;stroke:#000000;stroke-width:0.60000002;stroke-linecap:round;stroke-linejoin:round;stroke-miterlimit:4;stroke-opacity:1;stroke-dasharray:none"
               d="M -69.73153,149.541 C -152.3162,111.0315 -188.0496,12.86769 -149.5464,-69.72" />
          </g>
          <g
             transform="matrix(0,0.12,-0.12,0,773.4,16.60001)"
             id="g8863"
             style="fill:none;stroke:#000000;stroke-width:0.60000002;stroke-miterlimit:4;stroke-opacity:1;stroke-dasharray:none">
            <path
               inkscape:connector-curvature="0"
               id="path8865"
               style="fill:none;stroke:#000000;stroke-width:0.60000002;stroke-linecap:round;stroke-linejoin:round;stroke-miterlimit:4;stroke-opacity:1;stroke-dasharray:none"
               d="M 453,4391 1329,2512" />
          </g>
          <g
             transform="matrix(0,0.12,-0.12,0,480.36,158.08)"
             id="g8867"
             style="fill:none;stroke:#000000;stroke-width:0.60000002;stroke-miterlimit:4;stroke-opacity:1;stroke-dasharray:none">
            <path
               inkscape:connector-curvature="0"
               id="path8869"
               style="fill:none;stroke:#000000;stroke-width:0.60000002;stroke-linecap:round;stroke-linejoin:round;stroke-miterlimit:4;stroke-opacity:1;stroke-dasharray:none"
               d="m 165.98958,-0.44267949 c 0,24.08945049 -5.79553,48.56382449 -15.97443,70.39710449"
               sodipodi:nodetypes="cc" />
          </g>
          <g
             transform="matrix(0,0.12,-0.12,0,773.4,16.60001)"
             id="g8871"
             style="fill:none;stroke:#000000;stroke-width:0.60000002;stroke-miterlimit:4;stroke-opacity:1;stroke-dasharray:none">
            <path
               inkscape:connector-curvature="0"
               id="path8873"
               style="fill:none;stroke:#000000;stroke-width:0.60000002;stroke-linecap:round;stroke-linejoin:round;stroke-miterlimit:4;stroke-opacity:1;stroke-dasharray:none"
               d="m 1345,2442 0,-1822" />
          </g>
          <g
             transform="matrix(0,0.12,-0.12,0,699,197.8)"
             id="g8875"
             style="fill:none;stroke:#000000;stroke-width:0.60000002;stroke-miterlimit:4;stroke-opacity:1;stroke-dasharray:none">
            <path
               inkscape:connector-curvature="0"
               id="path8877"
               style="fill:none;stroke:#000000;stroke-width:0.60000002;stroke-linecap:round;stroke-linejoin:round;stroke-miterlimit:4;stroke-opacity:1;stroke-dasharray:none"
               d="M -165,-1.442476e-5 C -165,-91.12699 -91.12698,-165 1.967605e-6,-165" />
          </g>
          <g
             transform="matrix(0,0.12,-0.12,0,773.4,16.60001)"
             id="g8879"
             style="fill:none;stroke:#000000;stroke-width:0.60000002;stroke-miterlimit:4;stroke-opacity:1;stroke-dasharray:none">
            <path
               inkscape:connector-curvature="0"
               id="path8881"
               style="fill:none;stroke:#000000;stroke-width:0.60000002;stroke-linecap:round;stroke-linejoin:round;stroke-miterlimit:4;stroke-opacity:1;stroke-dasharray:none"
               d="m 1510,455 2939,0" />
          </g>
          <g
             transform="matrix(0,0.12,-0.12,0,699,550.48)"
             id="g8883"
             style="fill:none;stroke:#000000;stroke-width:0.60000002;stroke-miterlimit:4;stroke-opacity:1;stroke-dasharray:none">
            <path
               inkscape:connector-curvature="0"
               id="path8885"
               style="fill:none;stroke:#000000;stroke-width:0.60000002;stroke-linecap:round;stroke-linejoin:round;stroke-miterlimit:4;stroke-opacity:1;stroke-dasharray:none"
               d="M 1.967605e-6,-165 C 91.12699,-165 165,-91.12698 165,1.967606e-6 c 0,8.995144e-6 0,1.7886774e-5 0,2.6881914e-5" />
          </g>
        </g>
      </g>
    </g>
    <g
       id="g3965">
      <path
         sodipodi:nodetypes="ccccccccccccccccccccc"
         d="m 1828,4983 -1098,-512 -36,-100 861,-1846 0,-1635 224,-225 2550,0 75,75 0,1401 42,0 0,272 -42,0 0,870 0,406 0,285 -75,76 -1622.3259,0.1473 L 2292,4050 l 0,115 -364,782 -100,36"
         style="fill:none;stroke:#000000;stroke-width:0.60000002;stroke-linecap:round;stroke-linejoin:round;stroke-miterlimit:4;stroke-opacity:1;stroke-dasharray:none"
         id="path8829"
         inkscape:connector-curvature="0"
         transform="matrix(0,-0.15,-0.15,0,1259.5778,719.74605)" />
      <path
         sodipodi:nodetypes="cc"
         transform="translate(0,-27.63783)"
         inkscape:connector-curvature="0"
         id="path3962"
         d="m 620.5525,341.34115 31.50005,0.0351"
         style="fill:none;stroke:#000000;stroke-width:0.09;stroke-linecap:butt;stroke-linejoin:miter;stroke-miterlimit:4;stroke-opacity:1;stroke-dasharray:none" />
    </g>
    <path
       style="fill:none;stroke:#000000;stroke-width:0.09;stroke-linecap:butt;stroke-linejoin:miter;stroke-miterlimit:4;stroke-opacity:1;stroke-dasharray:none"
       d="m 905.44531,545.63672 0,-31.50391"
       id="path3989"
       inkscape:connector-curvature="0"
       transform="translate(0,-27.63783)"
       sodipodi:nodetypes="cc" />
  </g>
</svg>
