<?xml version="1.0" encoding="UTF-8" standalone="no"?>
<!-- Created with Inkscape (http://www.inkscape.org/) -->

<svg
   xmlns:dc="http://purl.org/dc/elements/1.1/"
   xmlns:cc="http://creativecommons.org/ns#"
   xmlns:rdf="http://www.w3.org/1999/02/22-rdf-syntax-ns#"
   xmlns:svg="http://www.w3.org/2000/svg"
   xmlns="http://www.w3.org/2000/svg"
   xmlns:sodipodi="http://sodipodi.sourceforge.net/DTD/sodipodi-0.dtd"
   xmlns:inkscape="http://www.inkscape.org/namespaces/inkscape"
   width="24in"
   height="12in"
   viewBox="0 0 2160 1080"
   id="svg2"
   version="1.1"
   inkscape:version="0.48.5 r10040"
   sodipodi:docname="spacer large section.svg">
  <defs
     id="defs4">
    <clipPath
       id="clipPath7279"
       clipPathUnits="userSpaceOnUse">
      <path
         inkscape:connector-curvature="0"
         id="path7281"
         d="m 825.16,16.84006 -10e-5,561.24004 -808.19995,-10e-5 2e-5,-561.23997 808.20003,3e-5 z" />
    </clipPath>
    <clipPath
       id="clipPath8307"
       clipPathUnits="userSpaceOnUse">
      <path
         inkscape:connector-curvature="0"
         id="path8309"
         d="m 773.4,16.60001 0,578.75999 -754.8,0 2e-5,-578.76002 754.79998,3e-5 z" />
    </clipPath>
    <clipPath
       id="clipPath8795"
       clipPathUnits="userSpaceOnUse">
      <path
         inkscape:connector-curvature="0"
         id="path8797"
         d="m 773.4,16.60001 0,578.75999 -754.8,0 2e-5,-578.76002 754.79998,3e-5 z" />
    </clipPath>
    <clipPath
       id="clipPath4837"
       clipPathUnits="userSpaceOnUse">
      <path
         inkscape:connector-curvature="0"
         id="path4839"
         d="m 825.16,16.84006 -10e-5,561.24004 -808.19995,-10e-5 2e-5,-561.23997 808.20003,3e-5 z" />
    </clipPath>
    <clipPath
       id="clipPath8307-5"
       clipPathUnits="userSpaceOnUse">
      <path
         inkscape:connector-curvature="0"
         id="path8309-8"
         d="m 773.4,16.60001 0,578.75999 -754.8,0 2e-5,-578.76002 754.79998,3e-5 z" />
    </clipPath>
    <clipPath
       id="clipPath8795-0"
       clipPathUnits="userSpaceOnUse">
      <path
         inkscape:connector-curvature="0"
         id="path8797-1"
         d="m 773.4,16.60001 0,578.75999 -754.8,0 2e-5,-578.76002 754.79998,3e-5 z" />
    </clipPath>
    <clipPath
       id="clipPath8795-0-8"
       clipPathUnits="userSpaceOnUse">
      <path
         inkscape:connector-curvature="0"
         id="path8797-1-0"
         d="m 773.4,16.60001 0,578.75999 -754.8,0 2e-5,-578.76002 754.79998,3e-5 z" />
    </clipPath>
    <clipPath
       id="clipPath8795-0-7"
       clipPathUnits="userSpaceOnUse">
      <path
         inkscape:connector-curvature="0"
         id="path8797-1-9"
         d="m 773.4,16.60001 0,578.75999 -754.8,0 2e-5,-578.76002 754.79998,3e-5 z" />
    </clipPath>
    <clipPath
       clipPathUnits="userSpaceOnUse"
       id="clipPath8795-0-7-8">
      <path
         d="m 773.4,16.60001 0,578.75999 -754.8,0 2e-5,-578.76002 754.79998,3e-5 z"
         id="path8797-1-9-9"
         inkscape:connector-curvature="0" />
    </clipPath>
    <clipPath
       clipPathUnits="userSpaceOnUse"
       id="clipPath8795-0-8-1">
      <path
         d="m 773.4,16.60001 0,578.75999 -754.8,0 2e-5,-578.76002 754.79998,3e-5 z"
         id="path8797-1-0-3"
         inkscape:connector-curvature="0" />
    </clipPath>
    <clipPath
       clipPathUnits="userSpaceOnUse"
       id="clipPath8795-0-0">
      <path
         d="m 773.4,16.60001 0,578.75999 -754.8,0 2e-5,-578.76002 754.79998,3e-5 z"
         id="path8797-1-6"
         inkscape:connector-curvature="0" />
    </clipPath>
    <clipPath
       clipPathUnits="userSpaceOnUse"
       id="clipPath8307-5-9">
      <path
         d="m 773.4,16.60001 0,578.75999 -754.8,0 2e-5,-578.76002 754.79998,3e-5 z"
         id="path8309-8-0"
         inkscape:connector-curvature="0" />
    </clipPath>
    <clipPath
       clipPathUnits="userSpaceOnUse"
       id="clipPath4837-5">
      <path
         d="m 825.16,16.84006 -10e-5,561.24004 -808.19995,-10e-5 2e-5,-561.23997 808.20003,3e-5 z"
         id="path4839-0"
         inkscape:connector-curvature="0" />
    </clipPath>
    <clipPath
       clipPathUnits="userSpaceOnUse"
       id="clipPath8795-8">
      <path
         d="m 773.4,16.60001 0,578.75999 -754.8,0 2e-5,-578.76002 754.79998,3e-5 z"
         id="path8797-6"
         inkscape:connector-curvature="0" />
    </clipPath>
    <clipPath
       clipPathUnits="userSpaceOnUse"
       id="clipPath8307-2">
      <path
         d="m 773.4,16.60001 0,578.75999 -754.8,0 2e-5,-578.76002 754.79998,3e-5 z"
         id="path8309-4"
         inkscape:connector-curvature="0" />
    </clipPath>
    <clipPath
       clipPathUnits="userSpaceOnUse"
       id="clipPath7279-6">
      <path
         d="m 825.16,16.84006 -10e-5,561.24004 -808.19995,-10e-5 2e-5,-561.23997 808.20003,3e-5 z"
         id="path7281-0"
         inkscape:connector-curvature="0" />
    </clipPath>
  </defs>
  <sodipodi:namedview
     id="base"
     pagecolor="#ffffff"
     bordercolor="#666666"
     borderopacity="1.0"
     inkscape:pageopacity="0.0"
     inkscape:pageshadow="2"
     inkscape:zoom="1"
     inkscape:cx="748.87906"
     inkscape:cy="751.56823"
     inkscape:document-units="in"
     inkscape:current-layer="layer1"
     showgrid="false"
     units="in"
     inkscape:window-width="1920"
     inkscape:window-height="1017"
     inkscape:window-x="-8"
     inkscape:window-y="-8"
     inkscape:window-maximized="1" />
  <metadata
     id="metadata7">
    <rdf:RDF>
      <cc:Work
         rdf:about="">
        <dc:format>image/svg+xml</dc:format>
        <dc:type
           rdf:resource="http://purl.org/dc/dcmitype/StillImage" />
        <dc:title />
      </cc:Work>
    </rdf:RDF>
  </metadata>
  <g
     inkscape:label="Layer 1"
     inkscape:groupmode="layer"
     id="layer1"
     transform="translate(0,27.63783)">
    <text
       xml:space="preserve"
       style="color:#000000;font-style:normal;font-variant:normal;font-weight:normal;font-stretch:normal;font-size:40px;line-height:125%;font-family:Meiryo;-inkscape-font-specification:Meiryo;text-indent:0;text-align:start;text-decoration:none;text-decoration-line:none;letter-spacing:0px;word-spacing:0px;text-transform:none;direction:ltr;block-progression:tb;writing-mode:lr-tb;baseline-shift:baseline;text-anchor:start;display:inline;overflow:visible;visibility:visible;fill:none;fill-opacity:1;fill-rule:nonzero;stroke:#000000;stroke-width:1px;stroke-linecap:butt;stroke-linejoin:miter;stroke-opacity:1;marker:none;enable-background:accumulate;"
       x="-127.21381"
       y="770.49512"
       id="text4135"
       sodipodi:linespacing="125%"><tspan
         sodipodi:role="line"
         id="tspan4137"
         x="-127.21381"
         y="770.49512" /></text>
    <g
       id="g5677">
      <g
         style="fill:none;stroke:#000000;stroke-width:0.072;stroke-miterlimit:4;stroke-opacity:1;stroke-dasharray:none"
         id="g8787"
         inkscape:label="ErgoDOX Case Layer 4 Spacer - Right.dxf"
         transform="matrix(1.25,0,0,-1.25,292.82777,740.49606)">
        <g
           style="fill:none;stroke:#000000;stroke-width:0.072;stroke-miterlimit:4;stroke-opacity:1;stroke-dasharray:none"
           id="g8789" />
        <g
           style="fill:none;stroke:#000000;stroke-width:0.072;stroke-miterlimit:4;stroke-opacity:1;stroke-dasharray:none"
           id="g8791">
          <g
             style="fill:none;stroke:#000000;stroke-width:0.072;stroke-miterlimit:4;stroke-opacity:1;stroke-dasharray:none"
             id="g8793"
             clip-path="url(#clipPath8795)">
            <g
               style="fill:none;stroke:#000000;stroke-width:0.60000002;stroke-miterlimit:4;stroke-opacity:1;stroke-dasharray:none"
               id="g8799"
               transform="matrix(0,0.12,-0.12,0,431.64,557.68)">
              <path
                 d="M 35,0 C 35,19.32997 19.32997,35 0,35 -19.32997,35 -35,19.32997 -35,0 c 0,-19.32997 15.67003,-35 35,-35 19.32997,0 35,15.67003 35,35 z"
                 style="fill:none;stroke:#000000;stroke-width:0.60000002;stroke-linecap:round;stroke-linejoin:round;stroke-miterlimit:4;stroke-opacity:1;stroke-dasharray:none"
                 id="path8801"
                 inkscape:connector-curvature="0" />
            </g>
            <g
               style="fill:none;stroke:#000000;stroke-width:0.60000002;stroke-miterlimit:4;stroke-opacity:1;stroke-dasharray:none"
               id="g8803"
               transform="matrix(0,0.12,-0.12,0,280.08,552.52)">
              <path
                 d="M 35,0 C 35,19.32997 19.32997,35 0,35 -19.32997,35 -35,19.32997 -35,0 c 0,-19.32997 15.67003,-35 35,-35 19.32997,0 35,15.67003 35,35 z"
                 style="fill:none;stroke:#000000;stroke-width:0.60000002;stroke-linecap:round;stroke-linejoin:round;stroke-miterlimit:4;stroke-opacity:1;stroke-dasharray:none"
                 id="path8805"
                 inkscape:connector-curvature="0" />
            </g>
            <g
               style="fill:none;stroke:#000000;stroke-width:0.60000002;stroke-miterlimit:4;stroke-opacity:1;stroke-dasharray:none"
               id="g8807"
               transform="matrix(0,0.12,-0.12,0,161.76,247.72)" />
            <g
               style="fill:none;stroke:#000000;stroke-width:0.60000002;stroke-miterlimit:4;stroke-opacity:1;stroke-dasharray:none"
               id="g8811"
               transform="matrix(0,0.12,-0.12,0,237.12,86.19998)" />
            <g
               style="fill:none;stroke:#000000;stroke-width:0.60000002;stroke-miterlimit:4;stroke-opacity:1;stroke-dasharray:none"
               id="g8815"
               transform="matrix(0,0.12,-0.12,0,473.16,190.6)" />
            <g
               style="fill:none;stroke:#000000;stroke-width:0.60000002;stroke-miterlimit:4;stroke-opacity:1;stroke-dasharray:none"
               id="g8819"
               transform="matrix(0,0.12,-0.12,0,701.04,200.2)">
              <path
                 d="M 35,0 C 35,19.32997 19.32997,35 0,35 -19.32997,35 -35,19.32997 -35,0 c 0,-19.32997 15.67003,-35 35,-35 19.32997,0 35,15.67003 35,35 z"
                 style="fill:none;stroke:#000000;stroke-width:0.60000002;stroke-linecap:round;stroke-linejoin:round;stroke-miterlimit:4;stroke-opacity:1;stroke-dasharray:none"
                 id="path8821"
                 inkscape:connector-curvature="0" />
            </g>
            <g
               style="fill:none;stroke:#000000;stroke-width:0.60000002;stroke-miterlimit:4;stroke-opacity:1;stroke-dasharray:none"
               id="g8823"
               transform="matrix(0,0.12,-0.12,0,701.04,552.52)">
              <path
                 d="M 35,0 C 35,19.32997 19.32997,35 0,35 -19.32997,35 -35,19.32997 -35,0 c 0,-19.32997 15.67003,-35 35,-35 19.32997,0 35,15.67003 35,35 z"
                 style="fill:none;stroke:#000000;stroke-width:0.60000002;stroke-linecap:round;stroke-linejoin:round;stroke-miterlimit:4;stroke-opacity:1;stroke-dasharray:none"
                 id="path8825"
                 inkscape:connector-curvature="0" />
            </g>
            <g
               style="fill:none;stroke:#000000;stroke-width:0.60000002;stroke-miterlimit:4;stroke-opacity:1;stroke-dasharray:none"
               id="g8827"
               transform="matrix(0,0.12,-0.12,0,773.4,16.60001)" />
            <g
               style="fill:none;stroke:#000000;stroke-width:0.60000002;stroke-miterlimit:4;stroke-opacity:1;stroke-dasharray:none"
               id="g8831"
               transform="matrix(0,0.12,-0.12,0,773.4,16.60001)">
              <path
                 d="m 4614,620 0,1311 -120,220 0,253 120,219 0,451 0,829 0,191"
                 style="fill:none;stroke:#000000;stroke-width:0.60000002;stroke-linecap:round;stroke-linejoin:round;stroke-miterlimit:4;stroke-opacity:1;stroke-dasharray:none"
                 id="path8833"
                 inkscape:connector-curvature="0" />
            </g>
            <g
               style="fill:none;stroke:#000000;stroke-width:0.60000002;stroke-miterlimit:4;stroke-opacity:1;stroke-dasharray:none"
               id="g8835"
               transform="matrix(0,0.12,-0.12,0,282.12,550.48)">
              <path
                 d="m 165,0 c 0,91.12698 -73.87302,165 -165,165 -2.235142e-6,0 -4.977264e-6,0 -7.212379e-6,0"
                 style="fill:none;stroke:#000000;stroke-width:0.60000002;stroke-linecap:round;stroke-linejoin:round;stroke-miterlimit:4;stroke-opacity:1;stroke-dasharray:none"
                 id="path8837"
                 inkscape:connector-curvature="0" />
            </g>
            <g
               style="fill:none;stroke:#000000;stroke-width:0.60000002;stroke-miterlimit:4;stroke-opacity:1;stroke-dasharray:none"
               id="g8839"
               transform="matrix(0,0.12,-0.12,0,773.4,16.60001)" />
            <g
               style="fill:none;stroke:#000000;stroke-width:0.60000002;stroke-miterlimit:4;stroke-opacity:1;stroke-dasharray:none"
               id="g8843"
               transform="matrix(0,0.12,-0.12,0,242.4,326.92)" />
            <g
               style="fill:none;stroke:#000000;stroke-width:0.60000002;stroke-miterlimit:4;stroke-opacity:1;stroke-dasharray:none"
               id="g8847"
               transform="matrix(0,0.12,-0.12,0,773.4,16.60001)" />
            <g
               style="fill:none;stroke:#000000;stroke-width:0.60000002;stroke-miterlimit:4;stroke-opacity:1;stroke-dasharray:none"
               id="g8851"
               transform="matrix(0,0.12,-0.12,0,164.52,246.76)" />
            <g
               style="fill:none;stroke:#000000;stroke-width:0.60000002;stroke-miterlimit:4;stroke-opacity:1;stroke-dasharray:none"
               id="g8855"
               transform="matrix(0,0.12,-0.12,0,773.4,16.60001)" />
            <g
               style="fill:none;stroke:#000000;stroke-width:0.60000002;stroke-miterlimit:4;stroke-opacity:1;stroke-dasharray:none"
               id="g8859"
               transform="matrix(0,0.12,-0.12,0,238.08,88.95998)" />
            <g
               style="fill:none;stroke:#000000;stroke-width:0.60000002;stroke-miterlimit:4;stroke-opacity:1;stroke-dasharray:none"
               id="g8863"
               transform="matrix(0,0.12,-0.12,0,773.4,16.60001)" />
            <g
               style="fill:none;stroke:#000000;stroke-width:0.60000002;stroke-miterlimit:4;stroke-opacity:1;stroke-dasharray:none"
               id="g8867"
               transform="matrix(0,0.12,-0.12,0,480.36,158.08)" />
            <g
               style="fill:none;stroke:#000000;stroke-width:0.60000002;stroke-miterlimit:4;stroke-opacity:1;stroke-dasharray:none"
               id="g8871"
               transform="matrix(0,0.12,-0.12,0,773.4,16.60001)" />
            <g
               style="fill:none;stroke:#000000;stroke-width:0.60000002;stroke-miterlimit:4;stroke-opacity:1;stroke-dasharray:none"
               id="g8875"
               transform="matrix(0,0.12,-0.12,0,699,197.8)">
              <path
                 d="M -165,-1.442476e-5 C -165,-91.12699 -91.12698,-165 1.967605e-6,-165"
                 style="fill:none;stroke:#000000;stroke-width:0.60000002;stroke-linecap:round;stroke-linejoin:round;stroke-miterlimit:4;stroke-opacity:1;stroke-dasharray:none"
                 id="path8877"
                 inkscape:connector-curvature="0" />
            </g>
            <g
               style="fill:none;stroke:#000000;stroke-width:0.60000002;stroke-miterlimit:4;stroke-opacity:1;stroke-dasharray:none"
               id="g8879"
               transform="matrix(0,0.12,-0.12,0,773.4,16.60001)">
              <path
                 d="m 1510,455 2939,0"
                 style="fill:none;stroke:#000000;stroke-width:0.60000002;stroke-linecap:round;stroke-linejoin:round;stroke-miterlimit:4;stroke-opacity:1;stroke-dasharray:none"
                 id="path8881"
                 inkscape:connector-curvature="0" />
            </g>
            <g
               style="fill:none;stroke:#000000;stroke-width:0.60000002;stroke-miterlimit:4;stroke-opacity:1;stroke-dasharray:none"
               id="g8883"
               transform="matrix(0,0.12,-0.12,0,699,550.48)">
              <path
                 d="M 1.967605e-6,-165 C 91.12699,-165 165,-91.12698 165,1.967606e-6 c 0,8.995144e-6 0,1.7886774e-5 0,2.6881914e-5"
                 style="fill:none;stroke:#000000;stroke-width:0.60000002;stroke-linecap:round;stroke-linejoin:round;stroke-miterlimit:4;stroke-opacity:1;stroke-dasharray:none"
                 id="path8885"
                 inkscape:connector-curvature="0" />
            </g>
          </g>
        </g>
      </g>
      <g
         id="g3056">
        <g
           id="g3965">
          <g
             id="g3065">
            <g
               id="g3070">
              <path
                 sodipodi:nodetypes="cccccccccccccccccc"
                 d="m 4449,4260 -1742.0399,0.084 -0.2122,-209.9003 L 4329,4050 l 75,-76 0,-285 0,-406 0,-870 42,0 0,-272 -42,0 0,-1401 -75,-75 -2550,0 -224,225 0.043,1470.9223 -210.2212,0.1693 L 1345.003,620"
                 style="fill:none;stroke:#000000;stroke-width:0.60000002;stroke-linecap:round;stroke-linejoin:round;stroke-miterlimit:4;stroke-opacity:1;stroke-dasharray:none"
                 id="path8841"
                 inkscape:connector-curvature="0"
                 transform="matrix(0,-0.15,-0.15,0,1259.5778,719.74605)" />
            </g>
          </g>
        </g>
        <g
           id="g3052" />
      </g>
    </g>
  </g>
</svg>
