  0
SECTION
  2
HEADER
  9
$ACADVER
  1
AC1021
  9
$ACADMAINTVER
 70
    25
  9
$DWGCODEPAGE
  3
ANSI_1252
  9
$INSBASE
 10
0.0
 20
0.0
 30
0.0
  9
$EXTMIN
 10
-15.69704724409449
 20
1.739645669291339
 30
0.0
  9
$EXTMAX
 10
-7.718429133858268
 20
8.704759842519685
 30
0.0
  9
$LIMMIN
 10
0.0
 20
0.0
  9
$LIMMAX
 10
12.0
 20
9.0
  9
$ORTHOMODE
 70
     0
  9
$REGENMODE
 70
     1
  9
$FILLMODE
 70
     1
  9
$QTEXTMODE
 70
     0
  9
$MIRRTEXT
 70
     1
  9
$LTSCALE
 40
1.0
  9
$ATTMODE
 70
     1
  9
$TEXTSIZE
 40
0.2
  9
$TRACEWID
 40
0.05
  9
$TEXTSTYLE
  7
Standard
  9
$CLAYER
  8
0
  9
$CELTYPE
  6
ByLayer
  9
$CECOLOR
 62
   256
  9
$CELTSCALE
 40
1.0
  9
$DISPSILH
 70
     0
  9
$DIMSCALE
 40
1.0
  9
$DIMASZ
 40
0.18
  9
$DIMEXO
 40
0.0625
  9
$DIMDLI
 40
0.38
  9
$DIMRND
 40
0.0
  9
$DIMDLE
 40
0.0
  9
$DIMEXE
 40
0.18
  9
$DIMTP
 40
0.0
  9
$DIMTM
 40
0.0
  9
$DIMTXT
 40
0.18
  9
$DIMCEN
 40
0.09
  9
$DIMTSZ
 40
0.0
  9
$DIMTOL
 70
     0
  9
$DIMLIM
 70
     0
  9
$DIMTIH
 70
     1
  9
$DIMTOH
 70
     1
  9
$DIMSE1
 70
     0
  9
$DIMSE2
 70
     0
  9
$DIMTAD
 70
     0
  9
$DIMZIN
 70
     0
  9
$DIMBLK
  1

  9
$DIMASO
 70
     1
  9
$DIMSHO
 70
     1
  9
$DIMPOST
  1

  9
$DIMAPOST
  1

  9
$DIMALT
 70
     0
  9
$DIMALTD
 70
     2
  9
$DIMALTF
 40
25.4
  9
$DIMLFAC
 40
1.0
  9
$DIMTOFL
 70
     0
  9
$DIMTVP
 40
0.0
  9
$DIMTIX
 70
     0
  9
$DIMSOXD
 70
     0
  9
$DIMSAH
 70
     0
  9
$DIMBLK1
  1

  9
$DIMBLK2
  1

  9
$DIMSTYLE
  2
Standard
  9
$DIMCLRD
 70
     0
  9
$DIMCLRE
 70
     0
  9
$DIMCLRT
 70
     0
  9
$DIMTFAC
 40
1.0
  9
$DIMGAP
 40
0.09
  9
$DIMJUST
 70
     0
  9
$DIMSD1
 70
     0
  9
$DIMSD2
 70
     0
  9
$DIMTOLJ
 70
     1
  9
$DIMTZIN
 70
     0
  9
$DIMALTZ
 70
     0
  9
$DIMALTTZ
 70
     0
  9
$DIMUPT
 70
     0
  9
$DIMDEC
 70
     4
  9
$DIMTDEC
 70
     4
  9
$DIMALTU
 70
     2
  9
$DIMALTTD
 70
     2
  9
$DIMTXSTY
  7
Standard
  9
$DIMAUNIT
 70
     0
  9
$DIMADEC
 70
     0
  9
$DIMALTRND
 40
0.0
  9
$DIMAZIN
 70
     0
  9
$DIMDSEP
 70
    46
  9
$DIMATFIT
 70
     3
  9
$DIMFRAC
 70
     0
  9
$DIMLDRBLK
  1

  9
$DIMLUNIT
 70
     2
  9
$DIMLWD
 70
    -2
  9
$DIMLWE
 70
    -2
  9
$DIMTMOVE
 70
     0
  9
$DIMFXL
 40
1.0
  9
$DIMFXLON
 70
     0
  9
$DIMJOGANG
 40
0.7853981633974483
  9
$DIMTFILL
 70
     0
  9
$DIMTFILLCLR
 70
     0
  9
$DIMARCSYM
 70
     0
  9
$DIMLTYPE
  6

  9
$DIMLTEX1
  6

  9
$DIMLTEX2
  6

  9
$LUNITS
 70
     2
  9
$LUPREC
 70
     4
  9
$SKETCHINC
 40
0.1
  9
$FILLETRAD
 40
0.5
  9
$AUNITS
 70
     0
  9
$AUPREC
 70
     0
  9
$MENU
  1
.
  9
$ELEVATION
 40
0.0
  9
$PELEVATION
 40
0.0
  9
$THICKNESS
 40
0.0
  9
$LIMCHECK
 70
     0
  9
$CHAMFERA
 40
0.5
  9
$CHAMFERB
 40
0.5
  9
$CHAMFERC
 40
1.0
  9
$CHAMFERD
 40
0.0
  9
$SKPOLY
 70
     0
  9
$TDCREATE
 40
2456889.386730706
  9
$TDUCREATE
 40
2456889.595064039
  9
$TDUPDATE
 40
2456889.386730717
  9
$TDUUPDATE
 40
2456889.595064051
  9
$TDINDWG
 40
0.0000000116
  9
$TDUSRTIMER
 40
0.0000000116
  9
$USRTIMER
 70
     1
  9
$ANGBASE
 50
0.0
  9
$ANGDIR
 70
     0
  9
$PDMODE
 70
     0
  9
$PDSIZE
 40
0.0
  9
$PLINEWID
 40
0.0
  9
$SPLFRAME
 70
     0
  9
$SPLINETYPE
 70
     6
  9
$SPLINESEGS
 70
     8
  9
$HANDSEED
  5
DF
  9
$SURFTAB1
 70
     6
  9
$SURFTAB2
 70
     6
  9
$SURFTYPE
 70
     6
  9
$SURFU
 70
     6
  9
$SURFV
 70
     6
  9
$UCSBASE
  2

  9
$UCSNAME
  2

  9
$UCSORG
 10
0.0
 20
0.0
 30
0.0
  9
$UCSXDIR
 10
1.0
 20
0.0
 30
0.0
  9
$UCSYDIR
 10
0.0
 20
1.0
 30
0.0
  9
$UCSORTHOREF
  2

  9
$UCSORTHOVIEW
 70
     0
  9
$UCSORGTOP
 10
0.0
 20
0.0
 30
0.0
  9
$UCSORGBOTTOM
 10
0.0
 20
0.0
 30
0.0
  9
$UCSORGLEFT
 10
0.0
 20
0.0
 30
0.0
  9
$UCSORGRIGHT
 10
0.0
 20
0.0
 30
0.0
  9
$UCSORGFRONT
 10
0.0
 20
0.0
 30
0.0
  9
$UCSORGBACK
 10
0.0
 20
0.0
 30
0.0
  9
$PUCSBASE
  2

  9
$PUCSNAME
  2

  9
$PUCSORG
 10
0.0
 20
0.0
 30
0.0
  9
$PUCSXDIR
 10
1.0
 20
0.0
 30
0.0
  9
$PUCSYDIR
 10
0.0
 20
1.0
 30
0.0
  9
$PUCSORTHOREF
  2

  9
$PUCSORTHOVIEW
 70
     0
  9
$PUCSORGTOP
 10
0.0
 20
0.0
 30
0.0
  9
$PUCSORGBOTTOM
 10
0.0
 20
0.0
 30
0.0
  9
$PUCSORGLEFT
 10
0.0
 20
0.0
 30
0.0
  9
$PUCSORGRIGHT
 10
0.0
 20
0.0
 30
0.0
  9
$PUCSORGFRONT
 10
0.0
 20
0.0
 30
0.0
  9
$PUCSORGBACK
 10
0.0
 20
0.0
 30
0.0
  9
$USERI1
 70
     0
  9
$USERI2
 70
     0
  9
$USERI3
 70
     0
  9
$USERI4
 70
     0
  9
$USERI5
 70
     0
  9
$USERR1
 40
0.0
  9
$USERR2
 40
0.0
  9
$USERR3
 40
0.0
  9
$USERR4
 40
0.0
  9
$USERR5
 40
0.0
  9
$WORLDVIEW
 70
     1
  9
$SHADEDGE
 70
     3
  9
$SHADEDIF
 70
    70
  9
$TILEMODE
 70
     1
  9
$MAXACTVP
 70
    64
  9
$PINSBASE
 10
0.0
 20
0.0
 30
0.0
  9
$PLIMCHECK
 70
     0
  9
$PEXTMIN
 10
1.000000000000000E+20
 20
1.000000000000000E+20
 30
1.000000000000000E+20
  9
$PEXTMAX
 10
-1.000000000000000E+20
 20
-1.000000000000000E+20
 30
-1.000000000000000E+20
  9
$PLIMMIN
 10
0.0
 20
0.0
  9
$PLIMMAX
 10
12.0
 20
9.0
  9
$UNITMODE
 70
     0
  9
$VISRETAIN
 70
     1
  9
$PLINEGEN
 70
     0
  9
$PSLTSCALE
 70
     1
  9
$TREEDEPTH
 70
  3020
  9
$CMLSTYLE
  2
Standard
  9
$CMLJUST
 70
     0
  9
$CMLSCALE
 40
1.0
  9
$PROXYGRAPHICS
 70
     1
  9
$MEASUREMENT
 70
     0
  9
$CELWEIGHT
370
    -1
  9
$ENDCAPS
280
     0
  9
$JOINSTYLE
280
     0
  9
$LWDISPLAY
290
     0
  9
$INSUNITS
 70
     1
  9
$HYPERLINKBASE
  1

  9
$STYLESHEET
  1

  9
$XEDIT
290
     1
  9
$CEPSNTYPE
380
     0
  9
$PSTYLEMODE
290
     1
  9
$FINGERPRINTGUID
  2
{C09124BE-959A-404F-A43C-E248C68BF159}
  9
$VERSIONGUID
  2
{FAEB1C32-E019-11D5-929B-00C0DF256EC4}
  9
$EXTNAMES
290
     1
  9
$PSVPSCALE
 40
0.0
  9
$OLESTARTUP
290
     0
  9
$SORTENTS
280
   127
  9
$INDEXCTL
280
     0
  9
$HIDETEXT
280
     1
  9
$XCLIPFRAME
290
     0
  9
$HALOGAP
280
     0
  9
$OBSCOLOR
 70
   257
  9
$OBSLTYPE
280
     0
  9
$INTERSECTIONDISPLAY
280
     0
  9
$INTERSECTIONCOLOR
 70
   257
  9
$DIMASSOC
280
     2
  9
$PROJECTNAME
  1

  9
$CAMERADISPLAY
290
     0
  9
$LENSLENGTH
 40
50.0
  9
$CAMERAHEIGHT
 40
0.0
  9
$STEPSPERSEC
 40
2.0
  9
$STEPSIZE
 40
6.0
  9
$3DDWFPREC
 40
2.0
  9
$PSOLWIDTH
 40
0.25
  9
$PSOLHEIGHT
 40
4.0
  9
$LOFTANG1
 40
1.570796326794897
  9
$LOFTANG2
 40
1.570796326794897
  9
$LOFTMAG1
 40
0.0
  9
$LOFTMAG2
 40
0.0
  9
$LOFTPARAM
 70
     7
  9
$LOFTNORMALS
280
     1
  9
$LATITUDE
 40
37.795
  9
$LONGITUDE
 40
-122.394
  9
$NORTHDIRECTION
 40
0.0
  9
$TIMEZONE
 70
 -8000
  9
$LIGHTGLYPHDISPLAY
280
     1
  9
$TILEMODELIGHTSYNCH
280
     1
  9
$SOLIDHIST
280
     1
  9
$SHOWHIST
280
     1
  9
$DWFFRAME
280
     2
  9
$DGNFRAME
280
     2
  9
$REALWORLDSCALE
290
     1
  9
$INTERFERECOLOR
 62
   256
  9
$CSHADOW
280
     0
  9
$SHADOWPLANELOCATION
 40
0.0
  0
ENDSEC
  0
SECTION
  2
CLASSES
  0
CLASS
  1
ACDBDICTIONARYWDFLT
  2
AcDbDictionaryWithDefault
  3
ObjectDBX Classes
 90
        0
 91
        4
280
     0
281
     0
  0
CLASS
  1
VISUALSTYLE
  2
AcDbVisualStyle
  3
ObjectDBX Classes
 90
     4095
 91
        4
280
     0
281
     0
  0
CLASS
  1
MATERIAL
  2
AcDbMaterial
  3
ObjectDBX Classes
 90
     1153
 91
        4
280
     0
281
     0
  0
ENDSEC
  0
SECTION
  2
TABLES
  0
TABLE
  2
VPORT
  5
8
330
0
100
AcDbSymbolTable
 70
     1
  0
VPORT
  5
29
330
8
100
AcDbSymbolTableRecord
100
AcDbViewportTableRecord
  2
*Active
 70
     0
 10
0.0
 20
0.0
 11
1.0
 21
1.0
 12
10.42990654205607
 22
4.5
 13
0.0
 23
0.0
 14
0.5
 24
0.5
 15
0.5
 25
0.5
 16
0.0
 26
0.0
 36
1.0
 17
0.0
 27
0.0
 37
0.0
 40
9.0
 41
1.972972972850329
 42
50.0
 43
0.0
 44
0.0
 50
0.0
 51
0.0
 71
     0
 72
   100
 73
     1
 74
     3
 75
     0
 76
     0
 77
     0
 78
     0
281
     0
 65
     1
110
0.0
120
0.0
130
0.0
111
1.0
121
0.0
131
0.0
112
0.0
122
1.0
132
0.0
 79
     0
146
0.0
 60
     3
 61
     5
292
     1
282
     1
141
0.0
142
0.0
 63
   250
  0
ENDTAB
  0
TABLE
  2
LTYPE
  5
5
330
0
100
AcDbSymbolTable
 70
     1
  0
LTYPE
  5
14
330
5
100
AcDbSymbolTableRecord
100
AcDbLinetypeTableRecord
  2
ByBlock
 70
     0
  3

 72
    65
 73
     0
 40
0.0
  0
LTYPE
  5
15
330
5
100
AcDbSymbolTableRecord
100
AcDbLinetypeTableRecord
  2
ByLayer
 70
     0
  3

 72
    65
 73
     0
 40
0.0
  0
LTYPE
  5
16
330
5
100
AcDbSymbolTableRecord
100
AcDbLinetypeTableRecord
  2
Continuous
 70
     0
  3
Solid line
 72
    65
 73
     0
 40
0.0
  0
ENDTAB
  0
TABLE
  2
LAYER
  5
2
330
0
100
AcDbSymbolTable
 70
     2
  0
LAYER
  5
10
330
2
100
AcDbSymbolTableRecord
100
AcDbLayerTableRecord
  2
0
 70
     0
 62
     7
  6
Continuous
370
    -3
390
F
347
3E
  0
LAYER
  5
77
330
2
100
AcDbSymbolTableRecord
100
AcDbLayerTableRecord
  2
Master Layer 2
 70
     0
 62
     7
  6
Continuous
370
    -3
390
F
347
3E
  0
ENDTAB
  0
TABLE
  2
STYLE
  5
3
330
0
100
AcDbSymbolTable
 70
     1
  0
STYLE
  5
11
330
3
100
AcDbSymbolTableRecord
100
AcDbTextStyleTableRecord
  2
Standard
 70
     0
 40
0.0
 41
1.0
 50
0.0
 71
     0
 42
0.2
  3
txt
  4

  0
ENDTAB
  0
TABLE
  2
VIEW
  5
6
330
0
100
AcDbSymbolTable
 70
     0
  0
ENDTAB
  0
TABLE
  2
UCS
  5
7
330
0
100
AcDbSymbolTable
 70
     0
  0
ENDTAB
  0
TABLE
  2
APPID
  5
9
330
0
100
AcDbSymbolTable
 70
     2
  0
APPID
  5
12
330
9
100
AcDbSymbolTableRecord
100
AcDbRegAppTableRecord
  2
ACAD
 70
     0
  0
APPID
  5
3F
330
9
100
AcDbSymbolTableRecord
100
AcDbRegAppTableRecord
  2
ODA
 70
     0
  0
ENDTAB
  0
TABLE
  2
DIMSTYLE
  5
A
330
0
100
AcDbSymbolTable
 70
     1
100
AcDbDimStyleTable
  0
DIMSTYLE
105
27
330
A
100
AcDbSymbolTableRecord
100
AcDbDimStyleTableRecord
  2
Standard
 70
     0
178
     0
340
11
  0
ENDTAB
  0
TABLE
  2
BLOCK_RECORD
  5
1
330
0
100
AcDbSymbolTable
 70
     1
  0
BLOCK_RECORD
  5
1F
330
1
100
AcDbSymbolTableRecord
100
AcDbBlockTableRecord
  2
*Model_Space
340
22
 70
     0
280
     1
281
     0
  0
BLOCK_RECORD
  5
1B
330
1
100
AcDbSymbolTableRecord
100
AcDbBlockTableRecord
  2
*Paper_Space
340
1E
 70
     0
280
     1
281
     0
  0
BLOCK_RECORD
  5
23
330
1
100
AcDbSymbolTableRecord
100
AcDbBlockTableRecord
  2
*Paper_Space0
340
26
 70
     0
280
     1
281
     0
  0
ENDTAB
  0
ENDSEC
  0
SECTION
  2
BLOCKS
  0
BLOCK
  5
20
330
1F
100
AcDbEntity
  8
0
100
AcDbBlockBegin
  2
*Model_Space
 70
     0
 10
0.0
 20
0.0
 30
0.0
  3
*Model_Space
  1

  0
ENDBLK
  5
21
330
1F
100
AcDbEntity
  8
0
100
AcDbBlockEnd
  0
BLOCK
  5
1C
330
1B
100
AcDbEntity
 67
     1
  8
0
100
AcDbBlockBegin
  2
*Paper_Space
 70
     0
 10
0.0
 20
0.0
 30
0.0
  3
*Paper_Space
  1

  0
ENDBLK
  5
1D
330
1B
100
AcDbEntity
 67
     1
  8
0
100
AcDbBlockEnd
  0
BLOCK
  5
24
330
23
100
AcDbEntity
  8
0
100
AcDbBlockBegin
  2
*Paper_Space0
 70
     0
 10
0.0
 20
0.0
 30
0.0
  3
*Paper_Space0
  1

  0
ENDBLK
  5
25
330
23
100
AcDbEntity
  8
0
100
AcDbBlockEnd
  0
ENDSEC
  0
SECTION
  2
ENTITIES
  0
SPLINE
  5
40
330
1F
100
AcDbEntity
  8
0
370
     9
100
AcDbSpline
210
0.0
220
0.0
230
1.0
 70
    24
 71
     3
 72
     8
 73
     4
 74
     0
 42
0.0000000001
 43
0.0000000001
 40
0.0
 40
0.0
 40
0.0
 40
0.0
 40
1.0
 40
1.0
 40
1.0
 40
1.0
 10
-12.88952755905512
 20
8.442874015748032
 30
0.0
 10
-12.88952755905512
 20
8.442874015748032
 30
0.0
 10
-12.88952755905512
 20
8.50196062992126
 30
0.0
 10
-12.88952755905512
 20
8.50196062992126
 30
0.0
  0
SPLINE
  5
41
330
1F
100
AcDbEntity
  8
0
370
     9
100
AcDbSpline
210
0.0
220
0.0
230
1.0
 70
    24
 71
     3
 72
     8
 73
     4
 74
     0
 42
0.0000000001
 43
0.0000000001
 40
0.0
 40
0.0
 40
0.0
 40
0.0
 40
1.0
 40
1.0
 40
1.0
 40
1.0
 10
-7.99551968503937
 20
8.703259842519685
 30
0.0
 10
-7.99551968503937
 20
8.703259842519685
 30
0.0
 10
-10.18092913385827
 20
8.703259842519685
 30
0.0
 10
-10.18092913385827
 20
8.703259842519685
 30
0.0
  0
SPLINE
  5
42
330
1F
100
AcDbEntity
  8
0
370
     9
100
AcDbSpline
210
0.0
220
0.0
230
1.0
 70
    24
 71
     3
 72
     8
 73
     4
 74
     0
 42
0.0000000001
 43
0.0000000001
 40
0.0
 40
0.0
 40
0.0
 40
0.0
 40
1.0
 40
1.0
 40
1.0
 40
1.0
 10
-11.33392913385827
 20
8.703259842519685
 30
0.0
 10
-11.33392913385827
 20
8.703259842519685
 30
0.0
 10
-12.08492913385827
 20
8.703259842519685
 30
0.0
 10
-12.08492913385827
 20
8.703259842519685
 30
0.0
  0
SPLINE
  5
43
330
1F
100
AcDbEntity
  8
0
370
     9
100
AcDbSpline
210
0.0
220
0.0
230
1.0
 70
    24
 71
     3
 72
     8
 73
     4
 74
     0
 42
0.0000000001
 43
0.0000000001
 40
0.0
 40
0.0
 40
0.0
 40
0.0
 40
1.0
 40
1.0
 40
1.0
 40
1.0
 10
-13.46692913385827
 20
8.703259842519685
 30
0.0
 10
-13.46692913385827
 20
8.703259842519685
 30
0.0
 10
-13.78633858267717
 20
8.703259842519685
 30
0.0
 10
-13.78633858267717
 20
8.703259842519685
 30
0.0
  0
SPLINE
  5
44
330
1F
100
AcDbEntity
  8
0
370
     9
100
AcDbSpline
210
0.0
220
0.0
230
1.0
 70
    24
 71
     3
 72
     8
 73
     4
 74
     0
 42
0.0000000001
 43
0.0000000001
 40
0.0
 40
0.0
 40
0.0
 40
0.0
 40
1.0
 40
1.0
 40
1.0
 40
1.0
 10
-13.02732283464567
 20
8.442874015748032
 30
0.0
 10
-13.02732283464567
 20
8.442874015748032
 30
0.0
 10
-13.02732283464567
 20
8.303393700787401
 30
0.0
 10
-13.02732283464567
 20
8.303393700787401
 30
0.0
  0
SPLINE
  5
45
330
1F
100
AcDbEntity
  8
0
370
     9
100
AcDbSpline
210
0.0
220
0.0
230
1.0
 70
    24
 71
     3
 72
     8
 73
     4
 74
     0
 42
0.0000000001
 43
0.0000000001
 40
0.0
 40
0.0
 40
0.0
 40
0.0
 40
1.0
 40
1.0
 40
1.0
 40
1.0
 10
-13.02732283464567
 20
7.911377952755905
 30
0.0
 10
-13.02732283464567
 20
7.911377952755905
 30
0.0
 10
-12.52453543307087
 20
7.911377952755905
 30
0.0
 10
-12.52453543307087
 20
7.911377952755905
 30
0.0
  0
SPLINE
  5
46
330
1F
100
AcDbEntity
  8
0
370
     9
100
AcDbSpline
210
0.0
220
0.0
230
1.0
 70
    24
 71
     3
 72
     8
 73
     4
 74
     0
 42
0.0000000001
 43
0.0000000001
 40
0.0
 40
0.0
 40
0.0
 40
0.0
 40
1.0
 40
1.0
 40
1.0
 40
1.0
 10
-12.52453543307087
 20
7.911377952755905
 30
0.0
 10
-12.52453543307087
 20
7.911377952755905
 30
0.0
 10
-12.52453543307087
 20
8.03117716535433
 30
0.0
 10
-12.52453543307087
 20
8.03117716535433
 30
0.0
  0
SPLINE
  5
47
330
1F
100
AcDbEntity
  8
0
370
     9
100
AcDbSpline
210
0.0
220
0.0
230
1.0
 70
    24
 71
     3
 72
     8
 73
     4
 74
     0
 42
0.0000000001
 43
0.0000000001
 40
0.0
 40
0.0
 40
0.0
 40
0.0
 40
1.0
 40
1.0
 40
1.0
 40
1.0
 10
-10.90953149606299
 20
8.344448818897638
 30
0.0
 10
-10.90953149606299
 20
8.344448818897638
 30
0.0
 10
-11.01944881889764
 20
8.344448818897638
 30
0.0
 10
-11.01944881889764
 20
8.344448818897638
 30
0.0
  0
SPLINE
  5
48
330
1F
100
AcDbEntity
  8
0
370
     9
100
AcDbSpline
210
0.0
220
0.0
230
1.0
 70
    24
 71
     3
 72
     8
 73
     4
 74
     0
 42
0.0000000001
 43
0.0000000001
 40
0.0
 40
0.0
 40
0.0
 40
0.0
 40
1.0
 40
1.0
 40
1.0
 40
1.0
 10
-10.60633070866142
 20
8.50196062992126
 30
0.0
 10
-10.60633070866142
 20
8.50196062992126
 30
0.0
 10
-10.60633070866142
 20
8.344448818897638
 30
0.0
 10
-10.60633070866142
 20
8.344448818897638
 30
0.0
  0
SPLINE
  5
49
330
1F
100
AcDbEntity
  8
0
370
     9
100
AcDbSpline
210
0.0
220
0.0
230
1.0
 70
    24
 71
     3
 72
     8
 73
     4
 74
     0
 42
0.0000000001
 43
0.0000000001
 40
0.0
 40
0.0
 40
0.0
 40
0.0
 40
1.0
 40
1.0
 40
1.0
 40
1.0
 10
-8.617874015748031
 20
8.344448818897638
 30
0.0
 10
-8.617874015748031
 20
8.344448818897638
 30
0.0
 10
-10.60633070866142
 20
8.344448818897638
 30
0.0
 10
-10.60633070866142
 20
8.344448818897638
 30
0.0
  0
SPLINE
  5
4A
330
1F
100
AcDbEntity
  8
0
370
     9
100
AcDbSpline
210
0.0
220
0.0
230
1.0
 70
    24
 71
     3
 72
     8
 73
     4
 74
     0
 42
0.0000000001
 43
0.0000000001
 40
0.0
 40
0.0
 40
0.0
 40
0.0
 40
1.0
 40
1.0
 40
1.0
 40
1.0
 10
-12.65330708661417
 20
8.50196062992126
 30
0.0
 10
-12.65330708661417
 20
8.50196062992126
 30
0.0
 10
-12.65330708661417
 20
8.442874015748032
 30
0.0
 10
-12.65330708661417
 20
8.442874015748032
 30
0.0
  0
SPLINE
  5
4B
330
1F
100
AcDbEntity
  8
0
370
     9
100
AcDbSpline
210
0.0
220
0.0
230
1.0
 70
    24
 71
     3
 72
     8
 73
     4
 74
     0
 42
0.0000000001
 43
0.0000000001
 40
0.0
 40
0.0
 40
0.0
 40
0.0
 40
1.0
 40
1.0
 40
1.0
 40
1.0
 10
-10.60633070866142
 20
8.50196062992126
 30
0.0
 10
-10.60633070866142
 20
8.50196062992126
 30
0.0
 10
-10.54727559055118
 20
8.50196062992126
 30
0.0
 10
-10.54727559055118
 20
8.50196062992126
 30
0.0
  0
SPLINE
  5
4C
330
1F
100
AcDbEntity
  8
0
370
     9
100
AcDbSpline
210
0.0
220
0.0
230
1.0
 70
    24
 71
     3
 72
     8
 73
     4
 74
     0
 42
0.0000000001
 43
0.0000000001
 40
0.0
 40
0.0
 40
0.0
 40
0.0
 40
1.0
 40
1.0
 40
1.0
 40
1.0
 10
-10.96858661417323
 20
8.50196062992126
 30
0.0
 10
-10.96858661417323
 20
8.50196062992126
 30
0.0
 10
-10.90953149606299
 20
8.50196062992126
 30
0.0
 10
-10.90953149606299
 20
8.50196062992126
 30
0.0
  0
SPLINE
  5
4D
330
1F
100
AcDbEntity
  8
0
370
     9
100
AcDbSpline
210
0.0
220
0.0
230
1.0
 70
    24
 71
     3
 72
     8
 73
     4
 74
     0
 42
0.0000000001
 43
0.0000000001
 40
0.0
 40
0.0
 40
0.0
 40
0.0
 40
1.0
 40
1.0
 40
1.0
 40
1.0
 10
-10.54727559055118
 20
8.50196062992126
 30
0.0
 10
-10.54727559055118
 20
8.50196062992126
 30
0.0
 10
-10.18092913385827
 20
8.703259842519685
 30
0.0
 10
-10.18092913385827
 20
8.703259842519685
 30
0.0
  0
SPLINE
  5
4E
330
1F
100
AcDbEntity
  8
0
370
     9
100
AcDbSpline
210
0.0
220
0.0
230
1.0
 70
    24
 71
     3
 72
     8
 73
     4
 74
     0
 42
0.0000000001
 43
0.0000000001
 40
0.0
 40
0.0
 40
0.0
 40
0.0
 40
1.0
 40
1.0
 40
1.0
 40
1.0
 10
-11.33392913385827
 20
8.703259842519685
 30
0.0
 10
-11.33392913385827
 20
8.703259842519685
 30
0.0
 10
-10.96758661417323
 20
8.50196062992126
 30
0.0
 10
-10.96758661417323
 20
8.50196062992126
 30
0.0
  0
SPLINE
  5
4F
330
1F
100
AcDbEntity
  8
0
370
     9
100
AcDbSpline
210
0.0
220
0.0
230
1.0
 70
    24
 71
     3
 72
     8
 73
     4
 74
     0
 42
0.0000000001
 43
0.0000000001
 40
0.0
 40
0.0
 40
0.0
 40
0.0
 40
1.0
 40
1.0
 40
1.0
 40
1.0
 10
-12.65330708661417
 20
8.50196062992126
 30
0.0
 10
-12.65330708661417
 20
8.50196062992126
 30
0.0
 10
-12.63137401574803
 20
8.50196062992126
 30
0.0
 10
-12.63137401574803
 20
8.50196062992126
 30
0.0
  0
SPLINE
  5
50
330
1F
100
AcDbEntity
  8
0
370
     9
100
AcDbSpline
210
0.0
220
0.0
230
1.0
 70
    24
 71
     3
 72
     8
 73
     4
 74
     0
 42
0.0000000001
 43
0.0000000001
 40
0.0
 40
0.0
 40
0.0
 40
0.0
 40
1.0
 40
1.0
 40
1.0
 40
1.0
 10
-12.9204842519685
 20
8.50196062992126
 30
0.0
 10
-12.9204842519685
 20
8.50196062992126
 30
0.0
 10
-12.88952755905512
 20
8.50196062992126
 30
0.0
 10
-12.88952755905512
 20
8.50196062992126
 30
0.0
  0
SPLINE
  5
51
330
1F
100
AcDbEntity
  8
0
370
     9
100
AcDbSpline
210
0.0
220
0.0
230
1.0
 70
    24
 71
     3
 72
     8
 73
     4
 74
     0
 42
0.0000000001
 43
0.0000000001
 40
0.0
 40
0.0
 40
0.0
 40
0.0
 40
1.0
 40
1.0
 40
1.0
 40
1.0
 10
-12.63137401574803
 20
8.50196062992126
 30
0.0
 10
-12.63137401574803
 20
8.50196062992126
 30
0.0
 10
-12.08492913385827
 20
8.703259842519685
 30
0.0
 10
-12.08492913385827
 20
8.703259842519685
 30
0.0
  0
SPLINE
  5
52
330
1F
100
AcDbEntity
  8
0
370
     9
100
AcDbSpline
210
0.0
220
0.0
230
1.0
 70
    24
 71
     3
 72
     8
 73
     4
 74
     0
 42
0.0000000001
 43
0.0000000001
 40
0.0
 40
0.0
 40
0.0
 40
0.0
 40
1.0
 40
1.0
 40
1.0
 40
1.0
 10
-13.46692913385827
 20
8.703259842519685
 30
0.0
 10
-13.46692913385827
 20
8.703259842519685
 30
0.0
 10
-12.9204842519685
 20
8.50196062992126
 30
0.0
 10
-12.9204842519685
 20
8.50196062992126
 30
0.0
  0
SPLINE
  5
53
330
1F
100
AcDbEntity
  8
0
370
     9
100
AcDbSpline
210
0.0
220
0.0
230
1.0
 70
    24
 71
     3
 72
     8
 73
     4
 74
     0
 42
0.0000000001
 43
0.0000000001
 40
0.0
 40
0.0
 40
0.0
 40
0.0
 40
1.0
 40
1.0
 40
1.0
 40
1.0
 10
-12.88952755905512
 20
8.442874015748032
 30
0.0
 10
-12.88952755905512
 20
8.442874015748032
 30
0.0
 10
-13.02732283464567
 20
8.442874015748032
 30
0.0
 10
-13.02732283464567
 20
8.442874015748032
 30
0.0
  0
SPLINE
  5
54
330
1F
100
AcDbEntity
  8
0
370
     9
100
AcDbSpline
210
0.0
220
0.0
230
1.0
 70
    24
 71
     3
 72
     8
 73
     4
 74
     0
 42
0.0000000001
 43
0.0000000001
 40
0.0
 40
0.0
 40
0.0
 40
0.0
 40
1.0
 40
1.0
 40
1.0
 40
1.0
 10
-12.52453543307087
 20
8.442874015748032
 30
0.0
 10
-12.52453543307087
 20
8.442874015748032
 30
0.0
 10
-12.65330708661417
 20
8.442874015748032
 30
0.0
 10
-12.65330708661417
 20
8.442874015748032
 30
0.0
  0
SPLINE
  5
55
330
1F
100
AcDbEntity
  8
0
370
     9
100
AcDbSpline
210
0.0
220
0.0
230
1.0
 70
    24
 71
     3
 72
     8
 73
     4
 74
     0
 42
0.0000000001
 43
0.0000000001
 40
0.0
 40
0.0
 40
0.0
 40
0.0
 40
1.0
 40
1.0
 40
1.0
 40
1.0
 10
-13.02732283464567
 20
7.990118110236221
 30
0.0
 10
-13.02732283464567
 20
7.990118110236221
 30
0.0
 10
-13.02732283464567
 20
7.911377952755905
 30
0.0
 10
-13.02732283464567
 20
7.911377952755905
 30
0.0
  0
SPLINE
  5
56
330
1F
100
AcDbEntity
  8
0
370
     9
100
AcDbSpline
210
0.0
220
0.0
230
1.0
 70
    24
 71
     3
 72
     8
 73
     4
 74
     0
 42
0.0000000001
 43
0.0000000001
 40
0.0
 40
0.0
 40
0.0
 40
0.0
 40
1.0
 40
1.0
 40
1.0
 40
1.0
 10
-12.52453543307087
 20
8.344448818897638
 30
0.0
 10
-12.52453543307087
 20
8.344448818897638
 30
0.0
 10
-12.40657086614173
 20
8.344448818897638
 30
0.0
 10
-12.40657086614173
 20
8.344448818897638
 30
0.0
  0
SPLINE
  5
57
330
1F
100
AcDbEntity
  8
0
370
     9
100
AcDbSpline
210
0.0
220
0.0
230
1.0
 70
    24
 71
     3
 72
     8
 73
     4
 74
     0
 42
0.0000000001
 43
0.0000000001
 40
0.0
 40
0.0
 40
0.0
 40
0.0
 40
1.0
 40
1.0
 40
1.0
 40
1.0
 10
-12.40660236220472
 20
8.03109842519685
 30
0.0
 10
-12.40660236220472
 20
8.03109842519685
 30
0.0
 10
-12.40657086614173
 20
8.344448818897638
 30
0.0
 10
-12.40657086614173
 20
8.344448818897638
 30
0.0
  0
SPLINE
  5
58
330
1F
100
AcDbEntity
  8
0
370
     9
100
AcDbSpline
210
0.0
220
0.0
230
1.0
 70
    24
 71
     3
 72
     8
 73
     4
 74
     0
 42
0.0000000001
 43
0.0000000001
 40
0.0
 40
0.0
 40
0.0
 40
0.0
 40
1.0
 40
1.0
 40
1.0
 40
1.0
 10
-12.52453543307087
 20
8.03117716535433
 30
0.0
 10
-12.52453543307087
 20
8.03117716535433
 30
0.0
 10
-12.40660236220472
 20
8.03109842519685
 30
0.0
 10
-12.40660236220472
 20
8.03109842519685
 30
0.0
  0
SPLINE
  5
59
330
1F
100
AcDbEntity
  8
0
370
     9
100
AcDbSpline
210
0.0
220
0.0
230
1.0
 70
    24
 71
     3
 72
     8
 73
     4
 74
     0
 42
0.0000000001
 43
0.0000000001
 40
0.0
 40
0.0
 40
0.0
 40
0.0
 40
1.0
 40
1.0
 40
1.0
 40
1.0
 10
-12.52453543307087
 20
8.344448818897638
 30
0.0
 10
-12.52453543307087
 20
8.344448818897638
 30
0.0
 10
-12.52453543307087
 20
8.442874015748032
 30
0.0
 10
-12.52453543307087
 20
8.442874015748032
 30
0.0
  0
SPLINE
  5
5A
330
1F
100
AcDbEntity
  8
0
 62
     1
370
     9
100
AcDbSpline
210
0.0
220
0.0
230
1.0
 70
    24
 71
     3
 72
     8
 73
     4
 74
     0
 42
0.0000000001
 43
0.0000000001
 40
0.0
 40
0.0
 40
0.0
 40
0.0
 40
1.0
 40
1.0
 40
1.0
 40
1.0
 10
-12.17105118110236
 20
8.334645669291339
 30
0.0
 10
-12.17105118110236
 20
8.334645669291339
 30
0.0
 10
-11.78130708661417
 20
7.94490157480315
 30
0.0
 10
-11.78130708661417
 20
7.94490157480315
 30
0.0
  0
SPLINE
  5
5B
330
1F
100
AcDbEntity
  8
0
 62
     1
370
     9
100
AcDbSpline
210
0.0
220
0.0
230
1.0
 70
    24
 71
     3
 72
     8
 73
     4
 74
     0
 42
0.0000000001
 43
0.0000000001
 40
0.0
 40
0.0
 40
0.0
 40
0.0
 40
1.0
 40
1.0
 40
1.0
 40
1.0
 10
-11.78130708661417
 20
7.94490157480315
 30
0.0
 10
-11.78130708661417
 20
7.94490157480315
 30
0.0
 10
-12.00759448818898
 20
7.718614173228347
 30
0.0
 10
-12.00759448818898
 20
7.718614173228347
 30
0.0
  0
SPLINE
  5
5C
330
1F
100
AcDbEntity
  8
0
370
     9
100
AcDbSpline
210
0.0
220
0.0
230
1.0
 70
    24
 71
     3
 72
     8
 73
     4
 74
     0
 42
0.0000000001
 43
0.0000000001
 40
0.0
 40
0.0
 40
0.0
 40
0.0
 40
1.0
 40
1.0
 40
1.0
 40
1.0
 10
-11.46559842519685
 20
8.161259842519685
 30
0.0
 10
-11.46559842519685
 20
8.161259842519685
 30
0.0
 10
-11.01944881889764
 20
8.161259842519685
 30
0.0
 10
-11.01944881889764
 20
8.161259842519685
 30
0.0
  0
SPLINE
  5
5D
330
1F
100
AcDbEntity
  8
0
370
     9
100
AcDbSpline
210
0.0
220
0.0
230
1.0
 70
    24
 71
     3
 72
     8
 73
     4
 74
     0
 42
0.0000000001
 43
0.0000000001
 40
0.0
 40
0.0
 40
0.0
 40
0.0
 40
1.0
 40
1.0
 40
1.0
 40
1.0
 10
-11.01944881889764
 20
8.344448818897638
 30
0.0
 10
-11.01944881889764
 20
8.344448818897638
 30
0.0
 10
-11.01944881889764
 20
8.161259842519685
 30
0.0
 10
-11.01944881889764
 20
8.161259842519685
 30
0.0
  0
SPLINE
  5
5E
330
1F
100
AcDbEntity
  8
0
370
     9
100
AcDbSpline
210
0.0
220
0.0
230
1.0
 70
     8
 71
     3
 72
     8
 73
     4
 74
     0
 42
0.0000000001
 43
0.0000000001
 40
0.0
 40
0.0
 40
0.0
 40
0.0
 40
1.0
 40
1.0
 40
1.0
 40
1.0
 10
-14.22105905511811
 20
5.07203937007874
 30
0.0
 10
-14.1239842519685
 20
5.1173031496063
 30
0.0
 10
-14.06192913385827
 20
5.214704724409449
 30
0.0
 10
-14.06192913385827
 20
5.321811023622047
 30
0.0
  0
SPLINE
  5
5F
330
1F
100
AcDbEntity
  8
0
370
     9
100
AcDbSpline
210
0.0
220
0.0
230
1.0
 70
     8
 71
     3
 72
     8
 73
     4
 74
     0
 42
0.0000000001
 43
0.0000000001
 40
0.0
 40
0.0
 40
0.0
 40
0.0
 40
1.0
 40
1.0
 40
1.0
 40
1.0
 10
-11.03224409448819
 20
3.253259842519685
 30
0.0
 10
-11.07248031496063
 20
3.253259842519685
 30
0.0
 10
-11.11222834645669
 20
3.244448818897638
 30
0.0
 10
-11.14869291338583
 20
3.227444881889764
 30
0.0
  0
SPLINE
  5
60
330
1F
100
AcDbEntity
  8
0
370
     9
100
AcDbSpline
210
0.0
220
0.0
230
1.0
 70
    24
 71
     3
 72
     8
 73
     4
 74
     0
 42
0.0000000001
 43
0.0000000001
 40
0.0
 40
0.0
 40
0.0
 40
0.0
 40
1.0
 40
1.0
 40
1.0
 40
1.0
 10
-14.06192913385827
 20
8.427669291338583
 30
0.0
 10
-14.06192913385827
 20
8.427669291338583
 30
0.0
 10
-14.06192913385827
 20
5.321814960629921
 30
0.0
 10
-14.06192913385827
 20
5.321814960629921
 30
0.0
  0
SPLINE
  5
61
330
1F
100
AcDbEntity
  8
0
370
     9
100
AcDbSpline
210
0.0
220
0.0
230
1.0
 70
    24
 71
     3
 72
     8
 73
     4
 74
     0
 42
0.0000000001
 43
0.0000000001
 40
0.0
 40
0.0
 40
0.0
 40
0.0
 40
1.0
 40
1.0
 40
1.0
 40
1.0
 10
-7.719929133858268
 20
3.528850393700787
 30
0.0
 10
-7.719929133858268
 20
3.528850393700787
 30
0.0
 10
-7.719929133858268
 20
8.427669291338583
 30
0.0
 10
-7.719929133858268
 20
8.427669291338583
 30
0.0
  0
SPLINE
  5
62
330
1F
100
AcDbEntity
  8
0
370
     9
100
AcDbSpline
210
0.0
220
0.0
230
1.0
 70
    24
 71
     3
 72
     8
 73
     4
 74
     0
 42
0.0000000001
 43
0.0000000001
 40
0.0
 40
0.0
 40
0.0
 40
0.0
 40
1.0
 40
1.0
 40
1.0
 40
1.0
 10
-15.66973228346457
 20
4.092484251968504
 30
0.0
 10
-15.66973228346457
 20
4.092484251968504
 30
0.0
 10
-14.64751181102362
 20
1.900307086614173
 30
0.0
 10
-14.64751181102362
 20
1.900307086614173
 30
0.0
  0
SPLINE
  5
63
330
1F
100
AcDbEntity
  8
0
370
     9
100
AcDbSpline
210
0.0
220
0.0
230
1.0
 70
    24
 71
     3
 72
     8
 73
     4
 74
     0
 42
0.0000000001
 43
0.0000000001
 40
0.0
 40
0.0
 40
0.0
 40
0.0
 40
1.0
 40
1.0
 40
1.0
 40
1.0
 10
-14.28129133858268
 20
1.767
 30
0.0
 10
-14.28129133858268
 20
1.767
 30
0.0
 10
-11.14869291338583
 20
3.227444881889764
 30
0.0
 10
-11.14869291338583
 20
3.227444881889764
 30
0.0
  0
SPLINE
  5
64
330
1F
100
AcDbEntity
  8
0
370
     9
100
AcDbSpline
210
0.0
220
0.0
230
1.0
 70
    24
 71
     3
 72
     8
 73
     4
 74
     0
 42
0.0000000001
 43
0.0000000001
 40
0.0
 40
0.0
 40
0.0
 40
0.0
 40
1.0
 40
1.0
 40
1.0
 40
1.0
 10
-11.03224409448819
 20
3.253259842519685
 30
0.0
 10
-11.03224409448819
 20
3.253259842519685
 30
0.0
 10
-7.99551968503937
 20
3.253259842519685
 30
0.0
 10
-7.99551968503937
 20
3.253259842519685
 30
0.0
  0
SPLINE
  5
65
330
1F
100
AcDbEntity
  8
0
370
     9
100
AcDbSpline
210
0.0
220
0.0
230
1.0
 70
     8
 71
     3
 72
    12
 73
     8
 74
     0
 42
0.0000000001
 43
0.0000000001
 40
0.0
 40
0.0
 40
0.0
 40
0.0
 40
0.3333333333333333
 40
0.3333333333333333
 40
0.3333333333333333
 40
0.3333333333333333
 40
1.0
 40
1.0
 40
1.0
 40
1.0
 10
-7.719929133858268
 20
8.427669291338583
 30
0.0
 10
-7.719929133858268
 20
8.500759842519685
 30
0.0
 10
-7.748964566929134
 20
8.570854330708661
 30
0.0
 10
-7.800649606299213
 20
8.62253937007874
 30
0.0
 10
-7.800649606299213
 20
8.62253937007874
 30
0.0
 10
-7.852330708661417
 20
8.674224409448819
 30
0.0
 10
-7.922429133858268
 20
8.703259842519685
 30
0.0
 10
-7.99551968503937
 20
8.703259842519685
 30
0.0
  0
SPLINE
  5
66
330
1F
100
AcDbEntity
  8
0
370
     9
100
AcDbSpline
210
0.0
220
0.0
230
1.0
 70
     8
 71
     3
 72
    12
 73
     8
 74
     0
 42
0.0000000001
 43
0.0000000001
 40
0.0
 40
0.0
 40
0.0
 40
0.0
 40
0.3333333333333333
 40
0.3333333333333333
 40
0.3333333333333333
 40
0.3333333333333333
 40
1.0
 40
1.0
 40
1.0
 40
1.0
 10
-13.78633858267717
 20
8.703259842519685
 30
0.0
 10
-13.85942913385827
 20
8.703259842519685
 30
0.0
 10
-13.92952755905512
 20
8.674224409448819
 30
0.0
 10
-13.9812125984252
 20
8.62253937007874
 30
0.0
 10
-13.9812125984252
 20
8.62253937007874
 30
0.0
 10
-14.0328937007874
 20
8.570854330708661
 30
0.0
 10
-14.06192913385827
 20
8.500759842519685
 30
0.0
 10
-14.06192913385827
 20
8.427669291338583
 30
0.0
  0
SPLINE
  5
67
330
1F
100
AcDbEntity
  8
0
370
     9
100
AcDbSpline
210
0.0
220
0.0
230
1.0
 70
    24
 71
     3
 72
     8
 73
     4
 74
     0
 42
0.0000000001
 43
0.0000000001
 40
0.0
 40
0.0
 40
0.0
 40
0.0
 40
1.0
 40
1.0
 40
1.0
 40
1.0
 10
-14.22105905511811
 20
5.07203937007874
 30
0.0
 10
-14.22105905511811
 20
5.07203937007874
 30
0.0
 10
-15.53642125984252
 20
4.458728346456692
 30
0.0
 10
-15.53642125984252
 20
4.458728346456692
 30
0.0
  0
SPLINE
  5
68
330
1F
100
AcDbEntity
  8
0
370
     9
100
AcDbSpline
210
0.0
220
0.0
230
1.0
 70
     8
 71
     3
 72
     8
 73
     4
 74
     0
 42
0.0000000001
 43
0.0000000001
 40
0.0
 40
0.0
 40
0.0
 40
0.0
 40
1.0
 40
1.0
 40
1.0
 40
1.0
 10
-7.99551968503937
 20
3.253259842519685
 30
0.0
 10
-7.843314960629921
 20
3.253259842519685
 30
0.0
 10
-7.719929133858268
 20
3.376641732283465
 30
0.0
 10
-7.719929133858268
 20
3.528846456692913
 30
0.0
  0
SPLINE
  5
69
330
1F
100
AcDbEntity
  8
0
370
     9
100
AcDbSpline
210
0.0
220
0.0
230
1.0
 70
     8
 71
     3
 72
     8
 73
     4
 74
     0
 42
0.0000000001
 43
0.0000000001
 40
0.0
 40
0.0
 40
0.0
 40
0.0
 40
1.0
 40
1.0
 40
1.0
 40
1.0
 10
-14.64751181102362
 20
1.900307086614173
 30
0.0
 10
-14.58318897637795
 20
1.762370078740157
 30
0.0
 10
-14.41923228346457
 20
1.702688976377953
 30
0.0
 10
-14.28129133858268
 20
1.767
 30
0.0
  0
SPLINE
  5
6A
330
1F
100
AcDbEntity
  8
0
370
     9
100
AcDbSpline
210
0.0
220
0.0
230
1.0
 70
     8
 71
     3
 72
    12
 73
     8
 74
     0
 42
0.0000000001
 43
0.0000000001
 40
0.0
 40
0.0
 40
0.0
 40
0.0
 40
0.3333333333333333
 40
0.3333333333333333
 40
0.3333333333333333
 40
0.3333333333333333
 40
1.0
 40
1.0
 40
1.0
 40
1.0
 10
-15.53642125984252
 20
4.458728346456692
 30
0.0
 10
-15.60266535433071
 20
4.427838582677166
 30
0.0
 10
-15.65392913385827
 20
4.371901574803149
 30
0.0
 10
-15.67892913385827
 20
4.303216535433071
 30
0.0
 10
-15.67892913385827
 20
4.303216535433071
 30
0.0
 10
-15.70392913385827
 20
4.234531496062992
 30
0.0
 10
-15.70062204724409
 20
4.158728346456693
 30
0.0
 10
-15.66973228346457
 20
4.092484251968504
 30
0.0
  0
SPLINE
  5
6B
330
1F
100
AcDbEntity
  8
0
 62
     1
370
     9
100
AcDbSpline
210
0.0
220
0.0
230
1.0
 70
    24
 71
     3
 72
     8
 73
     4
 74
     0
 42
0.0000000001
 43
0.0000000001
 40
0.0
 40
0.0
 40
0.0
 40
0.0
 40
1.0
 40
1.0
 40
1.0
 40
1.0
 10
-12.17105118110236
 20
8.334645669291339
 30
0.0
 10
-12.17105118110236
 20
8.334645669291339
 30
0.0
 10
-12.35803149606299
 20
8.147661417322835
 30
0.0
 10
-12.35803149606299
 20
8.147661417322835
 30
0.0
  0
SPLINE
  5
6C
330
1F
100
AcDbEntity
  8
0
 62
     1
370
     9
100
AcDbSpline
210
0.0
220
0.0
230
1.0
 70
    24
 71
     3
 72
     8
 73
     4
 74
     0
 42
0.0000000001
 43
0.0000000001
 40
0.0
 40
0.0
 40
0.0
 40
0.0
 40
1.0
 40
1.0
 40
1.0
 40
1.0
 10
-12.35803149606299
 20
8.147661417322835
 30
0.0
 10
-12.35803149606299
 20
8.147661417322835
 30
0.0
 10
-12.35803149606299
 20
8.069051181102362
 30
0.0
 10
-12.35803149606299
 20
8.069051181102362
 30
0.0
  0
SPLINE
  5
6D
330
1F
100
AcDbEntity
  8
0
370
     9
100
AcDbSpline
210
0.0
220
0.0
230
1.0
 70
    24
 71
     3
 72
     8
 73
     4
 74
     0
 42
0.0000000001
 43
0.0000000001
 40
0.0
 40
0.0
 40
0.0
 40
0.0
 40
1.0
 40
1.0
 40
1.0
 40
1.0
 10
-13.02732283464567
 20
8.303393700787401
 30
0.0
 10
-13.02732283464567
 20
8.303393700787401
 30
0.0
 10
-13.14529133858268
 20
8.303393700787401
 30
0.0
 10
-13.14529133858268
 20
8.303393700787401
 30
0.0
  0
SPLINE
  5
6E
330
1F
100
AcDbEntity
  8
0
370
     9
100
AcDbSpline
210
0.0
220
0.0
230
1.0
 70
    24
 71
     3
 72
     8
 73
     4
 74
     0
 42
0.0000000001
 43
0.0000000001
 40
0.0
 40
0.0
 40
0.0
 40
0.0
 40
1.0
 40
1.0
 40
1.0
 40
1.0
 10
-13.14525984251969
 20
7.990043307086614
 30
0.0
 10
-13.14525984251969
 20
7.990043307086614
 30
0.0
 10
-13.14529133858268
 20
8.303393700787401
 30
0.0
 10
-13.14529133858268
 20
8.303393700787401
 30
0.0
  0
SPLINE
  5
6F
330
1F
100
AcDbEntity
  8
0
370
     9
100
AcDbSpline
210
0.0
220
0.0
230
1.0
 70
    24
 71
     3
 72
     8
 73
     4
 74
     0
 42
0.0000000001
 43
0.0000000001
 40
0.0
 40
0.0
 40
0.0
 40
0.0
 40
1.0
 40
1.0
 40
1.0
 40
1.0
 10
-13.02732283464567
 20
7.990118110236221
 30
0.0
 10
-13.02732283464567
 20
7.990118110236221
 30
0.0
 10
-13.14525984251969
 20
7.990043307086614
 30
0.0
 10
-13.14525984251969
 20
7.990043307086614
 30
0.0
  0
SPLINE
  5
70
330
1F
100
AcDbEntity
  8
0
 62
     1
370
     9
100
AcDbSpline
210
0.0
220
0.0
230
1.0
 70
    24
 71
     3
 72
     8
 73
     4
 74
     0
 42
0.0000000001
 43
0.0000000001
 40
0.0
 40
0.0
 40
0.0
 40
0.0
 40
1.0
 40
1.0
 40
1.0
 40
1.0
 10
-12.35803149606299
 20
8.069051181102362
 30
0.0
 10
-12.35803149606299
 20
8.069051181102362
 30
0.0
 10
-12.00759448818898
 20
7.718614173228347
 30
0.0
 10
-12.00759448818898
 20
7.718614173228347
 30
0.0
  0
SPLINE
  5
71
330
1F
100
AcDbEntity
  8
0
370
     9
100
AcDbSpline
210
0.0
220
0.0
230
1.0
 70
    24
 71
     3
 72
     8
 73
     4
 74
     0
 42
0.0000000001
 43
0.0000000001
 40
0.0
 40
0.0
 40
0.0
 40
0.0
 40
1.0
 40
1.0
 40
1.0
 40
1.0
 10
-10.90953149606299
 20
8.50196062992126
 30
0.0
 10
-10.90953149606299
 20
8.50196062992126
 30
0.0
 10
-10.90953149606299
 20
8.344448818897638
 30
0.0
 10
-10.90953149606299
 20
8.344448818897638
 30
0.0
  0
SPLINE
  5
72
330
1F
100
AcDbEntity
  8
0
370
     9
100
AcDbSpline
210
0.0
220
0.0
230
1.0
 70
    24
 71
     3
 72
     8
 73
     4
 74
     0
 42
0.0000000001
 43
0.0000000001
 40
0.0
 40
0.0
 40
0.0
 40
0.0
 40
1.0
 40
1.0
 40
1.0
 40
1.0
 10
-11.49188976377953
 20
7.655472440944882
 30
0.0
 10
-11.49188976377953
 20
7.655472440944882
 30
0.0
 10
-11.49188976377953
 20
8.111980314960629
 30
0.0
 10
-11.49188976377953
 20
8.111980314960629
 30
0.0
  0
SPLINE
  5
73
330
1F
100
AcDbEntity
  8
0
370
     9
100
AcDbSpline
210
0.0
220
0.0
230
1.0
 70
    24
 71
     3
 72
     8
 73
     4
 74
     0
 42
0.0000000001
 43
0.0000000001
 40
0.0
 40
0.0
 40
0.0
 40
0.0
 40
1.0
 40
1.0
 40
1.0
 40
1.0
 10
-9.90846062992126
 20
7.576732283464567
 30
0.0
 10
-9.90846062992126
 20
7.576732283464567
 30
0.0
 10
-8.617874015748031
 20
7.576732283464567
 30
0.0
 10
-8.617874015748031
 20
7.576732283464567
 30
0.0
  0
SPLINE
  5
74
330
1F
100
AcDbEntity
  8
0
370
     9
100
AcDbSpline
210
0.0
220
0.0
230
1.0
 70
    24
 71
     3
 72
     8
 73
     4
 74
     0
 42
0.0000000001
 43
0.0000000001
 40
0.0
 40
0.0
 40
0.0
 40
0.0
 40
1.0
 40
1.0
 40
1.0
 40
1.0
 10
-8.617874015748031
 20
7.576732283464567
 30
0.0
 10
-8.617874015748031
 20
7.576732283464567
 30
0.0
 10
-8.617874015748031
 20
8.344448818897638
 30
0.0
 10
-8.617874015748031
 20
8.344448818897638
 30
0.0
  0
SPLINE
  5
75
330
1F
100
AcDbEntity
  8
0
370
     9
100
AcDbSpline
210
0.0
220
0.0
230
1.0
 70
    24
 71
     3
 72
     8
 73
     4
 74
     0
 42
0.0000000001
 43
0.0000000001
 40
0.0
 40
0.0
 40
0.0
 40
0.0
 40
1.0
 40
1.0
 40
1.0
 40
1.0
 10
-9.90846062992126
 20
7.655472440944882
 30
0.0
 10
-9.90846062992126
 20
7.655472440944882
 30
0.0
 10
-11.49188976377953
 20
7.655472440944882
 30
0.0
 10
-11.49188976377953
 20
7.655472440944882
 30
0.0
  0
SPLINE
  5
76
330
1F
100
AcDbEntity
  8
0
370
     9
100
AcDbSpline
210
0.0
220
0.0
230
1.0
 70
    24
 71
     3
 72
     8
 73
     4
 74
     0
 42
0.0000000001
 43
0.0000000001
 40
0.0
 40
0.0
 40
0.0
 40
0.0
 40
1.0
 40
1.0
 40
1.0
 40
1.0
 10
-9.90846062992126
 20
7.655472440944882
 30
0.0
 10
-9.90846062992126
 20
7.655472440944882
 30
0.0
 10
-9.90846062992126
 20
7.576732283464567
 30
0.0
 10
-9.90846062992126
 20
7.576732283464567
 30
0.0
  0
LWPOLYLINE
  5
78
330
1F
100
AcDbEntity
  8
Master Layer 2
 62
     1
370
     9
100
AcDbPolyline
 90
        5
 70
     1
 43
0.0
 10
-8.948673228346456
 20
6.756185039370079
 10
-8.338437007874015
 20
6.756185039370079
 10
-8.338437007874015
 20
7.260122047244095
 10
-8.948673228346456
 20
7.260122047244095
 10
-8.948673228346456
 20
6.756185039370079
  0
LWPOLYLINE
  5
79
330
1F
100
AcDbEntity
  8
Master Layer 2
 62
     1
370
     9
100
AcDbPolyline
 90
        5
 70
     1
 43
0.0
 10
-9.885681102362204
 20
6.756185039370079
 10
-9.275444881889763
 20
6.756185039370079
 10
-9.275444881889763
 20
7.260122047244095
 10
-9.885681102362204
 20
7.260122047244095
 10
-9.885681102362204
 20
6.756185039370079
  0
LWPOLYLINE
  5
7A
330
1F
100
AcDbEntity
  8
Master Layer 2
 62
     1
370
     9
100
AcDbPolyline
 90
        5
 70
     1
 43
0.0
 10
-8.948673228346456
 20
6.004216535433071
 10
-8.338437007874015
 20
6.004216535433071
 10
-8.338437007874015
 20
6.508153543307087
 10
-8.948673228346456
 20
6.508153543307087
 10
-8.948673228346456
 20
6.004216535433071
  0
LWPOLYLINE
  5
7B
330
1F
100
AcDbEntity
  8
Master Layer 2
 62
     1
370
     9
100
AcDbPolyline
 90
        5
 70
     1
 43
0.0
 10
-9.885681102362204
 20
6.004216535433071
 10
-9.275444881889763
 20
6.004216535433071
 10
-9.275444881889763
 20
6.508153543307087
 10
-9.885681102362204
 20
6.508153543307087
 10
-9.885681102362204
 20
6.004216535433071
  0
LWPOLYLINE
  5
7C
330
1F
100
AcDbEntity
  8
Master Layer 2
 62
     1
370
     9
100
AcDbPolyline
 90
        5
 70
     1
 43
0.0
 10
-8.948673228346456
 20
5.256185039370079
 10
-8.338437007874015
 20
5.256185039370079
 10
-8.338437007874015
 20
5.760122047244095
 10
-8.948673228346456
 20
5.760122047244095
 10
-8.948673228346456
 20
5.256185039370079
  0
LWPOLYLINE
  5
7D
330
1F
100
AcDbEntity
  8
Master Layer 2
 62
     1
370
     9
100
AcDbPolyline
 90
        5
 70
     1
 43
0.0
 10
-9.885681102362204
 20
5.256185039370079
 10
-9.275444881889763
 20
5.256185039370079
 10
-9.275444881889763
 20
5.760122047244095
 10
-9.885681102362204
 20
5.760122047244095
 10
-9.885681102362204
 20
5.256185039370079
  0
LWPOLYLINE
  5
7E
330
1F
100
AcDbEntity
  8
Master Layer 2
 62
     1
370
     9
100
AcDbPolyline
 90
        5
 70
     1
 43
0.0
 10
-8.948673228346456
 20
4.508153543307087
 10
-8.338437007874015
 20
4.508153543307087
 10
-8.338437007874015
 20
5.012090551181102
 10
-8.948673228346456
 20
5.012090551181102
 10
-8.948673228346456
 20
4.508153543307087
  0
LWPOLYLINE
  5
7F
330
1F
100
AcDbEntity
  8
Master Layer 2
 62
     1
370
     9
100
AcDbPolyline
 90
        5
 70
     1
 43
0.0
 10
-9.885681102362204
 20
4.508153543307087
 10
-9.275444881889763
 20
4.508153543307087
 10
-9.275444881889763
 20
5.012090551181102
 10
-9.885681102362204
 20
5.012090551181102
 10
-9.885681102362204
 20
4.508153543307087
  0
LWPOLYLINE
  5
80
330
1F
100
AcDbEntity
  8
Master Layer 2
 62
     1
370
     9
100
AcDbPolyline
 90
        5
 70
     1
 43
0.0
 10
-10.63204330708661
 20
6.881425196850394
 10
-10.02180708661417
 20
6.881425196850394
 10
-10.02180708661417
 20
7.38536220472441
 10
-10.63204330708661
 20
7.38536220472441
 10
-10.63204330708661
 20
6.881425196850394
  0
LWPOLYLINE
  5
81
330
1F
100
AcDbEntity
  8
Master Layer 2
 62
     1
370
     9
100
AcDbPolyline
 90
        5
 70
     1
 43
0.0
 10
-10.63204330708661
 20
6.129456692913386
 10
-10.02180708661417
 20
6.129456692913386
 10
-10.02180708661417
 20
6.633393700787401
 10
-10.63204330708661
 20
6.633393700787401
 10
-10.63204330708661
 20
6.129456692913386
  0
LWPOLYLINE
  5
82
330
1F
100
AcDbEntity
  8
Master Layer 2
 62
     1
370
     9
100
AcDbPolyline
 90
        5
 70
     1
 43
0.0
 10
-10.63204330708661
 20
5.381425196850394
 10
-10.02180708661417
 20
5.381425196850394
 10
-10.02180708661417
 20
5.88536220472441
 10
-10.63204330708661
 20
5.88536220472441
 10
-10.63204330708661
 20
5.381425196850394
  0
LWPOLYLINE
  5
83
330
1F
100
AcDbEntity
  8
Master Layer 2
 62
     1
370
     9
100
AcDbPolyline
 90
        5
 70
     1
 43
0.0
 10
-10.63204330708661
 20
4.633393700787401
 10
-10.02180708661417
 20
4.633393700787401
 10
-10.02180708661417
 20
5.137330708661417
 10
-10.63204330708661
 20
5.137330708661417
 10
-10.63204330708661
 20
4.633393700787401
  0
LWPOLYLINE
  5
84
330
1F
100
AcDbEntity
  8
Master Layer 2
 62
     1
370
     9
100
AcDbPolyline
 90
        5
 70
     1
 43
0.0
 10
-10.63204330708661
 20
3.881425196850394
 10
-10.02180708661417
 20
3.881425196850394
 10
-10.02180708661417
 20
4.38536220472441
 10
-10.63204330708661
 20
4.38536220472441
 10
-10.63204330708661
 20
3.881425196850394
  0
LWPOLYLINE
  5
85
330
1F
100
AcDbEntity
  8
Master Layer 2
 62
     1
370
     9
100
AcDbPolyline
 90
        5
 70
     1
 43
0.0
 10
-11.38505118110236
 20
6.943925196850394
 10
-10.77481496062992
 20
6.943925196850394
 10
-10.77481496062992
 20
7.44786220472441
 10
-11.38505118110236
 20
7.44786220472441
 10
-11.38505118110236
 20
6.943925196850394
  0
LWPOLYLINE
  5
86
330
1F
100
AcDbEntity
  8
Master Layer 2
 62
     1
370
     9
100
AcDbPolyline
 90
        5
 70
     1
 43
0.0
 10
-11.38505118110236
 20
6.191956692913386
 10
-10.77481496062992
 20
6.191956692913386
 10
-10.77481496062992
 20
6.695893700787401
 10
-11.38505118110236
 20
6.695893700787401
 10
-11.38505118110236
 20
6.191956692913386
  0
LWPOLYLINE
  5
87
330
1F
100
AcDbEntity
  8
Master Layer 2
 62
     1
370
     9
100
AcDbPolyline
 90
        5
 70
     1
 43
0.0
 10
-11.38505118110236
 20
5.443925196850394
 10
-10.77481496062992
 20
5.443925196850394
 10
-10.77481496062992
 20
5.94786220472441
 10
-11.38505118110236
 20
5.94786220472441
 10
-11.38505118110236
 20
5.443925196850394
  0
LWPOLYLINE
  5
88
330
1F
100
AcDbEntity
  8
Master Layer 2
 62
     1
370
     9
100
AcDbPolyline
 90
        5
 70
     1
 43
0.0
 10
-11.38505118110236
 20
4.695893700787401
 10
-10.77481496062992
 20
4.695893700787401
 10
-10.77481496062992
 20
5.199830708661417
 10
-11.38505118110236
 20
5.199830708661417
 10
-11.38505118110236
 20
4.695893700787401
  0
LWPOLYLINE
  5
89
330
1F
100
AcDbEntity
  8
Master Layer 2
 62
     1
370
     9
100
AcDbPolyline
 90
        5
 70
     1
 43
0.0
 10
-11.38505118110236
 20
3.943925196850394
 10
-10.77481496062992
 20
3.943925196850394
 10
-10.77481496062992
 20
4.44786220472441
 10
-11.38505118110236
 20
4.44786220472441
 10
-11.38505118110236
 20
3.943925196850394
  0
LWPOLYLINE
  5
8A
330
1F
100
AcDbEntity
  8
Master Layer 2
 62
     1
370
     9
100
AcDbPolyline
 90
        5
 70
     1
 43
0.0
 10
-12.13292913385827
 20
6.882216535433071
 10
-11.52269291338583
 20
6.882216535433071
 10
-11.52269291338583
 20
7.386153543307087
 10
-12.13292913385827
 20
7.386153543307087
 10
-12.13292913385827
 20
6.882216535433071
  0
LWPOLYLINE
  5
8B
330
1F
100
AcDbEntity
  8
Master Layer 2
 62
     1
370
     9
100
AcDbPolyline
 90
        5
 70
     1
 43
0.0
 10
-12.13292913385827
 20
6.130248031496063
 10
-11.52269291338583
 20
6.130248031496063
 10
-11.52269291338583
 20
6.634185039370078
 10
-12.13292913385827
 20
6.634185039370078
 10
-12.13292913385827
 20
6.130248031496063
  0
LWPOLYLINE
  5
8C
330
1F
100
AcDbEntity
  8
Master Layer 2
 62
     1
370
     9
100
AcDbPolyline
 90
        5
 70
     1
 43
0.0
 10
-12.13292913385827
 20
5.382216535433071
 10
-11.52269291338583
 20
5.382216535433071
 10
-11.52269291338583
 20
5.886153543307087
 10
-12.13292913385827
 20
5.886153543307087
 10
-12.13292913385827
 20
5.382216535433071
  0
LWPOLYLINE
  5
8D
330
1F
100
AcDbEntity
  8
Master Layer 2
 62
     1
370
     9
100
AcDbPolyline
 90
        5
 70
     1
 43
0.0
 10
-12.13292913385827
 20
4.634185039370078
 10
-11.52269291338583
 20
4.634185039370078
 10
-11.52269291338583
 20
5.138122047244094
 10
-12.13292913385827
 20
5.138122047244094
 10
-12.13292913385827
 20
4.634185039370078
  0
LWPOLYLINE
  5
8E
330
1F
100
AcDbEntity
  8
Master Layer 2
 62
     1
370
     9
100
AcDbPolyline
 90
        5
 70
     1
 43
0.0
 10
-12.13292913385827
 20
3.882216535433071
 10
-11.52269291338583
 20
3.882216535433071
 10
-11.52269291338583
 20
4.386153543307087
 10
-12.13292913385827
 20
4.386153543307087
 10
-12.13292913385827
 20
3.882216535433071
  0
LWPOLYLINE
  5
8F
330
1F
100
AcDbEntity
  8
Master Layer 2
 62
     1
370
     9
100
AcDbPolyline
 90
        5
 70
     1
 43
0.0
 10
-12.88302755905512
 20
6.831917322834646
 10
-12.27279133858268
 20
6.831917322834646
 10
-12.27279133858268
 20
7.335854330708662
 10
-12.88302755905512
 20
7.335854330708662
 10
-12.88302755905512
 20
6.831917322834646
  0
LWPOLYLINE
  5
90
330
1F
100
AcDbEntity
  8
Master Layer 2
 62
     1
370
     9
100
AcDbPolyline
 90
        5
 70
     1
 43
0.0
 10
-12.88302755905512
 20
6.079948818897638
 10
-12.27279133858268
 20
6.079948818897638
 10
-12.27279133858268
 20
6.583885826771653
 10
-12.88302755905512
 20
6.583885826771653
 10
-12.88302755905512
 20
6.079948818897638
  0
LWPOLYLINE
  5
91
330
1F
100
AcDbEntity
  8
Master Layer 2
 62
     1
370
     9
100
AcDbPolyline
 90
        5
 70
     1
 43
0.0
 10
-12.88302755905512
 20
5.331917322834646
 10
-12.27279133858268
 20
5.331917322834646
 10
-12.27279133858268
 20
5.835854330708662
 10
-12.88302755905512
 20
5.835854330708662
 10
-12.88302755905512
 20
5.331917322834646
  0
LWPOLYLINE
  5
92
330
1F
100
AcDbEntity
  8
Master Layer 2
 62
     1
370
     9
100
AcDbPolyline
 90
        5
 70
     1
 43
0.0
 10
-12.88302755905512
 20
4.583885826771653
 10
-12.27279133858268
 20
4.583885826771653
 10
-12.27279133858268
 20
5.087822834645669
 10
-12.88302755905512
 20
5.087822834645669
 10
-12.88302755905512
 20
4.583885826771653
  0
LWPOLYLINE
  5
93
330
1F
100
AcDbEntity
  8
Master Layer 2
 62
     1
370
     9
100
AcDbPolyline
 90
        5
 70
     1
 43
0.0
 10
-13.63499606299213
 20
6.831917322834646
 10
-13.02475984251969
 20
6.831917322834646
 10
-13.02475984251969
 20
7.335854330708662
 10
-13.63499606299213
 20
7.335854330708662
 10
-13.63499606299213
 20
6.831917322834646
  0
LWPOLYLINE
  5
94
330
1F
100
AcDbEntity
  8
Master Layer 2
 62
     1
370
     9
100
AcDbPolyline
 90
        5
 70
     1
 43
0.0
 10
-9.885681102362204
 20
3.756185039370079
 10
-9.275444881889763
 20
3.756185039370079
 10
-9.275444881889763
 20
4.260122047244095
 10
-9.885681102362204
 20
4.260122047244095
 10
-9.885681102362204
 20
3.756185039370079
  0
LWPOLYLINE
  5
95
330
1F
100
AcDbEntity
  8
Master Layer 2
 62
     1
370
     9
100
AcDbPolyline
 90
        5
 70
     1
 43
0.0
 10
-9.133712598425197
 20
3.756185039370079
 10
-8.523476377952756
 20
3.756185039370079
 10
-8.523476377952756
 20
4.260122047244095
 10
-9.133712598425197
 20
4.260122047244095
 10
-9.133712598425197
 20
3.756185039370079
  0
SPLINE
  5
96
330
1F
100
AcDbEntity
  8
Master Layer 2
 62
     1
370
     9
100
AcDbSpline
210
0.0
220
0.0
230
1.0
 70
    11
 71
     3
 72
    20
 73
    16
 74
     0
 42
0.0000000001
 43
0.0000000001
 40
0.0
 40
0.0
 40
0.0
 40
0.0
 40
0.2
 40
0.2
 40
0.2
 40
0.2
 40
0.4
 40
0.4
 40
0.4
 40
0.4
 40
0.6
 40
0.6
 40
0.6
 40
0.6
 40
1.0
 40
1.0
 40
1.0
 40
1.0
 10
-13.1023188976378
 20
5.81905905511811
 30
0.0
 10
-13.1023188976378
 20
5.81905905511811
 30
0.0
 10
-13.1023188976378
 20
6.429295275590551
 30
0.0
 10
-13.1023188976378
 20
6.429295275590551
 30
0.0
 10
-13.1023188976378
 20
6.429295275590551
 30
0.0
 10
-13.1023188976378
 20
6.429295275590551
 30
0.0
 10
-13.60625590551181
 20
6.429295275590551
 30
0.0
 10
-13.60625590551181
 20
6.429295275590551
 30
0.0
 10
-13.60625590551181
 20
6.429295275590551
 30
0.0
 10
-13.60625590551181
 20
6.429295275590551
 30
0.0
 10
-13.60625590551181
 20
5.81905905511811
 30
0.0
 10
-13.60625590551181
 20
5.81905905511811
 30
0.0
 10
-13.60625590551181
 20
5.81905905511811
 30
0.0
 10
-13.60625590551181
 20
5.81905905511811
 30
0.0
 10
-13.1023188976378
 20
5.81905905511811
 30
0.0
 10
-13.1023188976378
 20
5.81905905511811
 30
0.0
  0
SPLINE
  5
97
330
1F
100
AcDbEntity
  8
Master Layer 2
 62
     1
370
     9
100
AcDbSpline
210
0.0
220
0.0
230
1.0
 70
    11
 71
     3
 72
    20
 73
    16
 74
     0
 42
0.0000000001
 43
0.0000000001
 40
0.0
 40
0.0
 40
0.0
 40
0.0
 40
0.2
 40
0.2
 40
0.2
 40
0.2
 40
0.4
 40
0.4
 40
0.4
 40
0.4
 40
0.6
 40
0.6
 40
0.6
 40
0.6
 40
1.0
 40
1.0
 40
1.0
 40
1.0
 10
-13.1023188976378
 20
4.693074803149607
 30
0.0
 10
-13.1023188976378
 20
4.693074803149607
 30
0.0
 10
-13.1023188976378
 20
5.303311023622047
 30
0.0
 10
-13.1023188976378
 20
5.303311023622047
 30
0.0
 10
-13.1023188976378
 20
5.303311023622047
 30
0.0
 10
-13.1023188976378
 20
5.303311023622047
 30
0.0
 10
-13.60625590551181
 20
5.303311023622047
 30
0.0
 10
-13.60625590551181
 20
5.303311023622047
 30
0.0
 10
-13.60625590551181
 20
5.303311023622047
 30
0.0
 10
-13.60625590551181
 20
5.303311023622047
 30
0.0
 10
-13.60625590551181
 20
4.693074803149607
 30
0.0
 10
-13.60625590551181
 20
4.693074803149607
 30
0.0
 10
-13.60625590551181
 20
4.693074803149607
 30
0.0
 10
-13.60625590551181
 20
4.693074803149607
 30
0.0
 10
-13.1023188976378
 20
4.693074803149607
 30
0.0
 10
-13.1023188976378
 20
4.693074803149607
 30
0.0
  0
SPLINE
  5
98
330
1F
100
AcDbEntity
  8
Master Layer 2
 62
     1
370
     9
100
AcDbSpline
210
0.0
220
0.0
230
1.0
 70
    11
 71
     3
 72
    20
 73
    16
 74
     0
 42
0.0000000001
 43
0.0000000001
 40
0.0
 40
0.0
 40
0.0
 40
0.0
 40
0.2
 40
0.2
 40
0.2
 40
0.2
 40
0.4
 40
0.4
 40
0.4
 40
0.4
 40
0.6
 40
0.6
 40
0.6
 40
0.6
 40
1.0
 40
1.0
 40
1.0
 40
1.0
 10
-13.97407480314961
 20
4.677311023622047
 30
0.0
 10
-13.97407480314961
 20
4.677311023622047
 30
0.0
 10
-14.52713385826772
 20
4.419413385826772
 30
0.0
 10
-14.52713385826772
 20
4.419413385826772
 30
0.0
 10
-14.52713385826772
 20
4.419413385826772
 30
0.0
 10
-14.52713385826772
 20
4.419413385826772
 30
0.0
 10
-14.31416141732283
 20
3.962688976377953
 30
0.0
 10
-14.31416141732283
 20
3.962688976377953
 30
0.0
 10
-14.31416141732283
 20
3.962688976377953
 30
0.0
 10
-14.31416141732283
 20
3.962688976377953
 30
0.0
 10
-13.76109842519685
 20
4.220586614173229
 30
0.0
 10
-13.76109842519685
 20
4.220586614173229
 30
0.0
 10
-13.76109842519685
 20
4.220586614173229
 30
0.0
 10
-13.76109842519685
 20
4.220586614173229
 30
0.0
 10
-13.97407480314961
 20
4.677311023622047
 30
0.0
 10
-13.97407480314961
 20
4.677311023622047
 30
0.0
  0
SPLINE
  5
99
330
1F
100
AcDbEntity
  8
Master Layer 2
 62
     1
370
     9
100
AcDbSpline
210
0.0
220
0.0
230
1.0
 70
    11
 71
     3
 72
    20
 73
    16
 74
     0
 42
0.0000000001
 43
0.0000000001
 40
0.0
 40
0.0
 40
0.0
 40
0.0
 40
0.2
 40
0.2
 40
0.2
 40
0.2
 40
0.4
 40
0.4
 40
0.4
 40
0.4
 40
0.6
 40
0.6
 40
0.6
 40
0.6
 40
1.0
 40
1.0
 40
1.0
 40
1.0
 10
-14.65462992125984
 20
4.361338582677165
 30
0.0
 10
-14.65462992125984
 20
4.361338582677165
 30
0.0
 10
-15.20768897637795
 20
4.10344094488189
 30
0.0
 10
-15.20768897637795
 20
4.10344094488189
 30
0.0
 10
-15.20768897637795
 20
4.10344094488189
 30
0.0
 10
-15.20768897637795
 20
4.10344094488189
 30
0.0
 10
-14.99471653543307
 20
3.646716535433071
 30
0.0
 10
-14.99471653543307
 20
3.646716535433071
 30
0.0
 10
-14.99471653543307
 20
3.646716535433071
 30
0.0
 10
-14.99471653543307
 20
3.646716535433071
 30
0.0
 10
-14.44165354330709
 20
3.904614173228346
 30
0.0
 10
-14.44165354330709
 20
3.904614173228346
 30
0.0
 10
-14.44165354330709
 20
3.904614173228346
 30
0.0
 10
-14.44165354330709
 20
3.904614173228346
 30
0.0
 10
-14.65462992125984
 20
4.361338582677165
 30
0.0
 10
-14.65462992125984
 20
4.361338582677165
 30
0.0
  0
SPLINE
  5
9A
330
1F
100
AcDbEntity
  8
Master Layer 2
 62
     1
370
     9
100
AcDbSpline
210
0.0
220
0.0
230
1.0
 70
    11
 71
     3
 72
    20
 73
    16
 74
     0
 42
0.0000000001
 43
0.0000000001
 40
0.0
 40
0.0
 40
0.0
 40
0.0
 40
0.2
 40
0.2
 40
0.2
 40
0.2
 40
0.4
 40
0.4
 40
0.4
 40
0.4
 40
0.6
 40
0.6
 40
0.6
 40
0.6
 40
1.0
 40
1.0
 40
1.0
 40
1.0
 10
-14.33518503937008
 20
3.680779527559055
 30
0.0
 10
-14.33518503937008
 20
3.680779527559055
 30
0.0
 10
-14.88824409448819
 20
3.422881889763779
 30
0.0
 10
-14.88824409448819
 20
3.422881889763779
 30
0.0
 10
-14.88824409448819
 20
3.422881889763779
 30
0.0
 10
-14.88824409448819
 20
3.422881889763779
 30
0.0
 10
-14.67527165354331
 20
2.966157480314961
 30
0.0
 10
-14.67527165354331
 20
2.966157480314961
 30
0.0
 10
-14.67527165354331
 20
2.966157480314961
 30
0.0
 10
-14.67527165354331
 20
2.966157480314961
 30
0.0
 10
-14.12220866141732
 20
3.224055118110236
 30
0.0
 10
-14.12220866141732
 20
3.224055118110236
 30
0.0
 10
-14.12220866141732
 20
3.224055118110236
 30
0.0
 10
-14.12220866141732
 20
3.224055118110236
 30
0.0
 10
-14.33518503937008
 20
3.680779527559055
 30
0.0
 10
-14.33518503937008
 20
3.680779527559055
 30
0.0
  0
SPLINE
  5
9B
330
1F
100
AcDbEntity
  8
Master Layer 2
 62
     1
370
     9
100
AcDbSpline
210
0.0
220
0.0
230
1.0
 70
    11
 71
     3
 72
    20
 73
    16
 74
     0
 42
0.0000000001
 43
0.0000000001
 40
0.0
 40
0.0
 40
0.0
 40
0.0
 40
0.2
 40
0.2
 40
0.2
 40
0.2
 40
0.4
 40
0.4
 40
0.4
 40
0.4
 40
0.6
 40
0.6
 40
0.6
 40
0.6
 40
1.0
 40
1.0
 40
1.0
 40
1.0
 10
-14.0192125984252
 20
3.000220472440945
 30
0.0
 10
-14.0192125984252
 20
3.000220472440945
 30
0.0
 10
-14.57227165354331
 20
2.742322834645669
 30
0.0
 10
-14.57227165354331
 20
2.742322834645669
 30
0.0
 10
-14.57227165354331
 20
2.742322834645669
 30
0.0
 10
-14.57227165354331
 20
2.742322834645669
 30
0.0
 10
-14.35929921259843
 20
2.28559842519685
 30
0.0
 10
-14.35929921259843
 20
2.28559842519685
 30
0.0
 10
-14.35929921259843
 20
2.28559842519685
 30
0.0
 10
-14.35929921259843
 20
2.28559842519685
 30
0.0
 10
-13.80623622047244
 20
2.543496062992126
 30
0.0
 10
-13.80623622047244
 20
2.543496062992126
 30
0.0
 10
-13.80623622047244
 20
2.543496062992126
 30
0.0
 10
-13.80623622047244
 20
2.543496062992126
 30
0.0
 10
-14.0192125984252
 20
3.000220472440945
 30
0.0
 10
-14.0192125984252
 20
3.000220472440945
 30
0.0
  0
SPLINE
  5
9C
330
1F
100
AcDbEntity
  8
Master Layer 2
 62
     1
370
     9
100
AcDbSpline
210
0.0
220
0.0
230
1.0
 70
    11
 71
     3
 72
    20
 73
    16
 74
     0
 42
0.0000000001
 43
0.0000000001
 40
0.0
 40
0.0
 40
0.0
 40
0.0
 40
0.2
 40
0.2
 40
0.2
 40
0.2
 40
0.4
 40
0.4
 40
0.4
 40
0.4
 40
0.6
 40
0.6
 40
0.6
 40
0.6
 40
1.0
 40
1.0
 40
1.0
 40
1.0
 10
-12.64366535433071
 20
3.420157480314961
 30
0.0
 10
-12.64366535433071
 20
3.420157480314961
 30
0.0
 10
-12.90156299212599
 20
3.973220472440945
 30
0.0
 10
-12.90156299212599
 20
3.973220472440945
 30
0.0
 10
-12.90156299212599
 20
3.973220472440945
 30
0.0
 10
-12.90156299212599
 20
3.973220472440945
 30
0.0
 10
-13.35828346456693
 20
3.760248031496063
 30
0.0
 10
-13.35828346456693
 20
3.760248031496063
 30
0.0
 10
-13.35828346456693
 20
3.760248031496063
 30
0.0
 10
-13.35828346456693
 20
3.760248031496063
 30
0.0
 10
-13.10038976377953
 20
3.207185039370079
 30
0.0
 10
-13.10038976377953
 20
3.207185039370079
 30
0.0
 10
-13.10038976377953
 20
3.207185039370079
 30
0.0
 10
-13.10038976377953
 20
3.207185039370079
 30
0.0
 10
-12.64366535433071
 20
3.420157480314961
 30
0.0
 10
-12.64366535433071
 20
3.420157480314961
 30
0.0
  0
SPLINE
  5
9D
330
1F
100
AcDbEntity
  8
Master Layer 2
 62
     1
370
     9
100
AcDbSpline
210
0.0
220
0.0
230
1.0
 70
    11
 71
     3
 72
    20
 73
    16
 74
     0
 42
0.0000000001
 43
0.0000000001
 40
0.0
 40
0.0
 40
0.0
 40
0.0
 40
0.2
 40
0.2
 40
0.2
 40
0.2
 40
0.4
 40
0.4
 40
0.4
 40
0.4
 40
0.6
 40
0.6
 40
0.6
 40
0.6
 40
1.0
 40
1.0
 40
1.0
 40
1.0
 10
-13.32075196850394
 20
3.100712598425197
 30
0.0
 10
-13.32075196850394
 20
3.100712598425197
 30
0.0
 10
-13.57864960629921
 20
3.653775590551181
 30
0.0
 10
-13.57864960629921
 20
3.653775590551181
 30
0.0
 10
-13.57864960629921
 20
3.653775590551181
 30
0.0
 10
-13.57864960629921
 20
3.653775590551181
 30
0.0
 10
-14.03537007874016
 20
3.440803149606299
 30
0.0
 10
-14.03537007874016
 20
3.440803149606299
 30
0.0
 10
-14.03537007874016
 20
3.440803149606299
 30
0.0
 10
-14.03537007874016
 20
3.440803149606299
 30
0.0
 10
-13.77747637795276
 20
2.887740157480315
 30
0.0
 10
-13.77747637795276
 20
2.887740157480315
 30
0.0
 10
-13.77747637795276
 20
2.887740157480315
 30
0.0
 10
-13.77747637795276
 20
2.887740157480315
 30
0.0
 10
-13.32075196850394
 20
3.100712598425197
 30
0.0
 10
-13.32075196850394
 20
3.100712598425197
 30
0.0
  0
SPLINE
  5
9E
330
1F
100
AcDbEntity
  8
Master Layer 2
 62
     1
370
     9
100
AcDbSpline
210
0.0
220
0.0
230
1.0
 70
    24
 71
     3
 72
     8
 73
     4
 74
     0
 42
0.0000000001
 43
0.0000000001
 40
0.0
 40
0.0
 40
0.0
 40
0.0
 40
1.0
 40
1.0
 40
1.0
 40
1.0
 10
-12.98279921259843
 20
4.185822834645669
 30
0.0
 10
-12.98279921259843
 20
4.185822834645669
 30
0.0
 10
-12.92779921259842
 20
4.068023622047244
 30
0.0
 10
-12.92779921259842
 20
4.068023622047244
 30
0.0
  0
SPLINE
  5
9F
330
1F
100
AcDbEntity
  8
Master Layer 2
 62
     1
370
     9
100
AcDbSpline
210
0.0
220
0.0
230
1.0
 70
    24
 71
     3
 72
     8
 73
     4
 74
     0
 42
0.0000000001
 43
0.0000000001
 40
0.0
 40
0.0
 40
0.0
 40
0.0
 40
1.0
 40
1.0
 40
1.0
 40
1.0
 10
-12.92779921259842
 20
4.068023622047244
 30
0.0
 10
-12.92779921259842
 20
4.068023622047244
 30
0.0
 10
-13.42629921259842
 20
3.835622047244094
 30
0.0
 10
-13.42629921259842
 20
3.835622047244094
 30
0.0
  0
SPLINE
  5
A0
330
1F
100
AcDbEntity
  8
Master Layer 2
 62
     1
370
     9
100
AcDbSpline
210
0.0
220
0.0
230
1.0
 70
    24
 71
     3
 72
     8
 73
     4
 74
     0
 42
0.0000000001
 43
0.0000000001
 40
0.0
 40
0.0
 40
0.0
 40
0.0
 40
1.0
 40
1.0
 40
1.0
 40
1.0
 10
-13.42629921259842
 20
3.835622047244094
 30
0.0
 10
-13.42629921259842
 20
3.835622047244094
 30
0.0
 10
-13.48120078740157
 20
3.953425196850394
 30
0.0
 10
-13.48120078740157
 20
3.953425196850394
 30
0.0
  0
SPLINE
  5
A1
330
1F
100
AcDbEntity
  8
Master Layer 2
 62
     1
370
     9
100
AcDbSpline
210
0.0
220
0.0
230
1.0
 70
    24
 71
     3
 72
     8
 73
     4
 74
     0
 42
0.0000000001
 43
0.0000000001
 40
0.0
 40
0.0
 40
0.0
 40
0.0
 40
1.0
 40
1.0
 40
1.0
 40
1.0
 10
-13.48120078740157
 20
3.953425196850394
 30
0.0
 10
-13.48120078740157
 20
3.953425196850394
 30
0.0
 10
-12.98279921259843
 20
4.185822834645669
 30
0.0
 10
-12.98279921259843
 20
4.185822834645669
 30
0.0
  0
SPLINE
  5
A2
330
1F
100
AcDbEntity
  8
Master Layer 2
 62
     1
370
     9
100
AcDbSpline
210
0.0
220
0.0
230
1.0
 70
    24
 71
     3
 72
     8
 73
     4
 74
     0
 42
0.0000000001
 43
0.0000000001
 40
0.0
 40
0.0
 40
0.0
 40
0.0
 40
1.0
 40
1.0
 40
1.0
 40
1.0
 10
-12.5855
 20
3.333925196850394
 30
0.0
 10
-12.5855
 20
3.333925196850394
 30
0.0
 10
-12.53059842519685
 20
3.216122047244094
 30
0.0
 10
-12.53059842519685
 20
3.216122047244094
 30
0.0
  0
SPLINE
  5
A3
330
1F
100
AcDbEntity
  8
Master Layer 2
 62
     1
370
     9
100
AcDbSpline
210
0.0
220
0.0
230
1.0
 70
    24
 71
     3
 72
     8
 73
     4
 74
     0
 42
0.0000000001
 43
0.0000000001
 40
0.0
 40
0.0
 40
0.0
 40
0.0
 40
1.0
 40
1.0
 40
1.0
 40
1.0
 10
-12.53059842519685
 20
3.216122047244094
 30
0.0
 10
-12.53059842519685
 20
3.216122047244094
 30
0.0
 10
-13.029
 20
2.983622047244094
 30
0.0
 10
-13.029
 20
2.983622047244094
 30
0.0
  0
SPLINE
  5
A4
330
1F
100
AcDbEntity
  8
Master Layer 2
 62
     1
370
     9
100
AcDbSpline
210
0.0
220
0.0
230
1.0
 70
    24
 71
     3
 72
     8
 73
     4
 74
     0
 42
0.0000000001
 43
0.0000000001
 40
0.0
 40
0.0
 40
0.0
 40
0.0
 40
1.0
 40
1.0
 40
1.0
 40
1.0
 10
-13.029
 20
2.983622047244094
 30
0.0
 10
-13.029
 20
2.983622047244094
 30
0.0
 10
-13.084
 20
3.101425196850394
 30
0.0
 10
-13.084
 20
3.101425196850394
 30
0.0
  0
SPLINE
  5
A5
330
1F
100
AcDbEntity
  8
Master Layer 2
 62
     1
370
     9
100
AcDbSpline
210
0.0
220
0.0
230
1.0
 70
    24
 71
     3
 72
     8
 73
     4
 74
     0
 42
0.0000000001
 43
0.0000000001
 40
0.0
 40
0.0
 40
0.0
 40
0.0
 40
1.0
 40
1.0
 40
1.0
 40
1.0
 10
-13.084
 20
3.101425196850394
 30
0.0
 10
-13.084
 20
3.101425196850394
 30
0.0
 10
-12.5855
 20
3.333925196850394
 30
0.0
 10
-12.5855
 20
3.333925196850394
 30
0.0
  0
SPLINE
  5
A6
330
1F
100
AcDbEntity
  8
Master Layer 2
 62
     1
370
     9
100
AcDbSpline
210
0.0
220
0.0
230
1.0
 70
    24
 71
     3
 72
     8
 73
     4
 74
     0
 42
0.0000000001
 43
0.0000000001
 40
0.0
 40
0.0
 40
0.0
 40
0.0
 40
1.0
 40
1.0
 40
1.0
 40
1.0
 10
-13.65429921259843
 20
2.692023622047244
 30
0.0
 10
-13.65429921259843
 20
2.692023622047244
 30
0.0
 10
-13.70929921259843
 20
2.80982283464567
 30
0.0
 10
-13.70929921259843
 20
2.80982283464567
 30
0.0
  0
SPLINE
  5
A7
330
1F
100
AcDbEntity
  8
Master Layer 2
 62
     1
370
     9
100
AcDbSpline
210
0.0
220
0.0
230
1.0
 70
    24
 71
     3
 72
     8
 73
     4
 74
     0
 42
0.0000000001
 43
0.0000000001
 40
0.0
 40
0.0
 40
0.0
 40
0.0
 40
1.0
 40
1.0
 40
1.0
 40
1.0
 10
-13.70929921259843
 20
2.80982283464567
 30
0.0
 10
-13.70929921259843
 20
2.80982283464567
 30
0.0
 10
-13.21079921259843
 20
3.042224409448819
 30
0.0
 10
-13.21079921259843
 20
3.042224409448819
 30
0.0
  0
SPLINE
  5
A8
330
1F
100
AcDbEntity
  8
Master Layer 2
 62
     1
370
     9
100
AcDbSpline
210
0.0
220
0.0
230
1.0
 70
    24
 71
     3
 72
     8
 73
     4
 74
     0
 42
0.0000000001
 43
0.0000000001
 40
0.0
 40
0.0
 40
0.0
 40
0.0
 40
1.0
 40
1.0
 40
1.0
 40
1.0
 10
-13.21079921259843
 20
3.042224409448819
 30
0.0
 10
-13.21079921259843
 20
3.042224409448819
 30
0.0
 10
-13.15590157480315
 20
2.924425196850394
 30
0.0
 10
-13.15590157480315
 20
2.924425196850394
 30
0.0
  0
SPLINE
  5
A9
330
1F
100
AcDbEntity
  8
Master Layer 2
 62
     1
370
     9
100
AcDbSpline
210
0.0
220
0.0
230
1.0
 70
    24
 71
     3
 72
     8
 73
     4
 74
     0
 42
0.0000000001
 43
0.0000000001
 40
0.0
 40
0.0
 40
0.0
 40
0.0
 40
1.0
 40
1.0
 40
1.0
 40
1.0
 10
-13.15590157480315
 20
2.924425196850394
 30
0.0
 10
-13.15590157480315
 20
2.924425196850394
 30
0.0
 10
-13.65429921259843
 20
2.692023622047244
 30
0.0
 10
-13.65429921259843
 20
2.692023622047244
 30
0.0
  0
SPLINE
  5
AA
330
1F
100
AcDbEntity
  8
Master Layer 2
 62
     1
370
     9
100
AcDbSpline
210
0.0
220
0.0
230
1.0
 70
    24
 71
     3
 72
     8
 73
     4
 74
     0
 42
0.0000000001
 43
0.0000000001
 40
0.0
 40
0.0
 40
0.0
 40
0.0
 40
1.0
 40
1.0
 40
1.0
 40
1.0
 10
-14.05159842519685
 20
3.543925196850394
 30
0.0
 10
-14.05159842519685
 20
3.543925196850394
 30
0.0
 10
-14.1065
 20
3.661724409448819
 30
0.0
 10
-14.1065
 20
3.661724409448819
 30
0.0
  0
SPLINE
  5
AB
330
1F
100
AcDbEntity
  8
Master Layer 2
 62
     1
370
     9
100
AcDbSpline
210
0.0
220
0.0
230
1.0
 70
    24
 71
     3
 72
     8
 73
     4
 74
     0
 42
0.0000000001
 43
0.0000000001
 40
0.0
 40
0.0
 40
0.0
 40
0.0
 40
1.0
 40
1.0
 40
1.0
 40
1.0
 10
-14.1065
 20
3.661724409448819
 30
0.0
 10
-14.1065
 20
3.661724409448819
 30
0.0
 10
-13.60809842519685
 20
3.894224409448819
 30
0.0
 10
-13.60809842519685
 20
3.894224409448819
 30
0.0
  0
SPLINE
  5
AC
330
1F
100
AcDbEntity
  8
Master Layer 2
 62
     1
370
     9
100
AcDbSpline
210
0.0
220
0.0
230
1.0
 70
    24
 71
     3
 72
     8
 73
     4
 74
     0
 42
0.0000000001
 43
0.0000000001
 40
0.0
 40
0.0
 40
0.0
 40
0.0
 40
1.0
 40
1.0
 40
1.0
 40
1.0
 10
-13.60809842519685
 20
3.894224409448819
 30
0.0
 10
-13.60809842519685
 20
3.894224409448819
 30
0.0
 10
-13.55309842519685
 20
3.776425196850394
 30
0.0
 10
-13.55309842519685
 20
3.776425196850394
 30
0.0
  0
SPLINE
  5
AD
330
1F
100
AcDbEntity
  8
Master Layer 2
 62
     1
370
     9
100
AcDbSpline
210
0.0
220
0.0
230
1.0
 70
    24
 71
     3
 72
     8
 73
     4
 74
     0
 42
0.0000000001
 43
0.0000000001
 40
0.0
 40
0.0
 40
0.0
 40
0.0
 40
1.0
 40
1.0
 40
1.0
 40
1.0
 10
-13.55309842519685
 20
3.776425196850394
 30
0.0
 10
-13.55309842519685
 20
3.776425196850394
 30
0.0
 10
-14.05159842519685
 20
3.543925196850394
 30
0.0
 10
-14.05159842519685
 20
3.543925196850394
 30
0.0
  0
SPLINE
  5
AE
330
1F
100
AcDbEntity
  8
Master Layer 2
 62
     1
370
     9
100
AcDbSpline
210
0.0
220
0.0
230
1.0
 70
    11
 71
     3
 72
    20
 73
    16
 74
     0
 42
0.0000000001
 43
0.0000000001
 40
0.0
 40
0.0
 40
0.0
 40
0.0
 40
0.2
 40
0.2
 40
0.2
 40
0.2
 40
0.4
 40
0.4
 40
0.4
 40
0.4
 40
0.6
 40
0.6
 40
0.6
 40
0.6
 40
1.0
 40
1.0
 40
1.0
 40
1.0
 10
-14.11759842519685
 20
3.094622047244095
 30
0.0
 10
-14.11759842519685
 20
3.127759842519685
 30
0.0
 10
-14.09073622047244
 20
3.154622047244095
 30
0.0
 10
-14.05760236220472
 20
3.154622047244095
 30
0.0
 10
-14.05760236220472
 20
3.154622047244095
 30
0.0
 10
-14.02446456692913
 20
3.154625984251969
 30
0.0
 10
-13.99760236220472
 20
3.127759842519685
 30
0.0
 10
-13.99759842519685
 20
3.094625984251969
 30
0.0
 10
-13.99759842519685
 20
3.094625984251969
 30
0.0
 10
-13.99759842519685
 20
3.061488188976378
 30
0.0
 10
-14.02446456692913
 20
3.034625984251969
 30
0.0
 10
-14.05759842519685
 20
3.034622047244095
 30
0.0
 10
-14.05759842519685
 20
3.034622047244095
 30
0.0
 10
-14.09073622047244
 20
3.034622047244095
 30
0.0
 10
-14.11759842519685
 20
3.061488188976378
 30
0.0
 10
-14.11759842519685
 20
3.094622047244095
 30
0.0
  0
SPLINE
  5
AF
330
1F
100
AcDbEntity
  8
Master Layer 2
 62
     1
370
     9
100
AcDbSpline
210
0.0
220
0.0
230
1.0
 70
    11
 71
     3
 72
    20
 73
    16
 74
     0
 42
0.0000000001
 43
0.0000000001
 40
0.0
 40
0.0
 40
0.0
 40
0.0
 40
0.2
 40
0.2
 40
0.2
 40
0.2
 40
0.4
 40
0.4
 40
0.4
 40
0.4
 40
0.6
 40
0.6
 40
0.6
 40
0.6
 40
1.0
 40
1.0
 40
1.0
 40
1.0
 10
-13.89059842519685
 20
4.833622047244094
 30
0.0
 10
-13.89059842519685
 20
4.866759842519685
 30
0.0
 10
-13.86373622047244
 20
4.893622047244095
 30
0.0
 10
-13.83060236220472
 20
4.893622047244095
 30
0.0
 10
-13.83060236220472
 20
4.893622047244095
 30
0.0
 10
-13.79746456692913
 20
4.893625984251969
 30
0.0
 10
-13.77060236220473
 20
4.866759842519685
 30
0.0
 10
-13.77059842519685
 20
4.833625984251968
 30
0.0
 10
-13.77059842519685
 20
4.833625984251968
 30
0.0
 10
-13.77059842519685
 20
4.800488188976378
 30
0.0
 10
-13.79746456692913
 20
4.773625984251969
 30
0.0
 10
-13.83059842519685
 20
4.773622047244094
 30
0.0
 10
-13.83059842519685
 20
4.773622047244094
 30
0.0
 10
-13.86373622047244
 20
4.773622047244094
 30
0.0
 10
-13.89059842519685
 20
4.800488188976378
 30
0.0
 10
-13.89059842519685
 20
4.833622047244094
 30
0.0
  0
SPLINE
  5
B0
330
1F
100
AcDbEntity
  8
Master Layer 2
 62
     1
370
     9
100
AcDbSpline
210
0.0
220
0.0
230
1.0
 70
    11
 71
     3
 72
    20
 73
    16
 74
     0
 42
0.0000000001
 43
0.0000000001
 40
0.0
 40
0.0
 40
0.0
 40
0.0
 40
0.2
 40
0.2
 40
0.2
 40
0.2
 40
0.4
 40
0.4
 40
0.4
 40
0.4
 40
0.6
 40
0.6
 40
0.6
 40
0.6
 40
1.0
 40
1.0
 40
1.0
 40
1.0
 10
-12.08859842519685
 20
3.412622047244095
 30
0.0
 10
-12.08859842519685
 20
3.445759842519685
 30
0.0
 10
-12.06173622047244
 20
3.472622047244094
 30
0.0
 10
-12.02860236220472
 20
3.472622047244094
 30
0.0
 10
-12.02860236220472
 20
3.472622047244094
 30
0.0
 10
-11.99546456692913
 20
3.472625984251969
 30
0.0
 10
-11.96860236220472
 20
3.445759842519685
 30
0.0
 10
-11.96859842519685
 20
3.412625984251969
 30
0.0
 10
-11.96859842519685
 20
3.412625984251969
 30
0.0
 10
-11.96859842519685
 20
3.379488188976378
 30
0.0
 10
-11.99546456692913
 20
3.352625984251969
 30
0.0
 10
-12.02859842519685
 20
3.352622047244095
 30
0.0
 10
-12.02859842519685
 20
3.352622047244095
 30
0.0
 10
-12.06173622047244
 20
3.352622047244095
 30
0.0
 10
-12.08859842519685
 20
3.379488188976378
 30
0.0
 10
-12.08859842519685
 20
3.412622047244095
 30
0.0
  0
SPLINE
  5
B1
330
1F
100
AcDbEntity
  8
Master Layer 2
 62
     1
370
     9
100
AcDbSpline
210
0.0
220
0.0
230
1.0
 70
    11
 71
     3
 72
    20
 73
    16
 74
     0
 42
0.0000000001
 43
0.0000000001
 40
0.0
 40
0.0
 40
0.0
 40
0.0
 40
0.2
 40
0.2
 40
0.2
 40
0.2
 40
0.4
 40
0.4
 40
0.4
 40
0.4
 40
0.6
 40
0.6
 40
0.6
 40
0.6
 40
1.0
 40
1.0
 40
1.0
 40
1.0
 10
-8.29559842519685
 20
4.109622047244095
 30
0.0
 10
-8.29559842519685
 20
4.142759842519685
 30
0.0
 10
-8.26873622047244
 20
4.169622047244094
 30
0.0
 10
-8.235602362204725
 20
4.169622047244094
 30
0.0
 10
-8.235602362204725
 20
4.169622047244094
 30
0.0
 10
-8.202464566929134
 20
4.169625984251969
 30
0.0
 10
-8.175602362204724
 20
4.142759842519685
 30
0.0
 10
-8.175598425196851
 20
4.109625984251968
 30
0.0
 10
-8.175598425196851
 20
4.109625984251968
 30
0.0
 10
-8.175598425196851
 20
4.076488188976378
 30
0.0
 10
-8.202464566929134
 20
4.049625984251969
 30
0.0
 10
-8.23559842519685
 20
4.049622047244094
 30
0.0
 10
-8.23559842519685
 20
4.049622047244094
 30
0.0
 10
-8.26873622047244
 20
4.049622047244094
 30
0.0
 10
-8.29559842519685
 20
4.076488188976378
 30
0.0
 10
-8.29559842519685
 20
4.109622047244095
 30
0.0
  0
SPLINE
  5
B2
330
1F
100
AcDbEntity
  8
Master Layer 2
 62
     1
370
     9
100
AcDbSpline
210
0.0
220
0.0
230
1.0
 70
    11
 71
     3
 72
    20
 73
    16
 74
     0
 42
0.0000000001
 43
0.0000000001
 40
0.0
 40
0.0
 40
0.0
 40
0.0
 40
0.2
 40
0.2
 40
0.2
 40
0.2
 40
0.4
 40
0.4
 40
0.4
 40
0.4
 40
0.6
 40
0.6
 40
0.6
 40
0.6
 40
1.0
 40
1.0
 40
1.0
 40
1.0
 10
-10.76559842519685
 20
6.017622047244094
 30
0.0
 10
-10.76559842519685
 20
6.050759842519685
 30
0.0
 10
-10.73873622047244
 20
6.077622047244095
 30
0.0
 10
-10.70560236220472
 20
6.077622047244095
 30
0.0
 10
-10.70560236220472
 20
6.077622047244095
 30
0.0
 10
-10.67246456692913
 20
6.077625984251968
 30
0.0
 10
-10.64560236220473
 20
6.050759842519685
 30
0.0
 10
-10.64559842519685
 20
6.017625984251969
 30
0.0
 10
-10.64559842519685
 20
6.017625984251969
 30
0.0
 10
-10.64559842519685
 20
5.984488188976378
 30
0.0
 10
-10.67246456692913
 20
5.957625984251968
 30
0.0
 10
-10.70559842519685
 20
5.957622047244095
 30
0.0
 10
-10.70559842519685
 20
5.957622047244095
 30
0.0
 10
-10.73873622047244
 20
5.957622047244095
 30
0.0
 10
-10.76559842519685
 20
5.984488188976378
 30
0.0
 10
-10.76559842519685
 20
6.017622047244094
 30
0.0
  0
SPLINE
  5
B3
330
1F
100
AcDbEntity
  8
Master Layer 2
 62
     1
370
     9
100
AcDbSpline
210
0.0
220
0.0
230
1.0
 70
    11
 71
     3
 72
    20
 73
    16
 74
     0
 42
0.0000000001
 43
0.0000000001
 40
0.0
 40
0.0
 40
0.0
 40
0.0
 40
0.2
 40
0.2
 40
0.2
 40
0.2
 40
0.4
 40
0.4
 40
0.4
 40
0.4
 40
0.6
 40
0.6
 40
0.6
 40
0.6
 40
1.0
 40
1.0
 40
1.0
 40
1.0
 10
-8.32059842519685
 20
8.161622047244094
 30
0.0
 10
-8.32059842519685
 20
8.194759842519685
 30
0.0
 10
-8.293736220472441
 20
8.221622047244095
 30
0.0
 10
-8.260602362204724
 20
8.221622047244095
 30
0.0
 10
-8.260602362204724
 20
8.221622047244095
 30
0.0
 10
-8.227464566929134
 20
8.221625984251968
 30
0.0
 10
-8.200602362204725
 20
8.194759842519685
 30
0.0
 10
-8.20059842519685
 20
8.161625984251968
 30
0.0
 10
-8.20059842519685
 20
8.161625984251968
 30
0.0
 10
-8.20059842519685
 20
8.128488188976378
 30
0.0
 10
-8.227464566929134
 20
8.10162598425197
 30
0.0
 10
-8.26059842519685
 20
8.101622047244094
 30
0.0
 10
-8.26059842519685
 20
8.101622047244094
 30
0.0
 10
-8.293736220472441
 20
8.101622047244094
 30
0.0
 10
-8.32059842519685
 20
8.128488188976378
 30
0.0
 10
-8.32059842519685
 20
8.161622047244094
 30
0.0
  0
SPLINE
  5
B4
330
1F
100
AcDbEntity
  8
Master Layer 2
370
     9
100
AcDbSpline
210
0.0
220
0.0
230
1.0
 70
    11
 71
     3
 72
    20
 73
    16
 74
     0
 42
0.0000000001
 43
0.0000000001
 40
0.0
 40
0.0
 40
0.0
 40
0.0
 40
0.2
 40
0.2
 40
0.2
 40
0.2
 40
0.4
 40
0.4
 40
0.4
 40
0.4
 40
0.6
 40
0.6
 40
0.6
 40
0.6
 40
1.0
 40
1.0
 40
1.0
 40
1.0
 10
-11.58559842519685
 20
8.161622047244094
 30
0.0
 10
-11.58559842519685
 20
8.194759842519685
 30
0.0
 10
-11.55873622047244
 20
8.221622047244095
 30
0.0
 10
-11.52560236220472
 20
8.221622047244095
 30
0.0
 10
-11.52560236220472
 20
8.221622047244095
 30
0.0
 10
-11.49246456692913
 20
8.221625984251968
 30
0.0
 10
-11.46560236220472
 20
8.194759842519685
 30
0.0
 10
-11.46559842519685
 20
8.161625984251968
 30
0.0
 10
-11.46559842519685
 20
8.161625984251968
 30
0.0
 10
-11.46559842519685
 20
8.128488188976378
 30
0.0
 10
-11.49246456692913
 20
8.10162598425197
 30
0.0
 10
-11.52559842519685
 20
8.101622047244094
 30
0.0
 10
-11.52559842519685
 20
8.101622047244094
 30
0.0
 10
-11.55873622047244
 20
8.101622047244094
 30
0.0
 10
-11.58559842519685
 20
8.128488188976378
 30
0.0
 10
-11.58559842519685
 20
8.161622047244094
 30
0.0
  0
SPLINE
  5
B5
330
1F
100
AcDbEntity
  8
Master Layer 2
 62
     1
370
     9
100
AcDbSpline
210
0.0
220
0.0
230
1.0
 70
    11
 71
     3
 72
    20
 73
    16
 74
     0
 42
0.0000000001
 43
0.0000000001
 40
0.0
 40
0.0
 40
0.0
 40
0.0
 40
0.2
 40
0.2
 40
0.2
 40
0.2
 40
0.4
 40
0.4
 40
0.4
 40
0.4
 40
0.6
 40
0.6
 40
0.6
 40
0.6
 40
1.0
 40
1.0
 40
1.0
 40
1.0
 10
-13.58559842519685
 20
8.161622047244094
 30
0.0
 10
-13.58559842519685
 20
8.194759842519685
 30
0.0
 10
-13.55873622047244
 20
8.221622047244095
 30
0.0
 10
-13.52560236220472
 20
8.221622047244095
 30
0.0
 10
-13.52560236220472
 20
8.221622047244095
 30
0.0
 10
-13.49246456692913
 20
8.221625984251968
 30
0.0
 10
-13.46560236220472
 20
8.194759842519685
 30
0.0
 10
-13.46559842519685
 20
8.161625984251968
 30
0.0
 10
-13.46559842519685
 20
8.161625984251968
 30
0.0
 10
-13.46559842519685
 20
8.128488188976378
 30
0.0
 10
-13.49246456692913
 20
8.10162598425197
 30
0.0
 10
-13.52559842519685
 20
8.101622047244094
 30
0.0
 10
-13.52559842519685
 20
8.101622047244094
 30
0.0
 10
-13.55873622047244
 20
8.101622047244094
 30
0.0
 10
-13.58559842519685
 20
8.128488188976378
 30
0.0
 10
-13.58559842519685
 20
8.161622047244094
 30
0.0
  0
SPLINE
  5
B6
330
1F
100
AcDbEntity
  8
Master Layer 2
 62
     1
370
     9
100
AcDbSpline
210
0.0
220
0.0
230
1.0
 70
    11
 71
     3
 72
    20
 73
    16
 74
     0
 42
0.0000000001
 43
0.0000000001
 40
0.0
 40
0.0
 40
0.0
 40
0.0
 40
0.2
 40
0.2
 40
0.2
 40
0.2
 40
0.4
 40
0.4
 40
0.4
 40
0.4
 40
0.6
 40
0.6
 40
0.6
 40
0.6
 40
1.0
 40
1.0
 40
1.0
 40
1.0
 10
-11.77115354330709
 20
8.528622047244095
 30
0.0
 10
-11.77115354330709
 20
8.561240157480315
 30
0.0
 10
-11.74471653543307
 20
8.58767716535433
 30
0.0
 10
-11.71209842519685
 20
8.58767716535433
 30
0.0
 10
-11.71209842519685
 20
8.58767716535433
 30
0.0
 10
-11.6794842519685
 20
8.587681102362204
 30
0.0
 10
-11.65304724409449
 20
8.561240157480315
 30
0.0
 10
-11.65304330708661
 20
8.528625984251969
 30
0.0
 10
-11.65304330708661
 20
8.528625984251969
 30
0.0
 10
-11.65304330708661
 20
8.496007874015747
 30
0.0
 10
-11.6794842519685
 20
8.469570866141732
 30
0.0
 10
-11.71209842519685
 20
8.469566929133858
 30
0.0
 10
-11.71209842519685
 20
8.469566929133858
 30
0.0
 10
-11.74471653543307
 20
8.469566929133858
 30
0.0
 10
-11.77115354330709
 20
8.496007874015747
 30
0.0
 10
-11.77115354330709
 20
8.528622047244095
 30
0.0
  0
SPLINE
  5
B7
330
1F
100
AcDbEntity
  8
Master Layer 2
 62
     1
370
     9
100
AcDbSpline
210
0.0
220
0.0
230
1.0
 70
    11
 71
     3
 72
    20
 73
    16
 74
     0
 42
0.0000000001
 43
0.0000000001
 40
0.0
 40
0.0
 40
0.0
 40
0.0
 40
0.2
 40
0.2
 40
0.2
 40
0.2
 40
0.4
 40
0.4
 40
0.4
 40
0.4
 40
0.6
 40
0.6
 40
0.6
 40
0.6
 40
1.0
 40
1.0
 40
1.0
 40
1.0
 10
-13.87679527559055
 20
8.457011811023621
 30
0.0
 10
-13.87679527559055
 20
8.489625984251969
 30
0.0
 10
-13.85035433070866
 20
8.516066929133858
 30
0.0
 10
-13.81774015748032
 20
8.516066929133858
 30
0.0
 10
-13.81774015748032
 20
8.516066929133858
 30
0.0
 10
-13.78512598425197
 20
8.516066929133858
 30
0.0
 10
-13.75868503937008
 20
8.489625984251969
 30
0.0
 10
-13.75868503937008
 20
8.457011811023621
 30
0.0
 10
-13.75868503937008
 20
8.457011811023621
 30
0.0
 10
-13.75868503937008
 20
8.424397637795275
 30
0.0
 10
-13.78512204724409
 20
8.397956692913386
 30
0.0
 10
-13.81774015748032
 20
8.397956692913386
 30
0.0
 10
-13.81774015748032
 20
8.397956692913386
 30
0.0
 10
-13.85035433070866
 20
8.397956692913386
 30
0.0
 10
-13.87679527559055
 20
8.424393700787402
 30
0.0
 10
-13.87679527559055
 20
8.457011811023621
 30
0.0
  0
SPLINE
  5
B8
330
1F
100
AcDbEntity
  8
Master Layer 2
 62
     1
370
     9
100
AcDbSpline
210
0.0
220
0.0
230
1.0
 70
    11
 71
     3
 72
    20
 73
    16
 74
     0
 42
0.0000000001
 43
0.0000000001
 40
0.0
 40
0.0
 40
0.0
 40
0.0
 40
0.2
 40
0.2
 40
0.2
 40
0.2
 40
0.4
 40
0.4
 40
0.4
 40
0.4
 40
0.6
 40
0.6
 40
0.6
 40
0.6
 40
1.0
 40
1.0
 40
1.0
 40
1.0
 10
-15.52017716535433
 20
4.223322834645669
 30
0.0
 10
-15.52017716535433
 20
4.25594094488189
 30
0.0
 10
-15.49374015748032
 20
4.282377952755906
 30
0.0
 10
-15.46112204724409
 20
4.282377952755906
 30
0.0
 10
-15.46112204724409
 20
4.282377952755906
 30
0.0
 10
-15.42850787401575
 20
4.282377952755906
 30
0.0
 10
-15.40206692913386
 20
4.25594094488189
 30
0.0
 10
-15.40206692913386
 20
4.223322834645669
 30
0.0
 10
-15.40206692913386
 20
4.223322834645669
 30
0.0
 10
-15.40206692913386
 20
4.190708661417323
 30
0.0
 10
-15.42850787401575
 20
4.164267716535433
 30
0.0
 10
-15.46112204724409
 20
4.164267716535433
 30
0.0
 10
-15.46112204724409
 20
4.164267716535433
 30
0.0
 10
-15.49374015748032
 20
4.164267716535433
 30
0.0
 10
-15.52017716535433
 20
4.190708661417323
 30
0.0
 10
-15.52017716535433
 20
4.223322834645669
 30
0.0
  0
SPLINE
  5
B9
330
1F
100
AcDbEntity
  8
Master Layer 2
 62
     1
370
     9
100
AcDbSpline
210
0.0
220
0.0
230
1.0
 70
     8
 71
     3
 72
    20
 73
    16
 74
     0
 42
0.0000000001
 43
0.0000000001
 40
0.0
 40
0.0
 40
0.0
 40
0.0
 40
0.2
 40
0.2
 40
0.2
 40
0.2
 40
0.4
 40
0.4
 40
0.4
 40
0.4
 40
0.6
 40
0.6
 40
0.6
 40
0.6
 40
1.0
 40
1.0
 40
1.0
 40
1.0
 10
-14.47346850393701
 20
1.97859842519685
 30
0.0
 10
-14.47346850393701
 20
2.011212598425197
 30
0.0
 10
-14.44702755905512
 20
2.037653543307087
 30
0.0
 10
-14.41441338582677
 20
2.037653543307087
 30
0.0
 10
-14.41441338582677
 20
2.037653543307087
 30
0.0
 10
-14.38179921259843
 20
2.037653543307087
 30
0.0
 10
-14.35535826771654
 20
2.011212598425197
 30
0.0
 10
-14.35535826771654
 20
1.97859842519685
 30
0.0
 10
-14.35535826771654
 20
1.97859842519685
 30
0.0
 10
-14.35535826771654
 20
1.94598031496063
 30
0.0
 10
-14.38179921259843
 20
1.919543307086614
 30
0.0
 10
-14.41441338582677
 20
1.919543307086614
 30
0.0
 10
-14.41441338582677
 20
1.919543307086614
 30
0.0
 10
-14.44702755905512
 20
1.919543307086614
 30
0.0
 10
-14.47346850393701
 20
1.94598031496063
 30
0.0
 10
-14.47346850393701
 20
1.978594488188976
 30
0.0
  0
SPLINE
  5
BA
330
1F
100
AcDbEntity
  8
Master Layer 2
 62
     1
370
     9
100
AcDbSpline
210
0.0
220
0.0
230
1.0
 70
     8
 71
     3
 72
    20
 73
    16
 74
     0
 42
0.0000000001
 43
0.0000000001
 40
0.0
 40
0.0
 40
0.0
 40
0.0
 40
0.2
 40
0.2
 40
0.2
 40
0.2
 40
0.4
 40
0.4
 40
0.4
 40
0.4
 40
0.6
 40
0.6
 40
0.6
 40
0.6
 40
1.0
 40
1.0
 40
1.0
 40
1.0
 10
-11.19385433070866
 20
3.428622047244095
 30
0.0
 10
-11.19385433070866
 20
3.461236220472441
 30
0.0
 10
-11.16741338582677
 20
3.487677165354331
 30
0.0
 10
-11.13479921259843
 20
3.487677165354331
 30
0.0
 10
-11.13479921259843
 20
3.487677165354331
 30
0.0
 10
-11.10218503937008
 20
3.487677165354331
 30
0.0
 10
-11.07574409448819
 20
3.461236220472441
 30
0.0
 10
-11.07574409448819
 20
3.428622047244095
 30
0.0
 10
-11.07574409448819
 20
3.428622047244095
 30
0.0
 10
-11.07574409448819
 20
3.396003937007874
 30
0.0
 10
-11.10218503937008
 20
3.369566929133858
 30
0.0
 10
-11.13479921259843
 20
3.369566929133858
 30
0.0
 10
-11.13479921259843
 20
3.369566929133858
 30
0.0
 10
-11.16741338582677
 20
3.369562992125984
 30
0.0
 10
-11.19385433070866
 20
3.396003937007874
 30
0.0
 10
-11.19385433070866
 20
3.42861811023622
 30
0.0
  0
SPLINE
  5
BB
330
1F
100
AcDbEntity
  8
Master Layer 2
 62
     1
370
     9
100
AcDbSpline
210
0.0
220
0.0
230
1.0
 70
    11
 71
     3
 72
    20
 73
    16
 74
     0
 42
0.0000000001
 43
0.0000000001
 40
0.0
 40
0.0
 40
0.0
 40
0.0
 40
0.2
 40
0.2
 40
0.2
 40
0.2
 40
0.4
 40
0.4
 40
0.4
 40
0.4
 40
0.6
 40
0.6
 40
0.6
 40
0.6
 40
1.0
 40
1.0
 40
1.0
 40
1.0
 10
-8.02826377952756
 20
3.562728346456693
 30
0.0
 10
-8.02826377952756
 20
3.595346456692913
 30
0.0
 10
-8.001822834645669
 20
3.621783464566929
 30
0.0
 10
-7.969208661417323
 20
3.621783464566929
 30
0.0
 10
-7.969208661417323
 20
3.621783464566929
 30
0.0
 10
-7.936594488188977
 20
3.621783464566929
 30
0.0
 10
-7.910153543307087
 20
3.595346456692913
 30
0.0
 10
-7.910153543307087
 20
3.562728346456693
 30
0.0
 10
-7.910153543307087
 20
3.562728346456693
 30
0.0
 10
-7.910153543307087
 20
3.530114173228347
 30
0.0
 10
-7.936590551181102
 20
3.503673228346457
 30
0.0
 10
-7.969208661417323
 20
3.503673228346457
 30
0.0
 10
-7.969208661417323
 20
3.503673228346457
 30
0.0
 10
-8.001822834645669
 20
3.503673228346457
 30
0.0
 10
-8.02826377952756
 20
3.530114173228347
 30
0.0
 10
-8.02826377952756
 20
3.562728346456693
 30
0.0
  0
SPLINE
  5
BC
330
1F
100
AcDbEntity
  8
Master Layer 2
 62
     1
370
     9
100
AcDbSpline
210
0.0
220
0.0
230
1.0
 70
    11
 71
     3
 72
    20
 73
    16
 74
     0
 42
0.0000000001
 43
0.0000000001
 40
0.0
 40
0.0
 40
0.0
 40
0.0
 40
0.2
 40
0.2
 40
0.2
 40
0.2
 40
0.4
 40
0.4
 40
0.4
 40
0.4
 40
0.6
 40
0.6
 40
0.6
 40
0.6
 40
1.0
 40
1.0
 40
1.0
 40
1.0
 10
-8.02826377952756
 20
8.457011811023621
 30
0.0
 10
-8.02826377952756
 20
8.489625984251969
 30
0.0
 10
-8.001822834645669
 20
8.516066929133858
 30
0.0
 10
-7.969208661417323
 20
8.516066929133858
 30
0.0
 10
-7.969208661417323
 20
8.516066929133858
 30
0.0
 10
-7.936594488188977
 20
8.516066929133858
 30
0.0
 10
-7.910153543307087
 20
8.489625984251969
 30
0.0
 10
-7.910153543307087
 20
8.457011811023621
 30
0.0
 10
-7.910153543307087
 20
8.457011811023621
 30
0.0
 10
-7.910153543307087
 20
8.424397637795275
 30
0.0
 10
-7.936590551181102
 20
8.397956692913386
 30
0.0
 10
-7.969208661417323
 20
8.397956692913386
 30
0.0
 10
-7.969208661417323
 20
8.397956692913386
 30
0.0
 10
-8.001822834645669
 20
8.397956692913386
 30
0.0
 10
-8.02826377952756
 20
8.424393700787402
 30
0.0
 10
-8.02826377952756
 20
8.457011811023621
 30
0.0
  0
ENDSEC
  0
SECTION
  2
OBJECTS
  0
DICTIONARY
  5
C
330
0
100
AcDbDictionary
281
     1
  3
ACAD_GROUP
350
D
  3
ACAD_LAYOUT
350
1A
  3
ACAD_MATERIAL
350
3B
  3
ACAD_MLEADERSTYLE
350
DE
  3
ACAD_MLINESTYLE
350
17
  3
ACAD_PLOTSETTINGS
350
19
  3
ACAD_PLOTSTYLENAME
350
E
  3
ACAD_TABLESTYLE
350
DD
  3
ACAD_VISUALSTYLE
350
2A
  0
DICTIONARY
  5
D
102
{ACAD_REACTORS
330
C
102
}
330
C
100
AcDbDictionary
281
     1
  0
DICTIONARY
  5
1A
102
{ACAD_REACTORS
330
C
102
}
330
C
100
AcDbDictionary
281
     1
  3
Layout1
350
1E
  3
Layout2
350
26
  3
Model
350
22
  0
DICTIONARY
  5
3B
102
{ACAD_REACTORS
330
C
102
}
330
C
100
AcDbDictionary
281
     1
  3
ByBlock
350
3D
  3
ByLayer
350
3C
  3
Global
350
3E
  0
DICTIONARY
  5
DE
102
{ACAD_REACTORS
330
C
102
}
330
C
100
AcDbDictionary
281
     1
  0
DICTIONARY
  5
17
102
{ACAD_REACTORS
330
C
102
}
330
C
100
AcDbDictionary
281
     1
  3
Standard
350
18
  0
DICTIONARY
  5
19
102
{ACAD_REACTORS
330
C
102
}
330
C
100
AcDbDictionary
281
     1
  0
ACDBDICTIONARYWDFLT
  5
E
102
{ACAD_REACTORS
330
C
102
}
330
C
100
AcDbDictionary
281
     1
  3
Normal
350
F
100
AcDbDictionaryWithDefault
340
F
  0
DICTIONARY
  5
DD
102
{ACAD_REACTORS
330
C
102
}
330
C
100
AcDbDictionary
281
     1
  0
DICTIONARY
  5
2A
102
{ACAD_REACTORS
330
C
102
}
330
C
100
AcDbDictionary
281
     1
  3
2dWireframe
350
2F
  3
3D Hidden
350
31
  3
3dWireframe
350
30
  3
Basic
350
32
  3
Brighten
350
36
  3
ColorChange
350
3A
  3
Conceptual
350
34
  3
Dim
350
35
  3
Facepattern
350
39
  3
Flat
350
2B
  3
FlatWithEdges
350
2C
  3
Gouraud
350
2D
  3
GouraudWithEdges
350
2E
  3
Linepattern
350
38
  3
Realistic
350
33
  3
Thicken
350
37
  0
LAYOUT
  5
1E
102
{ACAD_REACTORS
330
1A
102
}
330
1A
100
AcDbPlotSettings
  1

  2
none_device
  4

  6

 40
0.0
 41
0.0
 42
0.0
 43
0.0
 44
0.0
 45
0.0
 46
0.0
 47
0.0
 48
0.0
 49
0.0
140
0.0
141
0.0
142
1.0
143
1.0
 70
   688
 72
     0
 73
     0
 74
     5
  7

 75
    16
 76
     0
 77
     2
 78
   300
147
1.0
148
0.0
149
0.0
100
AcDbLayout
  1
Layout1
 70
     1
 71
     1
 10
0.0
 20
0.0
 11
12.0
 21
9.0
 12
0.0
 22
0.0
 32
0.0
 14
1.000000000000000E+20
 24
1.000000000000000E+20
 34
1.000000000000000E+20
 15
-1.000000000000000E+20
 25
-1.000000000000000E+20
 35
-1.000000000000000E+20
146
0.0
 13
0.0
 23
0.0
 33
0.0
 16
1.0
 26
0.0
 36
0.0
 17
0.0
 27
1.0
 37
0.0
 76
     0
330
1B
  0
LAYOUT
  5
26
102
{ACAD_REACTORS
330
1A
102
}
330
1A
100
AcDbPlotSettings
  1

  2
none_device
  4

  6

 40
0.0
 41
0.0
 42
0.0
 43
0.0
 44
0.0
 45
0.0
 46
0.0
 47
0.0
 48
0.0
 49
0.0
140
0.0
141
0.0
142
1.0
143
1.0
 70
   688
 72
     0
 73
     0
 74
     5
  7

 75
    16
 76
     0
 77
     2
 78
   300
147
1.0
148
0.0
149
0.0
100
AcDbLayout
  1
Layout2
 70
     1
 71
     2
 10
0.0
 20
0.0
 11
0.0
 21
0.0
 12
0.0
 22
0.0
 32
0.0
 14
0.0
 24
0.0
 34
0.0
 15
0.0
 25
0.0
 35
0.0
146
0.0
 13
0.0
 23
0.0
 33
0.0
 16
1.0
 26
0.0
 36
0.0
 17
0.0
 27
1.0
 37
0.0
 76
     0
330
23
  0
LAYOUT
  5
22
102
{ACAD_REACTORS
330
1A
102
}
330
1A
100
AcDbPlotSettings
  1

  2
none_device
  4

  6

 40
0.0
 41
0.0
 42
0.0
 43
0.0
 44
0.0
 45
0.0
 46
0.0
 47
0.0
 48
0.0
 49
0.0
140
0.0
141
0.0
142
1.0
143
1.0
 70
  1712
 72
     0
 73
     0
 74
     0
  7

 75
     0
 76
     0
 77
     2
 78
   300
147
1.0
148
0.0
149
0.0
100
AcDbLayout
  1
Model
 70
     1
 71
     0
 10
0.0
 20
0.0
 11
12.0
 21
9.0
 12
0.0
 22
0.0
 32
0.0
 14
-15.69704724409449
 24
1.739645669291339
 34
0.0
 15
-7.718429133858268
 25
8.704759842519685
 35
0.0
146
0.0
 13
0.0
 23
0.0
 33
0.0
 16
1.0
 26
0.0
 36
0.0
 17
0.0
 27
1.0
 37
0.0
 76
     0
330
1F
331
29
  0
MATERIAL
  5
3D
102
{ACAD_REACTORS
330
3B
102
}
330
3B
100
AcDbMaterial
  1
ByBlock
 72
     1
 94
      127
  0
MATERIAL
  5
3C
102
{ACAD_REACTORS
330
3B
102
}
330
3B
100
AcDbMaterial
  1
ByLayer
 72
     1
 94
      127
  0
MATERIAL
  5
3E
102
{ACAD_REACTORS
330
3B
102
}
330
3B
100
AcDbMaterial
  1
Global
 72
     1
 94
      127
  0
MLINESTYLE
  5
18
102
{ACAD_REACTORS
330
17
102
}
330
17
100
AcDbMlineStyle
  2
Standard
 70
     0
  3

 62
   256
 51
90.0
 52
90.0
 71
     2
 49
0.5
 62
   256
  6
BYLAYER
 49
-0.5
 62
   256
  6
BYLAYER
  0
ACDBPLACEHOLDER
  5
F
102
{ACAD_REACTORS
330
E
102
}
330
E
  0
VISUALSTYLE
  5
2F
102
{ACAD_REACTORS
330
2A
102
}
102
{ACAD_XDICTIONARY
360
C5
102
}
330
2A
100
AcDbVisualStyle
  2
2dWireframe
 70
     4
 71
     0
 72
     2
 73
     0
 90
        0
 40
-0.6
 41
-30.0
 62
     5
 63
     7
421
 16777215
 74
     1
 91
        4
 64
     7
 65
   257
 75
     1
175
     1
 42
1.0
 92
        0
 66
   257
 43
1.0
 76
     1
 77
     6
 78
     2
 67
     7
 79
     5
170
     0
171
     0
290
     0
174
     0
 93
        1
 44
0.0
173
     0
291
     0
 45
0.0
  0
VISUALSTYLE
  5
31
102
{ACAD_REACTORS
330
2A
102
}
102
{ACAD_XDICTIONARY
360
C9
102
}
330
2A
100
AcDbVisualStyle
  2
3D Hidden
 70
     6
 71
     1
 72
     2
 73
     2
 90
        0
 40
-0.6
 41
-30.0
 62
     5
 63
     7
421
 16777215
 74
     2
 91
        2
 64
     7
 65
   257
 75
     2
175
     1
 42
40.0
 92
        0
 66
   257
 43
1.0
 76
     1
 77
     6
 78
     2
 67
     7
 79
     3
170
     0
171
     0
290
     0
174
     0
 93
        1
 44
0.0
173
     0
291
     0
 45
0.0
  0
VISUALSTYLE
  5
30
102
{ACAD_REACTORS
330
2A
102
}
102
{ACAD_XDICTIONARY
360
C7
102
}
330
2A
100
AcDbVisualStyle
  2
3dWireframe
 70
     5
 71
     0
 72
     2
 73
     0
 90
        0
 40
-0.6
 41
-30.0
 62
     5
 63
     7
421
 16777215
 74
     1
 91
        4
 64
     7
 65
   257
 75
     1
175
     1
 42
1.0
 92
        0
 66
   257
 43
1.0
 76
     1
 77
     6
 78
     2
 67
     7
 79
     5
170
     0
171
     0
290
     0
174
     0
 93
        1
 44
0.0
173
     0
291
     0
 45
0.0
  0
VISUALSTYLE
  5
32
102
{ACAD_REACTORS
330
2A
102
}
102
{ACAD_XDICTIONARY
360
CB
102
}
330
2A
100
AcDbVisualStyle
  2
Basic
 70
     7
 71
     1
 72
     0
 73
     1
 90
        0
 40
-0.6
 41
-30.0
 62
     5
 63
     7
421
 16777215
 74
     0
 91
        4
 64
     7
 65
   257
 75
     1
175
     1
 42
1.0
 92
        8
 66
     7
 43
1.0
 76
     1
 77
     6
 78
     2
 67
     7
 79
     5
170
     0
171
     0
290
     0
174
     0
 93
        1
 44
0.0
173
     0
291
     1
 45
0.0
  0
VISUALSTYLE
  5
36
102
{ACAD_REACTORS
330
2A
102
}
102
{ACAD_XDICTIONARY
360
D3
102
}
330
2A
100
AcDbVisualStyle
  2
Brighten
 70
    12
 71
     2
 72
     2
 73
     0
 90
        0
 40
-0.6
 41
-30.0
 62
     5
 63
     7
421
 16777215
 74
     1
 91
        4
 64
     7
 65
   257
 75
     1
175
     1
 42
1.0
 92
        8
 66
     7
 43
1.0
 76
     1
 77
     6
 78
     2
 67
     7
 79
     5
170
     0
171
     0
290
     0
174
     0
 93
        1
 44
50.0
173
     0
291
     1
 45
0.0
  0
VISUALSTYLE
  5
3A
102
{ACAD_REACTORS
330
2A
102
}
102
{ACAD_XDICTIONARY
360
DB
102
}
330
2A
100
AcDbVisualStyle
  2
ColorChange
 70
    16
 71
     2
 72
     2
 73
     3
 90
        0
 40
-0.6
 41
-30.0
 62
     5
 63
     8
421
  8421504
 74
     1
 91
        4
 64
     7
 65
   257
 75
     1
175
     1
 42
1.0
 92
        8
 66
     8
424
  8421504
 43
1.0
 76
     1
 77
     6
 78
     2
 67
     7
 79
     5
170
     0
171
     0
290
     0
174
     0
 93
        1
 44
0.0
173
     0
291
     1
 45
0.0
  0
VISUALSTYLE
  5
34
102
{ACAD_REACTORS
330
2A
102
}
102
{ACAD_XDICTIONARY
360
CF
102
}
330
2A
100
AcDbVisualStyle
  2
Conceptual
 70
     9
 71
     3
 72
     2
 73
     0
 90
        0
 40
-0.6
 41
-30.0
 62
     5
 63
     7
421
 16777215
 74
     2
 91
        2
 64
     7
 65
   257
 75
     1
175
     1
 42
40.0
 92
        8
 66
     7
 43
1.0
 76
     1
 77
     6
 78
     2
 67
     7
 79
     3
170
     0
171
     0
290
     0
174
     0
 93
        1
 44
0.0
173
     0
291
     0
 45
0.0
  0
VISUALSTYLE
  5
35
102
{ACAD_REACTORS
330
2A
102
}
102
{ACAD_XDICTIONARY
360
D1
102
}
330
2A
100
AcDbVisualStyle
  2
Dim
 70
    11
 71
     2
 72
     2
 73
     0
 90
        0
 40
-0.6
 41
-30.0
 62
     5
 63
     7
421
 16777215
 74
     1
 91
        4
 64
     7
 65
   257
 75
     1
175
     1
 42
1.0
 92
        8
 66
     7
 43
1.0
 76
     1
 77
     6
 78
     2
 67
     7
 79
     5
170
     0
171
     0
290
     0
174
     0
 93
        1
 44
-50.0
173
     0
291
     1
 45
0.0
  0
VISUALSTYLE
  5
39
102
{ACAD_REACTORS
330
2A
102
}
102
{ACAD_XDICTIONARY
360
D9
102
}
330
2A
100
AcDbVisualStyle
  2
Facepattern
 70
    15
 71
     2
 72
     2
 73
     0
 90
        0
 40
-0.6
 41
-30.0
 62
     5
 63
     7
421
 16777215
 74
     1
 91
        4
 64
     7
 65
   257
 75
     1
175
     1
 42
1.0
 92
        8
 66
     7
 43
1.0
 76
     1
 77
     6
 78
     2
 67
     7
 79
     5
170
     0
171
     0
290
     0
174
     0
 93
        1
 44
0.0
173
     0
291
     1
 45
0.0
  0
VISUALSTYLE
  5
2B
102
{ACAD_REACTORS
330
2A
102
}
102
{ACAD_XDICTIONARY
360
BD
102
}
330
2A
100
AcDbVisualStyle
  2
Flat
 70
     0
 71
     2
 72
     1
 73
     1
 90
        2
 40
-0.6
 41
30.0
 62
     5
 63
     7
421
 16777215
 74
     0
 91
        4
 64
     7
 65
   257
 75
     1
175
     1
 42
1.0
 92
        8
 66
     7
 43
1.0
 76
     1
 77
     6
 78
     2
 67
     7
 79
     5
170
     0
171
     0
290
     0
174
     0
 93
       13
 44
0.0
173
     0
291
     1
 45
0.0
  0
VISUALSTYLE
  5
2C
102
{ACAD_REACTORS
330
2A
102
}
102
{ACAD_XDICTIONARY
360
BF
102
}
330
2A
100
AcDbVisualStyle
  2
FlatWithEdges
 70
     1
 71
     2
 72
     1
 73
     1
 90
        2
 40
-0.6
 41
30.0
 62
     5
 63
     7
421
 16777215
 74
     1
 91
        4
 64
     7
 65
   257
 75
     1
175
     1
 42
1.0
 92
        0
 66
   257
 43
1.0
 76
     1
 77
     6
 78
     2
 67
     7
 79
     5
170
     0
171
     0
290
     0
174
     0
 93
       13
 44
0.0
173
     0
291
     1
 45
0.0
  0
VISUALSTYLE
  5
2D
102
{ACAD_REACTORS
330
2A
102
}
102
{ACAD_XDICTIONARY
360
C1
102
}
330
2A
100
AcDbVisualStyle
  2
Gouraud
 70
     2
 71
     2
 72
     2
 73
     1
 90
        2
 40
-0.6
 41
30.0
 62
     5
 63
     7
421
 16777215
 74
     0
 91
        4
 64
     7
 65
   257
 75
     1
175
     1
 42
1.0
 92
        0
 66
     7
 43
1.0
 76
     1
 77
     6
 78
     2
 67
     7
 79
     5
170
     0
171
     0
290
     0
174
     0
 93
       13
 44
0.0
173
     0
291
     1
 45
0.0
  0
VISUALSTYLE
  5
2E
102
{ACAD_REACTORS
330
2A
102
}
102
{ACAD_XDICTIONARY
360
C3
102
}
330
2A
100
AcDbVisualStyle
  2
GouraudWithEdges
 70
     3
 71
     2
 72
     2
 73
     1
 90
        2
 40
-0.6
 41
30.0
 62
     5
 63
     7
421
 16777215
 74
     1
 91
        4
 64
     7
 65
   257
 75
     1
175
     1
 42
1.0
 92
        0
 66
   257
 43
1.0
 76
     1
 77
     6
 78
     2
 67
     7
 79
     5
170
     0
171
     0
290
     0
174
     0
 93
       13
 44
0.0
173
     0
291
     1
 45
0.0
  0
VISUALSTYLE
  5
38
102
{ACAD_REACTORS
330
2A
102
}
102
{ACAD_XDICTIONARY
360
D7
102
}
330
2A
100
AcDbVisualStyle
  2
Linepattern
 70
    14
 71
     2
 72
     2
 73
     0
 90
        0
 40
-0.6
 41
-30.0
 62
     5
 63
     7
421
 16777215
 74
     1
 91
        4
 64
     7
 65
   257
 75
     7
175
     7
 42
1.0
 92
        8
 66
     7
 43
1.0
 76
     1
 77
     6
 78
     2
 67
     7
 79
     5
170
     0
171
     0
290
     0
174
     0
 93
        1
 44
0.0
173
     0
291
     1
 45
0.0
  0
VISUALSTYLE
  5
33
102
{ACAD_REACTORS
330
2A
102
}
102
{ACAD_XDICTIONARY
360
CD
102
}
330
2A
100
AcDbVisualStyle
  2
Realistic
 70
     8
 71
     2
 72
     2
 73
     0
 90
        0
 40
-0.6
 41
-30.0
 62
     5
 63
     7
421
 16777215
 74
     1
 91
        0
 64
     7
 65
   257
 75
     1
175
     1
 42
1.0
 92
        8
 66
     8
424
  7895160
 43
1.0
 76
     1
 77
     6
 78
     2
 67
     7
 79
     5
170
     0
171
     0
290
     0
174
     0
 93
       13
 44
0.0
173
     0
291
     0
 45
0.0
  0
VISUALSTYLE
  5
37
102
{ACAD_REACTORS
330
2A
102
}
102
{ACAD_XDICTIONARY
360
D5
102
}
330
2A
100
AcDbVisualStyle
  2
Thicken
 70
    13
 71
     2
 72
     2
 73
     0
 90
        0
 40
-0.6
 41
-30.0
 62
     5
 63
     7
421
 16777215
 74
     1
 91
        4
 64
     7
 65
   257
 75
     1
175
     1
 42
1.0
 92
       12
 66
     7
 43
1.0
 76
     1
 77
     6
 78
     2
 67
     7
 79
     5
170
     0
171
     0
290
     0
174
     0
 93
        1
 44
0.0
173
     0
291
     1
 45
0.0
  0
DICTIONARY
  5
C5
330
2F
100
AcDbDictionary
280
     1
281
     1
  3
ACAD_XREC_ROUNDTRIP
360
C6
  0
DICTIONARY
  5
C9
330
31
100
AcDbDictionary
280
     1
281
     1
  3
ACAD_XREC_ROUNDTRIP
360
CA
  0
DICTIONARY
  5
C7
330
30
100
AcDbDictionary
280
     1
281
     1
  3
ACAD_XREC_ROUNDTRIP
360
C8
  0
DICTIONARY
  5
CB
330
32
100
AcDbDictionary
280
     1
281
     1
  3
ACAD_XREC_ROUNDTRIP
360
CC
  0
DICTIONARY
  5
D3
330
36
100
AcDbDictionary
280
     1
281
     1
  3
ACAD_XREC_ROUNDTRIP
360
D4
  0
DICTIONARY
  5
DB
330
3A
100
AcDbDictionary
280
     1
281
     1
  3
ACAD_XREC_ROUNDTRIP
360
DC
  0
DICTIONARY
  5
CF
330
34
100
AcDbDictionary
280
     1
281
     1
  3
ACAD_XREC_ROUNDTRIP
360
D0
  0
DICTIONARY
  5
D1
330
35
100
AcDbDictionary
280
     1
281
     1
  3
ACAD_XREC_ROUNDTRIP
360
D2
  0
DICTIONARY
  5
D9
330
39
100
AcDbDictionary
280
     1
281
     1
  3
ACAD_XREC_ROUNDTRIP
360
DA
  0
DICTIONARY
  5
BD
330
2B
100
AcDbDictionary
280
     1
281
     1
  3
ACAD_XREC_ROUNDTRIP
360
BE
  0
DICTIONARY
  5
BF
330
2C
100
AcDbDictionary
280
     1
281
     1
  3
ACAD_XREC_ROUNDTRIP
360
C0
  0
DICTIONARY
  5
C1
330
2D
100
AcDbDictionary
280
     1
281
     1
  3
ACAD_XREC_ROUNDTRIP
360
C2
  0
DICTIONARY
  5
C3
330
2E
100
AcDbDictionary
280
     1
281
     1
  3
ACAD_XREC_ROUNDTRIP
360
C4
  0
DICTIONARY
  5
D7
330
38
100
AcDbDictionary
280
     1
281
     1
  3
ACAD_XREC_ROUNDTRIP
360
D8
  0
DICTIONARY
  5
CD
330
33
100
AcDbDictionary
280
     1
281
     1
  3
ACAD_XREC_ROUNDTRIP
360
CE
  0
DICTIONARY
  5
D5
330
37
100
AcDbDictionary
280
     1
281
     1
  3
ACAD_XREC_ROUNDTRIP
360
D6
  0
XRECORD
  5
C6
102
{ACAD_REACTORS
330
C5
102
}
330
C5
100
AcDbXrecord
280
     1
102
RTVSPropertyOp0
 70
     1
102
RTVSPropertyOp1
 70
     1
102
RTVSPropertyOp2
 70
     1
102
RTVSPropertyOp3
 70
     1
102
RTVSPropertyOp4
 70
     1
102
RTVSPropertyOp5
 70
     1
102
RTVSPropertyOp6
 70
     1
102
RTVSPropertyOp7
 70
     1
102
RTVSPropertyOp8
 70
     1
102
RTVSPropertyOp9
 70
     1
102
RTVSPropertyOp10
 70
     1
102
RTVSPropertyOp11
 70
     1
102
RTVSPropertyOp12
 70
     1
102
RTVSPropertyOp13
 70
     1
102
RTVSPropertyOp14
 70
     1
102
RTVSPropertyOp15
 70
     1
102
RTVSPropertyOp16
 70
     1
102
RTVSPropertyOp17
 70
     1
102
RTVSPropertyOp18
 70
     1
102
RTVSPropertyOp19
 70
     1
102
RTVSPropertyOp20
 70
     1
102
RTVSPropertyOp21
 70
     1
102
RTVSPropertyOp22
 70
     1
102
RTVSPropertyOp23
 70
     1
102
RTVSPropertyOp24
 70
     1
102
RTVSPropertyOp25
 70
     1
102
RTVSPropertyOp26
 70
     1
102
RTVSPropertyOp27
 70
     1
  0
XRECORD
  5
CA
102
{ACAD_REACTORS
330
C9
102
}
330
C9
100
AcDbXrecord
280
     1
102
RTVSPropertyOp0
 70
     1
102
RTVSPropertyOp1
 70
     1
102
RTVSPropertyOp2
 70
     1
102
RTVSPropertyOp3
 70
     1
102
RTVSPropertyOp4
 70
     1
102
RTVSPropertyOp5
 70
     1
102
RTVSPropertyOp6
 70
     1
102
RTVSPropertyOp7
 70
     1
102
RTVSPropertyOp8
 70
     1
102
RTVSPropertyOp9
 70
     1
102
RTVSPropertyOp10
 70
     1
102
RTVSPropertyOp11
 70
     1
102
RTVSPropertyOp12
 70
     1
102
RTVSPropertyOp13
 70
     1
102
RTVSPropertyOp14
 70
     1
102
RTVSPropertyOp15
 70
     1
102
RTVSPropertyOp16
 70
     1
102
RTVSPropertyOp17
 70
     1
102
RTVSPropertyOp18
 70
     1
102
RTVSPropertyOp19
 70
     1
102
RTVSPropertyOp20
 70
     1
102
RTVSPropertyOp21
 70
     1
102
RTVSPropertyOp22
 70
     1
102
RTVSPropertyOp23
 70
     1
102
RTVSPropertyOp24
 70
     1
102
RTVSPropertyOp25
 70
     1
102
RTVSPropertyOp26
 70
     1
102
RTVSPropertyOp27
 70
     1
  0
XRECORD
  5
C8
102
{ACAD_REACTORS
330
C7
102
}
330
C7
100
AcDbXrecord
280
     1
102
RTVSPropertyOp0
 70
     1
102
RTVSPropertyOp1
 70
     1
102
RTVSPropertyOp2
 70
     1
102
RTVSPropertyOp3
 70
     1
102
RTVSPropertyOp4
 70
     1
102
RTVSPropertyOp5
 70
     1
102
RTVSPropertyOp6
 70
     1
102
RTVSPropertyOp7
 70
     1
102
RTVSPropertyOp8
 70
     1
102
RTVSPropertyOp9
 70
     1
102
RTVSPropertyOp10
 70
     1
102
RTVSPropertyOp11
 70
     1
102
RTVSPropertyOp12
 70
     1
102
RTVSPropertyOp13
 70
     1
102
RTVSPropertyOp14
 70
     1
102
RTVSPropertyOp15
 70
     1
102
RTVSPropertyOp16
 70
     1
102
RTVSPropertyOp17
 70
     1
102
RTVSPropertyOp18
 70
     1
102
RTVSPropertyOp19
 70
     1
102
RTVSPropertyOp20
 70
     1
102
RTVSPropertyOp21
 70
     1
102
RTVSPropertyOp22
 70
     1
102
RTVSPropertyOp23
 70
     1
102
RTVSPropertyOp24
 70
     1
102
RTVSPropertyOp25
 70
     1
102
RTVSPropertyOp26
 70
     1
102
RTVSPropertyOp27
 70
     1
  0
XRECORD
  5
CC
102
{ACAD_REACTORS
330
CB
102
}
330
CB
100
AcDbXrecord
280
     1
102
RTVSPropertyOp0
 70
     1
102
RTVSPropertyOp1
 70
     1
102
RTVSPropertyOp2
 70
     1
102
RTVSPropertyOp3
 70
     1
102
RTVSPropertyOp4
 70
     1
102
RTVSPropertyOp5
 70
     1
102
RTVSPropertyOp6
 70
     1
102
RTVSPropertyOp7
 70
     1
102
RTVSPropertyOp8
 70
     1
102
RTVSPropertyOp9
 70
     1
102
RTVSPropertyOp10
 70
     1
102
RTVSPropertyOp11
 70
     1
102
RTVSPropertyOp12
 70
     1
102
RTVSPropertyOp13
 70
     1
102
RTVSPropertyOp14
 70
     1
102
RTVSPropertyOp15
 70
     1
102
RTVSPropertyOp16
 70
     1
102
RTVSPropertyOp17
 70
     1
102
RTVSPropertyOp18
 70
     1
102
RTVSPropertyOp19
 70
     1
102
RTVSPropertyOp20
 70
     1
102
RTVSPropertyOp21
 70
     1
102
RTVSPropertyOp22
 70
     1
102
RTVSPropertyOp23
 70
     1
102
RTVSPropertyOp24
 70
     1
102
RTVSPropertyOp25
 70
     1
102
RTVSPropertyOp26
 70
     1
102
RTVSPropertyOp27
 70
     1
  0
XRECORD
  5
D4
102
{ACAD_REACTORS
330
D3
102
}
330
D3
100
AcDbXrecord
280
     1
102
RTVSPropertyOp0
 70
     1
102
RTVSPropertyOp1
 70
     1
102
RTVSPropertyOp2
 70
     1
102
RTVSPropertyOp3
 70
     1
102
RTVSPropertyOp4
 70
     1
102
RTVSPropertyOp5
 70
     1
102
RTVSPropertyOp6
 70
     1
102
RTVSPropertyOp7
 70
     1
102
RTVSPropertyOp8
 70
     1
102
RTVSPropertyOp9
 70
     1
102
RTVSPropertyOp10
 70
     1
102
RTVSPropertyOp11
 70
     1
102
RTVSPropertyOp12
 70
     1
102
RTVSPropertyOp13
 70
     1
102
RTVSPropertyOp14
 70
     1
102
RTVSPropertyOp15
 70
     1
102
RTVSPropertyOp16
 70
     1
102
RTVSPropertyOp17
 70
     1
102
RTVSPropertyOp18
 70
     1
102
RTVSPropertyOp19
 70
     1
102
RTVSPropertyOp20
 70
     1
102
RTVSPropertyOp21
 70
     1
102
RTVSPropertyOp22
 70
     1
102
RTVSPropertyOp23
 70
     1
102
RTVSPropertyOp24
 70
     1
102
RTVSPropertyOp25
 70
     1
102
RTVSPropertyOp26
 70
     1
102
RTVSPropertyOp27
 70
     1
  0
XRECORD
  5
DC
102
{ACAD_REACTORS
330
DB
102
}
330
DB
100
AcDbXrecord
280
     1
102
RTVSPropertyOp0
 70
     1
102
RTVSPropertyOp1
 70
     1
102
RTVSPropertyOp2
 70
     1
102
RTVSPropertyOp3
 70
     1
102
RTVSPropertyOp4
 70
     1
102
RTVSPropertyOp5
 70
     1
102
RTVSPropertyOp6
 70
     1
102
RTVSPropertyOp7
 70
     1
102
RTVSPropertyOp8
 70
     1
102
RTVSPropertyOp9
 70
     1
102
RTVSPropertyOp10
 70
     1
102
RTVSPropertyOp11
 70
     1
102
RTVSPropertyOp12
 70
     1
102
RTVSPropertyOp13
 70
     1
102
RTVSPropertyOp14
 70
     1
102
RTVSPropertyOp15
 70
     1
102
RTVSPropertyOp16
 70
     1
102
RTVSPropertyOp17
 70
     1
102
RTVSPropertyOp18
 70
     1
102
RTVSPropertyOp19
 70
     1
102
RTVSPropertyOp20
 70
     1
102
RTVSPropertyOp21
 70
     1
102
RTVSPropertyOp22
 70
     1
102
RTVSPropertyOp23
 70
     1
102
RTVSPropertyOp24
 70
     1
102
RTVSPropertyOp25
 70
     1
102
RTVSPropertyOp26
 70
     1
102
RTVSPropertyOp27
 70
     1
  0
XRECORD
  5
D0
102
{ACAD_REACTORS
330
CF
102
}
330
CF
100
AcDbXrecord
280
     1
102
RTVSPropertyOp0
 70
     1
102
RTVSPropertyOp1
 70
     1
102
RTVSPropertyOp2
 70
     1
102
RTVSPropertyOp3
 70
     1
102
RTVSPropertyOp4
 70
     1
102
RTVSPropertyOp5
 70
     1
102
RTVSPropertyOp6
 70
     1
102
RTVSPropertyOp7
 70
     1
102
RTVSPropertyOp8
 70
     1
102
RTVSPropertyOp9
 70
     1
102
RTVSPropertyOp10
 70
     1
102
RTVSPropertyOp11
 70
     1
102
RTVSPropertyOp12
 70
     1
102
RTVSPropertyOp13
 70
     1
102
RTVSPropertyOp14
 70
     1
102
RTVSPropertyOp15
 70
     1
102
RTVSPropertyOp16
 70
     1
102
RTVSPropertyOp17
 70
     1
102
RTVSPropertyOp18
 70
     1
102
RTVSPropertyOp19
 70
     1
102
RTVSPropertyOp20
 70
     1
102
RTVSPropertyOp21
 70
     1
102
RTVSPropertyOp22
 70
     1
102
RTVSPropertyOp23
 70
     1
102
RTVSPropertyOp24
 70
     1
102
RTVSPropertyOp25
 70
     1
102
RTVSPropertyOp26
 70
     1
102
RTVSPropertyOp27
 70
     1
  0
XRECORD
  5
D2
102
{ACAD_REACTORS
330
D1
102
}
330
D1
100
AcDbXrecord
280
     1
102
RTVSPropertyOp0
 70
     1
102
RTVSPropertyOp1
 70
     1
102
RTVSPropertyOp2
 70
     1
102
RTVSPropertyOp3
 70
     1
102
RTVSPropertyOp4
 70
     1
102
RTVSPropertyOp5
 70
     1
102
RTVSPropertyOp6
 70
     1
102
RTVSPropertyOp7
 70
     1
102
RTVSPropertyOp8
 70
     1
102
RTVSPropertyOp9
 70
     1
102
RTVSPropertyOp10
 70
     1
102
RTVSPropertyOp11
 70
     1
102
RTVSPropertyOp12
 70
     1
102
RTVSPropertyOp13
 70
     1
102
RTVSPropertyOp14
 70
     1
102
RTVSPropertyOp15
 70
     1
102
RTVSPropertyOp16
 70
     1
102
RTVSPropertyOp17
 70
     1
102
RTVSPropertyOp18
 70
     1
102
RTVSPropertyOp19
 70
     1
102
RTVSPropertyOp20
 70
     1
102
RTVSPropertyOp21
 70
     1
102
RTVSPropertyOp22
 70
     1
102
RTVSPropertyOp23
 70
     1
102
RTVSPropertyOp24
 70
     1
102
RTVSPropertyOp25
 70
     1
102
RTVSPropertyOp26
 70
     1
102
RTVSPropertyOp27
 70
     1
  0
XRECORD
  5
DA
102
{ACAD_REACTORS
330
D9
102
}
330
D9
100
AcDbXrecord
280
     1
102
RTVSPropertyOp0
 70
     1
102
RTVSPropertyOp1
 70
     1
102
RTVSPropertyOp2
 70
     1
102
RTVSPropertyOp3
 70
     1
102
RTVSPropertyOp4
 70
     1
102
RTVSPropertyOp5
 70
     1
102
RTVSPropertyOp6
 70
     1
102
RTVSPropertyOp7
 70
     1
102
RTVSPropertyOp8
 70
     1
102
RTVSPropertyOp9
 70
     1
102
RTVSPropertyOp10
 70
     1
102
RTVSPropertyOp11
 70
     1
102
RTVSPropertyOp12
 70
     1
102
RTVSPropertyOp13
 70
     1
102
RTVSPropertyOp14
 70
     1
102
RTVSPropertyOp15
 70
     1
102
RTVSPropertyOp16
 70
     1
102
RTVSPropertyOp17
 70
     1
102
RTVSPropertyOp18
 70
     1
102
RTVSPropertyOp19
 70
     1
102
RTVSPropertyOp20
 70
     1
102
RTVSPropertyOp21
 70
     1
102
RTVSPropertyOp22
 70
     1
102
RTVSPropertyOp23
 70
     1
102
RTVSPropertyOp24
 70
     1
102
RTVSPropertyOp25
 70
     1
102
RTVSPropertyOp26
 70
     1
102
RTVSPropertyOp27
 70
     1
  0
XRECORD
  5
BE
102
{ACAD_REACTORS
330
BD
102
}
330
BD
100
AcDbXrecord
280
     1
102
RTVSPropertyOp0
 70
     1
102
RTVSPropertyOp1
 70
     1
102
RTVSPropertyOp2
 70
     1
102
RTVSPropertyOp3
 70
     1
102
RTVSPropertyOp4
 70
     1
102
RTVSPropertyOp5
 70
     1
102
RTVSPropertyOp6
 70
     1
102
RTVSPropertyOp7
 70
     1
102
RTVSPropertyOp8
 70
     1
102
RTVSPropertyOp9
 70
     1
102
RTVSPropertyOp10
 70
     1
102
RTVSPropertyOp11
 70
     1
102
RTVSPropertyOp12
 70
     1
102
RTVSPropertyOp13
 70
     1
102
RTVSPropertyOp14
 70
     1
102
RTVSPropertyOp15
 70
     1
102
RTVSPropertyOp16
 70
     1
102
RTVSPropertyOp17
 70
     1
102
RTVSPropertyOp18
 70
     1
102
RTVSPropertyOp19
 70
     1
102
RTVSPropertyOp20
 70
     1
102
RTVSPropertyOp21
 70
     1
102
RTVSPropertyOp22
 70
     1
102
RTVSPropertyOp23
 70
     1
102
RTVSPropertyOp24
 70
     1
102
RTVSPropertyOp25
 70
     1
102
RTVSPropertyOp26
 70
     1
102
RTVSPropertyOp27
 70
     1
  0
XRECORD
  5
C0
102
{ACAD_REACTORS
330
BF
102
}
330
BF
100
AcDbXrecord
280
     1
102
RTVSPropertyOp0
 70
     1
102
RTVSPropertyOp1
 70
     1
102
RTVSPropertyOp2
 70
     1
102
RTVSPropertyOp3
 70
     1
102
RTVSPropertyOp4
 70
     1
102
RTVSPropertyOp5
 70
     1
102
RTVSPropertyOp6
 70
     1
102
RTVSPropertyOp7
 70
     1
102
RTVSPropertyOp8
 70
     1
102
RTVSPropertyOp9
 70
     1
102
RTVSPropertyOp10
 70
     1
102
RTVSPropertyOp11
 70
     1
102
RTVSPropertyOp12
 70
     1
102
RTVSPropertyOp13
 70
     1
102
RTVSPropertyOp14
 70
     1
102
RTVSPropertyOp15
 70
     1
102
RTVSPropertyOp16
 70
     1
102
RTVSPropertyOp17
 70
     1
102
RTVSPropertyOp18
 70
     1
102
RTVSPropertyOp19
 70
     1
102
RTVSPropertyOp20
 70
     1
102
RTVSPropertyOp21
 70
     1
102
RTVSPropertyOp22
 70
     1
102
RTVSPropertyOp23
 70
     1
102
RTVSPropertyOp24
 70
     1
102
RTVSPropertyOp25
 70
     1
102
RTVSPropertyOp26
 70
     1
102
RTVSPropertyOp27
 70
     1
  0
XRECORD
  5
C2
102
{ACAD_REACTORS
330
C1
102
}
330
C1
100
AcDbXrecord
280
     1
102
RTVSPropertyOp0
 70
     1
102
RTVSPropertyOp1
 70
     1
102
RTVSPropertyOp2
 70
     1
102
RTVSPropertyOp3
 70
     1
102
RTVSPropertyOp4
 70
     1
102
RTVSPropertyOp5
 70
     1
102
RTVSPropertyOp6
 70
     1
102
RTVSPropertyOp7
 70
     1
102
RTVSPropertyOp8
 70
     1
102
RTVSPropertyOp9
 70
     1
102
RTVSPropertyOp10
 70
     1
102
RTVSPropertyOp11
 70
     1
102
RTVSPropertyOp12
 70
     1
102
RTVSPropertyOp13
 70
     1
102
RTVSPropertyOp14
 70
     1
102
RTVSPropertyOp15
 70
     1
102
RTVSPropertyOp16
 70
     1
102
RTVSPropertyOp17
 70
     1
102
RTVSPropertyOp18
 70
     1
102
RTVSPropertyOp19
 70
     1
102
RTVSPropertyOp20
 70
     1
102
RTVSPropertyOp21
 70
     1
102
RTVSPropertyOp22
 70
     1
102
RTVSPropertyOp23
 70
     1
102
RTVSPropertyOp24
 70
     1
102
RTVSPropertyOp25
 70
     1
102
RTVSPropertyOp26
 70
     1
102
RTVSPropertyOp27
 70
     1
  0
XRECORD
  5
C4
102
{ACAD_REACTORS
330
C3
102
}
330
C3
100
AcDbXrecord
280
     1
102
RTVSPropertyOp0
 70
     1
102
RTVSPropertyOp1
 70
     1
102
RTVSPropertyOp2
 70
     1
102
RTVSPropertyOp3
 70
     1
102
RTVSPropertyOp4
 70
     1
102
RTVSPropertyOp5
 70
     1
102
RTVSPropertyOp6
 70
     1
102
RTVSPropertyOp7
 70
     1
102
RTVSPropertyOp8
 70
     1
102
RTVSPropertyOp9
 70
     1
102
RTVSPropertyOp10
 70
     1
102
RTVSPropertyOp11
 70
     1
102
RTVSPropertyOp12
 70
     1
102
RTVSPropertyOp13
 70
     1
102
RTVSPropertyOp14
 70
     1
102
RTVSPropertyOp15
 70
     1
102
RTVSPropertyOp16
 70
     1
102
RTVSPropertyOp17
 70
     1
102
RTVSPropertyOp18
 70
     1
102
RTVSPropertyOp19
 70
     1
102
RTVSPropertyOp20
 70
     1
102
RTVSPropertyOp21
 70
     1
102
RTVSPropertyOp22
 70
     1
102
RTVSPropertyOp23
 70
     1
102
RTVSPropertyOp24
 70
     1
102
RTVSPropertyOp25
 70
     1
102
RTVSPropertyOp26
 70
     1
102
RTVSPropertyOp27
 70
     1
  0
XRECORD
  5
D8
102
{ACAD_REACTORS
330
D7
102
}
330
D7
100
AcDbXrecord
280
     1
102
RTVSPropertyOp0
 70
     1
102
RTVSPropertyOp1
 70
     1
102
RTVSPropertyOp2
 70
     1
102
RTVSPropertyOp3
 70
     1
102
RTVSPropertyOp4
 70
     1
102
RTVSPropertyOp5
 70
     1
102
RTVSPropertyOp6
 70
     1
102
RTVSPropertyOp7
 70
     1
102
RTVSPropertyOp8
 70
     1
102
RTVSPropertyOp9
 70
     1
102
RTVSPropertyOp10
 70
     1
102
RTVSPropertyOp11
 70
     1
102
RTVSPropertyOp12
 70
     1
102
RTVSPropertyOp13
 70
     1
102
RTVSPropertyOp14
 70
     1
102
RTVSPropertyOp15
 70
     1
102
RTVSPropertyOp16
 70
     1
102
RTVSPropertyOp17
 70
     1
102
RTVSPropertyOp18
 70
     1
102
RTVSPropertyOp19
 70
     1
102
RTVSPropertyOp20
 70
     1
102
RTVSPropertyOp21
 70
     1
102
RTVSPropertyOp22
 70
     1
102
RTVSPropertyOp23
 70
     1
102
RTVSPropertyOp24
 70
     1
102
RTVSPropertyOp25
 70
     1
102
RTVSPropertyOp26
 70
     1
102
RTVSPropertyOp27
 70
     1
  0
XRECORD
  5
CE
102
{ACAD_REACTORS
330
CD
102
}
330
CD
100
AcDbXrecord
280
     1
102
RTVSPropertyOp0
 70
     1
102
RTVSPropertyOp1
 70
     1
102
RTVSPropertyOp2
 70
     1
102
RTVSPropertyOp3
 70
     1
102
RTVSPropertyOp4
 70
     1
102
RTVSPropertyOp5
 70
     1
102
RTVSPropertyOp6
 70
     1
102
RTVSPropertyOp7
 70
     1
102
RTVSPropertyOp8
 70
     1
102
RTVSPropertyOp9
 70
     1
102
RTVSPropertyOp10
 70
     1
102
RTVSPropertyOp11
 70
     1
102
RTVSPropertyOp12
 70
     1
102
RTVSPropertyOp13
 70
     1
102
RTVSPropertyOp14
 70
     1
102
RTVSPropertyOp15
 70
     1
102
RTVSPropertyOp16
 70
     1
102
RTVSPropertyOp17
 70
     1
102
RTVSPropertyOp18
 70
     1
102
RTVSPropertyOp19
 70
     1
102
RTVSPropertyOp20
 70
     1
102
RTVSPropertyOp21
 70
     1
102
RTVSPropertyOp22
 70
     1
102
RTVSPropertyOp23
 70
     1
102
RTVSPropertyOp24
 70
     1
102
RTVSPropertyOp25
 70
     1
102
RTVSPropertyOp26
 70
     1
102
RTVSPropertyOp27
 70
     1
  0
XRECORD
  5
D6
102
{ACAD_REACTORS
330
D5
102
}
330
D5
100
AcDbXrecord
280
     1
102
RTVSPropertyOp0
 70
     1
102
RTVSPropertyOp1
 70
     1
102
RTVSPropertyOp2
 70
     1
102
RTVSPropertyOp3
 70
     1
102
RTVSPropertyOp4
 70
     1
102
RTVSPropertyOp5
 70
     1
102
RTVSPropertyOp6
 70
     1
102
RTVSPropertyOp7
 70
     1
102
RTVSPropertyOp8
 70
     1
102
RTVSPropertyOp9
 70
     1
102
RTVSPropertyOp10
 70
     1
102
RTVSPropertyOp11
 70
     1
102
RTVSPropertyOp12
 70
     1
102
RTVSPropertyOp13
 70
     1
102
RTVSPropertyOp14
 70
     1
102
RTVSPropertyOp15
 70
     1
102
RTVSPropertyOp16
 70
     1
102
RTVSPropertyOp17
 70
     1
102
RTVSPropertyOp18
 70
     1
102
RTVSPropertyOp19
 70
     1
102
RTVSPropertyOp20
 70
     1
102
RTVSPropertyOp21
 70
     1
102
RTVSPropertyOp22
 70
     1
102
RTVSPropertyOp23
 70
     1
102
RTVSPropertyOp24
 70
     1
102
RTVSPropertyOp25
 70
     1
102
RTVSPropertyOp26
 70
     1
102
RTVSPropertyOp27
 70
     1
  0
ENDSEC
  0
EOF
