  0
SECTION
  2
HEADER
  9
$ACADVER
  1
AC1021
  9
$ACADMAINTVER
 70
    25
  9
$DWGCODEPAGE
  3
ANSI_1252
  9
$INSBASE
 10
0.0
 20
0.0
 30
0.0
  9
$EXTMIN
 10
-15.74674015748031
 20
1.860818897637795
 30
0.0
  9
$EXTMAX
 10
-7.768122047244095
 20
8.825933070866142
 30
0.0
  9
$LIMMIN
 10
0.0
 20
0.0
  9
$LIMMAX
 10
12.0
 20
9.0
  9
$ORTHOMODE
 70
     0
  9
$REGENMODE
 70
     1
  9
$FILLMODE
 70
     1
  9
$QTEXTMODE
 70
     0
  9
$MIRRTEXT
 70
     1
  9
$LTSCALE
 40
1.0
  9
$ATTMODE
 70
     1
  9
$TEXTSIZE
 40
0.2
  9
$TRACEWID
 40
0.05
  9
$TEXTSTYLE
  7
Standard
  9
$CLAYER
  8
0
  9
$CELTYPE
  6
ByLayer
  9
$CECOLOR
 62
   256
  9
$CELTSCALE
 40
1.0
  9
$DISPSILH
 70
     0
  9
$DIMSCALE
 40
1.0
  9
$DIMASZ
 40
0.18
  9
$DIMEXO
 40
0.0625
  9
$DIMDLI
 40
0.38
  9
$DIMRND
 40
0.0
  9
$DIMDLE
 40
0.0
  9
$DIMEXE
 40
0.18
  9
$DIMTP
 40
0.0
  9
$DIMTM
 40
0.0
  9
$DIMTXT
 40
0.18
  9
$DIMCEN
 40
0.09
  9
$DIMTSZ
 40
0.0
  9
$DIMTOL
 70
     0
  9
$DIMLIM
 70
     0
  9
$DIMTIH
 70
     1
  9
$DIMTOH
 70
     1
  9
$DIMSE1
 70
     0
  9
$DIMSE2
 70
     0
  9
$DIMTAD
 70
     0
  9
$DIMZIN
 70
     0
  9
$DIMBLK
  1

  9
$DIMASO
 70
     1
  9
$DIMSHO
 70
     1
  9
$DIMPOST
  1

  9
$DIMAPOST
  1

  9
$DIMALT
 70
     0
  9
$DIMALTD
 70
     2
  9
$DIMALTF
 40
25.4
  9
$DIMLFAC
 40
1.0
  9
$DIMTOFL
 70
     0
  9
$DIMTVP
 40
0.0
  9
$DIMTIX
 70
     0
  9
$DIMSOXD
 70
     0
  9
$DIMSAH
 70
     0
  9
$DIMBLK1
  1

  9
$DIMBLK2
  1

  9
$DIMSTYLE
  2
Standard
  9
$DIMCLRD
 70
     0
  9
$DIMCLRE
 70
     0
  9
$DIMCLRT
 70
     0
  9
$DIMTFAC
 40
1.0
  9
$DIMGAP
 40
0.09
  9
$DIMJUST
 70
     0
  9
$DIMSD1
 70
     0
  9
$DIMSD2
 70
     0
  9
$DIMTOLJ
 70
     1
  9
$DIMTZIN
 70
     0
  9
$DIMALTZ
 70
     0
  9
$DIMALTTZ
 70
     0
  9
$DIMUPT
 70
     0
  9
$DIMDEC
 70
     4
  9
$DIMTDEC
 70
     4
  9
$DIMALTU
 70
     2
  9
$DIMALTTD
 70
     2
  9
$DIMTXSTY
  7
Standard
  9
$DIMAUNIT
 70
     0
  9
$DIMADEC
 70
     0
  9
$DIMALTRND
 40
0.0
  9
$DIMAZIN
 70
     0
  9
$DIMDSEP
 70
    46
  9
$DIMATFIT
 70
     3
  9
$DIMFRAC
 70
     0
  9
$DIMLDRBLK
  1

  9
$DIMLUNIT
 70
     2
  9
$DIMLWD
 70
    -2
  9
$DIMLWE
 70
    -2
  9
$DIMTMOVE
 70
     0
  9
$DIMFXL
 40
1.0
  9
$DIMFXLON
 70
     0
  9
$DIMJOGANG
 40
0.7853981633974483
  9
$DIMTFILL
 70
     0
  9
$DIMTFILLCLR
 70
     0
  9
$DIMARCSYM
 70
     0
  9
$DIMLTYPE
  6

  9
$DIMLTEX1
  6

  9
$DIMLTEX2
  6

  9
$LUNITS
 70
     2
  9
$LUPREC
 70
     4
  9
$SKETCHINC
 40
0.1
  9
$FILLETRAD
 40
0.5
  9
$AUNITS
 70
     0
  9
$AUPREC
 70
     0
  9
$MENU
  1
.
  9
$ELEVATION
 40
0.0
  9
$PELEVATION
 40
0.0
  9
$THICKNESS
 40
0.0
  9
$LIMCHECK
 70
     0
  9
$CHAMFERA
 40
0.5
  9
$CHAMFERB
 40
0.5
  9
$CHAMFERC
 40
1.0
  9
$CHAMFERD
 40
0.0
  9
$SKPOLY
 70
     0
  9
$TDCREATE
 40
2456889.386352743
  9
$TDUCREATE
 40
2456889.594686077
  9
$TDUPDATE
 40
2456889.386352755
  9
$TDUUPDATE
 40
2456889.594686088
  9
$TDINDWG
 40
0.0000000116
  9
$TDUSRTIMER
 40
0.0000000116
  9
$USRTIMER
 70
     1
  9
$ANGBASE
 50
0.0
  9
$ANGDIR
 70
     0
  9
$PDMODE
 70
     0
  9
$PDSIZE
 40
0.0
  9
$PLINEWID
 40
0.0
  9
$SPLFRAME
 70
     0
  9
$SPLINETYPE
 70
     6
  9
$SPLINESEGS
 70
     8
  9
$HANDSEED
  5
D6
  9
$SURFTAB1
 70
     6
  9
$SURFTAB2
 70
     6
  9
$SURFTYPE
 70
     6
  9
$SURFU
 70
     6
  9
$SURFV
 70
     6
  9
$UCSBASE
  2

  9
$UCSNAME
  2

  9
$UCSORG
 10
0.0
 20
0.0
 30
0.0
  9
$UCSXDIR
 10
1.0
 20
0.0
 30
0.0
  9
$UCSYDIR
 10
0.0
 20
1.0
 30
0.0
  9
$UCSORTHOREF
  2

  9
$UCSORTHOVIEW
 70
     0
  9
$UCSORGTOP
 10
0.0
 20
0.0
 30
0.0
  9
$UCSORGBOTTOM
 10
0.0
 20
0.0
 30
0.0
  9
$UCSORGLEFT
 10
0.0
 20
0.0
 30
0.0
  9
$UCSORGRIGHT
 10
0.0
 20
0.0
 30
0.0
  9
$UCSORGFRONT
 10
0.0
 20
0.0
 30
0.0
  9
$UCSORGBACK
 10
0.0
 20
0.0
 30
0.0
  9
$PUCSBASE
  2

  9
$PUCSNAME
  2

  9
$PUCSORG
 10
0.0
 20
0.0
 30
0.0
  9
$PUCSXDIR
 10
1.0
 20
0.0
 30
0.0
  9
$PUCSYDIR
 10
0.0
 20
1.0
 30
0.0
  9
$PUCSORTHOREF
  2

  9
$PUCSORTHOVIEW
 70
     0
  9
$PUCSORGTOP
 10
0.0
 20
0.0
 30
0.0
  9
$PUCSORGBOTTOM
 10
0.0
 20
0.0
 30
0.0
  9
$PUCSORGLEFT
 10
0.0
 20
0.0
 30
0.0
  9
$PUCSORGRIGHT
 10
0.0
 20
0.0
 30
0.0
  9
$PUCSORGFRONT
 10
0.0
 20
0.0
 30
0.0
  9
$PUCSORGBACK
 10
0.0
 20
0.0
 30
0.0
  9
$USERI1
 70
     0
  9
$USERI2
 70
     0
  9
$USERI3
 70
     0
  9
$USERI4
 70
     0
  9
$USERI5
 70
     0
  9
$USERR1
 40
0.0
  9
$USERR2
 40
0.0
  9
$USERR3
 40
0.0
  9
$USERR4
 40
0.0
  9
$USERR5
 40
0.0
  9
$WORLDVIEW
 70
     1
  9
$SHADEDGE
 70
     3
  9
$SHADEDIF
 70
    70
  9
$TILEMODE
 70
     1
  9
$MAXACTVP
 70
    64
  9
$PINSBASE
 10
0.0
 20
0.0
 30
0.0
  9
$PLIMCHECK
 70
     0
  9
$PEXTMIN
 10
1.000000000000000E+20
 20
1.000000000000000E+20
 30
1.000000000000000E+20
  9
$PEXTMAX
 10
-1.000000000000000E+20
 20
-1.000000000000000E+20
 30
-1.000000000000000E+20
  9
$PLIMMIN
 10
0.0
 20
0.0
  9
$PLIMMAX
 10
12.0
 20
9.0
  9
$UNITMODE
 70
     0
  9
$VISRETAIN
 70
     1
  9
$PLINEGEN
 70
     0
  9
$PSLTSCALE
 70
     1
  9
$TREEDEPTH
 70
  3020
  9
$CMLSTYLE
  2
Standard
  9
$CMLJUST
 70
     0
  9
$CMLSCALE
 40
1.0
  9
$PROXYGRAPHICS
 70
     1
  9
$MEASUREMENT
 70
     0
  9
$CELWEIGHT
370
    -1
  9
$ENDCAPS
280
     0
  9
$JOINSTYLE
280
     0
  9
$LWDISPLAY
290
     0
  9
$INSUNITS
 70
     1
  9
$HYPERLINKBASE
  1

  9
$STYLESHEET
  1

  9
$XEDIT
290
     1
  9
$CEPSNTYPE
380
     0
  9
$PSTYLEMODE
290
     1
  9
$FINGERPRINTGUID
  2
{4574ABC7-E802-40C4-8E90-FD26F5E2E988}
  9
$VERSIONGUID
  2
{FAEB1C32-E019-11D5-929B-00C0DF256EC4}
  9
$EXTNAMES
290
     1
  9
$PSVPSCALE
 40
0.0
  9
$OLESTARTUP
290
     0
  9
$SORTENTS
280
   127
  9
$INDEXCTL
280
     0
  9
$HIDETEXT
280
     1
  9
$XCLIPFRAME
290
     0
  9
$HALOGAP
280
     0
  9
$OBSCOLOR
 70
   257
  9
$OBSLTYPE
280
     0
  9
$INTERSECTIONDISPLAY
280
     0
  9
$INTERSECTIONCOLOR
 70
   257
  9
$DIMASSOC
280
     2
  9
$PROJECTNAME
  1

  9
$CAMERADISPLAY
290
     0
  9
$LENSLENGTH
 40
50.0
  9
$CAMERAHEIGHT
 40
0.0
  9
$STEPSPERSEC
 40
2.0
  9
$STEPSIZE
 40
6.0
  9
$3DDWFPREC
 40
2.0
  9
$PSOLWIDTH
 40
0.25
  9
$PSOLHEIGHT
 40
4.0
  9
$LOFTANG1
 40
1.570796326794897
  9
$LOFTANG2
 40
1.570796326794897
  9
$LOFTMAG1
 40
0.0
  9
$LOFTMAG2
 40
0.0
  9
$LOFTPARAM
 70
     7
  9
$LOFTNORMALS
280
     1
  9
$LATITUDE
 40
37.795
  9
$LONGITUDE
 40
-122.394
  9
$NORTHDIRECTION
 40
0.0
  9
$TIMEZONE
 70
 -8000
  9
$LIGHTGLYPHDISPLAY
280
     1
  9
$TILEMODELIGHTSYNCH
280
     1
  9
$SOLIDHIST
280
     1
  9
$SHOWHIST
280
     1
  9
$DWFFRAME
280
     2
  9
$DGNFRAME
280
     2
  9
$REALWORLDSCALE
290
     1
  9
$INTERFERECOLOR
 62
   256
  9
$CSHADOW
280
     0
  9
$SHADOWPLANELOCATION
 40
0.0
  0
ENDSEC
  0
SECTION
  2
CLASSES
  0
CLASS
  1
ACDBDICTIONARYWDFLT
  2
AcDbDictionaryWithDefault
  3
ObjectDBX Classes
 90
        0
 91
        4
280
     0
281
     0
  0
CLASS
  1
VISUALSTYLE
  2
AcDbVisualStyle
  3
ObjectDBX Classes
 90
     4095
 91
        4
280
     0
281
     0
  0
CLASS
  1
MATERIAL
  2
AcDbMaterial
  3
ObjectDBX Classes
 90
     1153
 91
        4
280
     0
281
     0
  0
ENDSEC
  0
SECTION
  2
TABLES
  0
TABLE
  2
VPORT
  5
8
330
0
100
AcDbSymbolTable
 70
     1
  0
VPORT
  5
29
330
8
100
AcDbSymbolTableRecord
100
AcDbViewportTableRecord
  2
*Active
 70
     0
 10
0.0
 20
0.0
 11
1.0
 21
1.0
 12
10.42990654205607
 22
4.5
 13
0.0
 23
0.0
 14
0.5
 24
0.5
 15
0.5
 25
0.5
 16
0.0
 26
0.0
 36
1.0
 17
0.0
 27
0.0
 37
0.0
 40
9.0
 41
1.972972972850329
 42
50.0
 43
0.0
 44
0.0
 50
0.0
 51
0.0
 71
     0
 72
   100
 73
     1
 74
     3
 75
     0
 76
     0
 77
     0
 78
     0
281
     0
 65
     1
110
0.0
120
0.0
130
0.0
111
1.0
121
0.0
131
0.0
112
0.0
122
1.0
132
0.0
 79
     0
146
0.0
 60
     3
 61
     5
292
     1
282
     1
141
0.0
142
0.0
 63
   250
  0
ENDTAB
  0
TABLE
  2
LTYPE
  5
5
330
0
100
AcDbSymbolTable
 70
     1
  0
LTYPE
  5
14
330
5
100
AcDbSymbolTableRecord
100
AcDbLinetypeTableRecord
  2
ByBlock
 70
     0
  3

 72
    65
 73
     0
 40
0.0
  0
LTYPE
  5
15
330
5
100
AcDbSymbolTableRecord
100
AcDbLinetypeTableRecord
  2
ByLayer
 70
     0
  3

 72
    65
 73
     0
 40
0.0
  0
LTYPE
  5
16
330
5
100
AcDbSymbolTableRecord
100
AcDbLinetypeTableRecord
  2
Continuous
 70
     0
  3
Solid line
 72
    65
 73
     0
 40
0.0
  0
ENDTAB
  0
TABLE
  2
LAYER
  5
2
330
0
100
AcDbSymbolTable
 70
     2
  0
LAYER
  5
10
330
2
100
AcDbSymbolTableRecord
100
AcDbLayerTableRecord
  2
0
 70
     0
 62
     7
  6
Continuous
370
    -3
390
F
347
3E
  0
LAYER
  5
40
330
2
100
AcDbSymbolTableRecord
100
AcDbLayerTableRecord
  2
Layer 1
 70
     0
 62
     7
  6
Continuous
370
    -3
390
F
347
3E
  0
ENDTAB
  0
TABLE
  2
STYLE
  5
3
330
0
100
AcDbSymbolTable
 70
     1
  0
STYLE
  5
11
330
3
100
AcDbSymbolTableRecord
100
AcDbTextStyleTableRecord
  2
Standard
 70
     0
 40
0.0
 41
1.0
 50
0.0
 71
     0
 42
0.2
  3
txt
  4

  0
ENDTAB
  0
TABLE
  2
VIEW
  5
6
330
0
100
AcDbSymbolTable
 70
     0
  0
ENDTAB
  0
TABLE
  2
UCS
  5
7
330
0
100
AcDbSymbolTable
 70
     0
  0
ENDTAB
  0
TABLE
  2
APPID
  5
9
330
0
100
AcDbSymbolTable
 70
     2
  0
APPID
  5
12
330
9
100
AcDbSymbolTableRecord
100
AcDbRegAppTableRecord
  2
ACAD
 70
     0
  0
APPID
  5
3F
330
9
100
AcDbSymbolTableRecord
100
AcDbRegAppTableRecord
  2
ODA
 70
     0
  0
ENDTAB
  0
TABLE
  2
DIMSTYLE
  5
A
330
0
100
AcDbSymbolTable
 70
     1
100
AcDbDimStyleTable
  0
DIMSTYLE
105
27
330
A
100
AcDbSymbolTableRecord
100
AcDbDimStyleTableRecord
  2
Standard
 70
     0
178
     0
340
11
  0
ENDTAB
  0
TABLE
  2
BLOCK_RECORD
  5
1
330
0
100
AcDbSymbolTable
 70
     1
  0
BLOCK_RECORD
  5
1F
330
1
100
AcDbSymbolTableRecord
100
AcDbBlockTableRecord
  2
*Model_Space
340
22
 70
     0
280
     1
281
     0
  0
BLOCK_RECORD
  5
1B
330
1
100
AcDbSymbolTableRecord
100
AcDbBlockTableRecord
  2
*Paper_Space
340
1E
 70
     0
280
     1
281
     0
  0
BLOCK_RECORD
  5
23
330
1
100
AcDbSymbolTableRecord
100
AcDbBlockTableRecord
  2
*Paper_Space0
340
26
 70
     0
280
     1
281
     0
  0
ENDTAB
  0
ENDSEC
  0
SECTION
  2
BLOCKS
  0
BLOCK
  5
20
330
1F
100
AcDbEntity
  8
0
100
AcDbBlockBegin
  2
*Model_Space
 70
     0
 10
0.0
 20
0.0
 30
0.0
  3
*Model_Space
  1

  0
ENDBLK
  5
21
330
1F
100
AcDbEntity
  8
0
100
AcDbBlockEnd
  0
BLOCK
  5
1C
330
1B
100
AcDbEntity
 67
     1
  8
0
100
AcDbBlockBegin
  2
*Paper_Space
 70
     0
 10
0.0
 20
0.0
 30
0.0
  3
*Paper_Space
  1

  0
ENDBLK
  5
1D
330
1B
100
AcDbEntity
 67
     1
  8
0
100
AcDbBlockEnd
  0
BLOCK
  5
24
330
23
100
AcDbEntity
  8
0
100
AcDbBlockBegin
  2
*Paper_Space0
 70
     0
 10
0.0
 20
0.0
 30
0.0
  3
*Paper_Space0
  1

  0
ENDBLK
  5
25
330
23
100
AcDbEntity
  8
0
100
AcDbBlockEnd
  0
ENDSEC
  0
SECTION
  2
ENTITIES
  0
LWPOLYLINE
  5
41
330
1F
100
AcDbEntity
  8
Layer 1
 62
     1
370
     9
100
AcDbPolyline
 90
        5
 70
     1
 43
0.0
 10
-15.12940157480315
 20
6.876996062992126
 10
-14.51916535433071
 20
6.876996062992126
 10
-14.51916535433071
 20
7.380933070866142
 10
-15.12940157480315
 20
7.380933070866142
 10
-15.12940157480315
 20
6.876996062992126
  0
LWPOLYLINE
  5
42
330
1F
100
AcDbEntity
  8
Layer 1
 62
     1
370
     9
100
AcDbPolyline
 90
        5
 70
     1
 43
0.0
 10
-14.1923937007874
 20
6.876996062992126
 10
-13.58215748031496
 20
6.876996062992126
 10
-13.58215748031496
 20
7.380933070866142
 10
-14.1923937007874
 20
7.380933070866142
 10
-14.1923937007874
 20
6.876996062992126
  0
LWPOLYLINE
  5
43
330
1F
100
AcDbEntity
  8
Layer 1
 62
     1
370
     9
100
AcDbPolyline
 90
        5
 70
     1
 43
0.0
 10
-15.12940157480315
 20
6.125027559055118
 10
-14.51916535433071
 20
6.125027559055118
 10
-14.51916535433071
 20
6.628964566929134
 10
-15.12940157480315
 20
6.628964566929134
 10
-15.12940157480315
 20
6.125027559055118
  0
LWPOLYLINE
  5
44
330
1F
100
AcDbEntity
  8
Layer 1
 62
     1
370
     9
100
AcDbPolyline
 90
        5
 70
     1
 43
0.0
 10
-14.1923937007874
 20
6.125027559055118
 10
-13.58215748031496
 20
6.125027559055118
 10
-13.58215748031496
 20
6.628964566929134
 10
-14.1923937007874
 20
6.628964566929134
 10
-14.1923937007874
 20
6.125027559055118
  0
LWPOLYLINE
  5
45
330
1F
100
AcDbEntity
  8
Layer 1
 62
     1
370
     9
100
AcDbPolyline
 90
        5
 70
     1
 43
0.0
 10
-15.12940157480315
 20
5.376996062992126
 10
-14.51916535433071
 20
5.376996062992126
 10
-14.51916535433071
 20
5.880933070866142
 10
-15.12940157480315
 20
5.880933070866142
 10
-15.12940157480315
 20
5.376996062992126
  0
LWPOLYLINE
  5
46
330
1F
100
AcDbEntity
  8
Layer 1
 62
     1
370
     9
100
AcDbPolyline
 90
        5
 70
     1
 43
0.0
 10
-14.1923937007874
 20
5.376996062992126
 10
-13.58215748031496
 20
5.376996062992126
 10
-13.58215748031496
 20
5.880933070866142
 10
-14.1923937007874
 20
5.880933070866142
 10
-14.1923937007874
 20
5.376996062992126
  0
LWPOLYLINE
  5
47
330
1F
100
AcDbEntity
  8
Layer 1
 62
     1
370
     9
100
AcDbPolyline
 90
        5
 70
     1
 43
0.0
 10
-15.12940157480315
 20
4.628964566929134
 10
-14.51916535433071
 20
4.628964566929134
 10
-14.51916535433071
 20
5.132901574803149
 10
-15.12940157480315
 20
5.132901574803149
 10
-15.12940157480315
 20
4.628964566929134
  0
LWPOLYLINE
  5
48
330
1F
100
AcDbEntity
  8
Layer 1
 62
     1
370
     9
100
AcDbPolyline
 90
        5
 70
     1
 43
0.0
 10
-14.1923937007874
 20
4.628964566929134
 10
-13.58215748031496
 20
4.628964566929134
 10
-13.58215748031496
 20
5.132901574803149
 10
-14.1923937007874
 20
5.132901574803149
 10
-14.1923937007874
 20
4.628964566929134
  0
LWPOLYLINE
  5
49
330
1F
100
AcDbEntity
  8
Layer 1
 62
     1
370
     9
100
AcDbPolyline
 90
        5
 70
     1
 43
0.0
 10
-13.44603149606299
 20
7.002236220472441
 10
-12.83579527559055
 20
7.002236220472441
 10
-12.83579527559055
 20
7.506173228346457
 10
-13.44603149606299
 20
7.506173228346457
 10
-13.44603149606299
 20
7.002236220472441
  0
LWPOLYLINE
  5
4A
330
1F
100
AcDbEntity
  8
Layer 1
 62
     1
370
     9
100
AcDbPolyline
 90
        5
 70
     1
 43
0.0
 10
-13.44603149606299
 20
6.250267716535433
 10
-12.83579527559055
 20
6.250267716535433
 10
-12.83579527559055
 20
6.754204724409449
 10
-13.44603149606299
 20
6.754204724409449
 10
-13.44603149606299
 20
6.250267716535433
  0
LWPOLYLINE
  5
4B
330
1F
100
AcDbEntity
  8
Layer 1
 62
     1
370
     9
100
AcDbPolyline
 90
        5
 70
     1
 43
0.0
 10
-13.44603149606299
 20
5.502236220472441
 10
-12.83579527559055
 20
5.502236220472441
 10
-12.83579527559055
 20
6.006173228346457
 10
-13.44603149606299
 20
6.006173228346457
 10
-13.44603149606299
 20
5.502236220472441
  0
LWPOLYLINE
  5
4C
330
1F
100
AcDbEntity
  8
Layer 1
 62
     1
370
     9
100
AcDbPolyline
 90
        5
 70
     1
 43
0.0
 10
-13.44603149606299
 20
4.754204724409449
 10
-12.83579527559055
 20
4.754204724409449
 10
-12.83579527559055
 20
5.258141732283464
 10
-13.44603149606299
 20
5.258141732283464
 10
-13.44603149606299
 20
4.754204724409449
  0
LWPOLYLINE
  5
4D
330
1F
100
AcDbEntity
  8
Layer 1
 62
     1
370
     9
100
AcDbPolyline
 90
        5
 70
     1
 43
0.0
 10
-13.44603149606299
 20
4.002236220472441
 10
-12.83579527559055
 20
4.002236220472441
 10
-12.83579527559055
 20
4.506173228346457
 10
-13.44603149606299
 20
4.506173228346457
 10
-13.44603149606299
 20
4.002236220472441
  0
LWPOLYLINE
  5
4E
330
1F
100
AcDbEntity
  8
Layer 1
 62
     1
370
     9
100
AcDbPolyline
 90
        5
 70
     1
 43
0.0
 10
-12.69302362204724
 20
7.064736220472441
 10
-12.0827874015748
 20
7.064736220472441
 10
-12.0827874015748
 20
7.568673228346457
 10
-12.69302362204724
 20
7.568673228346457
 10
-12.69302362204724
 20
7.064736220472441
  0
LWPOLYLINE
  5
4F
330
1F
100
AcDbEntity
  8
Layer 1
 62
     1
370
     9
100
AcDbPolyline
 90
        5
 70
     1
 43
0.0
 10
-12.69302362204724
 20
6.312767716535433
 10
-12.0827874015748
 20
6.312767716535433
 10
-12.0827874015748
 20
6.816704724409449
 10
-12.69302362204724
 20
6.816704724409449
 10
-12.69302362204724
 20
6.312767716535433
  0
LWPOLYLINE
  5
50
330
1F
100
AcDbEntity
  8
Layer 1
 62
     1
370
     9
100
AcDbPolyline
 90
        5
 70
     1
 43
0.0
 10
-12.69302362204724
 20
5.564736220472441
 10
-12.0827874015748
 20
5.564736220472441
 10
-12.0827874015748
 20
6.068673228346457
 10
-12.69302362204724
 20
6.068673228346457
 10
-12.69302362204724
 20
5.564736220472441
  0
LWPOLYLINE
  5
51
330
1F
100
AcDbEntity
  8
Layer 1
 62
     1
370
     9
100
AcDbPolyline
 90
        5
 70
     1
 43
0.0
 10
-12.69302362204724
 20
4.816704724409449
 10
-12.0827874015748
 20
4.816704724409449
 10
-12.0827874015748
 20
5.320641732283464
 10
-12.69302362204724
 20
5.320641732283464
 10
-12.69302362204724
 20
4.816704724409449
  0
LWPOLYLINE
  5
52
330
1F
100
AcDbEntity
  8
Layer 1
 62
     1
370
     9
100
AcDbPolyline
 90
        5
 70
     1
 43
0.0
 10
-12.69302362204724
 20
4.064736220472441
 10
-12.0827874015748
 20
4.064736220472441
 10
-12.0827874015748
 20
4.568673228346457
 10
-12.69302362204724
 20
4.568673228346457
 10
-12.69302362204724
 20
4.064736220472441
  0
LWPOLYLINE
  5
53
330
1F
100
AcDbEntity
  8
Layer 1
 62
     1
370
     9
100
AcDbPolyline
 90
        5
 70
     1
 43
0.0
 10
-11.94514566929134
 20
7.003027559055118
 10
-11.3349094488189
 20
7.003027559055118
 10
-11.3349094488189
 20
7.506964566929134
 10
-11.94514566929134
 20
7.506964566929134
 10
-11.94514566929134
 20
7.003027559055118
  0
LWPOLYLINE
  5
54
330
1F
100
AcDbEntity
  8
Layer 1
 62
     1
370
     9
100
AcDbPolyline
 90
        5
 70
     1
 43
0.0
 10
-11.94514566929134
 20
6.251059055118111
 10
-11.3349094488189
 20
6.251059055118111
 10
-11.3349094488189
 20
6.754996062992126
 10
-11.94514566929134
 20
6.754996062992126
 10
-11.94514566929134
 20
6.251059055118111
  0
LWPOLYLINE
  5
55
330
1F
100
AcDbEntity
  8
Layer 1
 62
     1
370
     9
100
AcDbPolyline
 90
        5
 70
     1
 43
0.0
 10
-11.94514566929134
 20
5.503027559055118
 10
-11.3349094488189
 20
5.503027559055118
 10
-11.3349094488189
 20
6.006964566929134
 10
-11.94514566929134
 20
6.006964566929134
 10
-11.94514566929134
 20
5.503027559055118
  0
LWPOLYLINE
  5
56
330
1F
100
AcDbEntity
  8
Layer 1
 62
     1
370
     9
100
AcDbPolyline
 90
        5
 70
     1
 43
0.0
 10
-11.94514566929134
 20
4.754996062992126
 10
-11.3349094488189
 20
4.754996062992126
 10
-11.3349094488189
 20
5.258933070866142
 10
-11.94514566929134
 20
5.258933070866142
 10
-11.94514566929134
 20
4.754996062992126
  0
LWPOLYLINE
  5
57
330
1F
100
AcDbEntity
  8
Layer 1
 62
     1
370
     9
100
AcDbPolyline
 90
        5
 70
     1
 43
0.0
 10
-11.94514566929134
 20
4.003027559055118
 10
-11.3349094488189
 20
4.003027559055118
 10
-11.3349094488189
 20
4.506964566929134
 10
-11.94514566929134
 20
4.506964566929134
 10
-11.94514566929134
 20
4.003027559055118
  0
LWPOLYLINE
  5
58
330
1F
100
AcDbEntity
  8
Layer 1
 62
     1
370
     9
100
AcDbPolyline
 90
        5
 70
     1
 43
0.0
 10
-11.19504724409449
 20
6.952728346456693
 10
-10.58481102362205
 20
6.952728346456693
 10
-10.58481102362205
 20
7.456665354330709
 10
-11.19504724409449
 20
7.456665354330709
 10
-11.19504724409449
 20
6.952728346456693
  0
LWPOLYLINE
  5
59
330
1F
100
AcDbEntity
  8
Layer 1
 62
     1
370
     9
100
AcDbPolyline
 90
        5
 70
     1
 43
0.0
 10
-11.19504724409449
 20
6.200759842519685
 10
-10.58481102362205
 20
6.200759842519685
 10
-10.58481102362205
 20
6.704696850393701
 10
-11.19504724409449
 20
6.704696850393701
 10
-11.19504724409449
 20
6.200759842519685
  0
LWPOLYLINE
  5
5A
330
1F
100
AcDbEntity
  8
Layer 1
 62
     1
370
     9
100
AcDbPolyline
 90
        5
 70
     1
 43
0.0
 10
-11.19504724409449
 20
5.452728346456693
 10
-10.58481102362205
 20
5.452728346456693
 10
-10.58481102362205
 20
5.956665354330709
 10
-11.19504724409449
 20
5.956665354330709
 10
-11.19504724409449
 20
5.452728346456693
  0
LWPOLYLINE
  5
5B
330
1F
100
AcDbEntity
  8
Layer 1
 62
     1
370
     9
100
AcDbPolyline
 90
        5
 70
     1
 43
0.0
 10
-11.19504724409449
 20
4.704696850393701
 10
-10.58481102362205
 20
4.704696850393701
 10
-10.58481102362205
 20
5.208633858267716
 10
-11.19504724409449
 20
5.208633858267716
 10
-11.19504724409449
 20
4.704696850393701
  0
LWPOLYLINE
  5
5C
330
1F
100
AcDbEntity
  8
Layer 1
 62
     1
370
     9
100
AcDbPolyline
 90
        5
 70
     1
 43
0.0
 10
-10.44307874015748
 20
6.952728346456693
 10
-9.83284251968504
 20
6.952728346456693
 10
-9.83284251968504
 20
7.456665354330709
 10
-10.44307874015748
 20
7.456665354330709
 10
-10.44307874015748
 20
6.952728346456693
  0
LWPOLYLINE
  5
5D
330
1F
100
AcDbEntity
  8
Layer 1
 62
     1
370
     9
100
AcDbPolyline
 90
        5
 70
     1
 43
0.0
 10
-14.1923937007874
 20
3.876996062992126
 10
-13.58215748031496
 20
3.876996062992126
 10
-13.58215748031496
 20
4.380933070866142
 10
-14.1923937007874
 20
4.380933070866142
 10
-14.1923937007874
 20
3.876996062992126
  0
LWPOLYLINE
  5
5E
330
1F
100
AcDbEntity
  8
Layer 1
 62
     1
370
     9
100
AcDbPolyline
 90
        5
 70
     1
 43
0.0
 10
-14.94436220472441
 20
3.876996062992126
 10
-14.33412598425197
 20
3.876996062992126
 10
-14.33412598425197
 20
4.380933070866142
 10
-14.94436220472441
 20
4.380933070866142
 10
-14.94436220472441
 20
3.876996062992126
  0
SPLINE
  5
5F
330
1F
100
AcDbEntity
  8
Layer 1
 62
     1
370
     9
100
AcDbSpline
210
0.0
220
0.0
230
1.0
 70
    11
 71
     3
 72
    20
 73
    16
 74
     0
 42
0.0000000001
 43
0.0000000001
 40
0.0
 40
0.0
 40
0.0
 40
0.0
 40
0.2
 40
0.2
 40
0.2
 40
0.2
 40
0.4
 40
0.4
 40
0.4
 40
0.4
 40
0.6
 40
0.6
 40
0.6
 40
0.6
 40
1.0
 40
1.0
 40
1.0
 40
1.0
 10
-10.36551968503937
 20
5.939870078740157
 30
0.0
 10
-10.36551968503937
 20
5.939870078740157
 30
0.0
 10
-10.36551968503937
 20
6.550106299212598
 30
0.0
 10
-10.36551968503937
 20
6.550106299212598
 30
0.0
 10
-10.36551968503937
 20
6.550106299212598
 30
0.0
 10
-10.36551968503937
 20
6.550106299212598
 30
0.0
 10
-9.861582677165355
 20
6.550106299212598
 30
0.0
 10
-9.861582677165355
 20
6.550106299212598
 30
0.0
 10
-9.861582677165355
 20
6.550106299212598
 30
0.0
 10
-9.861582677165355
 20
6.550106299212598
 30
0.0
 10
-9.861582677165355
 20
5.939870078740157
 30
0.0
 10
-9.861582677165355
 20
5.939870078740157
 30
0.0
 10
-9.861582677165355
 20
5.939870078740157
 30
0.0
 10
-9.861582677165355
 20
5.939870078740157
 30
0.0
 10
-10.36551968503937
 20
5.939870078740157
 30
0.0
 10
-10.36551968503937
 20
5.939870078740157
 30
0.0
  0
SPLINE
  5
60
330
1F
100
AcDbEntity
  8
Layer 1
 62
     1
370
     9
100
AcDbSpline
210
0.0
220
0.0
230
1.0
 70
    11
 71
     3
 72
    20
 73
    16
 74
     0
 42
0.0000000001
 43
0.0000000001
 40
0.0
 40
0.0
 40
0.0
 40
0.0
 40
0.2
 40
0.2
 40
0.2
 40
0.2
 40
0.4
 40
0.4
 40
0.4
 40
0.4
 40
0.6
 40
0.6
 40
0.6
 40
0.6
 40
1.0
 40
1.0
 40
1.0
 40
1.0
 10
-10.36551968503937
 20
4.813885826771654
 30
0.0
 10
-10.36551968503937
 20
4.813885826771654
 30
0.0
 10
-10.36551968503937
 20
5.424122047244095
 30
0.0
 10
-10.36551968503937
 20
5.424122047244095
 30
0.0
 10
-10.36551968503937
 20
5.424122047244095
 30
0.0
 10
-10.36551968503937
 20
5.424122047244095
 30
0.0
 10
-9.861582677165355
 20
5.424122047244095
 30
0.0
 10
-9.861582677165355
 20
5.424122047244095
 30
0.0
 10
-9.861582677165355
 20
5.424122047244095
 30
0.0
 10
-9.861582677165355
 20
5.424122047244095
 30
0.0
 10
-9.861582677165355
 20
4.813885826771654
 30
0.0
 10
-9.861582677165355
 20
4.813885826771654
 30
0.0
 10
-9.861582677165355
 20
4.813885826771654
 30
0.0
 10
-9.861582677165355
 20
4.813885826771654
 30
0.0
 10
-10.36551968503937
 20
4.813885826771654
 30
0.0
 10
-10.36551968503937
 20
4.813885826771654
 30
0.0
  0
SPLINE
  5
61
330
1F
100
AcDbEntity
  8
Layer 1
 62
     1
370
     9
100
AcDbSpline
210
0.0
220
0.0
230
1.0
 70
    11
 71
     3
 72
    20
 73
    16
 74
     0
 42
0.0000000001
 43
0.0000000001
 40
0.0
 40
0.0
 40
0.0
 40
0.0
 40
0.2
 40
0.2
 40
0.2
 40
0.2
 40
0.4
 40
0.4
 40
0.4
 40
0.4
 40
0.6
 40
0.6
 40
0.6
 40
0.6
 40
1.0
 40
1.0
 40
1.0
 40
1.0
 10
-9.493763779527558
 20
4.798122047244094
 30
0.0
 10
-9.493763779527558
 20
4.798122047244094
 30
0.0
 10
-8.940704724409448
 20
4.540224409448819
 30
0.0
 10
-8.940704724409448
 20
4.540224409448819
 30
0.0
 10
-8.940704724409448
 20
4.540224409448819
 30
0.0
 10
-8.940704724409448
 20
4.540224409448819
 30
0.0
 10
-9.153677165354331
 20
4.0835
 30
0.0
 10
-9.153677165354331
 20
4.0835
 30
0.0
 10
-9.153677165354331
 20
4.0835
 30
0.0
 10
-9.153677165354331
 20
4.0835
 30
0.0
 10
-9.706740157480315
 20
4.341397637795276
 30
0.0
 10
-9.706740157480315
 20
4.341397637795276
 30
0.0
 10
-9.706740157480315
 20
4.341397637795276
 30
0.0
 10
-9.706740157480315
 20
4.341397637795276
 30
0.0
 10
-9.493763779527558
 20
4.798122047244094
 30
0.0
 10
-9.493763779527558
 20
4.798122047244094
 30
0.0
  0
SPLINE
  5
62
330
1F
100
AcDbEntity
  8
Layer 1
 62
     1
370
     9
100
AcDbSpline
210
0.0
220
0.0
230
1.0
 70
    11
 71
     3
 72
    20
 73
    16
 74
     0
 42
0.0000000001
 43
0.0000000001
 40
0.0
 40
0.0
 40
0.0
 40
0.0
 40
0.2
 40
0.2
 40
0.2
 40
0.2
 40
0.4
 40
0.4
 40
0.4
 40
0.4
 40
0.6
 40
0.6
 40
0.6
 40
0.6
 40
1.0
 40
1.0
 40
1.0
 40
1.0
 10
-8.813208661417322
 20
4.482149606299212
 30
0.0
 10
-8.813208661417322
 20
4.482149606299212
 30
0.0
 10
-8.260149606299212
 20
4.224251968503937
 30
0.0
 10
-8.260149606299212
 20
4.224251968503937
 30
0.0
 10
-8.260149606299212
 20
4.224251968503937
 30
0.0
 10
-8.260149606299212
 20
4.224251968503937
 30
0.0
 10
-8.473122047244095
 20
3.767527559055118
 30
0.0
 10
-8.473122047244095
 20
3.767527559055118
 30
0.0
 10
-8.473122047244095
 20
3.767527559055118
 30
0.0
 10
-8.473122047244095
 20
3.767527559055118
 30
0.0
 10
-9.026185039370079
 20
4.025425196850394
 30
0.0
 10
-9.026185039370079
 20
4.025425196850394
 30
0.0
 10
-9.026185039370079
 20
4.025425196850394
 30
0.0
 10
-9.026185039370079
 20
4.025425196850394
 30
0.0
 10
-8.813208661417322
 20
4.482149606299212
 30
0.0
 10
-8.813208661417322
 20
4.482149606299212
 30
0.0
  0
SPLINE
  5
63
330
1F
100
AcDbEntity
  8
Layer 1
 62
     1
370
     9
100
AcDbSpline
210
0.0
220
0.0
230
1.0
 70
    11
 71
     3
 72
    20
 73
    16
 74
     0
 42
0.0000000001
 43
0.0000000001
 40
0.0
 40
0.0
 40
0.0
 40
0.0
 40
0.2
 40
0.2
 40
0.2
 40
0.2
 40
0.4
 40
0.4
 40
0.4
 40
0.4
 40
0.6
 40
0.6
 40
0.6
 40
0.6
 40
1.0
 40
1.0
 40
1.0
 40
1.0
 10
-9.132653543307086
 20
3.801590551181103
 30
0.0
 10
-9.132653543307086
 20
3.801590551181103
 30
0.0
 10
-8.579594488188976
 20
3.543692913385827
 30
0.0
 10
-8.579594488188976
 20
3.543692913385827
 30
0.0
 10
-8.579594488188976
 20
3.543692913385827
 30
0.0
 10
-8.579594488188976
 20
3.543692913385827
 30
0.0
 10
-8.792566929133859
 20
3.086968503937008
 30
0.0
 10
-8.792566929133859
 20
3.086968503937008
 30
0.0
 10
-8.792566929133859
 20
3.086968503937008
 30
0.0
 10
-8.792566929133859
 20
3.086968503937008
 30
0.0
 10
-9.345629921259842
 20
3.344866141732283
 30
0.0
 10
-9.345629921259842
 20
3.344866141732283
 30
0.0
 10
-9.345629921259842
 20
3.344866141732283
 30
0.0
 10
-9.345629921259842
 20
3.344866141732283
 30
0.0
 10
-9.132653543307086
 20
3.801590551181103
 30
0.0
 10
-9.132653543307086
 20
3.801590551181103
 30
0.0
  0
SPLINE
  5
64
330
1F
100
AcDbEntity
  8
Layer 1
 62
     1
370
     9
100
AcDbSpline
210
0.0
220
0.0
230
1.0
 70
    11
 71
     3
 72
    20
 73
    16
 74
     0
 42
0.0000000001
 43
0.0000000001
 40
0.0
 40
0.0
 40
0.0
 40
0.0
 40
0.2
 40
0.2
 40
0.2
 40
0.2
 40
0.4
 40
0.4
 40
0.4
 40
0.4
 40
0.6
 40
0.6
 40
0.6
 40
0.6
 40
1.0
 40
1.0
 40
1.0
 40
1.0
 10
-9.448625984251969
 20
3.121031496062992
 30
0.0
 10
-9.448625984251969
 20
3.121031496062992
 30
0.0
 10
-8.895566929133858
 20
2.863133858267716
 30
0.0
 10
-8.895566929133858
 20
2.863133858267716
 30
0.0
 10
-8.895566929133858
 20
2.863133858267716
 30
0.0
 10
-8.895566929133858
 20
2.863133858267716
 30
0.0
 10
-9.10853937007874
 20
2.406409448818898
 30
0.0
 10
-9.10853937007874
 20
2.406409448818898
 30
0.0
 10
-9.10853937007874
 20
2.406409448818898
 30
0.0
 10
-9.10853937007874
 20
2.406409448818898
 30
0.0
 10
-9.661602362204725
 20
2.664307086614173
 30
0.0
 10
-9.661602362204725
 20
2.664307086614173
 30
0.0
 10
-9.661602362204725
 20
2.664307086614173
 30
0.0
 10
-9.661602362204725
 20
2.664307086614173
 30
0.0
 10
-9.448625984251969
 20
3.121031496062992
 30
0.0
 10
-9.448625984251969
 20
3.121031496062992
 30
0.0
  0
SPLINE
  5
65
330
1F
100
AcDbEntity
  8
Layer 1
 62
     1
370
     9
100
AcDbSpline
210
0.0
220
0.0
230
1.0
 70
    11
 71
     3
 72
    20
 73
    16
 74
     0
 42
0.0000000001
 43
0.0000000001
 40
0.0
 40
0.0
 40
0.0
 40
0.0
 40
0.2
 40
0.2
 40
0.2
 40
0.2
 40
0.4
 40
0.4
 40
0.4
 40
0.4
 40
0.6
 40
0.6
 40
0.6
 40
0.6
 40
1.0
 40
1.0
 40
1.0
 40
1.0
 10
-10.82417322834646
 20
3.540968503937008
 30
0.0
 10
-10.82417322834646
 20
3.540968503937008
 30
0.0
 10
-10.56627559055118
 20
4.094031496062992
 30
0.0
 10
-10.56627559055118
 20
4.094031496062992
 30
0.0
 10
-10.56627559055118
 20
4.094031496062992
 30
0.0
 10
-10.56627559055118
 20
4.094031496062992
 30
0.0
 10
-10.10955511811024
 20
3.88105905511811
 30
0.0
 10
-10.10955511811024
 20
3.88105905511811
 30
0.0
 10
-10.10955511811024
 20
3.88105905511811
 30
0.0
 10
-10.10955511811024
 20
3.88105905511811
 30
0.0
 10
-10.36744881889764
 20
3.327996062992126
 30
0.0
 10
-10.36744881889764
 20
3.327996062992126
 30
0.0
 10
-10.36744881889764
 20
3.327996062992126
 30
0.0
 10
-10.36744881889764
 20
3.327996062992126
 30
0.0
 10
-10.82417322834646
 20
3.540968503937008
 30
0.0
 10
-10.82417322834646
 20
3.540968503937008
 30
0.0
  0
SPLINE
  5
66
330
1F
100
AcDbEntity
  8
Layer 1
 62
     1
370
     9
100
AcDbSpline
210
0.0
220
0.0
230
1.0
 70
    11
 71
     3
 72
    20
 73
    16
 74
     0
 42
0.0000000001
 43
0.0000000001
 40
0.0
 40
0.0
 40
0.0
 40
0.0
 40
0.2
 40
0.2
 40
0.2
 40
0.2
 40
0.4
 40
0.4
 40
0.4
 40
0.4
 40
0.6
 40
0.6
 40
0.6
 40
0.6
 40
1.0
 40
1.0
 40
1.0
 40
1.0
 10
-10.14708661417323
 20
3.221523622047244
 30
0.0
 10
-10.14708661417323
 20
3.221523622047244
 30
0.0
 10
-9.889188976377953
 20
3.774586614173228
 30
0.0
 10
-9.889188976377953
 20
3.774586614173228
 30
0.0
 10
-9.889188976377953
 20
3.774586614173228
 30
0.0
 10
-9.889188976377953
 20
3.774586614173228
 30
0.0
 10
-9.432468503937008
 20
3.561614173228346
 30
0.0
 10
-9.432468503937008
 20
3.561614173228346
 30
0.0
 10
-9.432468503937008
 20
3.561614173228346
 30
0.0
 10
-9.432468503937008
 20
3.561614173228346
 30
0.0
 10
-9.69036220472441
 20
3.008551181102362
 30
0.0
 10
-9.69036220472441
 20
3.008551181102362
 30
0.0
 10
-9.69036220472441
 20
3.008551181102362
 30
0.0
 10
-9.69036220472441
 20
3.008551181102362
 30
0.0
 10
-10.14708661417323
 20
3.221523622047244
 30
0.0
 10
-10.14708661417323
 20
3.221523622047244
 30
0.0
  0
SPLINE
  5
67
330
1F
100
AcDbEntity
  8
Layer 1
 62
     1
370
     9
100
AcDbSpline
210
0.0
220
0.0
230
1.0
 70
    24
 71
     3
 72
     8
 73
     4
 74
     0
 42
0.0000000001
 43
0.0000000001
 40
0.0
 40
0.0
 40
0.0
 40
0.0
 40
1.0
 40
1.0
 40
1.0
 40
1.0
 10
-10.48503937007874
 20
4.306633858267716
 30
0.0
 10
-10.48503937007874
 20
4.306633858267716
 30
0.0
 10
-10.54003937007874
 20
4.188834645669291
 30
0.0
 10
-10.54003937007874
 20
4.188834645669291
 30
0.0
  0
SPLINE
  5
68
330
1F
100
AcDbEntity
  8
Layer 1
 62
     1
370
     9
100
AcDbSpline
210
0.0
220
0.0
230
1.0
 70
    24
 71
     3
 72
     8
 73
     4
 74
     0
 42
0.0000000001
 43
0.0000000001
 40
0.0
 40
0.0
 40
0.0
 40
0.0
 40
1.0
 40
1.0
 40
1.0
 40
1.0
 10
-10.54003937007874
 20
4.188834645669291
 30
0.0
 10
-10.54003937007874
 20
4.188834645669291
 30
0.0
 10
-10.04153937007874
 20
3.956433070866142
 30
0.0
 10
-10.04153937007874
 20
3.956433070866142
 30
0.0
  0
SPLINE
  5
69
330
1F
100
AcDbEntity
  8
Layer 1
 62
     1
370
     9
100
AcDbSpline
210
0.0
220
0.0
230
1.0
 70
    24
 71
     3
 72
     8
 73
     4
 74
     0
 42
0.0000000001
 43
0.0000000001
 40
0.0
 40
0.0
 40
0.0
 40
0.0
 40
1.0
 40
1.0
 40
1.0
 40
1.0
 10
-10.04153937007874
 20
3.956433070866142
 30
0.0
 10
-10.04153937007874
 20
3.956433070866142
 30
0.0
 10
-9.986637795275591
 20
4.074236220472441
 30
0.0
 10
-9.986637795275591
 20
4.074236220472441
 30
0.0
  0
SPLINE
  5
6A
330
1F
100
AcDbEntity
  8
Layer 1
 62
     1
370
     9
100
AcDbSpline
210
0.0
220
0.0
230
1.0
 70
    24
 71
     3
 72
     8
 73
     4
 74
     0
 42
0.0000000001
 43
0.0000000001
 40
0.0
 40
0.0
 40
0.0
 40
0.0
 40
1.0
 40
1.0
 40
1.0
 40
1.0
 10
-9.986637795275591
 20
4.074236220472441
 30
0.0
 10
-9.986637795275591
 20
4.074236220472441
 30
0.0
 10
-10.48503937007874
 20
4.306633858267716
 30
0.0
 10
-10.48503937007874
 20
4.306633858267716
 30
0.0
  0
SPLINE
  5
6B
330
1F
100
AcDbEntity
  8
Layer 1
 62
     1
370
     9
100
AcDbSpline
210
0.0
220
0.0
230
1.0
 70
    24
 71
     3
 72
     8
 73
     4
 74
     0
 42
0.0000000001
 43
0.0000000001
 40
0.0
 40
0.0
 40
0.0
 40
0.0
 40
1.0
 40
1.0
 40
1.0
 40
1.0
 10
-10.88233858267717
 20
3.454736220472441
 30
0.0
 10
-10.88233858267717
 20
3.454736220472441
 30
0.0
 10
-10.93724015748031
 20
3.336933070866142
 30
0.0
 10
-10.93724015748031
 20
3.336933070866142
 30
0.0
  0
SPLINE
  5
6C
330
1F
100
AcDbEntity
  8
Layer 1
 62
     1
370
     9
100
AcDbSpline
210
0.0
220
0.0
230
1.0
 70
    24
 71
     3
 72
     8
 73
     4
 74
     0
 42
0.0000000001
 43
0.0000000001
 40
0.0
 40
0.0
 40
0.0
 40
0.0
 40
1.0
 40
1.0
 40
1.0
 40
1.0
 10
-10.93724015748031
 20
3.336933070866142
 30
0.0
 10
-10.93724015748031
 20
3.336933070866142
 30
0.0
 10
-10.43883858267717
 20
3.104433070866142
 30
0.0
 10
-10.43883858267717
 20
3.104433070866142
 30
0.0
  0
SPLINE
  5
6D
330
1F
100
AcDbEntity
  8
Layer 1
 62
     1
370
     9
100
AcDbSpline
210
0.0
220
0.0
230
1.0
 70
    24
 71
     3
 72
     8
 73
     4
 74
     0
 42
0.0000000001
 43
0.0000000001
 40
0.0
 40
0.0
 40
0.0
 40
0.0
 40
1.0
 40
1.0
 40
1.0
 40
1.0
 10
-10.43883858267717
 20
3.104433070866142
 30
0.0
 10
-10.43883858267717
 20
3.104433070866142
 30
0.0
 10
-10.38383858267717
 20
3.222236220472441
 30
0.0
 10
-10.38383858267717
 20
3.222236220472441
 30
0.0
  0
SPLINE
  5
6E
330
1F
100
AcDbEntity
  8
Layer 1
 62
     1
370
     9
100
AcDbSpline
210
0.0
220
0.0
230
1.0
 70
    24
 71
     3
 72
     8
 73
     4
 74
     0
 42
0.0000000001
 43
0.0000000001
 40
0.0
 40
0.0
 40
0.0
 40
0.0
 40
1.0
 40
1.0
 40
1.0
 40
1.0
 10
-10.38383858267717
 20
3.222236220472441
 30
0.0
 10
-10.38383858267717
 20
3.222236220472441
 30
0.0
 10
-10.88233858267717
 20
3.454736220472441
 30
0.0
 10
-10.88233858267717
 20
3.454736220472441
 30
0.0
  0
SPLINE
  5
6F
330
1F
100
AcDbEntity
  8
Layer 1
 62
     1
370
     9
100
AcDbSpline
210
0.0
220
0.0
230
1.0
 70
    24
 71
     3
 72
     8
 73
     4
 74
     0
 42
0.0000000001
 43
0.0000000001
 40
0.0
 40
0.0
 40
0.0
 40
0.0
 40
1.0
 40
1.0
 40
1.0
 40
1.0
 10
-9.81353937007874
 20
2.812834645669291
 30
0.0
 10
-9.81353937007874
 20
2.812834645669291
 30
0.0
 10
-9.75853937007874
 20
2.930633858267717
 30
0.0
 10
-9.75853937007874
 20
2.930633858267717
 30
0.0
  0
SPLINE
  5
70
330
1F
100
AcDbEntity
  8
Layer 1
 62
     1
370
     9
100
AcDbSpline
210
0.0
220
0.0
230
1.0
 70
    24
 71
     3
 72
     8
 73
     4
 74
     0
 42
0.0000000001
 43
0.0000000001
 40
0.0
 40
0.0
 40
0.0
 40
0.0
 40
1.0
 40
1.0
 40
1.0
 40
1.0
 10
-9.75853937007874
 20
2.930633858267717
 30
0.0
 10
-9.75853937007874
 20
2.930633858267717
 30
0.0
 10
-10.25703937007874
 20
3.163035433070866
 30
0.0
 10
-10.25703937007874
 20
3.163035433070866
 30
0.0
  0
SPLINE
  5
71
330
1F
100
AcDbEntity
  8
Layer 1
 62
     1
370
     9
100
AcDbSpline
210
0.0
220
0.0
230
1.0
 70
    24
 71
     3
 72
     8
 73
     4
 74
     0
 42
0.0000000001
 43
0.0000000001
 40
0.0
 40
0.0
 40
0.0
 40
0.0
 40
1.0
 40
1.0
 40
1.0
 40
1.0
 10
-10.25703937007874
 20
3.163035433070866
 30
0.0
 10
-10.25703937007874
 20
3.163035433070866
 30
0.0
 10
-10.31193700787402
 20
3.045236220472441
 30
0.0
 10
-10.31193700787402
 20
3.045236220472441
 30
0.0
  0
SPLINE
  5
72
330
1F
100
AcDbEntity
  8
Layer 1
 62
     1
370
     9
100
AcDbSpline
210
0.0
220
0.0
230
1.0
 70
    24
 71
     3
 72
     8
 73
     4
 74
     0
 42
0.0000000001
 43
0.0000000001
 40
0.0
 40
0.0
 40
0.0
 40
0.0
 40
1.0
 40
1.0
 40
1.0
 40
1.0
 10
-10.31193700787402
 20
3.045236220472441
 30
0.0
 10
-10.31193700787402
 20
3.045236220472441
 30
0.0
 10
-9.81353937007874
 20
2.812834645669291
 30
0.0
 10
-9.81353937007874
 20
2.812834645669291
 30
0.0
  0
SPLINE
  5
73
330
1F
100
AcDbEntity
  8
Layer 1
 62
     1
370
     9
100
AcDbSpline
210
0.0
220
0.0
230
1.0
 70
    24
 71
     3
 72
     8
 73
     4
 74
     0
 42
0.0000000001
 43
0.0000000001
 40
0.0
 40
0.0
 40
0.0
 40
0.0
 40
1.0
 40
1.0
 40
1.0
 40
1.0
 10
-9.416240157480315
 20
3.664736220472441
 30
0.0
 10
-9.416240157480315
 20
3.664736220472441
 30
0.0
 10
-9.361338582677165
 20
3.782535433070866
 30
0.0
 10
-9.361338582677165
 20
3.782535433070866
 30
0.0
  0
SPLINE
  5
74
330
1F
100
AcDbEntity
  8
Layer 1
 62
     1
370
     9
100
AcDbSpline
210
0.0
220
0.0
230
1.0
 70
    24
 71
     3
 72
     8
 73
     4
 74
     0
 42
0.0000000001
 43
0.0000000001
 40
0.0
 40
0.0
 40
0.0
 40
0.0
 40
1.0
 40
1.0
 40
1.0
 40
1.0
 10
-9.361338582677165
 20
3.782535433070866
 30
0.0
 10
-9.361338582677165
 20
3.782535433070866
 30
0.0
 10
-9.859740157480315
 20
4.015035433070866
 30
0.0
 10
-9.859740157480315
 20
4.015035433070866
 30
0.0
  0
SPLINE
  5
75
330
1F
100
AcDbEntity
  8
Layer 1
 62
     1
370
     9
100
AcDbSpline
210
0.0
220
0.0
230
1.0
 70
    24
 71
     3
 72
     8
 73
     4
 74
     0
 42
0.0000000001
 43
0.0000000001
 40
0.0
 40
0.0
 40
0.0
 40
0.0
 40
1.0
 40
1.0
 40
1.0
 40
1.0
 10
-9.859740157480315
 20
4.015035433070866
 30
0.0
 10
-9.859740157480315
 20
4.015035433070866
 30
0.0
 10
-9.914740157480315
 20
3.897236220472441
 30
0.0
 10
-9.914740157480315
 20
3.897236220472441
 30
0.0
  0
SPLINE
  5
76
330
1F
100
AcDbEntity
  8
Layer 1
 62
     1
370
     9
100
AcDbSpline
210
0.0
220
0.0
230
1.0
 70
    24
 71
     3
 72
     8
 73
     4
 74
     0
 42
0.0000000001
 43
0.0000000001
 40
0.0
 40
0.0
 40
0.0
 40
0.0
 40
1.0
 40
1.0
 40
1.0
 40
1.0
 10
-9.914740157480315
 20
3.897236220472441
 30
0.0
 10
-9.914740157480315
 20
3.897236220472441
 30
0.0
 10
-9.416240157480315
 20
3.664736220472441
 30
0.0
 10
-9.416240157480315
 20
3.664736220472441
 30
0.0
  0
SPLINE
  5
77
330
1F
100
AcDbEntity
  8
Layer 1
 62
     1
370
     9
100
AcDbSpline
210
0.0
220
0.0
230
1.0
 70
    24
 71
     3
 72
     8
 73
     4
 74
     0
 42
0.0000000001
 43
0.0000000001
 40
0.0
 40
0.0
 40
0.0
 40
0.0
 40
1.0
 40
1.0
 40
1.0
 40
1.0
 10
-12.43292519685039
 20
3.374433070866142
 30
0.0
 10
-12.43292519685039
 20
3.374433070866142
 30
0.0
 10
-15.46964960629921
 20
3.374433070866142
 30
0.0
 10
-15.46964960629921
 20
3.374433070866142
 30
0.0
  0
SPLINE
  5
78
330
1F
100
AcDbEntity
  8
Layer 1
 62
     1
370
     9
100
AcDbSpline
210
0.0
220
0.0
230
1.0
 70
    24
 71
     3
 72
     8
 73
     4
 74
     0
 42
0.0000000001
 43
0.0000000001
 40
0.0
 40
0.0
 40
0.0
 40
0.0
 40
1.0
 40
1.0
 40
1.0
 40
1.0
 10
-15.74524015748032
 20
3.650023622047244
 30
0.0
 10
-15.74524015748032
 20
3.650023622047244
 30
0.0
 10
-15.74524015748032
 20
8.548842519685039
 30
0.0
 10
-15.74524015748032
 20
8.548842519685039
 30
0.0
  0
SPLINE
  5
79
330
1F
100
AcDbEntity
  8
Layer 1
 62
     1
370
     9
100
AcDbSpline
210
0.0
220
0.0
230
1.0
 70
    24
 71
     3
 72
     8
 73
     4
 74
     0
 42
0.0000000001
 43
0.0000000001
 40
0.0
 40
0.0
 40
0.0
 40
0.0
 40
1.0
 40
1.0
 40
1.0
 40
1.0
 10
-9.998240157480314
 20
8.824433070866142
 30
0.0
 10
-9.998240157480314
 20
8.824433070866142
 30
0.0
 10
-9.678830708661417
 20
8.824433070866142
 30
0.0
 10
-9.678830708661417
 20
8.824433070866142
 30
0.0
  0
SPLINE
  5
7A
330
1F
100
AcDbEntity
  8
Layer 1
 62
     1
370
     9
100
AcDbSpline
210
0.0
220
0.0
230
1.0
 70
    24
 71
     3
 72
     8
 73
     4
 74
     0
 42
0.0000000001
 43
0.0000000001
 40
0.0
 40
0.0
 40
0.0
 40
0.0
 40
1.0
 40
1.0
 40
1.0
 40
1.0
 10
-9.183877952755905
 20
1.888173228346457
 30
0.0
 10
-9.183877952755905
 20
1.888173228346457
 30
0.0
 10
-12.31647637795276
 20
3.348618110236221
 30
0.0
 10
-12.31647637795276
 20
3.348618110236221
 30
0.0
  0
SPLINE
  5
7B
330
1F
100
AcDbEntity
  8
Layer 1
 62
     1
370
     9
100
AcDbSpline
210
0.0
220
0.0
230
1.0
 70
    11
 71
     3
 72
    20
 73
    16
 74
     0
 42
0.0000000001
 43
0.0000000001
 40
0.0
 40
0.0
 40
0.0
 40
0.0
 40
0.2
 40
0.2
 40
0.2
 40
0.2
 40
0.4
 40
0.4
 40
0.4
 40
0.4
 40
0.6
 40
0.6
 40
0.6
 40
0.6
 40
1.0
 40
1.0
 40
1.0
 40
1.0
 10
-9.350240157480314
 20
3.215433070866142
 30
0.0
 10
-9.350240157480314
 20
3.248570866141732
 30
0.0
 10
-9.377102362204724
 20
3.275433070866142
 30
0.0
 10
-9.410236220472441
 20
3.275433070866142
 30
0.0
 10
-9.410236220472441
 20
3.275433070866142
 30
0.0
 10
-9.44337401574803
 20
3.275437007874016
 30
0.0
 10
-9.47023622047244
 20
3.248570866141732
 30
0.0
 10
-9.470240157480315
 20
3.215437007874016
 30
0.0
 10
-9.470240157480315
 20
3.215437007874016
 30
0.0
 10
-9.470240157480315
 20
3.182299212598425
 30
0.0
 10
-9.44337401574803
 20
3.155437007874016
 30
0.0
 10
-9.410240157480315
 20
3.155433070866142
 30
0.0
 10
-9.410240157480315
 20
3.155433070866142
 30
0.0
 10
-9.377102362204724
 20
3.155433070866142
 30
0.0
 10
-9.350240157480314
 20
3.182299212598425
 30
0.0
 10
-9.350240157480314
 20
3.215433070866142
 30
0.0
  0
SPLINE
  5
7C
330
1F
100
AcDbEntity
  8
Layer 1
 62
     1
370
     9
100
AcDbSpline
210
0.0
220
0.0
230
1.0
 70
    11
 71
     3
 72
    20
 73
    16
 74
     0
 42
0.0000000001
 43
0.0000000001
 40
0.0
 40
0.0
 40
0.0
 40
0.0
 40
0.2
 40
0.2
 40
0.2
 40
0.2
 40
0.4
 40
0.4
 40
0.4
 40
0.4
 40
0.6
 40
0.6
 40
0.6
 40
0.6
 40
1.0
 40
1.0
 40
1.0
 40
1.0
 10
-9.577240157480315
 20
4.954433070866142
 30
0.0
 10
-9.577240157480315
 20
4.987570866141732
 30
0.0
 10
-9.604102362204724
 20
5.014433070866142
 30
0.0
 10
-9.637236220472442
 20
5.014433070866142
 30
0.0
 10
-9.637236220472442
 20
5.014433070866142
 30
0.0
 10
-9.670374015748031
 20
5.014437007874016
 30
0.0
 10
-9.69723622047244
 20
4.987570866141732
 30
0.0
 10
-9.697240157480316
 20
4.954437007874016
 30
0.0
 10
-9.697240157480316
 20
4.954437007874016
 30
0.0
 10
-9.697240157480316
 20
4.921299212598425
 30
0.0
 10
-9.670374015748031
 20
4.894437007874016
 30
0.0
 10
-9.637240157480315
 20
4.894433070866142
 30
0.0
 10
-9.637240157480315
 20
4.894433070866142
 30
0.0
 10
-9.604102362204724
 20
4.894433070866142
 30
0.0
 10
-9.577240157480315
 20
4.921299212598425
 30
0.0
 10
-9.577240157480315
 20
4.954433070866142
 30
0.0
  0
SPLINE
  5
7D
330
1F
100
AcDbEntity
  8
Layer 1
 62
     1
370
     9
100
AcDbSpline
210
0.0
220
0.0
230
1.0
 70
    11
 71
     3
 72
    20
 73
    16
 74
     0
 42
0.0000000001
 43
0.0000000001
 40
0.0
 40
0.0
 40
0.0
 40
0.0
 40
0.2
 40
0.2
 40
0.2
 40
0.2
 40
0.4
 40
0.4
 40
0.4
 40
0.4
 40
0.6
 40
0.6
 40
0.6
 40
0.6
 40
1.0
 40
1.0
 40
1.0
 40
1.0
 10
-11.37924015748031
 20
3.533433070866142
 30
0.0
 10
-11.37924015748031
 20
3.566570866141732
 30
0.0
 10
-11.40610236220472
 20
3.593433070866142
 30
0.0
 10
-11.43923622047244
 20
3.593433070866142
 30
0.0
 10
-11.43923622047244
 20
3.593433070866142
 30
0.0
 10
-11.47237401574803
 20
3.593437007874016
 30
0.0
 10
-11.49923622047244
 20
3.566570866141732
 30
0.0
 10
-11.49924015748032
 20
3.533437007874016
 30
0.0
 10
-11.49924015748032
 20
3.533437007874016
 30
0.0
 10
-11.49924015748032
 20
3.500299212598425
 30
0.0
 10
-11.47237401574803
 20
3.473437007874016
 30
0.0
 10
-11.43924015748031
 20
3.473433070866142
 30
0.0
 10
-11.43924015748031
 20
3.473433070866142
 30
0.0
 10
-11.40610236220472
 20
3.473433070866142
 30
0.0
 10
-11.37924015748031
 20
3.500299212598425
 30
0.0
 10
-11.37924015748031
 20
3.533433070866142
 30
0.0
  0
SPLINE
  5
7E
330
1F
100
AcDbEntity
  8
Layer 1
 62
     1
370
     9
100
AcDbSpline
210
0.0
220
0.0
230
1.0
 70
    11
 71
     3
 72
    20
 73
    16
 74
     0
 42
0.0000000001
 43
0.0000000001
 40
0.0
 40
0.0
 40
0.0
 40
0.0
 40
0.2
 40
0.2
 40
0.2
 40
0.2
 40
0.4
 40
0.4
 40
0.4
 40
0.4
 40
0.6
 40
0.6
 40
0.6
 40
0.6
 40
1.0
 40
1.0
 40
1.0
 40
1.0
 10
-15.17224015748032
 20
4.230433070866142
 30
0.0
 10
-15.17224015748032
 20
4.263570866141732
 30
0.0
 10
-15.19910236220472
 20
4.290433070866142
 30
0.0
 10
-15.23223622047244
 20
4.290433070866142
 30
0.0
 10
-15.23223622047244
 20
4.290433070866142
 30
0.0
 10
-15.26537401574803
 20
4.290437007874016
 30
0.0
 10
-15.29223622047244
 20
4.263570866141732
 30
0.0
 10
-15.29224015748031
 20
4.230437007874015
 30
0.0
 10
-15.29224015748031
 20
4.230437007874015
 30
0.0
 10
-15.29224015748031
 20
4.197299212598425
 30
0.0
 10
-15.26537401574803
 20
4.170437007874016
 30
0.0
 10
-15.23224015748031
 20
4.170433070866141
 30
0.0
 10
-15.23224015748031
 20
4.170433070866141
 30
0.0
 10
-15.19910236220472
 20
4.170433070866141
 30
0.0
 10
-15.17224015748032
 20
4.197299212598425
 30
0.0
 10
-15.17224015748032
 20
4.230433070866142
 30
0.0
  0
SPLINE
  5
7F
330
1F
100
AcDbEntity
  8
Layer 1
 62
     1
370
     9
100
AcDbSpline
210
0.0
220
0.0
230
1.0
 70
    11
 71
     3
 72
    20
 73
    16
 74
     0
 42
0.0000000001
 43
0.0000000001
 40
0.0
 40
0.0
 40
0.0
 40
0.0
 40
0.2
 40
0.2
 40
0.2
 40
0.2
 40
0.4
 40
0.4
 40
0.4
 40
0.4
 40
0.6
 40
0.6
 40
0.6
 40
0.6
 40
1.0
 40
1.0
 40
1.0
 40
1.0
 10
-12.70224015748031
 20
6.138433070866141
 30
0.0
 10
-12.70224015748031
 20
6.171570866141733
 30
0.0
 10
-12.72910236220472
 20
6.198433070866142
 30
0.0
 10
-12.76223622047244
 20
6.198433070866142
 30
0.0
 10
-12.76223622047244
 20
6.198433070866142
 30
0.0
 10
-12.79537401574803
 20
6.198437007874015
 30
0.0
 10
-12.82223622047244
 20
6.171570866141733
 30
0.0
 10
-12.82224015748032
 20
6.138437007874016
 30
0.0
 10
-12.82224015748032
 20
6.138437007874016
 30
0.0
 10
-12.82224015748032
 20
6.105299212598426
 30
0.0
 10
-12.79537401574803
 20
6.078437007874015
 30
0.0
 10
-12.76224015748032
 20
6.078433070866142
 30
0.0
 10
-12.76224015748032
 20
6.078433070866142
 30
0.0
 10
-12.72910236220472
 20
6.078433070866142
 30
0.0
 10
-12.70224015748031
 20
6.105299212598426
 30
0.0
 10
-12.70224015748031
 20
6.138433070866141
 30
0.0
  0
SPLINE
  5
80
330
1F
100
AcDbEntity
  8
Layer 1
 62
     1
370
     9
100
AcDbSpline
210
0.0
220
0.0
230
1.0
 70
    11
 71
     3
 72
    20
 73
    16
 74
     0
 42
0.0000000001
 43
0.0000000001
 40
0.0
 40
0.0
 40
0.0
 40
0.0
 40
0.2
 40
0.2
 40
0.2
 40
0.2
 40
0.4
 40
0.4
 40
0.4
 40
0.4
 40
0.6
 40
0.6
 40
0.6
 40
0.6
 40
1.0
 40
1.0
 40
1.0
 40
1.0
 10
-15.14724015748032
 20
8.282433070866142
 30
0.0
 10
-15.14724015748032
 20
8.315570866141732
 30
0.0
 10
-15.17410236220472
 20
8.342433070866141
 30
0.0
 10
-15.20723622047244
 20
8.342433070866141
 30
0.0
 10
-15.20723622047244
 20
8.342433070866141
 30
0.0
 10
-15.24037401574803
 20
8.342437007874016
 30
0.0
 10
-15.26723622047244
 20
8.315570866141732
 30
0.0
 10
-15.26724015748031
 20
8.282437007874016
 30
0.0
 10
-15.26724015748031
 20
8.282437007874016
 30
0.0
 10
-15.26724015748031
 20
8.249299212598425
 30
0.0
 10
-15.24037401574803
 20
8.222437007874015
 30
0.0
 10
-15.20724015748032
 20
8.222433070866142
 30
0.0
 10
-15.20724015748032
 20
8.222433070866142
 30
0.0
 10
-15.17410236220472
 20
8.222433070866142
 30
0.0
 10
-15.14724015748032
 20
8.249299212598425
 30
0.0
 10
-15.14724015748032
 20
8.282433070866142
 30
0.0
  0
SPLINE
  5
81
330
1F
100
AcDbEntity
  8
Layer 1
 62
     1
370
     9
100
AcDbSpline
210
0.0
220
0.0
230
1.0
 70
    11
 71
     3
 72
    20
 73
    16
 74
     0
 42
0.0000000001
 43
0.0000000001
 40
0.0
 40
0.0
 40
0.0
 40
0.0
 40
0.2
 40
0.2
 40
0.2
 40
0.2
 40
0.4
 40
0.4
 40
0.4
 40
0.4
 40
0.6
 40
0.6
 40
0.6
 40
0.6
 40
1.0
 40
1.0
 40
1.0
 40
1.0
 10
-11.88224015748031
 20
8.282433070866142
 30
0.0
 10
-11.88224015748031
 20
8.315570866141732
 30
0.0
 10
-11.90910236220472
 20
8.342433070866141
 30
0.0
 10
-11.94223622047244
 20
8.342433070866141
 30
0.0
 10
-11.94223622047244
 20
8.342433070866141
 30
0.0
 10
-11.97537401574803
 20
8.342437007874016
 30
0.0
 10
-12.00223622047244
 20
8.315570866141732
 30
0.0
 10
-12.00224015748032
 20
8.282437007874016
 30
0.0
 10
-12.00224015748032
 20
8.282437007874016
 30
0.0
 10
-12.00224015748032
 20
8.249299212598425
 30
0.0
 10
-11.97537401574803
 20
8.222437007874015
 30
0.0
 10
-11.94224015748031
 20
8.222433070866142
 30
0.0
 10
-11.94224015748031
 20
8.222433070866142
 30
0.0
 10
-11.90910236220472
 20
8.222433070866142
 30
0.0
 10
-11.88224015748031
 20
8.249299212598425
 30
0.0
 10
-11.88224015748031
 20
8.282433070866142
 30
0.0
  0
SPLINE
  5
82
330
1F
100
AcDbEntity
  8
Layer 1
 62
     1
370
     9
100
AcDbSpline
210
0.0
220
0.0
230
1.0
 70
    11
 71
     3
 72
    20
 73
    16
 74
     0
 42
0.0000000001
 43
0.0000000001
 40
0.0
 40
0.0
 40
0.0
 40
0.0
 40
0.2
 40
0.2
 40
0.2
 40
0.2
 40
0.4
 40
0.4
 40
0.4
 40
0.4
 40
0.6
 40
0.6
 40
0.6
 40
0.6
 40
1.0
 40
1.0
 40
1.0
 40
1.0
 10
-9.882240157480314
 20
8.282433070866142
 30
0.0
 10
-9.882240157480314
 20
8.315570866141732
 30
0.0
 10
-9.909102362204724
 20
8.342433070866141
 30
0.0
 10
-9.942236220472441
 20
8.342433070866141
 30
0.0
 10
-9.942236220472441
 20
8.342433070866141
 30
0.0
 10
-9.97537401574803
 20
8.342437007874016
 30
0.0
 10
-10.00223622047244
 20
8.315570866141732
 30
0.0
 10
-10.00224015748032
 20
8.282437007874016
 30
0.0
 10
-10.00224015748032
 20
8.282437007874016
 30
0.0
 10
-10.00224015748032
 20
8.249299212598425
 30
0.0
 10
-9.97537401574803
 20
8.222437007874015
 30
0.0
 10
-9.942240157480315
 20
8.222433070866142
 30
0.0
 10
-9.942240157480315
 20
8.222433070866142
 30
0.0
 10
-9.909102362204724
 20
8.222433070866142
 30
0.0
 10
-9.882240157480314
 20
8.249299212598425
 30
0.0
 10
-9.882240157480314
 20
8.282433070866142
 30
0.0
  0
SPLINE
  5
83
330
1F
100
AcDbEntity
  8
Layer 1
 62
     1
370
     9
100
AcDbSpline
210
0.0
220
0.0
230
1.0
 70
    24
 71
     3
 72
     8
 73
     4
 74
     0
 42
0.0000000001
 43
0.0000000001
 40
0.0
 40
0.0
 40
0.0
 40
0.0
 40
1.0
 40
1.0
 40
1.0
 40
1.0
 10
-10.42881889763779
 20
8.032551181102361
 30
0.0
 10
-10.42881889763779
 20
8.032551181102361
 30
0.0
 10
-10.9316062992126
 20
8.032551181102361
 30
0.0
 10
-10.9316062992126
 20
8.032551181102361
 30
0.0
  0
SPLINE
  5
84
330
1F
100
AcDbEntity
  8
Layer 1
 62
     1
370
     9
100
AcDbSpline
210
0.0
220
0.0
230
1.0
 70
    24
 71
     3
 72
     8
 73
     4
 74
     0
 42
0.0000000001
 43
0.0000000001
 40
0.0
 40
0.0
 40
0.0
 40
0.0
 40
1.0
 40
1.0
 40
1.0
 40
1.0
 10
-10.83379527559055
 20
8.623133858267716
 30
0.0
 10
-10.83379527559055
 20
8.623133858267716
 30
0.0
 10
-11.38024015748032
 20
8.824433070866142
 30
0.0
 10
-11.38024015748032
 20
8.824433070866142
 30
0.0
  0
SPLINE
  5
85
330
1F
100
AcDbEntity
  8
Layer 1
 62
     1
370
     9
100
AcDbSpline
210
0.0
220
0.0
230
1.0
 70
    11
 71
     3
 72
    20
 73
    16
 74
     0
 42
0.0000000001
 43
0.0000000001
 40
0.0
 40
0.0
 40
0.0
 40
0.0
 40
0.2
 40
0.2
 40
0.2
 40
0.2
 40
0.4
 40
0.4
 40
0.4
 40
0.4
 40
0.6
 40
0.6
 40
0.6
 40
0.6
 40
1.0
 40
1.0
 40
1.0
 40
1.0
 10
-11.69668503937008
 20
8.649433070866142
 30
0.0
 10
-11.69668503937008
 20
8.682051181102363
 30
0.0
 10
-11.72312204724409
 20
8.708488188976379
 30
0.0
 10
-11.75574015748031
 20
8.708488188976379
 30
0.0
 10
-11.75574015748031
 20
8.708488188976379
 30
0.0
 10
-11.78835433070866
 20
8.708492125984252
 30
0.0
 10
-11.81479133858268
 20
8.682051181102363
 30
0.0
 10
-11.81479527559055
 20
8.649437007874015
 30
0.0
 10
-11.81479527559055
 20
8.649437007874015
 30
0.0
 10
-11.81479527559055
 20
8.616818897637796
 30
0.0
 10
-11.78835433070866
 20
8.59038188976378
 30
0.0
 10
-11.75574015748031
 20
8.590377952755906
 30
0.0
 10
-11.75574015748031
 20
8.590377952755906
 30
0.0
 10
-11.72312204724409
 20
8.590377952755906
 30
0.0
 10
-11.69668503937008
 20
8.616818897637796
 30
0.0
 10
-11.69668503937008
 20
8.649433070866142
 30
0.0
  0
SPLINE
  5
86
330
1F
100
AcDbEntity
  8
Layer 1
 62
     1
370
     9
100
AcDbSpline
210
0.0
220
0.0
230
1.0
 70
    11
 71
     3
 72
    20
 73
    16
 74
     0
 42
0.0000000001
 43
0.0000000001
 40
0.0
 40
0.0
 40
0.0
 40
0.0
 40
0.2
 40
0.2
 40
0.2
 40
0.2
 40
0.4
 40
0.4
 40
0.4
 40
0.4
 40
0.6
 40
0.6
 40
0.6
 40
0.6
 40
1.0
 40
1.0
 40
1.0
 40
1.0
 10
-9.591043307086615
 20
8.57782283464567
 30
0.0
 10
-9.591043307086615
 20
8.610437007874015
 30
0.0
 10
-9.617484251968504
 20
8.636877952755906
 30
0.0
 10
-9.65009842519685
 20
8.636877952755906
 30
0.0
 10
-9.65009842519685
 20
8.636877952755906
 30
0.0
 10
-9.682712598425196
 20
8.636877952755906
 30
0.0
 10
-9.709153543307087
 20
8.610437007874015
 30
0.0
 10
-9.709153543307087
 20
8.57782283464567
 30
0.0
 10
-9.709153543307087
 20
8.57782283464567
 30
0.0
 10
-9.709153543307087
 20
8.545208661417323
 30
0.0
 10
-9.682716535433071
 20
8.518767716535432
 30
0.0
 10
-9.65009842519685
 20
8.518767716535432
 30
0.0
 10
-9.65009842519685
 20
8.518767716535432
 30
0.0
 10
-9.617484251968504
 20
8.518767716535432
 30
0.0
 10
-9.591043307086615
 20
8.545204724409448
 30
0.0
 10
-9.591043307086615
 20
8.57782283464567
 30
0.0
  0
SPLINE
  5
87
330
1F
100
AcDbEntity
  8
Layer 1
 62
     1
370
     9
100
AcDbSpline
210
0.0
220
0.0
230
1.0
 70
    24
 71
     3
 72
     8
 73
     4
 74
     0
 42
0.0000000001
 43
0.0000000001
 40
0.0
 40
0.0
 40
0.0
 40
0.0
 40
1.0
 40
1.0
 40
1.0
 40
1.0
 10
-9.403240157480315
 20
8.548842519685039
 30
0.0
 10
-9.403240157480315
 20
8.548842519685039
 30
0.0
 10
-9.403240157480315
 20
5.442988188976378
 30
0.0
 10
-9.403240157480315
 20
5.442988188976378
 30
0.0
  0
SPLINE
  5
88
330
1F
100
AcDbEntity
  8
Layer 1
 62
     1
370
     9
100
AcDbSpline
210
0.0
220
0.0
230
1.0
 70
     8
 71
     3
 72
    12
 73
     8
 74
     0
 42
0.0000000001
 43
0.0000000001
 40
0.0
 40
0.0
 40
0.0
 40
0.0
 40
0.3333333333333333
 40
0.3333333333333333
 40
0.3333333333333333
 40
0.3333333333333333
 40
1.0
 40
1.0
 40
1.0
 40
1.0
 10
-9.403240157480315
 20
8.548842519685039
 30
0.0
 10
-9.403240157480315
 20
8.621933070866142
 30
0.0
 10
-9.432275590551182
 20
8.692027559055118
 30
0.0
 10
-9.483956692913386
 20
8.743712598425196
 30
0.0
 10
-9.483956692913386
 20
8.743712598425196
 30
0.0
 10
-9.535641732283464
 20
8.795397637795276
 30
0.0
 10
-9.605740157480316
 20
8.824433070866142
 30
0.0
 10
-9.678830708661417
 20
8.824433070866142
 30
0.0
  0
SPLINE
  5
89
330
1F
100
AcDbEntity
  8
Layer 1
 62
     1
370
     9
100
AcDbSpline
210
0.0
220
0.0
230
1.0
 70
     8
 71
     3
 72
    12
 73
     8
 74
     0
 42
0.0000000001
 43
0.0000000001
 40
0.0
 40
0.0
 40
0.0
 40
0.0
 40
0.3333333333333333
 40
0.3333333333333333
 40
0.3333333333333333
 40
0.3333333333333333
 40
1.0
 40
1.0
 40
1.0
 40
1.0
 10
-15.74524015748032
 20
3.650023622047244
 30
0.0
 10
-15.74524015748032
 20
3.576929133858268
 30
0.0
 10
-15.71620472440945
 20
3.506834645669291
 30
0.0
 10
-15.66451968503937
 20
3.455149606299213
 30
0.0
 10
-15.66451968503937
 20
3.455149606299213
 30
0.0
 10
-15.61283858267717
 20
3.403468503937008
 30
0.0
 10
-15.54274015748032
 20
3.374433070866142
 30
0.0
 10
-15.46964960629921
 20
3.374433070866142
 30
0.0
  0
SPLINE
  5
8A
330
1F
100
AcDbEntity
  8
Layer 1
 62
     1
370
     9
100
AcDbSpline
210
0.0
220
0.0
230
1.0
 70
     8
 71
     3
 72
     8
 73
     4
 74
     0
 42
0.0000000001
 43
0.0000000001
 40
0.0
 40
0.0
 40
0.0
 40
0.0
 40
1.0
 40
1.0
 40
1.0
 40
1.0
 10
-9.183877952755905
 20
1.888173228346457
 30
0.0
 10
-9.045937007874016
 20
1.82386220472441
 30
0.0
 10
-8.88198031496063
 20
1.883543307086614
 30
0.0
 10
-8.81765748031496
 20
2.02148031496063
 30
0.0
  0
SPLINE
  5
8B
330
1F
100
AcDbEntity
  8
Layer 1
 62
     1
370
     9
100
AcDbSpline
210
0.0
220
0.0
230
1.0
 70
     8
 71
     3
 72
    12
 73
     8
 74
     0
 42
0.0000000001
 43
0.0000000001
 40
0.0
 40
0.0
 40
0.0
 40
0.0
 40
0.3333333333333333
 40
0.3333333333333333
 40
0.3333333333333333
 40
0.3333333333333333
 40
1.0
 40
1.0
 40
1.0
 40
1.0
 10
-7.795437007874016
 20
4.213657480314961
 30
0.0
 10
-7.764547244094488
 20
4.27990157480315
 30
0.0
 10
-7.761240157480315
 20
4.355704724409449
 30
0.0
 10
-7.786240157480315
 20
4.424389763779527
 30
0.0
 10
-7.786240157480315
 20
4.424389763779527
 30
0.0
 10
-7.811240157480315
 20
4.493070866141732
 30
0.0
 10
-7.8625
 20
4.549011811023622
 30
0.0
 10
-7.928744094488189
 20
4.57990157480315
 30
0.0
  0
SPLINE
  5
8C
330
1F
100
AcDbEntity
  8
Layer 1
 62
     1
370
     9
100
AcDbSpline
210
0.0
220
0.0
230
1.0
 70
     8
 71
     3
 72
     8
 73
     4
 74
     0
 42
0.0000000001
 43
0.0000000001
 40
0.0
 40
0.0
 40
0.0
 40
0.0
 40
1.0
 40
1.0
 40
1.0
 40
1.0
 10
-9.403240157480315
 20
5.442988188976378
 30
0.0
 10
-9.403240157480315
 20
5.33588188976378
 30
0.0
 10
-9.341185039370078
 20
5.238476377952756
 30
0.0
 10
-9.244110236220472
 20
5.193212598425196
 30
0.0
  0
SPLINE
  5
8D
330
1F
100
AcDbEntity
  8
Layer 1
 62
     1
370
     9
100
AcDbSpline
210
0.0
220
0.0
230
1.0
 70
    24
 71
     3
 72
     8
 73
     4
 74
     0
 42
0.0000000001
 43
0.0000000001
 40
0.0
 40
0.0
 40
0.0
 40
0.0
 40
1.0
 40
1.0
 40
1.0
 40
1.0
 10
-15.46964960629921
 20
8.824433070866142
 30
0.0
 10
-15.46964960629921
 20
8.824433070866142
 30
0.0
 10
-11.38024015748032
 20
8.824433070866142
 30
0.0
 10
-11.38024015748032
 20
8.824433070866142
 30
0.0
  0
SPLINE
  5
8E
330
1F
100
AcDbEntity
  8
Layer 1
 62
     1
370
     9
100
AcDbSpline
210
0.0
220
0.0
230
1.0
 70
     8
 71
     3
 72
     8
 73
     4
 74
     0
 42
0.0000000001
 43
0.0000000001
 40
0.0
 40
0.0
 40
0.0
 40
0.0
 40
1.0
 40
1.0
 40
1.0
 40
1.0
 10
-12.31647637795276
 20
3.348618110236221
 30
0.0
 10
-12.35294094488189
 20
3.365622047244095
 30
0.0
 10
-12.39268897637795
 20
3.374433070866142
 30
0.0
 10
-12.43292519685039
 20
3.374433070866142
 30
0.0
  0
SPLINE
  5
8F
330
1F
100
AcDbEntity
  8
Layer 1
 62
     1
370
     9
100
AcDbSpline
210
0.0
220
0.0
230
1.0
 70
    11
 71
     3
 72
    20
 73
    16
 74
     0
 42
0.0000000001
 43
0.0000000001
 40
0.0
 40
0.0
 40
0.0
 40
0.0
 40
0.2
 40
0.2
 40
0.2
 40
0.2
 40
0.4
 40
0.4
 40
0.4
 40
0.4
 40
0.6
 40
0.6
 40
0.6
 40
0.6
 40
1.0
 40
1.0
 40
1.0
 40
1.0
 10
-7.947661417322835
 20
4.344133858267717
 30
0.0
 10
-7.947661417322835
 20
4.376751968503937
 30
0.0
 10
-7.974098425196851
 20
4.403188976377953
 30
0.0
 10
-8.006716535433071
 20
4.403188976377953
 30
0.0
 10
-8.006716535433071
 20
4.403188976377953
 30
0.0
 10
-8.039330708661417
 20
4.403188976377953
 30
0.0
 10
-8.065771653543306
 20
4.376751968503937
 30
0.0
 10
-8.065771653543306
 20
4.344133858267717
 30
0.0
 10
-8.065771653543306
 20
4.344133858267717
 30
0.0
 10
-8.065771653543306
 20
4.31151968503937
 30
0.0
 10
-8.039330708661417
 20
4.285078740157481
 30
0.0
 10
-8.006716535433071
 20
4.285078740157481
 30
0.0
 10
-8.006716535433071
 20
4.285078740157481
 30
0.0
 10
-7.974098425196851
 20
4.285078740157481
 30
0.0
 10
-7.947661417322835
 20
4.31151968503937
 30
0.0
 10
-7.947661417322835
 20
4.344133858267717
 30
0.0
  0
SPLINE
  5
90
330
1F
100
AcDbEntity
  8
Layer 1
 62
     1
370
     9
100
AcDbSpline
210
0.0
220
0.0
230
1.0
 70
     8
 71
     3
 72
    20
 73
    16
 74
     0
 42
0.0000000001
 43
0.0000000001
 40
0.0
 40
0.0
 40
0.0
 40
0.0
 40
0.2
 40
0.2
 40
0.2
 40
0.2
 40
0.4
 40
0.4
 40
0.4
 40
0.4
 40
0.6
 40
0.6
 40
0.6
 40
0.6
 40
1.0
 40
1.0
 40
1.0
 40
1.0
 10
-8.994370078740157
 20
2.099409448818898
 30
0.0
 10
-8.994370078740157
 20
2.132023622047244
 30
0.0
 10
-9.020811023622047
 20
2.158464566929134
 30
0.0
 10
-9.053425196850394
 20
2.158464566929134
 30
0.0
 10
-9.053425196850394
 20
2.158464566929134
 30
0.0
 10
-9.08603937007874
 20
2.158464566929134
 30
0.0
 10
-9.11248031496063
 20
2.132023622047244
 30
0.0
 10
-9.11248031496063
 20
2.099409448818898
 30
0.0
 10
-9.11248031496063
 20
2.099409448818898
 30
0.0
 10
-9.11248031496063
 20
2.066791338582677
 30
0.0
 10
-9.08603937007874
 20
2.040354330708662
 30
0.0
 10
-9.053425196850394
 20
2.040354330708662
 30
0.0
 10
-9.053425196850394
 20
2.040354330708662
 30
0.0
 10
-9.020811023622047
 20
2.040354330708662
 30
0.0
 10
-8.994370078740157
 20
2.066791338582677
 30
0.0
 10
-8.994370078740157
 20
2.099405511811024
 30
0.0
  0
SPLINE
  5
91
330
1F
100
AcDbEntity
  8
Layer 1
 62
     1
370
     9
100
AcDbSpline
210
0.0
220
0.0
230
1.0
 70
    24
 71
     3
 72
     8
 73
     4
 74
     0
 42
0.0000000001
 43
0.0000000001
 40
0.0
 40
0.0
 40
0.0
 40
0.0
 40
1.0
 40
1.0
 40
1.0
 40
1.0
 10
-9.244110236220472
 20
5.193212598425196
 30
0.0
 10
-9.244110236220472
 20
5.193212598425196
 30
0.0
 10
-7.928748031496063
 20
4.57990157480315
 30
0.0
 10
-7.928748031496063
 20
4.57990157480315
 30
0.0
  0
SPLINE
  5
92
330
1F
100
AcDbEntity
  8
Layer 1
 62
     1
370
     9
100
AcDbSpline
210
0.0
220
0.0
230
1.0
 70
     8
 71
     3
 72
    20
 73
    16
 74
     0
 42
0.0000000001
 43
0.0000000001
 40
0.0
 40
0.0
 40
0.0
 40
0.0
 40
0.2
 40
0.2
 40
0.2
 40
0.2
 40
0.4
 40
0.4
 40
0.4
 40
0.4
 40
0.6
 40
0.6
 40
0.6
 40
0.6
 40
1.0
 40
1.0
 40
1.0
 40
1.0
 10
-12.2739842519685
 20
3.549433070866142
 30
0.0
 10
-12.2739842519685
 20
3.582047244094488
 30
0.0
 10
-12.30042519685039
 20
3.608488188976378
 30
0.0
 10
-12.33303937007874
 20
3.608488188976378
 30
0.0
 10
-12.33303937007874
 20
3.608488188976378
 30
0.0
 10
-12.36565354330709
 20
3.608488188976378
 30
0.0
 10
-12.39209448818898
 20
3.582047244094488
 30
0.0
 10
-12.39209448818898
 20
3.549433070866142
 30
0.0
 10
-12.39209448818898
 20
3.549433070866142
 30
0.0
 10
-12.39209448818898
 20
3.516814960629921
 30
0.0
 10
-12.36565354330709
 20
3.490377952755905
 30
0.0
 10
-12.33303937007874
 20
3.490377952755905
 30
0.0
 10
-12.33303937007874
 20
3.490377952755905
 30
0.0
 10
-12.30042519685039
 20
3.490374015748031
 30
0.0
 10
-12.2739842519685
 20
3.516814960629921
 30
0.0
 10
-12.2739842519685
 20
3.549429133858268
 30
0.0
  0
SPLINE
  5
93
330
1F
100
AcDbEntity
  8
Layer 1
 62
     1
370
     9
100
AcDbSpline
210
0.0
220
0.0
230
1.0
 70
    24
 71
     3
 72
     8
 73
     4
 74
     0
 42
0.0000000001
 43
0.0000000001
 40
0.0
 40
0.0
 40
0.0
 40
0.0
 40
1.0
 40
1.0
 40
1.0
 40
1.0
 10
-7.795437007874016
 20
4.213657480314961
 30
0.0
 10
-7.795437007874016
 20
4.213657480314961
 30
0.0
 10
-8.81765748031496
 20
2.02148031496063
 30
0.0
 10
-8.81765748031496
 20
2.02148031496063
 30
0.0
  0
SPLINE
  5
94
330
1F
100
AcDbEntity
  8
Layer 1
 62
     1
370
     9
100
AcDbSpline
210
0.0
220
0.0
230
1.0
 70
    11
 71
     3
 72
    20
 73
    16
 74
     0
 42
0.0000000001
 43
0.0000000001
 40
0.0
 40
0.0
 40
0.0
 40
0.0
 40
0.2
 40
0.2
 40
0.2
 40
0.2
 40
0.4
 40
0.4
 40
0.4
 40
0.4
 40
0.6
 40
0.6
 40
0.6
 40
0.6
 40
1.0
 40
1.0
 40
1.0
 40
1.0
 10
-15.43957480314961
 20
3.68353937007874
 30
0.0
 10
-15.43957480314961
 20
3.716157480314961
 30
0.0
 10
-15.4660157480315
 20
3.742594488188976
 30
0.0
 10
-15.49862992125984
 20
3.742594488188976
 30
0.0
 10
-15.49862992125984
 20
3.742594488188976
 30
0.0
 10
-15.53124409448819
 20
3.742594488188976
 30
0.0
 10
-15.55768503937008
 20
3.716157480314961
 30
0.0
 10
-15.55768503937008
 20
3.68353937007874
 30
0.0
 10
-15.55768503937008
 20
3.68353937007874
 30
0.0
 10
-15.55768503937008
 20
3.650925196850394
 30
0.0
 10
-15.53124803149606
 20
3.624484251968504
 30
0.0
 10
-15.49862992125984
 20
3.624484251968504
 30
0.0
 10
-15.49862992125984
 20
3.624484251968504
 30
0.0
 10
-15.4660157480315
 20
3.624484251968504
 30
0.0
 10
-15.43957480314961
 20
3.650925196850394
 30
0.0
 10
-15.43957480314961
 20
3.68353937007874
 30
0.0
  0
SPLINE
  5
95
330
1F
100
AcDbEntity
  8
Layer 1
 62
     1
370
     9
100
AcDbSpline
210
0.0
220
0.0
230
1.0
 70
    24
 71
     3
 72
     8
 73
     4
 74
     0
 42
0.0000000001
 43
0.0000000001
 40
0.0
 40
0.0
 40
0.0
 40
0.0
 40
1.0
 40
1.0
 40
1.0
 40
1.0
 10
-10.42882283464567
 20
8.465622047244095
 30
0.0
 10
-10.42882283464567
 20
8.465622047244095
 30
0.0
 10
-10.42882283464567
 20
8.564047244094489
 30
0.0
 10
-10.42882283464567
 20
8.564047244094489
 30
0.0
  0
SPLINE
  5
96
330
1F
100
AcDbEntity
  8
Layer 1
 62
     1
370
     9
100
AcDbSpline
210
0.0
220
0.0
230
1.0
 70
    24
 71
     3
 72
     8
 73
     4
 74
     0
 42
0.0000000001
 43
0.0000000001
 40
0.0
 40
0.0
 40
0.0
 40
0.0
 40
1.0
 40
1.0
 40
1.0
 40
1.0
 10
-10.93161023622047
 20
8.564047244094489
 30
0.0
 10
-10.93161023622047
 20
8.564047244094489
 30
0.0
 10
-10.93161023622047
 20
8.424566929133858
 30
0.0
 10
-10.93161023622047
 20
8.424566929133858
 30
0.0
  0
SPLINE
  5
97
330
1F
100
AcDbEntity
  8
Layer 1
 62
     1
370
     9
100
AcDbSpline
210
0.0
220
0.0
230
1.0
 70
    24
 71
     3
 72
     8
 73
     4
 74
     0
 42
0.0000000001
 43
0.0000000001
 40
0.0
 40
0.0
 40
0.0
 40
0.0
 40
1.0
 40
1.0
 40
1.0
 40
1.0
 10
-10.42882283464567
 20
8.032551181102361
 30
0.0
 10
-10.42882283464567
 20
8.032551181102361
 30
0.0
 10
-10.42882283464567
 20
8.152350393700788
 30
0.0
 10
-10.42882283464567
 20
8.152350393700788
 30
0.0
  0
SPLINE
  5
98
330
1F
100
AcDbEntity
  8
Layer 1
 62
     1
370
     9
100
AcDbSpline
210
0.0
220
0.0
230
1.0
 70
    24
 71
     3
 72
     8
 73
     4
 74
     0
 42
0.0000000001
 43
0.0000000001
 40
0.0
 40
0.0
 40
0.0
 40
0.0
 40
1.0
 40
1.0
 40
1.0
 40
1.0
 10
-9.998240157480314
 20
8.824433070866142
 30
0.0
 10
-9.998240157480314
 20
8.824433070866142
 30
0.0
 10
-10.54468503937008
 20
8.623133858267716
 30
0.0
 10
-10.54468503937008
 20
8.623133858267716
 30
0.0
  0
SPLINE
  5
99
330
1F
100
AcDbEntity
  8
Layer 1
 62
     1
370
     9
100
AcDbSpline
210
0.0
220
0.0
230
1.0
 70
    24
 71
     3
 72
     8
 73
     4
 74
     0
 42
0.0000000001
 43
0.0000000001
 40
0.0
 40
0.0
 40
0.0
 40
0.0
 40
1.0
 40
1.0
 40
1.0
 40
1.0
 10
-10.93161023622047
 20
8.424566929133858
 30
0.0
 10
-10.93161023622047
 20
8.424566929133858
 30
0.0
 10
-11.04957480314961
 20
8.424566929133858
 30
0.0
 10
-11.04957480314961
 20
8.424566929133858
 30
0.0
  0
SPLINE
  5
9A
330
1F
100
AcDbEntity
  8
Layer 1
 62
     1
370
     9
100
AcDbSpline
210
0.0
220
0.0
230
1.0
 70
    24
 71
     3
 72
     8
 73
     4
 74
     0
 42
0.0000000001
 43
0.0000000001
 40
0.0
 40
0.0
 40
0.0
 40
0.0
 40
1.0
 40
1.0
 40
1.0
 40
1.0
 10
-10.93161023622047
 20
8.111291338582678
 30
0.0
 10
-10.93161023622047
 20
8.111291338582678
 30
0.0
 10
-10.93161023622047
 20
8.032551181102361
 30
0.0
 10
-10.93161023622047
 20
8.032551181102361
 30
0.0
  0
SPLINE
  5
9B
330
1F
100
AcDbEntity
  8
Layer 1
 62
     1
370
     9
100
AcDbSpline
210
0.0
220
0.0
230
1.0
 70
    24
 71
     3
 72
     8
 73
     4
 74
     0
 42
0.0000000001
 43
0.0000000001
 40
0.0
 40
0.0
 40
0.0
 40
0.0
 40
1.0
 40
1.0
 40
1.0
 40
1.0
 10
-11.04954330708661
 20
8.111216535433071
 30
0.0
 10
-11.04954330708661
 20
8.111216535433071
 30
0.0
 10
-11.04957480314961
 20
8.424566929133858
 30
0.0
 10
-11.04957480314961
 20
8.424566929133858
 30
0.0
  0
SPLINE
  5
9C
330
1F
100
AcDbEntity
  8
Layer 1
 62
     1
370
     9
100
AcDbSpline
210
0.0
220
0.0
230
1.0
 70
    24
 71
     3
 72
     8
 73
     4
 74
     0
 42
0.0000000001
 43
0.0000000001
 40
0.0
 40
0.0
 40
0.0
 40
0.0
 40
1.0
 40
1.0
 40
1.0
 40
1.0
 10
-10.42882283464567
 20
8.465622047244095
 30
0.0
 10
-10.42882283464567
 20
8.465622047244095
 30
0.0
 10
-10.31085433070866
 20
8.465622047244095
 30
0.0
 10
-10.31085433070866
 20
8.465622047244095
 30
0.0
  0
SPLINE
  5
9D
330
1F
100
AcDbEntity
  8
Layer 1
 62
     1
370
     9
100
AcDbSpline
210
0.0
220
0.0
230
1.0
 70
    24
 71
     3
 72
     8
 73
     4
 74
     0
 42
0.0000000001
 43
0.0000000001
 40
0.0
 40
0.0
 40
0.0
 40
0.0
 40
1.0
 40
1.0
 40
1.0
 40
1.0
 10
-10.93161023622047
 20
8.111291338582678
 30
0.0
 10
-10.93161023622047
 20
8.111291338582678
 30
0.0
 10
-11.04954330708661
 20
8.111216535433071
 30
0.0
 10
-11.04954330708661
 20
8.111216535433071
 30
0.0
  0
SPLINE
  5
9E
330
1F
100
AcDbEntity
  8
Layer 1
 62
     1
370
     9
100
AcDbSpline
210
0.0
220
0.0
230
1.0
 70
    24
 71
     3
 72
     8
 73
     4
 74
     0
 42
0.0000000001
 43
0.0000000001
 40
0.0
 40
0.0
 40
0.0
 40
0.0
 40
1.0
 40
1.0
 40
1.0
 40
1.0
 10
-10.31088582677165
 20
8.152271653543307
 30
0.0
 10
-10.31088582677165
 20
8.152271653543307
 30
0.0
 10
-10.31085433070866
 20
8.465622047244095
 30
0.0
 10
-10.31085433070866
 20
8.465622047244095
 30
0.0
  0
SPLINE
  5
9F
330
1F
100
AcDbEntity
  8
Layer 1
 62
     1
370
     9
100
AcDbSpline
210
0.0
220
0.0
230
1.0
 70
    24
 71
     3
 72
     8
 73
     4
 74
     0
 42
0.0000000001
 43
0.0000000001
 40
0.0
 40
0.0
 40
0.0
 40
0.0
 40
1.0
 40
1.0
 40
1.0
 40
1.0
 10
-10.42882283464567
 20
8.152350393700788
 30
0.0
 10
-10.42882283464567
 20
8.152350393700788
 30
0.0
 10
-10.31088582677165
 20
8.152271653543307
 30
0.0
 10
-10.31088582677165
 20
8.152271653543307
 30
0.0
  0
SPLINE
  5
A0
330
1F
100
AcDbEntity
  8
Layer 1
 62
     1
370
     9
100
AcDbSpline
210
0.0
220
0.0
230
1.0
 70
    24
 71
     3
 72
     8
 73
     4
 74
     0
 42
0.0000000001
 43
0.0000000001
 40
0.0
 40
0.0
 40
0.0
 40
0.0
 40
1.0
 40
1.0
 40
1.0
 40
1.0
 10
-10.56661811023622
 20
8.623133858267716
 30
0.0
 10
-10.56661811023622
 20
8.623133858267716
 30
0.0
 10
-10.54468503937008
 20
8.623133858267716
 30
0.0
 10
-10.54468503937008
 20
8.623133858267716
 30
0.0
  0
SPLINE
  5
A1
330
1F
100
AcDbEntity
  8
Layer 1
 62
     1
370
     9
100
AcDbSpline
210
0.0
220
0.0
230
1.0
 70
    24
 71
     3
 72
     8
 73
     4
 74
     0
 42
0.0000000001
 43
0.0000000001
 40
0.0
 40
0.0
 40
0.0
 40
0.0
 40
1.0
 40
1.0
 40
1.0
 40
1.0
 10
-10.83379527559055
 20
8.623133858267716
 30
0.0
 10
-10.83379527559055
 20
8.623133858267716
 30
0.0
 10
-10.80283858267716
 20
8.623133858267716
 30
0.0
 10
-10.80283858267716
 20
8.623133858267716
 30
0.0
  0
SPLINE
  5
A2
330
1F
100
AcDbEntity
  8
Layer 1
 62
     1
370
     9
100
AcDbSpline
210
0.0
220
0.0
230
1.0
 70
    24
 71
     3
 72
     8
 73
     4
 74
     0
 42
0.0000000001
 43
0.0000000001
 40
0.0
 40
0.0
 40
0.0
 40
0.0
 40
1.0
 40
1.0
 40
1.0
 40
1.0
 10
-10.56661811023622
 20
8.564047244094489
 30
0.0
 10
-10.56661811023622
 20
8.564047244094489
 30
0.0
 10
-10.42882283464567
 20
8.564047244094489
 30
0.0
 10
-10.42882283464567
 20
8.564047244094489
 30
0.0
  0
SPLINE
  5
A3
330
1F
100
AcDbEntity
  8
Layer 1
 62
     1
370
     9
100
AcDbSpline
210
0.0
220
0.0
230
1.0
 70
    24
 71
     3
 72
     8
 73
     4
 74
     0
 42
0.0000000001
 43
0.0000000001
 40
0.0
 40
0.0
 40
0.0
 40
0.0
 40
1.0
 40
1.0
 40
1.0
 40
1.0
 10
-10.93161023622047
 20
8.564047244094489
 30
0.0
 10
-10.93161023622047
 20
8.564047244094489
 30
0.0
 10
-10.80283858267716
 20
8.564047244094489
 30
0.0
 10
-10.80283858267716
 20
8.564047244094489
 30
0.0
  0
SPLINE
  5
A4
330
1F
100
AcDbEntity
  8
Layer 1
 62
     1
370
     9
100
AcDbSpline
210
0.0
220
0.0
230
1.0
 70
    24
 71
     3
 72
     8
 73
     4
 74
     0
 42
0.0000000001
 43
0.0000000001
 40
0.0
 40
0.0
 40
0.0
 40
0.0
 40
1.0
 40
1.0
 40
1.0
 40
1.0
 10
-10.56661811023622
 20
8.623133858267716
 30
0.0
 10
-10.56661811023622
 20
8.623133858267716
 30
0.0
 10
-10.56661811023622
 20
8.564047244094489
 30
0.0
 10
-10.56661811023622
 20
8.564047244094489
 30
0.0
  0
SPLINE
  5
A5
330
1F
100
AcDbEntity
  8
Layer 1
 62
     1
370
     9
100
AcDbSpline
210
0.0
220
0.0
230
1.0
 70
    24
 71
     3
 72
     8
 73
     4
 74
     0
 42
0.0000000001
 43
0.0000000001
 40
0.0
 40
0.0
 40
0.0
 40
0.0
 40
1.0
 40
1.0
 40
1.0
 40
1.0
 10
-10.80283858267716
 20
8.564047244094489
 30
0.0
 10
-10.80283858267716
 20
8.564047244094489
 30
0.0
 10
-10.80283858267716
 20
8.623133858267716
 30
0.0
 10
-10.80283858267716
 20
8.623133858267716
 30
0.0
  0
SPLINE
  5
A6
330
1F
100
AcDbEntity
  8
Layer 1
 62
     1
370
     9
100
AcDbSpline
210
0.0
220
0.0
230
1.0
 70
    24
 71
     3
 72
     8
 73
     4
 74
     0
 42
0.0000000001
 43
0.0000000001
 40
0.0
 40
0.0
 40
0.0
 40
0.0
 40
1.0
 40
1.0
 40
1.0
 40
1.0
 10
-15.02446062992126
 20
8.302279527559055
 30
0.0
 10
-15.02446062992126
 20
8.302279527559055
 30
0.0
 10
-14.92603543307087
 20
8.302279527559055
 30
0.0
 10
-14.92603543307087
 20
8.302279527559055
 30
0.0
  0
SPLINE
  5
A7
330
1F
100
AcDbEntity
  8
Layer 1
 62
     1
370
     9
100
AcDbSpline
210
0.0
220
0.0
230
1.0
 70
    24
 71
     3
 72
     8
 73
     4
 74
     0
 42
0.0000000001
 43
0.0000000001
 40
0.0
 40
0.0
 40
0.0
 40
0.0
 40
1.0
 40
1.0
 40
1.0
 40
1.0
 10
-14.45359448818898
 20
8.302279527559055
 30
0.0
 10
-14.45359448818898
 20
8.302279527559055
 30
0.0
 10
-14.45359448818898
 20
8.38101968503937
 30
0.0
 10
-14.45359448818898
 20
8.38101968503937
 30
0.0
  0
SPLINE
  5
A8
330
1F
100
AcDbEntity
  8
Layer 1
 62
     1
370
     9
100
AcDbSpline
210
0.0
220
0.0
230
1.0
 70
    24
 71
     3
 72
     8
 73
     4
 74
     0
 42
0.0000000001
 43
0.0000000001
 40
0.0
 40
0.0
 40
0.0
 40
0.0
 40
1.0
 40
1.0
 40
1.0
 40
1.0
 10
-14.92603543307087
 20
8.302279527559055
 30
0.0
 10
-14.92603543307087
 20
8.302279527559055
 30
0.0
 10
-14.92603543307087
 20
8.38101968503937
 30
0.0
 10
-14.92603543307087
 20
8.38101968503937
 30
0.0
  0
SPLINE
  5
A9
330
1F
100
AcDbEntity
  8
Layer 1
 62
     1
370
     9
100
AcDbSpline
210
0.0
220
0.0
230
1.0
 70
    24
 71
     3
 72
     8
 73
     4
 74
     0
 42
0.0000000001
 43
0.0000000001
 40
0.0
 40
0.0
 40
0.0
 40
0.0
 40
1.0
 40
1.0
 40
1.0
 40
1.0
 10
-14.92603543307087
 20
8.38101968503937
 30
0.0
 10
-14.92603543307087
 20
8.38101968503937
 30
0.0
 10
-14.45359448818898
 20
8.38101968503937
 30
0.0
 10
-14.45359448818898
 20
8.38101968503937
 30
0.0
  0
SPLINE
  5
AA
330
1F
100
AcDbEntity
  8
Layer 1
 62
     1
370
     9
100
AcDbSpline
210
0.0
220
0.0
230
1.0
 70
     8
 71
     3
 72
    12
 73
     8
 74
     0
 42
0.0000000001
 43
0.0000000001
 40
0.0
 40
0.0
 40
0.0
 40
0.0
 40
0.3333333333333333
 40
0.3333333333333333
 40
0.3333333333333333
 40
0.3333333333333333
 40
1.0
 40
1.0
 40
1.0
 40
1.0
 10
-15.46964960629921
 20
8.824433070866142
 30
0.0
 10
-15.54274015748032
 20
8.824433070866142
 30
0.0
 10
-15.61283858267717
 20
8.795397637795276
 30
0.0
 10
-15.66451968503937
 20
8.743712598425196
 30
0.0
 10
-15.66451968503937
 20
8.743712598425196
 30
0.0
 10
-15.71620472440945
 20
8.692027559055118
 30
0.0
 10
-15.74524015748032
 20
8.621933070866142
 30
0.0
 10
-15.74524015748032
 20
8.548842519685039
 30
0.0
  0
SPLINE
  5
AB
330
1F
100
AcDbEntity
  8
Layer 1
 62
     1
370
     9
100
AcDbSpline
210
0.0
220
0.0
230
1.0
 70
    24
 71
     3
 72
     8
 73
     4
 74
     0
 42
0.0000000001
 43
0.0000000001
 40
0.0
 40
0.0
 40
0.0
 40
0.0
 40
1.0
 40
1.0
 40
1.0
 40
1.0
 10
-15.02446062992126
 20
7.900622047244094
 30
0.0
 10
-15.02446062992126
 20
7.900622047244094
 30
0.0
 10
-14.92603543307087
 20
7.900622047244094
 30
0.0
 10
-14.92603543307087
 20
7.900622047244094
 30
0.0
  0
SPLINE
  5
AC
330
1F
100
AcDbEntity
  8
Layer 1
 62
     1
370
     9
100
AcDbSpline
210
0.0
220
0.0
230
1.0
 70
    24
 71
     3
 72
     8
 73
     4
 74
     0
 42
0.0000000001
 43
0.0000000001
 40
0.0
 40
0.0
 40
0.0
 40
0.0
 40
1.0
 40
1.0
 40
1.0
 40
1.0
 10
-14.92603543307087
 20
7.821881889763779
 30
0.0
 10
-14.92603543307087
 20
7.821881889763779
 30
0.0
 10
-14.92603543307087
 20
7.900622047244094
 30
0.0
 10
-14.92603543307087
 20
7.900622047244094
 30
0.0
  0
SPLINE
  5
AD
330
1F
100
AcDbEntity
  8
Layer 1
 62
     1
370
     9
100
AcDbSpline
210
0.0
220
0.0
230
1.0
 70
    24
 71
     3
 72
     8
 73
     4
 74
     0
 42
0.0000000001
 43
0.0000000001
 40
0.0
 40
0.0
 40
0.0
 40
0.0
 40
1.0
 40
1.0
 40
1.0
 40
1.0
 10
-14.45359448818898
 20
7.821881889763779
 30
0.0
 10
-14.45359448818898
 20
7.821881889763779
 30
0.0
 10
-14.45359448818898
 20
7.900622047244094
 30
0.0
 10
-14.45359448818898
 20
7.900622047244094
 30
0.0
  0
SPLINE
  5
AE
330
1F
100
AcDbEntity
  8
Layer 1
 62
     1
370
     9
100
AcDbSpline
210
0.0
220
0.0
230
1.0
 70
    24
 71
     3
 72
     8
 73
     4
 74
     0
 42
0.0000000001
 43
0.0000000001
 40
0.0
 40
0.0
 40
0.0
 40
0.0
 40
1.0
 40
1.0
 40
1.0
 40
1.0
 10
-14.92603543307087
 20
7.821881889763779
 30
0.0
 10
-14.92603543307087
 20
7.821881889763779
 30
0.0
 10
-14.45359448818898
 20
7.821881889763779
 30
0.0
 10
-14.45359448818898
 20
7.821881889763779
 30
0.0
  0
SPLINE
  5
AF
330
1F
100
AcDbEntity
  8
Layer 1
 62
     1
370
     9
100
AcDbSpline
210
0.0
220
0.0
230
1.0
 70
    24
 71
     3
 72
     8
 73
     4
 74
     0
 42
0.0000000001
 43
0.0000000001
 40
0.0
 40
0.0
 40
0.0
 40
0.0
 40
1.0
 40
1.0
 40
1.0
 40
1.0
 10
-14.45359448818898
 20
7.900622047244094
 30
0.0
 10
-14.45359448818898
 20
7.900622047244094
 30
0.0
 10
-13.57988582677165
 20
7.900622047244094
 30
0.0
 10
-13.57988582677165
 20
7.900622047244094
 30
0.0
  0
SPLINE
  5
B0
330
1F
100
AcDbEntity
  8
Layer 1
 62
     1
370
     9
100
AcDbSpline
210
0.0
220
0.0
230
1.0
 70
    24
 71
     3
 72
     8
 73
     4
 74
     0
 42
0.0000000001
 43
0.0000000001
 40
0.0
 40
0.0
 40
0.0
 40
0.0
 40
1.0
 40
1.0
 40
1.0
 40
1.0
 10
-15.02446062992126
 20
7.900622047244094
 30
0.0
 10
-15.02446062992126
 20
7.900622047244094
 30
0.0
 10
-15.02446062992126
 20
8.302279527559055
 30
0.0
 10
-15.02446062992126
 20
8.302279527559055
 30
0.0
  0
SPLINE
  5
B1
330
1F
100
AcDbEntity
  8
Layer 1
 62
     1
370
     9
100
AcDbSpline
210
0.0
220
0.0
230
1.0
 70
    24
 71
     3
 72
     8
 73
     4
 74
     0
 42
0.0000000001
 43
0.0000000001
 40
0.0
 40
0.0
 40
0.0
 40
0.0
 40
1.0
 40
1.0
 40
1.0
 40
1.0
 10
-14.45359448818898
 20
8.302279527559055
 30
0.0
 10
-14.45359448818898
 20
8.302279527559055
 30
0.0
 10
-13.57988582677165
 20
8.302279527559055
 30
0.0
 10
-13.57988582677165
 20
8.302279527559055
 30
0.0
  0
SPLINE
  5
B2
330
1F
100
AcDbEntity
  8
Layer 1
 62
     1
370
     9
100
AcDbSpline
210
0.0
220
0.0
230
1.0
 70
    24
 71
     3
 72
     8
 73
     4
 74
     0
 42
0.0000000001
 43
0.0000000001
 40
0.0
 40
0.0
 40
0.0
 40
0.0
 40
1.0
 40
1.0
 40
1.0
 40
1.0
 10
-13.57988582677165
 20
8.302279527559055
 30
0.0
 10
-13.57988582677165
 20
8.302279527559055
 30
0.0
 10
-13.57988582677165
 20
7.900622047244094
 30
0.0
 10
-13.57988582677165
 20
7.900622047244094
 30
0.0
  0
SPLINE
  5
B3
330
1F
100
AcDbEntity
  8
Layer 1
 62
     1
370
     9
100
AcDbSpline
210
0.0
220
0.0
230
1.0
 70
    11
 71
     3
 72
    20
 73
    16
 74
     0
 42
0.0000000001
 43
0.0000000001
 40
0.0
 40
0.0
 40
0.0
 40
0.0
 40
0.2
 40
0.2
 40
0.2
 40
0.2
 40
0.4
 40
0.4
 40
0.4
 40
0.4
 40
0.6
 40
0.6
 40
0.6
 40
0.6
 40
1.0
 40
1.0
 40
1.0
 40
1.0
 10
-15.43957480314961
 20
8.57782283464567
 30
0.0
 10
-15.43957480314961
 20
8.610437007874015
 30
0.0
 10
-15.4660157480315
 20
8.636877952755906
 30
0.0
 10
-15.49862992125984
 20
8.636877952755906
 30
0.0
 10
-15.49862992125984
 20
8.636877952755906
 30
0.0
 10
-15.53124409448819
 20
8.636877952755906
 30
0.0
 10
-15.55768503937008
 20
8.610437007874015
 30
0.0
 10
-15.55768503937008
 20
8.57782283464567
 30
0.0
 10
-15.55768503937008
 20
8.57782283464567
 30
0.0
 10
-15.55768503937008
 20
8.545208661417323
 30
0.0
 10
-15.53124803149606
 20
8.518767716535432
 30
0.0
 10
-15.49862992125984
 20
8.518767716535432
 30
0.0
 10
-15.49862992125984
 20
8.518767716535432
 30
0.0
 10
-15.4660157480315
 20
8.518767716535432
 30
0.0
 10
-15.43957480314961
 20
8.545204724409448
 30
0.0
 10
-15.43957480314961
 20
8.57782283464567
 30
0.0
  0
ENDSEC
  0
SECTION
  2
OBJECTS
  0
DICTIONARY
  5
C
330
0
100
AcDbDictionary
281
     1
  3
ACAD_GROUP
350
D
  3
ACAD_LAYOUT
350
1A
  3
ACAD_MATERIAL
350
3B
  3
ACAD_MLEADERSTYLE
350
D5
  3
ACAD_MLINESTYLE
350
17
  3
ACAD_PLOTSETTINGS
350
19
  3
ACAD_PLOTSTYLENAME
350
E
  3
ACAD_TABLESTYLE
350
D4
  3
ACAD_VISUALSTYLE
350
2A
  0
DICTIONARY
  5
D
102
{ACAD_REACTORS
330
C
102
}
330
C
100
AcDbDictionary
281
     1
  0
DICTIONARY
  5
1A
102
{ACAD_REACTORS
330
C
102
}
330
C
100
AcDbDictionary
281
     1
  3
Layout1
350
1E
  3
Layout2
350
26
  3
Model
350
22
  0
DICTIONARY
  5
3B
102
{ACAD_REACTORS
330
C
102
}
330
C
100
AcDbDictionary
281
     1
  3
ByBlock
350
3D
  3
ByLayer
350
3C
  3
Global
350
3E
  0
DICTIONARY
  5
D5
102
{ACAD_REACTORS
330
C
102
}
330
C
100
AcDbDictionary
281
     1
  0
DICTIONARY
  5
17
102
{ACAD_REACTORS
330
C
102
}
330
C
100
AcDbDictionary
281
     1
  3
Standard
350
18
  0
DICTIONARY
  5
19
102
{ACAD_REACTORS
330
C
102
}
330
C
100
AcDbDictionary
281
     1
  0
ACDBDICTIONARYWDFLT
  5
E
102
{ACAD_REACTORS
330
C
102
}
330
C
100
AcDbDictionary
281
     1
  3
Normal
350
F
100
AcDbDictionaryWithDefault
340
F
  0
DICTIONARY
  5
D4
102
{ACAD_REACTORS
330
C
102
}
330
C
100
AcDbDictionary
281
     1
  0
DICTIONARY
  5
2A
102
{ACAD_REACTORS
330
C
102
}
330
C
100
AcDbDictionary
281
     1
  3
2dWireframe
350
2F
  3
3D Hidden
350
31
  3
3dWireframe
350
30
  3
Basic
350
32
  3
Brighten
350
36
  3
ColorChange
350
3A
  3
Conceptual
350
34
  3
Dim
350
35
  3
Facepattern
350
39
  3
Flat
350
2B
  3
FlatWithEdges
350
2C
  3
Gouraud
350
2D
  3
GouraudWithEdges
350
2E
  3
Linepattern
350
38
  3
Realistic
350
33
  3
Thicken
350
37
  0
LAYOUT
  5
1E
102
{ACAD_REACTORS
330
1A
102
}
330
1A
100
AcDbPlotSettings
  1

  2
none_device
  4

  6

 40
0.0
 41
0.0
 42
0.0
 43
0.0
 44
0.0
 45
0.0
 46
0.0
 47
0.0
 48
0.0
 49
0.0
140
0.0
141
0.0
142
1.0
143
1.0
 70
   688
 72
     0
 73
     0
 74
     5
  7

 75
    16
 76
     0
 77
     2
 78
   300
147
1.0
148
0.0
149
0.0
100
AcDbLayout
  1
Layout1
 70
     1
 71
     1
 10
0.0
 20
0.0
 11
12.0
 21
9.0
 12
0.0
 22
0.0
 32
0.0
 14
1.000000000000000E+20
 24
1.000000000000000E+20
 34
1.000000000000000E+20
 15
-1.000000000000000E+20
 25
-1.000000000000000E+20
 35
-1.000000000000000E+20
146
0.0
 13
0.0
 23
0.0
 33
0.0
 16
1.0
 26
0.0
 36
0.0
 17
0.0
 27
1.0
 37
0.0
 76
     0
330
1B
  0
LAYOUT
  5
26
102
{ACAD_REACTORS
330
1A
102
}
330
1A
100
AcDbPlotSettings
  1

  2
none_device
  4

  6

 40
0.0
 41
0.0
 42
0.0
 43
0.0
 44
0.0
 45
0.0
 46
0.0
 47
0.0
 48
0.0
 49
0.0
140
0.0
141
0.0
142
1.0
143
1.0
 70
   688
 72
     0
 73
     0
 74
     5
  7

 75
    16
 76
     0
 77
     2
 78
   300
147
1.0
148
0.0
149
0.0
100
AcDbLayout
  1
Layout2
 70
     1
 71
     2
 10
0.0
 20
0.0
 11
0.0
 21
0.0
 12
0.0
 22
0.0
 32
0.0
 14
0.0
 24
0.0
 34
0.0
 15
0.0
 25
0.0
 35
0.0
146
0.0
 13
0.0
 23
0.0
 33
0.0
 16
1.0
 26
0.0
 36
0.0
 17
0.0
 27
1.0
 37
0.0
 76
     0
330
23
  0
LAYOUT
  5
22
102
{ACAD_REACTORS
330
1A
102
}
330
1A
100
AcDbPlotSettings
  1

  2
none_device
  4

  6

 40
0.0
 41
0.0
 42
0.0
 43
0.0
 44
0.0
 45
0.0
 46
0.0
 47
0.0
 48
0.0
 49
0.0
140
0.0
141
0.0
142
1.0
143
1.0
 70
  1712
 72
     0
 73
     0
 74
     0
  7

 75
     0
 76
     0
 77
     2
 78
   300
147
1.0
148
0.0
149
0.0
100
AcDbLayout
  1
Model
 70
     1
 71
     0
 10
0.0
 20
0.0
 11
12.0
 21
9.0
 12
0.0
 22
0.0
 32
0.0
 14
-15.74674015748031
 24
1.860818897637795
 34
0.0
 15
-7.768122047244095
 25
8.825933070866142
 35
0.0
146
0.0
 13
0.0
 23
0.0
 33
0.0
 16
1.0
 26
0.0
 36
0.0
 17
0.0
 27
1.0
 37
0.0
 76
     0
330
1F
331
29
  0
MATERIAL
  5
3D
102
{ACAD_REACTORS
330
3B
102
}
330
3B
100
AcDbMaterial
  1
ByBlock
 72
     1
 94
      127
  0
MATERIAL
  5
3C
102
{ACAD_REACTORS
330
3B
102
}
330
3B
100
AcDbMaterial
  1
ByLayer
 72
     1
 94
      127
  0
MATERIAL
  5
3E
102
{ACAD_REACTORS
330
3B
102
}
330
3B
100
AcDbMaterial
  1
Global
 72
     1
 94
      127
  0
MLINESTYLE
  5
18
102
{ACAD_REACTORS
330
17
102
}
330
17
100
AcDbMlineStyle
  2
Standard
 70
     0
  3

 62
   256
 51
90.0
 52
90.0
 71
     2
 49
0.5
 62
   256
  6
BYLAYER
 49
-0.5
 62
   256
  6
BYLAYER
  0
ACDBPLACEHOLDER
  5
F
102
{ACAD_REACTORS
330
E
102
}
330
E
  0
VISUALSTYLE
  5
2F
102
{ACAD_REACTORS
330
2A
102
}
102
{ACAD_XDICTIONARY
360
BC
102
}
330
2A
100
AcDbVisualStyle
  2
2dWireframe
 70
     4
 71
     0
 72
     2
 73
     0
 90
        0
 40
-0.6
 41
-30.0
 62
     5
 63
     7
421
 16777215
 74
     1
 91
        4
 64
     7
 65
   257
 75
     1
175
     1
 42
1.0
 92
        0
 66
   257
 43
1.0
 76
     1
 77
     6
 78
     2
 67
     7
 79
     5
170
     0
171
     0
290
     0
174
     0
 93
        1
 44
0.0
173
     0
291
     0
 45
0.0
  0
VISUALSTYLE
  5
31
102
{ACAD_REACTORS
330
2A
102
}
102
{ACAD_XDICTIONARY
360
C0
102
}
330
2A
100
AcDbVisualStyle
  2
3D Hidden
 70
     6
 71
     1
 72
     2
 73
     2
 90
        0
 40
-0.6
 41
-30.0
 62
     5
 63
     7
421
 16777215
 74
     2
 91
        2
 64
     7
 65
   257
 75
     2
175
     1
 42
40.0
 92
        0
 66
   257
 43
1.0
 76
     1
 77
     6
 78
     2
 67
     7
 79
     3
170
     0
171
     0
290
     0
174
     0
 93
        1
 44
0.0
173
     0
291
     0
 45
0.0
  0
VISUALSTYLE
  5
30
102
{ACAD_REACTORS
330
2A
102
}
102
{ACAD_XDICTIONARY
360
BE
102
}
330
2A
100
AcDbVisualStyle
  2
3dWireframe
 70
     5
 71
     0
 72
     2
 73
     0
 90
        0
 40
-0.6
 41
-30.0
 62
     5
 63
     7
421
 16777215
 74
     1
 91
        4
 64
     7
 65
   257
 75
     1
175
     1
 42
1.0
 92
        0
 66
   257
 43
1.0
 76
     1
 77
     6
 78
     2
 67
     7
 79
     5
170
     0
171
     0
290
     0
174
     0
 93
        1
 44
0.0
173
     0
291
     0
 45
0.0
  0
VISUALSTYLE
  5
32
102
{ACAD_REACTORS
330
2A
102
}
102
{ACAD_XDICTIONARY
360
C2
102
}
330
2A
100
AcDbVisualStyle
  2
Basic
 70
     7
 71
     1
 72
     0
 73
     1
 90
        0
 40
-0.6
 41
-30.0
 62
     5
 63
     7
421
 16777215
 74
     0
 91
        4
 64
     7
 65
   257
 75
     1
175
     1
 42
1.0
 92
        8
 66
     7
 43
1.0
 76
     1
 77
     6
 78
     2
 67
     7
 79
     5
170
     0
171
     0
290
     0
174
     0
 93
        1
 44
0.0
173
     0
291
     1
 45
0.0
  0
VISUALSTYLE
  5
36
102
{ACAD_REACTORS
330
2A
102
}
102
{ACAD_XDICTIONARY
360
CA
102
}
330
2A
100
AcDbVisualStyle
  2
Brighten
 70
    12
 71
     2
 72
     2
 73
     0
 90
        0
 40
-0.6
 41
-30.0
 62
     5
 63
     7
421
 16777215
 74
     1
 91
        4
 64
     7
 65
   257
 75
     1
175
     1
 42
1.0
 92
        8
 66
     7
 43
1.0
 76
     1
 77
     6
 78
     2
 67
     7
 79
     5
170
     0
171
     0
290
     0
174
     0
 93
        1
 44
50.0
173
     0
291
     1
 45
0.0
  0
VISUALSTYLE
  5
3A
102
{ACAD_REACTORS
330
2A
102
}
102
{ACAD_XDICTIONARY
360
D2
102
}
330
2A
100
AcDbVisualStyle
  2
ColorChange
 70
    16
 71
     2
 72
     2
 73
     3
 90
        0
 40
-0.6
 41
-30.0
 62
     5
 63
     8
421
  8421504
 74
     1
 91
        4
 64
     7
 65
   257
 75
     1
175
     1
 42
1.0
 92
        8
 66
     8
424
  8421504
 43
1.0
 76
     1
 77
     6
 78
     2
 67
     7
 79
     5
170
     0
171
     0
290
     0
174
     0
 93
        1
 44
0.0
173
     0
291
     1
 45
0.0
  0
VISUALSTYLE
  5
34
102
{ACAD_REACTORS
330
2A
102
}
102
{ACAD_XDICTIONARY
360
C6
102
}
330
2A
100
AcDbVisualStyle
  2
Conceptual
 70
     9
 71
     3
 72
     2
 73
     0
 90
        0
 40
-0.6
 41
-30.0
 62
     5
 63
     7
421
 16777215
 74
     2
 91
        2
 64
     7
 65
   257
 75
     1
175
     1
 42
40.0
 92
        8
 66
     7
 43
1.0
 76
     1
 77
     6
 78
     2
 67
     7
 79
     3
170
     0
171
     0
290
     0
174
     0
 93
        1
 44
0.0
173
     0
291
     0
 45
0.0
  0
VISUALSTYLE
  5
35
102
{ACAD_REACTORS
330
2A
102
}
102
{ACAD_XDICTIONARY
360
C8
102
}
330
2A
100
AcDbVisualStyle
  2
Dim
 70
    11
 71
     2
 72
     2
 73
     0
 90
        0
 40
-0.6
 41
-30.0
 62
     5
 63
     7
421
 16777215
 74
     1
 91
        4
 64
     7
 65
   257
 75
     1
175
     1
 42
1.0
 92
        8
 66
     7
 43
1.0
 76
     1
 77
     6
 78
     2
 67
     7
 79
     5
170
     0
171
     0
290
     0
174
     0
 93
        1
 44
-50.0
173
     0
291
     1
 45
0.0
  0
VISUALSTYLE
  5
39
102
{ACAD_REACTORS
330
2A
102
}
102
{ACAD_XDICTIONARY
360
D0
102
}
330
2A
100
AcDbVisualStyle
  2
Facepattern
 70
    15
 71
     2
 72
     2
 73
     0
 90
        0
 40
-0.6
 41
-30.0
 62
     5
 63
     7
421
 16777215
 74
     1
 91
        4
 64
     7
 65
   257
 75
     1
175
     1
 42
1.0
 92
        8
 66
     7
 43
1.0
 76
     1
 77
     6
 78
     2
 67
     7
 79
     5
170
     0
171
     0
290
     0
174
     0
 93
        1
 44
0.0
173
     0
291
     1
 45
0.0
  0
VISUALSTYLE
  5
2B
102
{ACAD_REACTORS
330
2A
102
}
102
{ACAD_XDICTIONARY
360
B4
102
}
330
2A
100
AcDbVisualStyle
  2
Flat
 70
     0
 71
     2
 72
     1
 73
     1
 90
        2
 40
-0.6
 41
30.0
 62
     5
 63
     7
421
 16777215
 74
     0
 91
        4
 64
     7
 65
   257
 75
     1
175
     1
 42
1.0
 92
        8
 66
     7
 43
1.0
 76
     1
 77
     6
 78
     2
 67
     7
 79
     5
170
     0
171
     0
290
     0
174
     0
 93
       13
 44
0.0
173
     0
291
     1
 45
0.0
  0
VISUALSTYLE
  5
2C
102
{ACAD_REACTORS
330
2A
102
}
102
{ACAD_XDICTIONARY
360
B6
102
}
330
2A
100
AcDbVisualStyle
  2
FlatWithEdges
 70
     1
 71
     2
 72
     1
 73
     1
 90
        2
 40
-0.6
 41
30.0
 62
     5
 63
     7
421
 16777215
 74
     1
 91
        4
 64
     7
 65
   257
 75
     1
175
     1
 42
1.0
 92
        0
 66
   257
 43
1.0
 76
     1
 77
     6
 78
     2
 67
     7
 79
     5
170
     0
171
     0
290
     0
174
     0
 93
       13
 44
0.0
173
     0
291
     1
 45
0.0
  0
VISUALSTYLE
  5
2D
102
{ACAD_REACTORS
330
2A
102
}
102
{ACAD_XDICTIONARY
360
B8
102
}
330
2A
100
AcDbVisualStyle
  2
Gouraud
 70
     2
 71
     2
 72
     2
 73
     1
 90
        2
 40
-0.6
 41
30.0
 62
     5
 63
     7
421
 16777215
 74
     0
 91
        4
 64
     7
 65
   257
 75
     1
175
     1
 42
1.0
 92
        0
 66
     7
 43
1.0
 76
     1
 77
     6
 78
     2
 67
     7
 79
     5
170
     0
171
     0
290
     0
174
     0
 93
       13
 44
0.0
173
     0
291
     1
 45
0.0
  0
VISUALSTYLE
  5
2E
102
{ACAD_REACTORS
330
2A
102
}
102
{ACAD_XDICTIONARY
360
BA
102
}
330
2A
100
AcDbVisualStyle
  2
GouraudWithEdges
 70
     3
 71
     2
 72
     2
 73
     1
 90
        2
 40
-0.6
 41
30.0
 62
     5
 63
     7
421
 16777215
 74
     1
 91
        4
 64
     7
 65
   257
 75
     1
175
     1
 42
1.0
 92
        0
 66
   257
 43
1.0
 76
     1
 77
     6
 78
     2
 67
     7
 79
     5
170
     0
171
     0
290
     0
174
     0
 93
       13
 44
0.0
173
     0
291
     1
 45
0.0
  0
VISUALSTYLE
  5
38
102
{ACAD_REACTORS
330
2A
102
}
102
{ACAD_XDICTIONARY
360
CE
102
}
330
2A
100
AcDbVisualStyle
  2
Linepattern
 70
    14
 71
     2
 72
     2
 73
     0
 90
        0
 40
-0.6
 41
-30.0
 62
     5
 63
     7
421
 16777215
 74
     1
 91
        4
 64
     7
 65
   257
 75
     7
175
     7
 42
1.0
 92
        8
 66
     7
 43
1.0
 76
     1
 77
     6
 78
     2
 67
     7
 79
     5
170
     0
171
     0
290
     0
174
     0
 93
        1
 44
0.0
173
     0
291
     1
 45
0.0
  0
VISUALSTYLE
  5
33
102
{ACAD_REACTORS
330
2A
102
}
102
{ACAD_XDICTIONARY
360
C4
102
}
330
2A
100
AcDbVisualStyle
  2
Realistic
 70
     8
 71
     2
 72
     2
 73
     0
 90
        0
 40
-0.6
 41
-30.0
 62
     5
 63
     7
421
 16777215
 74
     1
 91
        0
 64
     7
 65
   257
 75
     1
175
     1
 42
1.0
 92
        8
 66
     8
424
  7895160
 43
1.0
 76
     1
 77
     6
 78
     2
 67
     7
 79
     5
170
     0
171
     0
290
     0
174
     0
 93
       13
 44
0.0
173
     0
291
     0
 45
0.0
  0
VISUALSTYLE
  5
37
102
{ACAD_REACTORS
330
2A
102
}
102
{ACAD_XDICTIONARY
360
CC
102
}
330
2A
100
AcDbVisualStyle
  2
Thicken
 70
    13
 71
     2
 72
     2
 73
     0
 90
        0
 40
-0.6
 41
-30.0
 62
     5
 63
     7
421
 16777215
 74
     1
 91
        4
 64
     7
 65
   257
 75
     1
175
     1
 42
1.0
 92
       12
 66
     7
 43
1.0
 76
     1
 77
     6
 78
     2
 67
     7
 79
     5
170
     0
171
     0
290
     0
174
     0
 93
        1
 44
0.0
173
     0
291
     1
 45
0.0
  0
DICTIONARY
  5
BC
330
2F
100
AcDbDictionary
280
     1
281
     1
  3
ACAD_XREC_ROUNDTRIP
360
BD
  0
DICTIONARY
  5
C0
330
31
100
AcDbDictionary
280
     1
281
     1
  3
ACAD_XREC_ROUNDTRIP
360
C1
  0
DICTIONARY
  5
BE
330
30
100
AcDbDictionary
280
     1
281
     1
  3
ACAD_XREC_ROUNDTRIP
360
BF
  0
DICTIONARY
  5
C2
330
32
100
AcDbDictionary
280
     1
281
     1
  3
ACAD_XREC_ROUNDTRIP
360
C3
  0
DICTIONARY
  5
CA
330
36
100
AcDbDictionary
280
     1
281
     1
  3
ACAD_XREC_ROUNDTRIP
360
CB
  0
DICTIONARY
  5
D2
330
3A
100
AcDbDictionary
280
     1
281
     1
  3
ACAD_XREC_ROUNDTRIP
360
D3
  0
DICTIONARY
  5
C6
330
34
100
AcDbDictionary
280
     1
281
     1
  3
ACAD_XREC_ROUNDTRIP
360
C7
  0
DICTIONARY
  5
C8
330
35
100
AcDbDictionary
280
     1
281
     1
  3
ACAD_XREC_ROUNDTRIP
360
C9
  0
DICTIONARY
  5
D0
330
39
100
AcDbDictionary
280
     1
281
     1
  3
ACAD_XREC_ROUNDTRIP
360
D1
  0
DICTIONARY
  5
B4
330
2B
100
AcDbDictionary
280
     1
281
     1
  3
ACAD_XREC_ROUNDTRIP
360
B5
  0
DICTIONARY
  5
B6
330
2C
100
AcDbDictionary
280
     1
281
     1
  3
ACAD_XREC_ROUNDTRIP
360
B7
  0
DICTIONARY
  5
B8
330
2D
100
AcDbDictionary
280
     1
281
     1
  3
ACAD_XREC_ROUNDTRIP
360
B9
  0
DICTIONARY
  5
BA
330
2E
100
AcDbDictionary
280
     1
281
     1
  3
ACAD_XREC_ROUNDTRIP
360
BB
  0
DICTIONARY
  5
CE
330
38
100
AcDbDictionary
280
     1
281
     1
  3
ACAD_XREC_ROUNDTRIP
360
CF
  0
DICTIONARY
  5
C4
330
33
100
AcDbDictionary
280
     1
281
     1
  3
ACAD_XREC_ROUNDTRIP
360
C5
  0
DICTIONARY
  5
CC
330
37
100
AcDbDictionary
280
     1
281
     1
  3
ACAD_XREC_ROUNDTRIP
360
CD
  0
XRECORD
  5
BD
102
{ACAD_REACTORS
330
BC
102
}
330
BC
100
AcDbXrecord
280
     1
102
RTVSPropertyOp0
 70
     1
102
RTVSPropertyOp1
 70
     1
102
RTVSPropertyOp2
 70
     1
102
RTVSPropertyOp3
 70
     1
102
RTVSPropertyOp4
 70
     1
102
RTVSPropertyOp5
 70
     1
102
RTVSPropertyOp6
 70
     1
102
RTVSPropertyOp7
 70
     1
102
RTVSPropertyOp8
 70
     1
102
RTVSPropertyOp9
 70
     1
102
RTVSPropertyOp10
 70
     1
102
RTVSPropertyOp11
 70
     1
102
RTVSPropertyOp12
 70
     1
102
RTVSPropertyOp13
 70
     1
102
RTVSPropertyOp14
 70
     1
102
RTVSPropertyOp15
 70
     1
102
RTVSPropertyOp16
 70
     1
102
RTVSPropertyOp17
 70
     1
102
RTVSPropertyOp18
 70
     1
102
RTVSPropertyOp19
 70
     1
102
RTVSPropertyOp20
 70
     1
102
RTVSPropertyOp21
 70
     1
102
RTVSPropertyOp22
 70
     1
102
RTVSPropertyOp23
 70
     1
102
RTVSPropertyOp24
 70
     1
102
RTVSPropertyOp25
 70
     1
102
RTVSPropertyOp26
 70
     1
102
RTVSPropertyOp27
 70
     1
  0
XRECORD
  5
C1
102
{ACAD_REACTORS
330
C0
102
}
330
C0
100
AcDbXrecord
280
     1
102
RTVSPropertyOp0
 70
     1
102
RTVSPropertyOp1
 70
     1
102
RTVSPropertyOp2
 70
     1
102
RTVSPropertyOp3
 70
     1
102
RTVSPropertyOp4
 70
     1
102
RTVSPropertyOp5
 70
     1
102
RTVSPropertyOp6
 70
     1
102
RTVSPropertyOp7
 70
     1
102
RTVSPropertyOp8
 70
     1
102
RTVSPropertyOp9
 70
     1
102
RTVSPropertyOp10
 70
     1
102
RTVSPropertyOp11
 70
     1
102
RTVSPropertyOp12
 70
     1
102
RTVSPropertyOp13
 70
     1
102
RTVSPropertyOp14
 70
     1
102
RTVSPropertyOp15
 70
     1
102
RTVSPropertyOp16
 70
     1
102
RTVSPropertyOp17
 70
     1
102
RTVSPropertyOp18
 70
     1
102
RTVSPropertyOp19
 70
     1
102
RTVSPropertyOp20
 70
     1
102
RTVSPropertyOp21
 70
     1
102
RTVSPropertyOp22
 70
     1
102
RTVSPropertyOp23
 70
     1
102
RTVSPropertyOp24
 70
     1
102
RTVSPropertyOp25
 70
     1
102
RTVSPropertyOp26
 70
     1
102
RTVSPropertyOp27
 70
     1
  0
XRECORD
  5
BF
102
{ACAD_REACTORS
330
BE
102
}
330
BE
100
AcDbXrecord
280
     1
102
RTVSPropertyOp0
 70
     1
102
RTVSPropertyOp1
 70
     1
102
RTVSPropertyOp2
 70
     1
102
RTVSPropertyOp3
 70
     1
102
RTVSPropertyOp4
 70
     1
102
RTVSPropertyOp5
 70
     1
102
RTVSPropertyOp6
 70
     1
102
RTVSPropertyOp7
 70
     1
102
RTVSPropertyOp8
 70
     1
102
RTVSPropertyOp9
 70
     1
102
RTVSPropertyOp10
 70
     1
102
RTVSPropertyOp11
 70
     1
102
RTVSPropertyOp12
 70
     1
102
RTVSPropertyOp13
 70
     1
102
RTVSPropertyOp14
 70
     1
102
RTVSPropertyOp15
 70
     1
102
RTVSPropertyOp16
 70
     1
102
RTVSPropertyOp17
 70
     1
102
RTVSPropertyOp18
 70
     1
102
RTVSPropertyOp19
 70
     1
102
RTVSPropertyOp20
 70
     1
102
RTVSPropertyOp21
 70
     1
102
RTVSPropertyOp22
 70
     1
102
RTVSPropertyOp23
 70
     1
102
RTVSPropertyOp24
 70
     1
102
RTVSPropertyOp25
 70
     1
102
RTVSPropertyOp26
 70
     1
102
RTVSPropertyOp27
 70
     1
  0
XRECORD
  5
C3
102
{ACAD_REACTORS
330
C2
102
}
330
C2
100
AcDbXrecord
280
     1
102
RTVSPropertyOp0
 70
     1
102
RTVSPropertyOp1
 70
     1
102
RTVSPropertyOp2
 70
     1
102
RTVSPropertyOp3
 70
     1
102
RTVSPropertyOp4
 70
     1
102
RTVSPropertyOp5
 70
     1
102
RTVSPropertyOp6
 70
     1
102
RTVSPropertyOp7
 70
     1
102
RTVSPropertyOp8
 70
     1
102
RTVSPropertyOp9
 70
     1
102
RTVSPropertyOp10
 70
     1
102
RTVSPropertyOp11
 70
     1
102
RTVSPropertyOp12
 70
     1
102
RTVSPropertyOp13
 70
     1
102
RTVSPropertyOp14
 70
     1
102
RTVSPropertyOp15
 70
     1
102
RTVSPropertyOp16
 70
     1
102
RTVSPropertyOp17
 70
     1
102
RTVSPropertyOp18
 70
     1
102
RTVSPropertyOp19
 70
     1
102
RTVSPropertyOp20
 70
     1
102
RTVSPropertyOp21
 70
     1
102
RTVSPropertyOp22
 70
     1
102
RTVSPropertyOp23
 70
     1
102
RTVSPropertyOp24
 70
     1
102
RTVSPropertyOp25
 70
     1
102
RTVSPropertyOp26
 70
     1
102
RTVSPropertyOp27
 70
     1
  0
XRECORD
  5
CB
102
{ACAD_REACTORS
330
CA
102
}
330
CA
100
AcDbXrecord
280
     1
102
RTVSPropertyOp0
 70
     1
102
RTVSPropertyOp1
 70
     1
102
RTVSPropertyOp2
 70
     1
102
RTVSPropertyOp3
 70
     1
102
RTVSPropertyOp4
 70
     1
102
RTVSPropertyOp5
 70
     1
102
RTVSPropertyOp6
 70
     1
102
RTVSPropertyOp7
 70
     1
102
RTVSPropertyOp8
 70
     1
102
RTVSPropertyOp9
 70
     1
102
RTVSPropertyOp10
 70
     1
102
RTVSPropertyOp11
 70
     1
102
RTVSPropertyOp12
 70
     1
102
RTVSPropertyOp13
 70
     1
102
RTVSPropertyOp14
 70
     1
102
RTVSPropertyOp15
 70
     1
102
RTVSPropertyOp16
 70
     1
102
RTVSPropertyOp17
 70
     1
102
RTVSPropertyOp18
 70
     1
102
RTVSPropertyOp19
 70
     1
102
RTVSPropertyOp20
 70
     1
102
RTVSPropertyOp21
 70
     1
102
RTVSPropertyOp22
 70
     1
102
RTVSPropertyOp23
 70
     1
102
RTVSPropertyOp24
 70
     1
102
RTVSPropertyOp25
 70
     1
102
RTVSPropertyOp26
 70
     1
102
RTVSPropertyOp27
 70
     1
  0
XRECORD
  5
D3
102
{ACAD_REACTORS
330
D2
102
}
330
D2
100
AcDbXrecord
280
     1
102
RTVSPropertyOp0
 70
     1
102
RTVSPropertyOp1
 70
     1
102
RTVSPropertyOp2
 70
     1
102
RTVSPropertyOp3
 70
     1
102
RTVSPropertyOp4
 70
     1
102
RTVSPropertyOp5
 70
     1
102
RTVSPropertyOp6
 70
     1
102
RTVSPropertyOp7
 70
     1
102
RTVSPropertyOp8
 70
     1
102
RTVSPropertyOp9
 70
     1
102
RTVSPropertyOp10
 70
     1
102
RTVSPropertyOp11
 70
     1
102
RTVSPropertyOp12
 70
     1
102
RTVSPropertyOp13
 70
     1
102
RTVSPropertyOp14
 70
     1
102
RTVSPropertyOp15
 70
     1
102
RTVSPropertyOp16
 70
     1
102
RTVSPropertyOp17
 70
     1
102
RTVSPropertyOp18
 70
     1
102
RTVSPropertyOp19
 70
     1
102
RTVSPropertyOp20
 70
     1
102
RTVSPropertyOp21
 70
     1
102
RTVSPropertyOp22
 70
     1
102
RTVSPropertyOp23
 70
     1
102
RTVSPropertyOp24
 70
     1
102
RTVSPropertyOp25
 70
     1
102
RTVSPropertyOp26
 70
     1
102
RTVSPropertyOp27
 70
     1
  0
XRECORD
  5
C7
102
{ACAD_REACTORS
330
C6
102
}
330
C6
100
AcDbXrecord
280
     1
102
RTVSPropertyOp0
 70
     1
102
RTVSPropertyOp1
 70
     1
102
RTVSPropertyOp2
 70
     1
102
RTVSPropertyOp3
 70
     1
102
RTVSPropertyOp4
 70
     1
102
RTVSPropertyOp5
 70
     1
102
RTVSPropertyOp6
 70
     1
102
RTVSPropertyOp7
 70
     1
102
RTVSPropertyOp8
 70
     1
102
RTVSPropertyOp9
 70
     1
102
RTVSPropertyOp10
 70
     1
102
RTVSPropertyOp11
 70
     1
102
RTVSPropertyOp12
 70
     1
102
RTVSPropertyOp13
 70
     1
102
RTVSPropertyOp14
 70
     1
102
RTVSPropertyOp15
 70
     1
102
RTVSPropertyOp16
 70
     1
102
RTVSPropertyOp17
 70
     1
102
RTVSPropertyOp18
 70
     1
102
RTVSPropertyOp19
 70
     1
102
RTVSPropertyOp20
 70
     1
102
RTVSPropertyOp21
 70
     1
102
RTVSPropertyOp22
 70
     1
102
RTVSPropertyOp23
 70
     1
102
RTVSPropertyOp24
 70
     1
102
RTVSPropertyOp25
 70
     1
102
RTVSPropertyOp26
 70
     1
102
RTVSPropertyOp27
 70
     1
  0
XRECORD
  5
C9
102
{ACAD_REACTORS
330
C8
102
}
330
C8
100
AcDbXrecord
280
     1
102
RTVSPropertyOp0
 70
     1
102
RTVSPropertyOp1
 70
     1
102
RTVSPropertyOp2
 70
     1
102
RTVSPropertyOp3
 70
     1
102
RTVSPropertyOp4
 70
     1
102
RTVSPropertyOp5
 70
     1
102
RTVSPropertyOp6
 70
     1
102
RTVSPropertyOp7
 70
     1
102
RTVSPropertyOp8
 70
     1
102
RTVSPropertyOp9
 70
     1
102
RTVSPropertyOp10
 70
     1
102
RTVSPropertyOp11
 70
     1
102
RTVSPropertyOp12
 70
     1
102
RTVSPropertyOp13
 70
     1
102
RTVSPropertyOp14
 70
     1
102
RTVSPropertyOp15
 70
     1
102
RTVSPropertyOp16
 70
     1
102
RTVSPropertyOp17
 70
     1
102
RTVSPropertyOp18
 70
     1
102
RTVSPropertyOp19
 70
     1
102
RTVSPropertyOp20
 70
     1
102
RTVSPropertyOp21
 70
     1
102
RTVSPropertyOp22
 70
     1
102
RTVSPropertyOp23
 70
     1
102
RTVSPropertyOp24
 70
     1
102
RTVSPropertyOp25
 70
     1
102
RTVSPropertyOp26
 70
     1
102
RTVSPropertyOp27
 70
     1
  0
XRECORD
  5
D1
102
{ACAD_REACTORS
330
D0
102
}
330
D0
100
AcDbXrecord
280
     1
102
RTVSPropertyOp0
 70
     1
102
RTVSPropertyOp1
 70
     1
102
RTVSPropertyOp2
 70
     1
102
RTVSPropertyOp3
 70
     1
102
RTVSPropertyOp4
 70
     1
102
RTVSPropertyOp5
 70
     1
102
RTVSPropertyOp6
 70
     1
102
RTVSPropertyOp7
 70
     1
102
RTVSPropertyOp8
 70
     1
102
RTVSPropertyOp9
 70
     1
102
RTVSPropertyOp10
 70
     1
102
RTVSPropertyOp11
 70
     1
102
RTVSPropertyOp12
 70
     1
102
RTVSPropertyOp13
 70
     1
102
RTVSPropertyOp14
 70
     1
102
RTVSPropertyOp15
 70
     1
102
RTVSPropertyOp16
 70
     1
102
RTVSPropertyOp17
 70
     1
102
RTVSPropertyOp18
 70
     1
102
RTVSPropertyOp19
 70
     1
102
RTVSPropertyOp20
 70
     1
102
RTVSPropertyOp21
 70
     1
102
RTVSPropertyOp22
 70
     1
102
RTVSPropertyOp23
 70
     1
102
RTVSPropertyOp24
 70
     1
102
RTVSPropertyOp25
 70
     1
102
RTVSPropertyOp26
 70
     1
102
RTVSPropertyOp27
 70
     1
  0
XRECORD
  5
B5
102
{ACAD_REACTORS
330
B4
102
}
330
B4
100
AcDbXrecord
280
     1
102
RTVSPropertyOp0
 70
     1
102
RTVSPropertyOp1
 70
     1
102
RTVSPropertyOp2
 70
     1
102
RTVSPropertyOp3
 70
     1
102
RTVSPropertyOp4
 70
     1
102
RTVSPropertyOp5
 70
     1
102
RTVSPropertyOp6
 70
     1
102
RTVSPropertyOp7
 70
     1
102
RTVSPropertyOp8
 70
     1
102
RTVSPropertyOp9
 70
     1
102
RTVSPropertyOp10
 70
     1
102
RTVSPropertyOp11
 70
     1
102
RTVSPropertyOp12
 70
     1
102
RTVSPropertyOp13
 70
     1
102
RTVSPropertyOp14
 70
     1
102
RTVSPropertyOp15
 70
     1
102
RTVSPropertyOp16
 70
     1
102
RTVSPropertyOp17
 70
     1
102
RTVSPropertyOp18
 70
     1
102
RTVSPropertyOp19
 70
     1
102
RTVSPropertyOp20
 70
     1
102
RTVSPropertyOp21
 70
     1
102
RTVSPropertyOp22
 70
     1
102
RTVSPropertyOp23
 70
     1
102
RTVSPropertyOp24
 70
     1
102
RTVSPropertyOp25
 70
     1
102
RTVSPropertyOp26
 70
     1
102
RTVSPropertyOp27
 70
     1
  0
XRECORD
  5
B7
102
{ACAD_REACTORS
330
B6
102
}
330
B6
100
AcDbXrecord
280
     1
102
RTVSPropertyOp0
 70
     1
102
RTVSPropertyOp1
 70
     1
102
RTVSPropertyOp2
 70
     1
102
RTVSPropertyOp3
 70
     1
102
RTVSPropertyOp4
 70
     1
102
RTVSPropertyOp5
 70
     1
102
RTVSPropertyOp6
 70
     1
102
RTVSPropertyOp7
 70
     1
102
RTVSPropertyOp8
 70
     1
102
RTVSPropertyOp9
 70
     1
102
RTVSPropertyOp10
 70
     1
102
RTVSPropertyOp11
 70
     1
102
RTVSPropertyOp12
 70
     1
102
RTVSPropertyOp13
 70
     1
102
RTVSPropertyOp14
 70
     1
102
RTVSPropertyOp15
 70
     1
102
RTVSPropertyOp16
 70
     1
102
RTVSPropertyOp17
 70
     1
102
RTVSPropertyOp18
 70
     1
102
RTVSPropertyOp19
 70
     1
102
RTVSPropertyOp20
 70
     1
102
RTVSPropertyOp21
 70
     1
102
RTVSPropertyOp22
 70
     1
102
RTVSPropertyOp23
 70
     1
102
RTVSPropertyOp24
 70
     1
102
RTVSPropertyOp25
 70
     1
102
RTVSPropertyOp26
 70
     1
102
RTVSPropertyOp27
 70
     1
  0
XRECORD
  5
B9
102
{ACAD_REACTORS
330
B8
102
}
330
B8
100
AcDbXrecord
280
     1
102
RTVSPropertyOp0
 70
     1
102
RTVSPropertyOp1
 70
     1
102
RTVSPropertyOp2
 70
     1
102
RTVSPropertyOp3
 70
     1
102
RTVSPropertyOp4
 70
     1
102
RTVSPropertyOp5
 70
     1
102
RTVSPropertyOp6
 70
     1
102
RTVSPropertyOp7
 70
     1
102
RTVSPropertyOp8
 70
     1
102
RTVSPropertyOp9
 70
     1
102
RTVSPropertyOp10
 70
     1
102
RTVSPropertyOp11
 70
     1
102
RTVSPropertyOp12
 70
     1
102
RTVSPropertyOp13
 70
     1
102
RTVSPropertyOp14
 70
     1
102
RTVSPropertyOp15
 70
     1
102
RTVSPropertyOp16
 70
     1
102
RTVSPropertyOp17
 70
     1
102
RTVSPropertyOp18
 70
     1
102
RTVSPropertyOp19
 70
     1
102
RTVSPropertyOp20
 70
     1
102
RTVSPropertyOp21
 70
     1
102
RTVSPropertyOp22
 70
     1
102
RTVSPropertyOp23
 70
     1
102
RTVSPropertyOp24
 70
     1
102
RTVSPropertyOp25
 70
     1
102
RTVSPropertyOp26
 70
     1
102
RTVSPropertyOp27
 70
     1
  0
XRECORD
  5
BB
102
{ACAD_REACTORS
330
BA
102
}
330
BA
100
AcDbXrecord
280
     1
102
RTVSPropertyOp0
 70
     1
102
RTVSPropertyOp1
 70
     1
102
RTVSPropertyOp2
 70
     1
102
RTVSPropertyOp3
 70
     1
102
RTVSPropertyOp4
 70
     1
102
RTVSPropertyOp5
 70
     1
102
RTVSPropertyOp6
 70
     1
102
RTVSPropertyOp7
 70
     1
102
RTVSPropertyOp8
 70
     1
102
RTVSPropertyOp9
 70
     1
102
RTVSPropertyOp10
 70
     1
102
RTVSPropertyOp11
 70
     1
102
RTVSPropertyOp12
 70
     1
102
RTVSPropertyOp13
 70
     1
102
RTVSPropertyOp14
 70
     1
102
RTVSPropertyOp15
 70
     1
102
RTVSPropertyOp16
 70
     1
102
RTVSPropertyOp17
 70
     1
102
RTVSPropertyOp18
 70
     1
102
RTVSPropertyOp19
 70
     1
102
RTVSPropertyOp20
 70
     1
102
RTVSPropertyOp21
 70
     1
102
RTVSPropertyOp22
 70
     1
102
RTVSPropertyOp23
 70
     1
102
RTVSPropertyOp24
 70
     1
102
RTVSPropertyOp25
 70
     1
102
RTVSPropertyOp26
 70
     1
102
RTVSPropertyOp27
 70
     1
  0
XRECORD
  5
CF
102
{ACAD_REACTORS
330
CE
102
}
330
CE
100
AcDbXrecord
280
     1
102
RTVSPropertyOp0
 70
     1
102
RTVSPropertyOp1
 70
     1
102
RTVSPropertyOp2
 70
     1
102
RTVSPropertyOp3
 70
     1
102
RTVSPropertyOp4
 70
     1
102
RTVSPropertyOp5
 70
     1
102
RTVSPropertyOp6
 70
     1
102
RTVSPropertyOp7
 70
     1
102
RTVSPropertyOp8
 70
     1
102
RTVSPropertyOp9
 70
     1
102
RTVSPropertyOp10
 70
     1
102
RTVSPropertyOp11
 70
     1
102
RTVSPropertyOp12
 70
     1
102
RTVSPropertyOp13
 70
     1
102
RTVSPropertyOp14
 70
     1
102
RTVSPropertyOp15
 70
     1
102
RTVSPropertyOp16
 70
     1
102
RTVSPropertyOp17
 70
     1
102
RTVSPropertyOp18
 70
     1
102
RTVSPropertyOp19
 70
     1
102
RTVSPropertyOp20
 70
     1
102
RTVSPropertyOp21
 70
     1
102
RTVSPropertyOp22
 70
     1
102
RTVSPropertyOp23
 70
     1
102
RTVSPropertyOp24
 70
     1
102
RTVSPropertyOp25
 70
     1
102
RTVSPropertyOp26
 70
     1
102
RTVSPropertyOp27
 70
     1
  0
XRECORD
  5
C5
102
{ACAD_REACTORS
330
C4
102
}
330
C4
100
AcDbXrecord
280
     1
102
RTVSPropertyOp0
 70
     1
102
RTVSPropertyOp1
 70
     1
102
RTVSPropertyOp2
 70
     1
102
RTVSPropertyOp3
 70
     1
102
RTVSPropertyOp4
 70
     1
102
RTVSPropertyOp5
 70
     1
102
RTVSPropertyOp6
 70
     1
102
RTVSPropertyOp7
 70
     1
102
RTVSPropertyOp8
 70
     1
102
RTVSPropertyOp9
 70
     1
102
RTVSPropertyOp10
 70
     1
102
RTVSPropertyOp11
 70
     1
102
RTVSPropertyOp12
 70
     1
102
RTVSPropertyOp13
 70
     1
102
RTVSPropertyOp14
 70
     1
102
RTVSPropertyOp15
 70
     1
102
RTVSPropertyOp16
 70
     1
102
RTVSPropertyOp17
 70
     1
102
RTVSPropertyOp18
 70
     1
102
RTVSPropertyOp19
 70
     1
102
RTVSPropertyOp20
 70
     1
102
RTVSPropertyOp21
 70
     1
102
RTVSPropertyOp22
 70
     1
102
RTVSPropertyOp23
 70
     1
102
RTVSPropertyOp24
 70
     1
102
RTVSPropertyOp25
 70
     1
102
RTVSPropertyOp26
 70
     1
102
RTVSPropertyOp27
 70
     1
  0
XRECORD
  5
CD
102
{ACAD_REACTORS
330
CC
102
}
330
CC
100
AcDbXrecord
280
     1
102
RTVSPropertyOp0
 70
     1
102
RTVSPropertyOp1
 70
     1
102
RTVSPropertyOp2
 70
     1
102
RTVSPropertyOp3
 70
     1
102
RTVSPropertyOp4
 70
     1
102
RTVSPropertyOp5
 70
     1
102
RTVSPropertyOp6
 70
     1
102
RTVSPropertyOp7
 70
     1
102
RTVSPropertyOp8
 70
     1
102
RTVSPropertyOp9
 70
     1
102
RTVSPropertyOp10
 70
     1
102
RTVSPropertyOp11
 70
     1
102
RTVSPropertyOp12
 70
     1
102
RTVSPropertyOp13
 70
     1
102
RTVSPropertyOp14
 70
     1
102
RTVSPropertyOp15
 70
     1
102
RTVSPropertyOp16
 70
     1
102
RTVSPropertyOp17
 70
     1
102
RTVSPropertyOp18
 70
     1
102
RTVSPropertyOp19
 70
     1
102
RTVSPropertyOp20
 70
     1
102
RTVSPropertyOp21
 70
     1
102
RTVSPropertyOp22
 70
     1
102
RTVSPropertyOp23
 70
     1
102
RTVSPropertyOp24
 70
     1
102
RTVSPropertyOp25
 70
     1
102
RTVSPropertyOp26
 70
     1
102
RTVSPropertyOp27
 70
     1
  0
ENDSEC
  0
EOF
