  0
SECTION
  2
HEADER
  9
$ACADVER
  1
AC1027
  9
$ACADMAINTVER
 70
   115
  9
$DWGCODEPAGE
  3
ANSI_1252
  9
$LASTSAVEDBY
  1
ianklatzco
  9
$REQUIREDVERSIONS
160
                 0
  9
$INSBASE
 10
0.0
 20
0.0
 30
0.0
  9
$EXTMIN
 10
-15.69280862470479
 20
1.741300627460628
 30
0.0
  9
$EXTMAX
 10
-7.719929133858267
 20
8.703259842519685
 30
0.0
  9
$LIMMIN
 10
0.0
 20
0.0
  9
$LIMMAX
 10
12.0
 20
9.0
  9
$ORTHOMODE
 70
     0
  9
$REGENMODE
 70
     1
  9
$FILLMODE
 70
     1
  9
$QTEXTMODE
 70
     0
  9
$MIRRTEXT
 70
     1
  9
$LTSCALE
 40
1.0
  9
$ATTMODE
 70
     1
  9
$TEXTSIZE
 40
0.2
  9
$TRACEWID
 40
0.05
  9
$TEXTSTYLE
  7
Standard
  9
$CLAYER
  8
0
  9
$CELTYPE
  6
ByLayer
  9
$CECOLOR
 62
   256
  9
$CELTSCALE
 40
1.0
  9
$DISPSILH
 70
     0
  9
$DIMSCALE
 40
1.0
  9
$DIMASZ
 40
0.18
  9
$DIMEXO
 40
0.0625
  9
$DIMDLI
 40
0.38
  9
$DIMRND
 40
0.0
  9
$DIMDLE
 40
0.0
  9
$DIMEXE
 40
0.18
  9
$DIMTP
 40
0.0
  9
$DIMTM
 40
0.0
  9
$DIMTXT
 40
0.18
  9
$DIMCEN
 40
0.09
  9
$DIMTSZ
 40
0.0
  9
$DIMTOL
 70
     0
  9
$DIMLIM
 70
     0
  9
$DIMTIH
 70
     1
  9
$DIMTOH
 70
     1
  9
$DIMSE1
 70
     0
  9
$DIMSE2
 70
     0
  9
$DIMTAD
 70
     0
  9
$DIMZIN
 70
     0
  9
$DIMBLK
  1

  9
$DIMASO
 70
     1
  9
$DIMSHO
 70
     1
  9
$DIMPOST
  1

  9
$DIMAPOST
  1

  9
$DIMALT
 70
     0
  9
$DIMALTD
 70
     2
  9
$DIMALTF
 40
25.4
  9
$DIMLFAC
 40
1.0
  9
$DIMTOFL
 70
     0
  9
$DIMTVP
 40
0.0
  9
$DIMTIX
 70
     0
  9
$DIMSOXD
 70
     0
  9
$DIMSAH
 70
     0
  9
$DIMBLK1
  1

  9
$DIMBLK2
  1

  9
$DIMSTYLE
  2
Standard
  9
$DIMCLRD
 70
     0
  9
$DIMCLRE
 70
     0
  9
$DIMCLRT
 70
     0
  9
$DIMTFAC
 40
1.0
  9
$DIMGAP
 40
0.09
  9
$DIMJUST
 70
     0
  9
$DIMSD1
 70
     0
  9
$DIMSD2
 70
     0
  9
$DIMTOLJ
 70
     1
  9
$DIMTZIN
 70
     0
  9
$DIMALTZ
 70
     0
  9
$DIMALTTZ
 70
     0
  9
$DIMUPT
 70
     0
  9
$DIMDEC
 70
     4
  9
$DIMTDEC
 70
     4
  9
$DIMALTU
 70
     2
  9
$DIMALTTD
 70
     2
  9
$DIMTXSTY
  7
Standard
  9
$DIMAUNIT
 70
     0
  9
$DIMADEC
 70
     0
  9
$DIMALTRND
 40
0.0
  9
$DIMAZIN
 70
     0
  9
$DIMDSEP
 70
    46
  9
$DIMATFIT
 70
     3
  9
$DIMFRAC
 70
     0
  9
$DIMLDRBLK
  1

  9
$DIMLUNIT
 70
     2
  9
$DIMLWD
 70
    -2
  9
$DIMLWE
 70
    -2
  9
$DIMTMOVE
 70
     0
  9
$DIMFXL
 40
1.0
  9
$DIMFXLON
 70
     0
  9
$DIMJOGANG
 40
0.7853981633974483
  9
$DIMTFILL
 70
     0
  9
$DIMTFILLCLR
 70
     0
  9
$DIMARCSYM
 70
     0
  9
$DIMLTYPE
  6

  9
$DIMLTEX1
  6

  9
$DIMLTEX2
  6

  9
$DIMTXTDIRECTION
 70
     0
  9
$LUNITS
 70
     2
  9
$LUPREC
 70
     4
  9
$SKETCHINC
 40
0.1
  9
$FILLETRAD
 40
0.5
  9
$AUNITS
 70
     0
  9
$AUPREC
 70
     0
  9
$MENU
  1
.
  9
$ELEVATION
 40
0.0
  9
$PELEVATION
 40
0.0
  9
$THICKNESS
 40
0.0
  9
$LIMCHECK
 70
     0
  9
$CHAMFERA
 40
0.5
  9
$CHAMFERB
 40
0.5
  9
$CHAMFERC
 40
1.0
  9
$CHAMFERD
 40
0.0
  9
$SKPOLY
 70
     0
  9
$TDCREATE
 40
2456889.386730706
  9
$TDUCREATE
 40
2456889.595064039
  9
$TDUPDATE
 40
2457415.570495706
  9
$TDUUPDATE
 40
2457415.820495706
  9
$TDINDWG
 40
0.0128735417
  9
$TDUSRTIMER
 40
0.0128734838
  9
$USRTIMER
 70
     1
  9
$ANGBASE
 50
0.0
  9
$ANGDIR
 70
     0
  9
$PDMODE
 70
     0
  9
$PDSIZE
 40
0.0
  9
$PLINEWID
 40
0.0
  9
$SPLFRAME
 70
     0
  9
$SPLINETYPE
 70
     6
  9
$SPLINESEGS
 70
     8
  9
$HANDSEED
  5
15F
  9
$SURFTAB1
 70
     6
  9
$SURFTAB2
 70
     6
  9
$SURFTYPE
 70
     6
  9
$SURFU
 70
     6
  9
$SURFV
 70
     6
  9
$UCSBASE
  2

  9
$UCSNAME
  2

  9
$UCSORG
 10
0.0
 20
0.0
 30
0.0
  9
$UCSXDIR
 10
1.0
 20
0.0
 30
0.0
  9
$UCSYDIR
 10
0.0
 20
1.0
 30
0.0
  9
$UCSORTHOREF
  2

  9
$UCSORTHOVIEW
 70
     1
  9
$UCSORGTOP
 10
0.0
 20
0.0
 30
0.0
  9
$UCSORGBOTTOM
 10
0.0
 20
0.0
 30
0.0
  9
$UCSORGLEFT
 10
0.0
 20
0.0
 30
0.0
  9
$UCSORGRIGHT
 10
0.0
 20
0.0
 30
0.0
  9
$UCSORGFRONT
 10
0.0
 20
0.0
 30
0.0
  9
$UCSORGBACK
 10
0.0
 20
0.0
 30
0.0
  9
$PUCSBASE
  2

  9
$PUCSNAME
  2

  9
$PUCSORG
 10
0.0
 20
0.0
 30
0.0
  9
$PUCSXDIR
 10
1.0
 20
0.0
 30
0.0
  9
$PUCSYDIR
 10
0.0
 20
1.0
 30
0.0
  9
$PUCSORTHOREF
  2

  9
$PUCSORTHOVIEW
 70
     0
  9
$PUCSORGTOP
 10
0.0
 20
0.0
 30
0.0
  9
$PUCSORGBOTTOM
 10
0.0
 20
0.0
 30
0.0
  9
$PUCSORGLEFT
 10
0.0
 20
0.0
 30
0.0
  9
$PUCSORGRIGHT
 10
0.0
 20
0.0
 30
0.0
  9
$PUCSORGFRONT
 10
0.0
 20
0.0
 30
0.0
  9
$PUCSORGBACK
 10
0.0
 20
0.0
 30
0.0
  9
$USERI1
 70
     0
  9
$USERI2
 70
     0
  9
$USERI3
 70
     0
  9
$USERI4
 70
     0
  9
$USERI5
 70
     0
  9
$USERR1
 40
0.0
  9
$USERR2
 40
0.0
  9
$USERR3
 40
0.0
  9
$USERR4
 40
0.0
  9
$USERR5
 40
0.0
  9
$WORLDVIEW
 70
     1
  9
$SHADEDGE
 70
     3
  9
$SHADEDIF
 70
    70
  9
$TILEMODE
 70
     1
  9
$MAXACTVP
 70
    64
  9
$PINSBASE
 10
0.0
 20
0.0
 30
0.0
  9
$PLIMCHECK
 70
     0
  9
$PEXTMIN
 10
1.000000000000000E+20
 20
1.000000000000000E+20
 30
1.000000000000000E+20
  9
$PEXTMAX
 10
-1.000000000000000E+20
 20
-1.000000000000000E+20
 30
-1.000000000000000E+20
  9
$PLIMMIN
 10
0.0
 20
0.0
  9
$PLIMMAX
 10
12.0
 20
9.0
  9
$UNITMODE
 70
     0
  9
$VISRETAIN
 70
     1
  9
$PLINEGEN
 70
     0
  9
$PSLTSCALE
 70
     1
  9
$TREEDEPTH
 70
  3020
  9
$CMLSTYLE
  2
Standard
  9
$CMLJUST
 70
     0
  9
$CMLSCALE
 40
1.0
  9
$PROXYGRAPHICS
 70
     1
  9
$MEASUREMENT
 70
     0
  9
$CELWEIGHT
370
    -1
  9
$ENDCAPS
280
     0
  9
$JOINSTYLE
280
     0
  9
$LWDISPLAY
290
     0
  9
$INSUNITS
 70
     1
  9
$HYPERLINKBASE
  1

  9
$STYLESHEET
  1

  9
$XEDIT
290
     1
  9
$CEPSNTYPE
380
     0
  9
$PSTYLEMODE
290
     1
  9
$FINGERPRINTGUID
  2
{C09124BE-959A-404F-A43C-E248C68BF159}
  9
$VERSIONGUID
  2
{5C825DD4-BA59-8546-88FA-0F0A802C3514}
  9
$EXTNAMES
290
     1
  9
$PSVPSCALE
 40
0.0
  9
$OLESTARTUP
290
     0
  9
$SORTENTS
280
   127
  9
$INDEXCTL
280
     0
  9
$HIDETEXT
280
     1
  9
$XCLIPFRAME
280
     0
  9
$HALOGAP
280
     0
  9
$OBSCOLOR
 70
   257
  9
$OBSLTYPE
280
     0
  9
$INTERSECTIONDISPLAY
280
     0
  9
$INTERSECTIONCOLOR
 70
   257
  9
$DIMASSOC
280
     2
  9
$PROJECTNAME
  1

  9
$CAMERADISPLAY
290
     0
  9
$LENSLENGTH
 40
50.0
  9
$CAMERAHEIGHT
 40
0.0
  9
$STEPSPERSEC
 40
2.0
  9
$STEPSIZE
 40
6.0
  9
$3DDWFPREC
 40
2.0
  9
$PSOLWIDTH
 40
0.25
  9
$PSOLHEIGHT
 40
4.0
  9
$LOFTANG1
 40
1.570796326794897
  9
$LOFTANG2
 40
1.570796326794897
  9
$LOFTMAG1
 40
0.0
  9
$LOFTMAG2
 40
0.0
  9
$LOFTPARAM
 70
     7
  9
$LOFTNORMALS
280
     1
  9
$LATITUDE
 40
37.795
  9
$LONGITUDE
 40
-122.394
  9
$NORTHDIRECTION
 40
0.0
  9
$TIMEZONE
 70
 -8000
  9
$LIGHTGLYPHDISPLAY
280
     1
  9
$TILEMODELIGHTSYNCH
280
     1
  9
$CMATERIAL
347
3C
  9
$SOLIDHIST
280
     1
  9
$SHOWHIST
280
     1
  9
$DWFFRAME
280
     2
  9
$DGNFRAME
280
     2
  9
$REALWORLDSCALE
290
     1
  9
$INTERFERECOLOR
 62
   256
  9
$INTERFEREOBJVS
345
33
  9
$INTERFEREVPVS
346
E1
  9
$CSHADOW
280
     0
  9
$SHADOWPLANELOCATION
 40
0.0
  0
ENDSEC
  0
SECTION
  2
CLASSES
  0
CLASS
  1
ACDBDICTIONARYWDFLT
  2
AcDbDictionaryWithDefault
  3
ObjectDBX Classes
 90
        0
 91
        1
280
     0
281
     0
  0
CLASS
  1
VISUALSTYLE
  2
AcDbVisualStyle
  3
ObjectDBX Classes
 90
     4095
 91
       26
280
     0
281
     0
  0
CLASS
  1
MATERIAL
  2
AcDbMaterial
  3
ObjectDBX Classes
 90
     1153
 91
        3
280
     0
281
     0
  0
CLASS
  1
TABLESTYLE
  2
AcDbTableStyle
  3
ObjectDBX Classes
 90
     4095
 91
        1
280
     0
281
     0
  0
CLASS
  1
SCALE
  2
AcDbScale
  3
ObjectDBX Classes
 90
     1153
 91
       17
280
     0
281
     0
  0
CLASS
  1
MLEADERSTYLE
  2
AcDbMLeaderStyle
  3
ACDB_MLEADERSTYLE_CLASS
 90
     4095
 91
        1
280
     0
281
     0
  0
CLASS
  1
ACDBSECTIONVIEWSTYLE
  2
AcDbSectionViewStyle
  3
ObjectDBX Classes
 90
     1025
 91
        1
280
     0
281
     0
  0
CLASS
  1
ACDBDETAILVIEWSTYLE
  2
AcDbDetailViewStyle
  3
ObjectDBX Classes
 90
     1025
 91
        1
280
     0
281
     0
  0
CLASS
  1
DICTIONARYVAR
  2
AcDbDictionaryVar
  3
ObjectDBX Classes
 90
        0
 91
        7
280
     0
281
     0
  0
CLASS
  1
CELLSTYLEMAP
  2
AcDbCellStyleMap
  3
ObjectDBX Classes
 90
     1152
 91
        3
280
     0
281
     0
  0
ENDSEC
  0
SECTION
  2
TABLES
  0
TABLE
  2
VPORT
  5
8
330
0
100
AcDbSymbolTable
 70
     1
  0
VPORT
  5
29
330
8
100
AcDbSymbolTableRecord
100
AcDbViewportTableRecord
  2
*Active
 70
     0
 10
0.0
 20
0.0
 11
1.0
 21
1.0
 12
-12.40641265735758
 22
5.253676431099327
 13
0.0
 23
0.0
 14
0.5
 24
0.5
 15
0.5
 25
0.5
 16
0.0
 26
0.0
 36
1.0
 17
0.0
 27
0.0
 37
0.0
 40
11.15983907797617
 41
1.534456355283307
 42
50.0
 43
0.0
 44
0.0
 50
0.0
 51
0.0
 71
     0
 72
   100
 73
     1
 74
     3
 75
     0
 76
     0
 77
     0
 78
     0
281
     0
 65
     1
110
0.0
120
0.0
130
0.0
111
1.0
121
0.0
131
0.0
112
0.0
122
1.0
132
0.0
 79
     0
146
0.0
348
2F
 60
     3
 61
     5
292
     1
282
     1
141
0.0
142
0.0
 63
   250
1001
ACAD_NAV_VCDISPLAY
1070
     3
  0
ENDTAB
  0
TABLE
  2
LTYPE
  5
5
330
0
100
AcDbSymbolTable
 70
     2
  0
LTYPE
  5
14
330
5
100
AcDbSymbolTableRecord
100
AcDbLinetypeTableRecord
  2
ByBlock
 70
     0
  3

 72
    65
 73
     0
 40
0.0
  0
LTYPE
  5
15
330
5
100
AcDbSymbolTableRecord
100
AcDbLinetypeTableRecord
  2
ByLayer
 70
     0
  3

 72
    65
 73
     0
 40
0.0
  0
LTYPE
  5
16
330
5
100
AcDbSymbolTableRecord
100
AcDbLinetypeTableRecord
  2
Continuous
 70
     0
  3
Solid line
 72
    65
 73
     0
 40
0.0
  0
ENDTAB
  0
TABLE
  2
LAYER
  5
2
102
{ACAD_XDICTIONARY
360
10E
102
}
330
0
100
AcDbSymbolTable
 70
     2
  0
LAYER
  5
10
102
{ACAD_XDICTIONARY
360
107
102
}
330
2
100
AcDbSymbolTableRecord
100
AcDbLayerTableRecord
  2
0
 70
     0
 62
     7
  6
Continuous
370
    -3
390
F
347
3E
348
0
  0
LAYER
  5
77
102
{ACAD_XDICTIONARY
360
109
102
}
330
2
100
AcDbSymbolTableRecord
100
AcDbLayerTableRecord
  2
Master Layer 2
 70
     0
 62
     7
  6
Continuous
370
    -3
390
F
347
3E
348
0
  0
ENDTAB
  0
TABLE
  2
STYLE
  5
3
330
0
100
AcDbSymbolTable
 70
     1
  0
STYLE
  5
11
330
3
100
AcDbSymbolTableRecord
100
AcDbTextStyleTableRecord
  2
Standard
 70
     0
 40
0.0
 41
1.0
 50
0.0
 71
     0
 42
0.2
  3
txt
  4

  0
ENDTAB
  0
TABLE
  2
VIEW
  5
6
330
0
100
AcDbSymbolTable
 70
     2
  0
ENDTAB
  0
TABLE
  2
UCS
  5
7
330
0
100
AcDbSymbolTable
 70
     0
  0
ENDTAB
  0
TABLE
  2
APPID
  5
9
330
0
100
AcDbSymbolTable
 70
     4
  0
APPID
  5
12
330
9
100
AcDbSymbolTableRecord
100
AcDbRegAppTableRecord
  2
ACAD
 70
     0
  0
APPID
  5
3F
330
9
100
AcDbSymbolTableRecord
100
AcDbRegAppTableRecord
  2
ODA
 70
     0
  0
APPID
  5
114
330
9
100
AcDbSymbolTableRecord
100
AcDbRegAppTableRecord
  2
ACAD_NAV_VCDISPLAY
 70
     0
  0
APPID
  5
13C
330
9
100
AcDbSymbolTableRecord
100
AcDbRegAppTableRecord
  2
ACAD_EXEMPT_FROM_CAD_STANDARDS
 70
     0
  0
ENDTAB
  0
TABLE
  2
DIMSTYLE
  5
A
330
0
100
AcDbSymbolTable
 70
     2
100
AcDbDimStyleTable
 71
     1
340
27
  0
DIMSTYLE
105
27
330
A
100
AcDbSymbolTableRecord
100
AcDbDimStyleTableRecord
  2
Standard
 70
     0
340
11
  0
ENDTAB
  0
TABLE
  2
BLOCK_RECORD
  5
1
330
0
100
AcDbSymbolTable
 70
     3
  0
BLOCK_RECORD
  5
1F
330
1
100
AcDbSymbolTableRecord
100
AcDbBlockTableRecord
  2
*Model_Space
340
22
 70
     0
280
     1
281
     0
  0
BLOCK_RECORD
  5
1B
330
1
100
AcDbSymbolTableRecord
100
AcDbBlockTableRecord
  2
*Paper_Space
340
1E
 70
     0
280
     1
281
     0
  0
BLOCK_RECORD
  5
23
330
1
100
AcDbSymbolTableRecord
100
AcDbBlockTableRecord
  2
*Paper_Space0
340
26
 70
     0
280
     1
281
     0
  0
ENDTAB
  0
ENDSEC
  0
SECTION
  2
BLOCKS
  0
BLOCK
  5
20
330
1F
100
AcDbEntity
  8
0
100
AcDbBlockBegin
  2
*Model_Space
 70
     0
 10
0.0
 20
0.0
 30
0.0
  3
*Model_Space
  1

  0
ENDBLK
  5
21
330
1F
100
AcDbEntity
  8
0
100
AcDbBlockEnd
  0
BLOCK
  5
1C
330
1B
100
AcDbEntity
 67
     1
  8
0
100
AcDbBlockBegin
  2
*Paper_Space
 70
     0
 10
0.0
 20
0.0
 30
0.0
  3
*Paper_Space
  1

  0
ENDBLK
  5
1D
330
1B
100
AcDbEntity
 67
     1
  8
0
100
AcDbBlockEnd
  0
BLOCK
  5
24
330
23
100
AcDbEntity
 67
     1
  8
0
100
AcDbBlockBegin
  2
*Paper_Space0
 70
     0
 10
0.0
 20
0.0
 30
0.0
  3
*Paper_Space0
  1

  0
ENDBLK
  5
25
330
23
100
AcDbEntity
 67
     1
  8
0
100
AcDbBlockEnd
  0
ENDSEC
  0
SECTION
  2
ENTITIES
  0
SPLINE
  5
41
330
1F
100
AcDbEntity
  8
0
370
     9
100
AcDbSpline
210
0.0
220
0.0
230
1.0
 70
    24
 71
     3
 72
     8
 73
     4
 74
     0
 42
0.000000001
 43
0.0000000001
 40
0.0
 40
0.0
 40
0.0
 40
0.0
 40
1.0
 40
1.0
 40
1.0
 40
1.0
 10
-7.995519685039369
 20
8.703259842519685
 30
0.0
 10
-7.995519685039369
 20
8.703259842519685
 30
0.0
 10
-10.18092913385827
 20
8.703259842519685
 30
0.0
 10
-10.18092913385827
 20
8.703259842519685
 30
0.0
  0
SPLINE
  5
42
330
1F
100
AcDbEntity
  8
0
370
     9
100
AcDbSpline
210
0.0
220
0.0
230
1.0
 70
    24
 71
     3
 72
     8
 73
     4
 74
     0
 42
0.000000001
 43
0.0000000001
 40
0.0
 40
0.0
 40
0.0
 40
0.0
 40
1.0
 40
1.0
 40
1.0
 40
1.0
 10
-11.33392913385827
 20
8.703259842519685
 30
0.0
 10
-11.33392913385827
 20
8.703259842519685
 30
0.0
 10
-12.08492913385827
 20
8.703259842519685
 30
0.0
 10
-12.08492913385827
 20
8.703259842519685
 30
0.0
  0
SPLINE
  5
43
330
1F
100
AcDbEntity
  8
0
370
     9
100
AcDbSpline
210
0.0
220
0.0
230
1.0
 70
    24
 71
     3
 72
     8
 73
     4
 74
     0
 42
0.000000001
 43
0.0000000001
 40
0.0
 40
0.0
 40
0.0
 40
0.0
 40
1.0
 40
1.0
 40
1.0
 40
1.0
 10
-12.08492913385827
 20
8.703259842519685
 30
0.0
 10
-12.08492913385827
 20
8.703259842519685
 30
0.0
 10
-13.78633858267717
 20
8.703259842519685
 30
0.0
 10
-13.78633858267717
 20
8.703259842519685
 30
0.0
  0
SPLINE
  5
47
330
1F
100
AcDbEntity
  8
0
370
     9
100
AcDbSpline
210
0.0
220
0.0
230
1.0
 70
    24
 71
     3
 72
     8
 73
     4
 74
     0
 42
0.000000001
 43
0.0000000001
 40
0.0
 40
0.0
 40
0.0
 40
0.0
 40
1.0
 40
1.0
 40
1.0
 40
1.0
 10
-10.90953149606299
 20
8.344448818897637
 30
0.0
 10
-10.90953149606299
 20
8.344448818897637
 30
0.0
 10
-11.01944881889764
 20
8.344448818897637
 30
0.0
 10
-11.01944881889764
 20
8.344448818897637
 30
0.0
  0
SPLINE
  5
48
330
1F
100
AcDbEntity
  8
0
370
     9
100
AcDbSpline
210
0.0
220
0.0
230
1.0
 70
    24
 71
     3
 72
     8
 73
     4
 74
     0
 42
0.000000001
 43
0.0000000001
 40
0.0
 40
0.0
 40
0.0
 40
0.0
 40
1.0
 40
1.0
 40
1.0
 40
1.0
 10
-10.60633070866142
 20
8.50196062992126
 30
0.0
 10
-10.60633070866142
 20
8.50196062992126
 30
0.0
 10
-10.60633070866142
 20
8.344448818897637
 30
0.0
 10
-10.60633070866142
 20
8.344448818897637
 30
0.0
  0
SPLINE
  5
49
330
1F
100
AcDbEntity
  8
0
370
     9
100
AcDbSpline
210
0.0
220
0.0
230
1.0
 70
    24
 71
     3
 72
     8
 73
     4
 74
     0
 42
0.000000001
 43
0.0000000001
 40
0.0
 40
0.0
 40
0.0
 40
0.0
 40
1.0
 40
1.0
 40
1.0
 40
1.0
 10
-8.617874015748029
 20
8.344448818897637
 30
0.0
 10
-8.617874015748029
 20
8.344448818897637
 30
0.0
 10
-10.60633070866142
 20
8.344448818897637
 30
0.0
 10
-10.60633070866142
 20
8.344448818897637
 30
0.0
  0
SPLINE
  5
4B
330
1F
100
AcDbEntity
  8
0
370
     9
100
AcDbSpline
210
0.0
220
0.0
230
1.0
 70
    24
 71
     3
 72
     8
 73
     4
 74
     0
 42
0.000000001
 43
0.0000000001
 40
0.0
 40
0.0
 40
0.0
 40
0.0
 40
1.0
 40
1.0
 40
1.0
 40
1.0
 10
-10.60633070866142
 20
8.50196062992126
 30
0.0
 10
-10.60633070866142
 20
8.50196062992126
 30
0.0
 10
-10.54727559055118
 20
8.50196062992126
 30
0.0
 10
-10.54727559055118
 20
8.50196062992126
 30
0.0
  0
SPLINE
  5
4C
330
1F
100
AcDbEntity
  8
0
370
     9
100
AcDbSpline
210
0.0
220
0.0
230
1.0
 70
    24
 71
     3
 72
     8
 73
     4
 74
     0
 42
0.000000001
 43
0.0000000001
 40
0.0
 40
0.0
 40
0.0
 40
0.0
 40
1.0
 40
1.0
 40
1.0
 40
1.0
 10
-10.96858661417323
 20
8.50196062992126
 30
0.0
 10
-10.96858661417323
 20
8.50196062992126
 30
0.0
 10
-10.90953149606299
 20
8.50196062992126
 30
0.0
 10
-10.90953149606299
 20
8.50196062992126
 30
0.0
  0
SPLINE
  5
4D
330
1F
100
AcDbEntity
  8
0
370
     9
100
AcDbSpline
210
0.0
220
0.0
230
1.0
 70
    24
 71
     3
 72
     8
 73
     4
 74
     0
 42
0.000000001
 43
0.0000000001
 40
0.0
 40
0.0
 40
0.0
 40
0.0
 40
1.0
 40
1.0
 40
1.0
 40
1.0
 10
-10.54727559055118
 20
8.50196062992126
 30
0.0
 10
-10.54727559055118
 20
8.50196062992126
 30
0.0
 10
-10.18092913385827
 20
8.703259842519685
 30
0.0
 10
-10.18092913385827
 20
8.703259842519685
 30
0.0
  0
SPLINE
  5
4E
330
1F
100
AcDbEntity
  8
0
370
     9
100
AcDbSpline
210
0.0
220
0.0
230
1.0
 70
    24
 71
     3
 72
     8
 73
     4
 74
     0
 42
0.000000001
 43
0.0000000001
 40
0.0
 40
0.0
 40
0.0
 40
0.0
 40
1.0
 40
1.0
 40
1.0
 40
1.0
 10
-11.33392913385827
 20
8.703259842519685
 30
0.0
 10
-11.33392913385827
 20
8.703259842519685
 30
0.0
 10
-10.96758661417323
 20
8.50196062992126
 30
0.0
 10
-10.96758661417323
 20
8.50196062992126
 30
0.0
  0
SPLINE
  5
5C
330
1F
100
AcDbEntity
  8
0
370
     9
100
AcDbSpline
210
0.0
220
0.0
230
1.0
 70
    24
 71
     3
 72
     8
 73
     4
 74
     0
 42
0.000000001
 43
0.0000000001
 40
0.0
 40
0.0
 40
0.0
 40
0.0
 40
1.0
 40
1.0
 40
1.0
 40
1.0
 10
-11.46559842519685
 20
8.161259842519685
 30
0.0
 10
-11.46559842519685
 20
8.161259842519685
 30
0.0
 10
-11.01944881889764
 20
8.161259842519685
 30
0.0
 10
-11.01944881889764
 20
8.161259842519685
 30
0.0
  0
SPLINE
  5
5D
330
1F
100
AcDbEntity
  8
0
370
     9
100
AcDbSpline
210
0.0
220
0.0
230
1.0
 70
    24
 71
     3
 72
     8
 73
     4
 74
     0
 42
0.000000001
 43
0.0000000001
 40
0.0
 40
0.0
 40
0.0
 40
0.0
 40
1.0
 40
1.0
 40
1.0
 40
1.0
 10
-11.01944881889764
 20
8.344448818897637
 30
0.0
 10
-11.01944881889764
 20
8.344448818897637
 30
0.0
 10
-11.01944881889764
 20
8.161259842519685
 30
0.0
 10
-11.01944881889764
 20
8.161259842519685
 30
0.0
  0
SPLINE
  5
5E
330
1F
100
AcDbEntity
  8
0
370
     9
100
AcDbSpline
210
0.0
220
0.0
230
1.0
 70
     8
 71
     3
 72
     8
 73
     4
 74
     0
 42
0.000000001
 43
0.0000000001
 40
0.0
 40
0.0
 40
0.0
 40
0.0
 40
1.0
 40
1.0
 40
1.0
 40
1.0
 10
-14.22105905511811
 20
5.07203937007874
 30
0.0
 10
-14.1239842519685
 20
5.1173031496063
 30
0.0
 10
-14.06192913385827
 20
5.214704724409449
 30
0.0
 10
-14.06192913385827
 20
5.321811023622045
 30
0.0
  0
SPLINE
  5
5F
330
1F
100
AcDbEntity
  8
0
370
     9
100
AcDbSpline
210
0.0
220
0.0
230
1.0
 70
     8
 71
     3
 72
     8
 73
     4
 74
     0
 42
0.000000001
 43
0.0000000001
 40
0.0
 40
0.0
 40
0.0
 40
0.0
 40
1.0
 40
1.0
 40
1.0
 40
1.0
 10
-11.03224409448819
 20
3.253259842519685
 30
0.0
 10
-11.07248031496063
 20
3.253259842519685
 30
0.0
 10
-11.11222834645669
 20
3.244448818897638
 30
0.0
 10
-11.14869291338583
 20
3.227444881889763
 30
0.0
  0
SPLINE
  5
60
330
1F
100
AcDbEntity
  8
0
370
     9
100
AcDbSpline
210
0.0
220
0.0
230
1.0
 70
    24
 71
     3
 72
     8
 73
     4
 74
     0
 42
0.000000001
 43
0.0000000001
 40
0.0
 40
0.0
 40
0.0
 40
0.0
 40
1.0
 40
1.0
 40
1.0
 40
1.0
 10
-14.06192913385827
 20
8.427669291338581
 30
0.0
 10
-14.06192913385827
 20
8.427669291338581
 30
0.0
 10
-14.06192913385827
 20
5.321814960629921
 30
0.0
 10
-14.06192913385827
 20
5.321814960629921
 30
0.0
  0
SPLINE
  5
61
330
1F
100
AcDbEntity
  8
0
370
     9
100
AcDbSpline
210
0.0
220
0.0
230
1.0
 70
    24
 71
     3
 72
     8
 73
     4
 74
     0
 42
0.000000001
 43
0.0000000001
 40
0.0
 40
0.0
 40
0.0
 40
0.0
 40
1.0
 40
1.0
 40
1.0
 40
1.0
 10
-7.719929133858267
 20
3.528850393700786
 30
0.0
 10
-7.719929133858267
 20
3.528850393700786
 30
0.0
 10
-7.719929133858267
 20
8.427669291338581
 30
0.0
 10
-7.719929133858267
 20
8.427669291338581
 30
0.0
  0
SPLINE
  5
62
330
1F
100
AcDbEntity
  8
0
370
     9
100
AcDbSpline
210
0.0
220
0.0
230
1.0
 70
    24
 71
     3
 72
     8
 73
     4
 74
     0
 42
0.000000001
 43
0.0000000001
 40
0.0
 40
0.0
 40
0.0
 40
0.0
 40
1.0
 40
1.0
 40
1.0
 40
1.0
 10
-15.66973228346457
 20
4.092484251968504
 30
0.0
 10
-15.66973228346457
 20
4.092484251968504
 30
0.0
 10
-14.64751181102362
 20
1.900307086614173
 30
0.0
 10
-14.64751181102362
 20
1.900307086614173
 30
0.0
  0
SPLINE
  5
63
330
1F
100
AcDbEntity
  8
0
370
     9
100
AcDbSpline
210
0.0
220
0.0
230
1.0
 70
    24
 71
     3
 72
     8
 73
     4
 74
     0
 42
0.000000001
 43
0.0000000001
 40
0.0
 40
0.0
 40
0.0
 40
0.0
 40
1.0
 40
1.0
 40
1.0
 40
1.0
 10
-14.28129133858268
 20
1.766999999999999
 30
0.0
 10
-14.28129133858268
 20
1.766999999999999
 30
0.0
 10
-11.14869291338583
 20
3.227444881889763
 30
0.0
 10
-11.14869291338583
 20
3.227444881889763
 30
0.0
  0
SPLINE
  5
64
330
1F
100
AcDbEntity
  8
0
370
     9
100
AcDbSpline
210
0.0
220
0.0
230
1.0
 70
    24
 71
     3
 72
     8
 73
     4
 74
     0
 42
0.000000001
 43
0.0000000001
 40
0.0
 40
0.0
 40
0.0
 40
0.0
 40
1.0
 40
1.0
 40
1.0
 40
1.0
 10
-11.03224409448819
 20
3.253259842519685
 30
0.0
 10
-11.03224409448819
 20
3.253259842519685
 30
0.0
 10
-7.995519685039369
 20
3.253259842519685
 30
0.0
 10
-7.995519685039369
 20
3.253259842519685
 30
0.0
  0
SPLINE
  5
65
330
1F
100
AcDbEntity
  8
0
370
     9
100
AcDbSpline
210
0.0
220
0.0
230
1.0
 70
     8
 71
     3
 72
    12
 73
     8
 74
     0
 42
0.000000001
 43
0.0000000001
 40
0.0
 40
0.0
 40
0.0
 40
0.0
 40
0.3333333333333333
 40
0.3333333333333333
 40
0.3333333333333333
 40
0.3333333433333333
 40
1.0
 40
1.0
 40
1.0
 40
1.0
 10
-7.719929133858267
 20
8.427669291338581
 30
0.0
 10
-7.719929133858267
 20
8.500759842519684
 30
0.0
 10
-7.748964566929132
 20
8.570854330708661
 30
0.0
 10
-7.800649606299213
 20
8.62253937007874
 30
0.0
 10
-7.800649606299213
 20
8.62253937007874
 30
0.0
 10
-7.852330708661417
 20
8.674224409448818
 30
0.0
 10
-7.922429133858266
 20
8.703259842519685
 30
0.0
 10
-7.995519685039369
 20
8.703259842519685
 30
0.0
  0
SPLINE
  5
66
330
1F
100
AcDbEntity
  8
0
370
     9
100
AcDbSpline
210
0.0
220
0.0
230
1.0
 70
     8
 71
     3
 72
    12
 73
     8
 74
     0
 42
0.000000001
 43
0.0000000001
 40
0.0
 40
0.0
 40
0.0
 40
0.0
 40
0.3333333333333333
 40
0.3333333333333333
 40
0.3333333333333333
 40
0.3333333433333333
 40
1.0
 40
1.0
 40
1.0
 40
1.0
 10
-13.78633858267717
 20
8.703259842519685
 30
0.0
 10
-13.85942913385827
 20
8.703259842519685
 30
0.0
 10
-13.92952755905512
 20
8.674224409448818
 30
0.0
 10
-13.9812125984252
 20
8.62253937007874
 30
0.0
 10
-13.9812125984252
 20
8.62253937007874
 30
0.0
 10
-14.0328937007874
 20
8.570854330708661
 30
0.0
 10
-14.06192913385827
 20
8.500759842519684
 30
0.0
 10
-14.06192913385827
 20
8.427669291338581
 30
0.0
  0
SPLINE
  5
67
330
1F
100
AcDbEntity
  8
0
370
     9
100
AcDbSpline
210
0.0
220
0.0
230
1.0
 70
    24
 71
     3
 72
     8
 73
     4
 74
     0
 42
0.000000001
 43
0.0000000001
 40
0.0
 40
0.0
 40
0.0
 40
0.0
 40
1.0
 40
1.0
 40
1.0
 40
1.0
 10
-14.22105905511811
 20
5.07203937007874
 30
0.0
 10
-14.22105905511811
 20
5.07203937007874
 30
0.0
 10
-15.53642125984252
 20
4.458728346456691
 30
0.0
 10
-15.53642125984252
 20
4.458728346456691
 30
0.0
  0
SPLINE
  5
68
330
1F
100
AcDbEntity
  8
0
370
     9
100
AcDbSpline
210
0.0
220
0.0
230
1.0
 70
     8
 71
     3
 72
     8
 73
     4
 74
     0
 42
0.000000001
 43
0.0000000001
 40
0.0
 40
0.0
 40
0.0
 40
0.0
 40
1.0
 40
1.0
 40
1.0
 40
1.0
 10
-7.995519685039369
 20
3.253259842519685
 30
0.0
 10
-7.843314960629919
 20
3.253259842519685
 30
0.0
 10
-7.719929133858267
 20
3.376641732283463
 30
0.0
 10
-7.719929133858267
 20
3.528846456692912
 30
0.0
  0
SPLINE
  5
69
330
1F
100
AcDbEntity
  8
0
370
     9
100
AcDbSpline
210
0.0
220
0.0
230
1.0
 70
     8
 71
     3
 72
     8
 73
     4
 74
     0
 42
0.000000001
 43
0.0000000001
 40
0.0
 40
0.0
 40
0.0
 40
0.0
 40
1.0
 40
1.0
 40
1.0
 40
1.0
 10
-14.64751181102362
 20
1.900307086614173
 30
0.0
 10
-14.58318897637795
 20
1.762370078740155
 30
0.0
 10
-14.41923228346457
 20
1.702688976377951
 30
0.0
 10
-14.28129133858268
 20
1.766999999999999
 30
0.0
  0
SPLINE
  5
6A
330
1F
100
AcDbEntity
  8
0
370
     9
100
AcDbSpline
210
0.0
220
0.0
230
1.0
 70
     8
 71
     3
 72
    12
 73
     8
 74
     0
 42
0.000000001
 43
0.0000000001
 40
0.0
 40
0.0
 40
0.0
 40
0.0
 40
0.3333333333333333
 40
0.3333333333333333
 40
0.3333333333333333
 40
0.3333333433333333
 40
1.0
 40
1.0
 40
1.0
 40
1.0
 10
-15.53642125984252
 20
4.458728346456691
 30
0.0
 10
-15.60266535433071
 20
4.427838582677165
 30
0.0
 10
-15.65392913385827
 20
4.371901574803149
 30
0.0
 10
-15.67892913385827
 20
4.303216535433071
 30
0.0
 10
-15.67892913385827
 20
4.303216535433071
 30
0.0
 10
-15.70392913385827
 20
4.234531496062992
 30
0.0
 10
-15.70062204724409
 20
4.158728346456693
 30
0.0
 10
-15.66973228346457
 20
4.092484251968504
 30
0.0
  0
SPLINE
  5
71
330
1F
100
AcDbEntity
  8
0
370
     9
100
AcDbSpline
210
0.0
220
0.0
230
1.0
 70
    24
 71
     3
 72
     8
 73
     4
 74
     0
 42
0.000000001
 43
0.0000000001
 40
0.0
 40
0.0
 40
0.0
 40
0.0
 40
1.0
 40
1.0
 40
1.0
 40
1.0
 10
-10.90953149606299
 20
8.50196062992126
 30
0.0
 10
-10.90953149606299
 20
8.50196062992126
 30
0.0
 10
-10.90953149606299
 20
8.344448818897637
 30
0.0
 10
-10.90953149606299
 20
8.344448818897637
 30
0.0
  0
SPLINE
  5
72
330
1F
100
AcDbEntity
  8
0
370
     9
100
AcDbSpline
210
0.0
220
0.0
230
1.0
 70
    24
 71
     3
 72
     8
 73
     4
 74
     0
 42
0.000000001
 43
0.0000000001
 40
0.0
 40
0.0
 40
0.0
 40
0.0
 40
1.0
 40
1.0
 40
1.0
 40
1.0
 10
-11.49188976377953
 20
7.655472440944882
 30
0.0
 10
-11.49188976377953
 20
7.655472440944882
 30
0.0
 10
-11.49188976377953
 20
8.111980314960629
 30
0.0
 10
-11.49188976377953
 20
8.111980314960629
 30
0.0
  0
SPLINE
  5
73
330
1F
100
AcDbEntity
  8
0
370
     9
100
AcDbSpline
210
0.0
220
0.0
230
1.0
 70
    24
 71
     3
 72
     8
 73
     4
 74
     0
 42
0.000000001
 43
0.0000000001
 40
0.0
 40
0.0
 40
0.0
 40
0.0
 40
1.0
 40
1.0
 40
1.0
 40
1.0
 10
-9.908460629921259
 20
7.576732283464568
 30
0.0
 10
-9.908460629921259
 20
7.576732283464568
 30
0.0
 10
-8.617874015748029
 20
7.576732283464568
 30
0.0
 10
-8.617874015748029
 20
7.576732283464568
 30
0.0
  0
SPLINE
  5
74
330
1F
100
AcDbEntity
  8
0
370
     9
100
AcDbSpline
210
0.0
220
0.0
230
1.0
 70
    24
 71
     3
 72
     8
 73
     4
 74
     0
 42
0.000000001
 43
0.0000000001
 40
0.0
 40
0.0
 40
0.0
 40
0.0
 40
1.0
 40
1.0
 40
1.0
 40
1.0
 10
-8.617874015748029
 20
7.576732283464568
 30
0.0
 10
-8.617874015748029
 20
7.576732283464568
 30
0.0
 10
-8.617874015748029
 20
8.344448818897637
 30
0.0
 10
-8.617874015748029
 20
8.344448818897637
 30
0.0
  0
SPLINE
  5
75
330
1F
100
AcDbEntity
  8
0
370
     9
100
AcDbSpline
210
0.0
220
0.0
230
1.0
 70
    24
 71
     3
 72
     8
 73
     4
 74
     0
 42
0.000000001
 43
0.0000000001
 40
0.0
 40
0.0
 40
0.0
 40
0.0
 40
1.0
 40
1.0
 40
1.0
 40
1.0
 10
-9.908460629921259
 20
7.655472440944882
 30
0.0
 10
-9.908460629921259
 20
7.655472440944882
 30
0.0
 10
-11.49188976377953
 20
7.655472440944882
 30
0.0
 10
-11.49188976377953
 20
7.655472440944882
 30
0.0
  0
SPLINE
  5
76
330
1F
100
AcDbEntity
  8
0
370
     9
100
AcDbSpline
210
0.0
220
0.0
230
1.0
 70
    24
 71
     3
 72
     8
 73
     4
 74
     0
 42
0.000000001
 43
0.0000000001
 40
0.0
 40
0.0
 40
0.0
 40
0.0
 40
1.0
 40
1.0
 40
1.0
 40
1.0
 10
-9.908460629921259
 20
7.655472440944882
 30
0.0
 10
-9.908460629921259
 20
7.655472440944882
 30
0.0
 10
-9.908460629921259
 20
7.576732283464568
 30
0.0
 10
-9.908460629921259
 20
7.576732283464568
 30
0.0
  0
LWPOLYLINE
  5
78
330
1F
100
AcDbEntity
  8
Master Layer 2
 62
     1
370
     9
100
AcDbPolyline
 90
        5
 70
     1
 43
0.0
 10
-8.948673228346457
 20
6.756185039370079
 10
-8.338437007874015
 20
6.756185039370079
 10
-8.338437007874015
 20
7.260122047244093
 10
-8.948673228346457
 20
7.260122047244093
 10
-8.948673228346457
 20
6.756185039370079
  0
LWPOLYLINE
  5
79
330
1F
100
AcDbEntity
  8
Master Layer 2
 62
     1
370
     9
100
AcDbPolyline
 90
        5
 70
     1
 43
0.0
 10
-9.885681102362203
 20
6.756185039370079
 10
-9.275444881889763
 20
6.756185039370079
 10
-9.275444881889763
 20
7.260122047244093
 10
-9.885681102362203
 20
7.260122047244093
 10
-9.885681102362203
 20
6.756185039370079
  0
LWPOLYLINE
  5
7A
330
1F
100
AcDbEntity
  8
Master Layer 2
 62
     1
370
     9
100
AcDbPolyline
 90
        5
 70
     1
 43
0.0
 10
-8.948673228346457
 20
6.004216535433071
 10
-8.338437007874015
 20
6.004216535433071
 10
-8.338437007874015
 20
6.508153543307087
 10
-8.948673228346457
 20
6.508153543307087
 10
-8.948673228346457
 20
6.004216535433071
  0
LWPOLYLINE
  5
7B
330
1F
100
AcDbEntity
  8
Master Layer 2
 62
     1
370
     9
100
AcDbPolyline
 90
        5
 70
     1
 43
0.0
 10
-9.885681102362203
 20
6.004216535433071
 10
-9.275444881889763
 20
6.004216535433071
 10
-9.275444881889763
 20
6.508153543307087
 10
-9.885681102362203
 20
6.508153543307087
 10
-9.885681102362203
 20
6.004216535433071
  0
LWPOLYLINE
  5
7C
330
1F
100
AcDbEntity
  8
Master Layer 2
 62
     1
370
     9
100
AcDbPolyline
 90
        5
 70
     1
 43
0.0
 10
-8.948673228346457
 20
5.256185039370079
 10
-8.338437007874015
 20
5.256185039370079
 10
-8.338437007874015
 20
5.760122047244093
 10
-8.948673228346457
 20
5.760122047244093
 10
-8.948673228346457
 20
5.256185039370079
  0
LWPOLYLINE
  5
7D
330
1F
100
AcDbEntity
  8
Master Layer 2
 62
     1
370
     9
100
AcDbPolyline
 90
        5
 70
     1
 43
0.0
 10
-9.885681102362203
 20
5.256185039370079
 10
-9.275444881889763
 20
5.256185039370079
 10
-9.275444881889763
 20
5.760122047244093
 10
-9.885681102362203
 20
5.760122047244093
 10
-9.885681102362203
 20
5.256185039370079
  0
LWPOLYLINE
  5
7E
330
1F
100
AcDbEntity
  8
Master Layer 2
 62
     1
370
     9
100
AcDbPolyline
 90
        5
 70
     1
 43
0.0
 10
-8.948673228346457
 20
4.508153543307086
 10
-8.338437007874015
 20
4.508153543307086
 10
-8.338437007874015
 20
5.012090551181101
 10
-8.948673228346457
 20
5.012090551181101
 10
-8.948673228346457
 20
4.508153543307086
  0
LWPOLYLINE
  5
7F
330
1F
100
AcDbEntity
  8
Master Layer 2
 62
     1
370
     9
100
AcDbPolyline
 90
        5
 70
     1
 43
0.0
 10
-9.885681102362203
 20
4.508153543307086
 10
-9.275444881889763
 20
4.508153543307086
 10
-9.275444881889763
 20
5.012090551181101
 10
-9.885681102362203
 20
5.012090551181101
 10
-9.885681102362203
 20
4.508153543307086
  0
LWPOLYLINE
  5
80
330
1F
100
AcDbEntity
  8
Master Layer 2
 62
     1
370
     9
100
AcDbPolyline
 90
        5
 70
     1
 43
0.0
 10
-10.63204330708661
 20
6.881425196850393
 10
-10.02180708661417
 20
6.881425196850393
 10
-10.02180708661417
 20
7.385362204724409
 10
-10.63204330708661
 20
7.385362204724409
 10
-10.63204330708661
 20
6.881425196850393
  0
LWPOLYLINE
  5
81
330
1F
100
AcDbEntity
  8
Master Layer 2
 62
     1
370
     9
100
AcDbPolyline
 90
        5
 70
     1
 43
0.0
 10
-10.63204330708661
 20
6.129456692913386
 10
-10.02180708661417
 20
6.129456692913386
 10
-10.02180708661417
 20
6.633393700787401
 10
-10.63204330708661
 20
6.633393700787401
 10
-10.63204330708661
 20
6.129456692913386
  0
LWPOLYLINE
  5
82
330
1F
100
AcDbEntity
  8
Master Layer 2
 62
     1
370
     9
100
AcDbPolyline
 90
        5
 70
     1
 43
0.0
 10
-10.63204330708661
 20
5.381425196850393
 10
-10.02180708661417
 20
5.381425196850393
 10
-10.02180708661417
 20
5.885362204724409
 10
-10.63204330708661
 20
5.885362204724409
 10
-10.63204330708661
 20
5.381425196850393
  0
LWPOLYLINE
  5
83
330
1F
100
AcDbEntity
  8
Master Layer 2
 62
     1
370
     9
100
AcDbPolyline
 90
        5
 70
     1
 43
0.0
 10
-10.63204330708661
 20
4.633393700787401
 10
-10.02180708661417
 20
4.633393700787401
 10
-10.02180708661417
 20
5.137330708661417
 10
-10.63204330708661
 20
5.137330708661417
 10
-10.63204330708661
 20
4.633393700787401
  0
LWPOLYLINE
  5
84
330
1F
100
AcDbEntity
  8
Master Layer 2
 62
     1
370
     9
100
AcDbPolyline
 90
        5
 70
     1
 43
0.0
 10
-10.63204330708661
 20
3.881425196850393
 10
-10.02180708661417
 20
3.881425196850393
 10
-10.02180708661417
 20
4.38536220472441
 10
-10.63204330708661
 20
4.38536220472441
 10
-10.63204330708661
 20
3.881425196850393
  0
LWPOLYLINE
  5
85
330
1F
100
AcDbEntity
  8
Master Layer 2
 62
     1
370
     9
100
AcDbPolyline
 90
        5
 70
     1
 43
0.0
 10
-11.38505118110236
 20
6.943925196850393
 10
-10.77481496062992
 20
6.943925196850393
 10
-10.77481496062992
 20
7.447862204724409
 10
-11.38505118110236
 20
7.447862204724409
 10
-11.38505118110236
 20
6.943925196850393
  0
LWPOLYLINE
  5
86
330
1F
100
AcDbEntity
  8
Master Layer 2
 62
     1
370
     9
100
AcDbPolyline
 90
        5
 70
     1
 43
0.0
 10
-11.38505118110236
 20
6.191956692913386
 10
-10.77481496062992
 20
6.191956692913386
 10
-10.77481496062992
 20
6.695893700787401
 10
-11.38505118110236
 20
6.695893700787401
 10
-11.38505118110236
 20
6.191956692913386
  0
LWPOLYLINE
  5
87
330
1F
100
AcDbEntity
  8
Master Layer 2
 62
     1
370
     9
100
AcDbPolyline
 90
        5
 70
     1
 43
0.0
 10
-11.38505118110236
 20
5.443925196850393
 10
-10.77481496062992
 20
5.443925196850393
 10
-10.77481496062992
 20
5.947862204724409
 10
-11.38505118110236
 20
5.947862204724409
 10
-11.38505118110236
 20
5.443925196850393
  0
LWPOLYLINE
  5
88
330
1F
100
AcDbEntity
  8
Master Layer 2
 62
     1
370
     9
100
AcDbPolyline
 90
        5
 70
     1
 43
0.0
 10
-11.38505118110236
 20
4.695893700787401
 10
-10.77481496062992
 20
4.695893700787401
 10
-10.77481496062992
 20
5.199830708661417
 10
-11.38505118110236
 20
5.199830708661417
 10
-11.38505118110236
 20
4.695893700787401
  0
LWPOLYLINE
  5
89
330
1F
100
AcDbEntity
  8
Master Layer 2
 62
     1
370
     9
100
AcDbPolyline
 90
        5
 70
     1
 43
0.0
 10
-11.38505118110236
 20
3.943925196850393
 10
-10.77481496062992
 20
3.943925196850393
 10
-10.77481496062992
 20
4.44786220472441
 10
-11.38505118110236
 20
4.44786220472441
 10
-11.38505118110236
 20
3.943925196850393
  0
LWPOLYLINE
  5
8A
330
1F
100
AcDbEntity
  8
Master Layer 2
 62
     1
370
     9
100
AcDbPolyline
 90
        5
 70
     1
 43
0.0
 10
-12.13292913385827
 20
6.882216535433071
 10
-11.52269291338583
 20
6.882216535433071
 10
-11.52269291338583
 20
7.386153543307087
 10
-12.13292913385827
 20
7.386153543307087
 10
-12.13292913385827
 20
6.882216535433071
  0
LWPOLYLINE
  5
8B
330
1F
100
AcDbEntity
  8
Master Layer 2
 62
     1
370
     9
100
AcDbPolyline
 90
        5
 70
     1
 43
0.0
 10
-12.13292913385827
 20
6.130248031496062
 10
-11.52269291338583
 20
6.130248031496062
 10
-11.52269291338583
 20
6.634185039370076
 10
-12.13292913385827
 20
6.634185039370076
 10
-12.13292913385827
 20
6.130248031496062
  0
LWPOLYLINE
  5
8C
330
1F
100
AcDbEntity
  8
Master Layer 2
 62
     1
370
     9
100
AcDbPolyline
 90
        5
 70
     1
 43
0.0
 10
-12.13292913385827
 20
5.382216535433071
 10
-11.52269291338583
 20
5.382216535433071
 10
-11.52269291338583
 20
5.886153543307087
 10
-12.13292913385827
 20
5.886153543307087
 10
-12.13292913385827
 20
5.382216535433071
  0
LWPOLYLINE
  5
8D
330
1F
100
AcDbEntity
  8
Master Layer 2
 62
     1
370
     9
100
AcDbPolyline
 90
        5
 70
     1
 43
0.0
 10
-12.13292913385827
 20
4.634185039370077
 10
-11.52269291338583
 20
4.634185039370077
 10
-11.52269291338583
 20
5.138122047244094
 10
-12.13292913385827
 20
5.138122047244094
 10
-12.13292913385827
 20
4.634185039370077
  0
LWPOLYLINE
  5
8E
330
1F
100
AcDbEntity
  8
Master Layer 2
 62
     1
370
     9
100
AcDbPolyline
 90
        5
 70
     1
 43
0.0
 10
-12.13292913385827
 20
3.882216535433071
 10
-11.52269291338583
 20
3.882216535433071
 10
-11.52269291338583
 20
4.386153543307086
 10
-12.13292913385827
 20
4.386153543307086
 10
-12.13292913385827
 20
3.882216535433071
  0
LWPOLYLINE
  5
8F
330
1F
100
AcDbEntity
  8
Master Layer 2
 62
     1
370
     9
100
AcDbPolyline
 90
        5
 70
     1
 43
0.0
 10
-12.88302755905512
 20
6.831917322834646
 10
-12.27279133858268
 20
6.831917322834646
 10
-12.27279133858268
 20
7.335854330708662
 10
-12.88302755905512
 20
7.335854330708662
 10
-12.88302755905512
 20
6.831917322834646
  0
LWPOLYLINE
  5
90
330
1F
100
AcDbEntity
  8
Master Layer 2
 62
     1
370
     9
100
AcDbPolyline
 90
        5
 70
     1
 43
0.0
 10
-12.88302755905512
 20
6.079948818897636
 10
-12.27279133858268
 20
6.079948818897636
 10
-12.27279133858268
 20
6.583885826771652
 10
-12.88302755905512
 20
6.583885826771652
 10
-12.88302755905512
 20
6.079948818897636
  0
LWPOLYLINE
  5
91
330
1F
100
AcDbEntity
  8
Master Layer 2
 62
     1
370
     9
100
AcDbPolyline
 90
        5
 70
     1
 43
0.0
 10
-12.88302755905512
 20
5.331917322834646
 10
-12.27279133858268
 20
5.331917322834646
 10
-12.27279133858268
 20
5.835854330708662
 10
-12.88302755905512
 20
5.835854330708662
 10
-12.88302755905512
 20
5.331917322834646
  0
LWPOLYLINE
  5
92
330
1F
100
AcDbEntity
  8
Master Layer 2
 62
     1
370
     9
100
AcDbPolyline
 90
        5
 70
     1
 43
0.0
 10
-12.88302755905512
 20
4.583885826771653
 10
-12.27279133858268
 20
4.583885826771653
 10
-12.27279133858268
 20
5.087822834645669
 10
-12.88302755905512
 20
5.087822834645669
 10
-12.88302755905512
 20
4.583885826771653
  0
LWPOLYLINE
  5
93
330
1F
100
AcDbEntity
  8
Master Layer 2
 62
     1
370
     9
100
AcDbPolyline
 90
        5
 70
     1
 43
0.0
 10
-13.63499606299213
 20
6.831917322834646
 10
-13.02475984251969
 20
6.831917322834646
 10
-13.02475984251969
 20
7.335854330708662
 10
-13.63499606299213
 20
7.335854330708662
 10
-13.63499606299213
 20
6.831917322834646
  0
LWPOLYLINE
  5
94
330
1F
100
AcDbEntity
  8
Master Layer 2
 62
     1
370
     9
100
AcDbPolyline
 90
        5
 70
     1
 43
0.0
 10
-9.885681102362203
 20
3.756185039370077
 10
-9.275444881889763
 20
3.756185039370077
 10
-9.275444881889763
 20
4.260122047244093
 10
-9.885681102362203
 20
4.260122047244093
 10
-9.885681102362203
 20
3.756185039370077
  0
LWPOLYLINE
  5
95
330
1F
100
AcDbEntity
  8
Master Layer 2
 62
     1
370
     9
100
AcDbPolyline
 90
        5
 70
     1
 43
0.0
 10
-9.133712598425193
 20
3.756185039370077
 10
-8.523476377952754
 20
3.756185039370077
 10
-8.523476377952754
 20
4.260122047244093
 10
-9.133712598425193
 20
4.260122047244093
 10
-9.133712598425193
 20
3.756185039370077
  0
SPLINE
  5
96
330
1F
100
AcDbEntity
  8
Master Layer 2
 62
     1
370
     9
100
AcDbSpline
210
0.0
220
0.0
230
1.0
 70
    11
 71
     3
 72
    20
 73
    16
 74
     0
 42
0.000000001
 43
0.0000000001
 40
0.0
 40
0.0
 40
0.0
 40
0.0
 40
0.2
 40
0.2
 40
0.2
 40
0.20000001
 40
0.4
 40
0.4
 40
0.4
 40
0.4000000100000002
 40
0.6
 40
0.6
 40
0.6
 40
0.6000000100000002
 40
1.0
 40
1.0
 40
1.0
 40
1.0
 10
-13.1023188976378
 20
5.81905905511811
 30
0.0
 10
-13.1023188976378
 20
5.81905905511811
 30
0.0
 10
-13.1023188976378
 20
6.429295275590551
 30
0.0
 10
-13.1023188976378
 20
6.429295275590551
 30
0.0
 10
-13.1023188976378
 20
6.429295275590551
 30
0.0
 10
-13.1023188976378
 20
6.429295275590551
 30
0.0
 10
-13.60625590551181
 20
6.429295275590551
 30
0.0
 10
-13.60625590551181
 20
6.429295275590551
 30
0.0
 10
-13.60625590551181
 20
6.429295275590551
 30
0.0
 10
-13.60625590551181
 20
6.429295275590551
 30
0.0
 10
-13.60625590551181
 20
5.81905905511811
 30
0.0
 10
-13.60625590551181
 20
5.81905905511811
 30
0.0
 10
-13.60625590551181
 20
5.81905905511811
 30
0.0
 10
-13.60625590551181
 20
5.81905905511811
 30
0.0
 10
-13.1023188976378
 20
5.81905905511811
 30
0.0
 10
-13.1023188976378
 20
5.81905905511811
 30
0.0
  0
SPLINE
  5
98
330
1F
100
AcDbEntity
  8
Master Layer 2
 62
     1
370
     9
100
AcDbSpline
210
0.0
220
0.0
230
1.0
 70
    11
 71
     3
 72
    20
 73
    16
 74
     0
 42
0.000000001
 43
0.0000000001
 40
0.0
 40
0.0
 40
0.0
 40
0.0
 40
0.2
 40
0.2
 40
0.2
 40
0.20000001
 40
0.4
 40
0.4
 40
0.4
 40
0.4000000100000002
 40
0.6
 40
0.6
 40
0.6
 40
0.6000000100000002
 40
1.0
 40
1.0
 40
1.0
 40
1.0
 10
-13.97407480314961
 20
4.677311023622046
 30
0.0
 10
-13.97407480314961
 20
4.677311023622046
 30
0.0
 10
-14.52713385826772
 20
4.419413385826771
 30
0.0
 10
-14.52713385826772
 20
4.419413385826771
 30
0.0
 10
-14.52713385826772
 20
4.419413385826771
 30
0.0
 10
-14.52713385826772
 20
4.419413385826771
 30
0.0
 10
-14.31416141732283
 20
3.962688976377953
 30
0.0
 10
-14.31416141732283
 20
3.962688976377953
 30
0.0
 10
-14.31416141732283
 20
3.962688976377953
 30
0.0
 10
-14.31416141732283
 20
3.962688976377953
 30
0.0
 10
-13.76109842519685
 20
4.220586614173227
 30
0.0
 10
-13.76109842519685
 20
4.220586614173227
 30
0.0
 10
-13.76109842519685
 20
4.220586614173227
 30
0.0
 10
-13.76109842519685
 20
4.220586614173227
 30
0.0
 10
-13.97407480314961
 20
4.677311023622046
 30
0.0
 10
-13.97407480314961
 20
4.677311023622046
 30
0.0
  0
SPLINE
  5
99
330
1F
100
AcDbEntity
  8
Master Layer 2
 62
     1
370
     9
100
AcDbSpline
210
0.0
220
0.0
230
1.0
 70
    11
 71
     3
 72
    20
 73
    16
 74
     0
 42
0.000000001
 43
0.0000000001
 40
0.0
 40
0.0
 40
0.0
 40
0.0
 40
0.2
 40
0.2
 40
0.2
 40
0.20000001
 40
0.4
 40
0.4
 40
0.4
 40
0.4000000100000002
 40
0.6
 40
0.6
 40
0.6
 40
0.6000000100000002
 40
1.0
 40
1.0
 40
1.0
 40
1.0
 10
-14.65462992125984
 20
4.361338582677165
 30
0.0
 10
-14.65462992125984
 20
4.361338582677165
 30
0.0
 10
-15.20768897637795
 20
4.10344094488189
 30
0.0
 10
-15.20768897637795
 20
4.10344094488189
 30
0.0
 10
-15.20768897637795
 20
4.10344094488189
 30
0.0
 10
-15.20768897637795
 20
4.10344094488189
 30
0.0
 10
-14.99471653543307
 20
3.646716535433071
 30
0.0
 10
-14.99471653543307
 20
3.646716535433071
 30
0.0
 10
-14.99471653543307
 20
3.646716535433071
 30
0.0
 10
-14.99471653543307
 20
3.646716535433071
 30
0.0
 10
-14.44165354330709
 20
3.904614173228345
 30
0.0
 10
-14.44165354330709
 20
3.904614173228345
 30
0.0
 10
-14.44165354330709
 20
3.904614173228345
 30
0.0
 10
-14.44165354330709
 20
3.904614173228345
 30
0.0
 10
-14.65462992125984
 20
4.361338582677165
 30
0.0
 10
-14.65462992125984
 20
4.361338582677165
 30
0.0
  0
SPLINE
  5
9A
330
1F
100
AcDbEntity
  8
Master Layer 2
 62
     1
370
     9
100
AcDbSpline
210
0.0
220
0.0
230
1.0
 70
    11
 71
     3
 72
    20
 73
    16
 74
     0
 42
0.000000001
 43
0.0000000001
 40
0.0
 40
0.0
 40
0.0
 40
0.0
 40
0.2
 40
0.2
 40
0.2
 40
0.20000001
 40
0.4
 40
0.4
 40
0.4
 40
0.4000000100000002
 40
0.6
 40
0.6
 40
0.6
 40
0.6000000100000002
 40
1.0
 40
1.0
 40
1.0
 40
1.0
 10
-14.33518503937008
 20
3.680779527559054
 30
0.0
 10
-14.33518503937008
 20
3.680779527559054
 30
0.0
 10
-14.88824409448819
 20
3.422881889763778
 30
0.0
 10
-14.88824409448819
 20
3.422881889763778
 30
0.0
 10
-14.88824409448819
 20
3.422881889763778
 30
0.0
 10
-14.88824409448819
 20
3.422881889763778
 30
0.0
 10
-14.67527165354331
 20
2.966157480314961
 30
0.0
 10
-14.67527165354331
 20
2.966157480314961
 30
0.0
 10
-14.67527165354331
 20
2.966157480314961
 30
0.0
 10
-14.67527165354331
 20
2.966157480314961
 30
0.0
 10
-14.12220866141732
 20
3.224055118110236
 30
0.0
 10
-14.12220866141732
 20
3.224055118110236
 30
0.0
 10
-14.12220866141732
 20
3.224055118110236
 30
0.0
 10
-14.12220866141732
 20
3.224055118110236
 30
0.0
 10
-14.33518503937008
 20
3.680779527559054
 30
0.0
 10
-14.33518503937008
 20
3.680779527559054
 30
0.0
  0
SPLINE
  5
9B
330
1F
100
AcDbEntity
  8
Master Layer 2
 62
     1
370
     9
100
AcDbSpline
210
0.0
220
0.0
230
1.0
 70
    11
 71
     3
 72
    20
 73
    16
 74
     0
 42
0.000000001
 43
0.0000000001
 40
0.0
 40
0.0
 40
0.0
 40
0.0
 40
0.2
 40
0.2
 40
0.2
 40
0.20000001
 40
0.4
 40
0.4
 40
0.4
 40
0.4000000100000002
 40
0.6
 40
0.6
 40
0.6
 40
0.6000000100000002
 40
1.0
 40
1.0
 40
1.0
 40
1.0
 10
-14.0192125984252
 20
3.000220472440943
 30
0.0
 10
-14.0192125984252
 20
3.000220472440943
 30
0.0
 10
-14.57227165354331
 20
2.742322834645667
 30
0.0
 10
-14.57227165354331
 20
2.742322834645667
 30
0.0
 10
-14.57227165354331
 20
2.742322834645667
 30
0.0
 10
-14.57227165354331
 20
2.742322834645667
 30
0.0
 10
-14.35929921259843
 20
2.285598425196849
 30
0.0
 10
-14.35929921259843
 20
2.285598425196849
 30
0.0
 10
-14.35929921259843
 20
2.285598425196849
 30
0.0
 10
-14.35929921259843
 20
2.285598425196849
 30
0.0
 10
-13.80623622047244
 20
2.543496062992125
 30
0.0
 10
-13.80623622047244
 20
2.543496062992125
 30
0.0
 10
-13.80623622047244
 20
2.543496062992125
 30
0.0
 10
-13.80623622047244
 20
2.543496062992125
 30
0.0
 10
-14.0192125984252
 20
3.000220472440943
 30
0.0
 10
-14.0192125984252
 20
3.000220472440943
 30
0.0
  0
SPLINE
  5
9C
330
1F
100
AcDbEntity
  8
Master Layer 2
 62
     1
370
     9
100
AcDbSpline
210
0.0
220
0.0
230
1.0
 70
    11
 71
     3
 72
    20
 73
    16
 74
     0
 42
0.000000001
 43
0.0000000001
 40
0.0
 40
0.0
 40
0.0
 40
0.0
 40
0.2
 40
0.2
 40
0.2
 40
0.20000001
 40
0.4
 40
0.4
 40
0.4
 40
0.4000000100000002
 40
0.6
 40
0.6
 40
0.6
 40
0.6000000100000002
 40
1.0
 40
1.0
 40
1.0
 40
1.0
 10
-12.64366535433071
 20
3.420157480314961
 30
0.0
 10
-12.64366535433071
 20
3.420157480314961
 30
0.0
 10
-12.90156299212599
 20
3.973220472440943
 30
0.0
 10
-12.90156299212599
 20
3.973220472440943
 30
0.0
 10
-12.90156299212599
 20
3.973220472440943
 30
0.0
 10
-12.90156299212599
 20
3.973220472440943
 30
0.0
 10
-13.35828346456693
 20
3.760248031496062
 30
0.0
 10
-13.35828346456693
 20
3.760248031496062
 30
0.0
 10
-13.35828346456693
 20
3.760248031496062
 30
0.0
 10
-13.35828346456693
 20
3.760248031496062
 30
0.0
 10
-13.10038976377953
 20
3.207185039370077
 30
0.0
 10
-13.10038976377953
 20
3.207185039370077
 30
0.0
 10
-13.10038976377953
 20
3.207185039370077
 30
0.0
 10
-13.10038976377953
 20
3.207185039370077
 30
0.0
 10
-12.64366535433071
 20
3.420157480314961
 30
0.0
 10
-12.64366535433071
 20
3.420157480314961
 30
0.0
  0
SPLINE
  5
9D
330
1F
100
AcDbEntity
  8
Master Layer 2
 62
     1
370
     9
100
AcDbSpline
210
0.0
220
0.0
230
1.0
 70
    11
 71
     3
 72
    20
 73
    16
 74
     0
 42
0.000000001
 43
0.0000000001
 40
0.0
 40
0.0
 40
0.0
 40
0.0
 40
0.2
 40
0.2
 40
0.2
 40
0.20000001
 40
0.4
 40
0.4
 40
0.4
 40
0.4000000100000002
 40
0.6
 40
0.6
 40
0.6
 40
0.6000000100000002
 40
1.0
 40
1.0
 40
1.0
 40
1.0
 10
-13.32075196850394
 20
3.100712598425197
 30
0.0
 10
-13.32075196850394
 20
3.100712598425197
 30
0.0
 10
-13.57864960629921
 20
3.653775590551181
 30
0.0
 10
-13.57864960629921
 20
3.653775590551181
 30
0.0
 10
-13.57864960629921
 20
3.653775590551181
 30
0.0
 10
-13.57864960629921
 20
3.653775590551181
 30
0.0
 10
-14.03537007874016
 20
3.440803149606298
 30
0.0
 10
-14.03537007874016
 20
3.440803149606298
 30
0.0
 10
-14.03537007874016
 20
3.440803149606298
 30
0.0
 10
-14.03537007874016
 20
3.440803149606298
 30
0.0
 10
-13.77747637795276
 20
2.887740157480313
 30
0.0
 10
-13.77747637795276
 20
2.887740157480313
 30
0.0
 10
-13.77747637795276
 20
2.887740157480313
 30
0.0
 10
-13.77747637795276
 20
2.887740157480313
 30
0.0
 10
-13.32075196850394
 20
3.100712598425197
 30
0.0
 10
-13.32075196850394
 20
3.100712598425197
 30
0.0
  0
SPLINE
  5
9E
330
1F
100
AcDbEntity
  8
Master Layer 2
 62
     1
370
     9
100
AcDbSpline
210
0.0
220
0.0
230
1.0
 70
    24
 71
     3
 72
     8
 73
     4
 74
     0
 42
0.000000001
 43
0.0000000001
 40
0.0
 40
0.0
 40
0.0
 40
0.0
 40
1.0
 40
1.0
 40
1.0
 40
1.0
 10
-12.98279921259843
 20
4.185822834645668
 30
0.0
 10
-12.98279921259843
 20
4.185822834645668
 30
0.0
 10
-12.92779921259842
 20
4.068023622047244
 30
0.0
 10
-12.92779921259842
 20
4.068023622047244
 30
0.0
  0
SPLINE
  5
9F
330
1F
100
AcDbEntity
  8
Master Layer 2
 62
     1
370
     9
100
AcDbSpline
210
0.0
220
0.0
230
1.0
 70
    24
 71
     3
 72
     8
 73
     4
 74
     0
 42
0.000000001
 43
0.0000000001
 40
0.0
 40
0.0
 40
0.0
 40
0.0
 40
1.0
 40
1.0
 40
1.0
 40
1.0
 10
-12.92779921259842
 20
4.068023622047244
 30
0.0
 10
-12.92779921259842
 20
4.068023622047244
 30
0.0
 10
-13.42629921259842
 20
3.835622047244093
 30
0.0
 10
-13.42629921259842
 20
3.835622047244093
 30
0.0
  0
SPLINE
  5
A0
330
1F
100
AcDbEntity
  8
Master Layer 2
 62
     1
370
     9
100
AcDbSpline
210
0.0
220
0.0
230
1.0
 70
    24
 71
     3
 72
     8
 73
     4
 74
     0
 42
0.000000001
 43
0.0000000001
 40
0.0
 40
0.0
 40
0.0
 40
0.0
 40
1.0
 40
1.0
 40
1.0
 40
1.0
 10
-13.42629921259842
 20
3.835622047244093
 30
0.0
 10
-13.42629921259842
 20
3.835622047244093
 30
0.0
 10
-13.48120078740157
 20
3.953425196850392
 30
0.0
 10
-13.48120078740157
 20
3.953425196850392
 30
0.0
  0
SPLINE
  5
A1
330
1F
100
AcDbEntity
  8
Master Layer 2
 62
     1
370
     9
100
AcDbSpline
210
0.0
220
0.0
230
1.0
 70
    24
 71
     3
 72
     8
 73
     4
 74
     0
 42
0.000000001
 43
0.0000000001
 40
0.0
 40
0.0
 40
0.0
 40
0.0
 40
1.0
 40
1.0
 40
1.0
 40
1.0
 10
-13.48120078740157
 20
3.953425196850392
 30
0.0
 10
-13.48120078740157
 20
3.953425196850392
 30
0.0
 10
-12.98279921259843
 20
4.185822834645668
 30
0.0
 10
-12.98279921259843
 20
4.185822834645668
 30
0.0
  0
SPLINE
  5
A2
330
1F
100
AcDbEntity
  8
Master Layer 2
 62
     1
370
     9
100
AcDbSpline
210
0.0
220
0.0
230
1.0
 70
    24
 71
     3
 72
     8
 73
     4
 74
     0
 42
0.000000001
 43
0.0000000001
 40
0.0
 40
0.0
 40
0.0
 40
0.0
 40
1.0
 40
1.0
 40
1.0
 40
1.0
 10
-12.5855
 20
3.333925196850392
 30
0.0
 10
-12.5855
 20
3.333925196850392
 30
0.0
 10
-12.53059842519685
 20
3.216122047244093
 30
0.0
 10
-12.53059842519685
 20
3.216122047244093
 30
0.0
  0
SPLINE
  5
A3
330
1F
100
AcDbEntity
  8
Master Layer 2
 62
     1
370
     9
100
AcDbSpline
210
0.0
220
0.0
230
1.0
 70
    24
 71
     3
 72
     8
 73
     4
 74
     0
 42
0.000000001
 43
0.0000000001
 40
0.0
 40
0.0
 40
0.0
 40
0.0
 40
1.0
 40
1.0
 40
1.0
 40
1.0
 10
-12.53059842519685
 20
3.216122047244093
 30
0.0
 10
-12.53059842519685
 20
3.216122047244093
 30
0.0
 10
-13.029
 20
2.983622047244093
 30
0.0
 10
-13.029
 20
2.983622047244093
 30
0.0
  0
SPLINE
  5
A4
330
1F
100
AcDbEntity
  8
Master Layer 2
 62
     1
370
     9
100
AcDbSpline
210
0.0
220
0.0
230
1.0
 70
    24
 71
     3
 72
     8
 73
     4
 74
     0
 42
0.000000001
 43
0.0000000001
 40
0.0
 40
0.0
 40
0.0
 40
0.0
 40
1.0
 40
1.0
 40
1.0
 40
1.0
 10
-13.029
 20
2.983622047244093
 30
0.0
 10
-13.029
 20
2.983622047244093
 30
0.0
 10
-13.084
 20
3.101425196850392
 30
0.0
 10
-13.084
 20
3.101425196850392
 30
0.0
  0
SPLINE
  5
A5
330
1F
100
AcDbEntity
  8
Master Layer 2
 62
     1
370
     9
100
AcDbSpline
210
0.0
220
0.0
230
1.0
 70
    24
 71
     3
 72
     8
 73
     4
 74
     0
 42
0.000000001
 43
0.0000000001
 40
0.0
 40
0.0
 40
0.0
 40
0.0
 40
1.0
 40
1.0
 40
1.0
 40
1.0
 10
-13.084
 20
3.101425196850392
 30
0.0
 10
-13.084
 20
3.101425196850392
 30
0.0
 10
-12.5855
 20
3.333925196850392
 30
0.0
 10
-12.5855
 20
3.333925196850392
 30
0.0
  0
SPLINE
  5
A6
330
1F
100
AcDbEntity
  8
Master Layer 2
 62
     1
370
     9
100
AcDbSpline
210
0.0
220
0.0
230
1.0
 70
    24
 71
     3
 72
     8
 73
     4
 74
     0
 42
0.000000001
 43
0.0000000001
 40
0.0
 40
0.0
 40
0.0
 40
0.0
 40
1.0
 40
1.0
 40
1.0
 40
1.0
 10
-13.65429921259843
 20
2.692023622047244
 30
0.0
 10
-13.65429921259843
 20
2.692023622047244
 30
0.0
 10
-13.70929921259843
 20
2.80982283464567
 30
0.0
 10
-13.70929921259843
 20
2.80982283464567
 30
0.0
  0
SPLINE
  5
A7
330
1F
100
AcDbEntity
  8
Master Layer 2
 62
     1
370
     9
100
AcDbSpline
210
0.0
220
0.0
230
1.0
 70
    24
 71
     3
 72
     8
 73
     4
 74
     0
 42
0.000000001
 43
0.0000000001
 40
0.0
 40
0.0
 40
0.0
 40
0.0
 40
1.0
 40
1.0
 40
1.0
 40
1.0
 10
-13.70929921259843
 20
2.80982283464567
 30
0.0
 10
-13.70929921259843
 20
2.80982283464567
 30
0.0
 10
-13.21079921259843
 20
3.042224409448818
 30
0.0
 10
-13.21079921259843
 20
3.042224409448818
 30
0.0
  0
SPLINE
  5
A8
330
1F
100
AcDbEntity
  8
Master Layer 2
 62
     1
370
     9
100
AcDbSpline
210
0.0
220
0.0
230
1.0
 70
    24
 71
     3
 72
     8
 73
     4
 74
     0
 42
0.000000001
 43
0.0000000001
 40
0.0
 40
0.0
 40
0.0
 40
0.0
 40
1.0
 40
1.0
 40
1.0
 40
1.0
 10
-13.21079921259843
 20
3.042224409448818
 30
0.0
 10
-13.21079921259843
 20
3.042224409448818
 30
0.0
 10
-13.15590157480315
 20
2.924425196850392
 30
0.0
 10
-13.15590157480315
 20
2.924425196850392
 30
0.0
  0
SPLINE
  5
A9
330
1F
100
AcDbEntity
  8
Master Layer 2
 62
     1
370
     9
100
AcDbSpline
210
0.0
220
0.0
230
1.0
 70
    24
 71
     3
 72
     8
 73
     4
 74
     0
 42
0.000000001
 43
0.0000000001
 40
0.0
 40
0.0
 40
0.0
 40
0.0
 40
1.0
 40
1.0
 40
1.0
 40
1.0
 10
-13.15590157480315
 20
2.924425196850392
 30
0.0
 10
-13.15590157480315
 20
2.924425196850392
 30
0.0
 10
-13.65429921259843
 20
2.692023622047244
 30
0.0
 10
-13.65429921259843
 20
2.692023622047244
 30
0.0
  0
SPLINE
  5
AA
330
1F
100
AcDbEntity
  8
Master Layer 2
 62
     1
370
     9
100
AcDbSpline
210
0.0
220
0.0
230
1.0
 70
    24
 71
     3
 72
     8
 73
     4
 74
     0
 42
0.000000001
 43
0.0000000001
 40
0.0
 40
0.0
 40
0.0
 40
0.0
 40
1.0
 40
1.0
 40
1.0
 40
1.0
 10
-14.05159842519685
 20
3.543925196850392
 30
0.0
 10
-14.05159842519685
 20
3.543925196850392
 30
0.0
 10
-14.1065
 20
3.661724409448818
 30
0.0
 10
-14.1065
 20
3.661724409448818
 30
0.0
  0
SPLINE
  5
AB
330
1F
100
AcDbEntity
  8
Master Layer 2
 62
     1
370
     9
100
AcDbSpline
210
0.0
220
0.0
230
1.0
 70
    24
 71
     3
 72
     8
 73
     4
 74
     0
 42
0.000000001
 43
0.0000000001
 40
0.0
 40
0.0
 40
0.0
 40
0.0
 40
1.0
 40
1.0
 40
1.0
 40
1.0
 10
-14.1065
 20
3.661724409448818
 30
0.0
 10
-14.1065
 20
3.661724409448818
 30
0.0
 10
-13.60809842519685
 20
3.894224409448818
 30
0.0
 10
-13.60809842519685
 20
3.894224409448818
 30
0.0
  0
SPLINE
  5
AC
330
1F
100
AcDbEntity
  8
Master Layer 2
 62
     1
370
     9
100
AcDbSpline
210
0.0
220
0.0
230
1.0
 70
    24
 71
     3
 72
     8
 73
     4
 74
     0
 42
0.000000001
 43
0.0000000001
 40
0.0
 40
0.0
 40
0.0
 40
0.0
 40
1.0
 40
1.0
 40
1.0
 40
1.0
 10
-13.60809842519685
 20
3.894224409448818
 30
0.0
 10
-13.60809842519685
 20
3.894224409448818
 30
0.0
 10
-13.55309842519685
 20
3.776425196850393
 30
0.0
 10
-13.55309842519685
 20
3.776425196850393
 30
0.0
  0
SPLINE
  5
AD
330
1F
100
AcDbEntity
  8
Master Layer 2
 62
     1
370
     9
100
AcDbSpline
210
0.0
220
0.0
230
1.0
 70
    24
 71
     3
 72
     8
 73
     4
 74
     0
 42
0.000000001
 43
0.0000000001
 40
0.0
 40
0.0
 40
0.0
 40
0.0
 40
1.0
 40
1.0
 40
1.0
 40
1.0
 10
-13.55309842519685
 20
3.776425196850393
 30
0.0
 10
-13.55309842519685
 20
3.776425196850393
 30
0.0
 10
-14.05159842519685
 20
3.543925196850392
 30
0.0
 10
-14.05159842519685
 20
3.543925196850392
 30
0.0
  0
SPLINE
  5
AE
330
1F
100
AcDbEntity
  8
Master Layer 2
 62
     1
370
     9
100
AcDbSpline
210
0.0
220
0.0
230
1.0
 70
     9
 71
     3
 72
    20
 73
    16
 74
     0
 42
0.000000001
 43
0.0000000001
 40
0.0
 40
0.0
 40
0.0
 40
0.0
 40
0.2
 40
0.2
 40
0.2
 40
0.20000001
 40
0.4
 40
0.4
 40
0.4
 40
0.4000000100000002
 40
0.6
 40
0.6
 40
0.6
 40
0.6000000100000002
 40
1.0
 40
1.0
 40
1.0
 40
1.0
 10
-14.11759842519685
 20
3.094622047244095
 30
0.0
 10
-14.11759842519685
 20
3.127759842519683
 30
0.0
 10
-14.09073622047244
 20
3.154622047244095
 30
0.0
 10
-14.05760236220472
 20
3.154622047244095
 30
0.0
 10
-14.05760236220472
 20
3.154622047244095
 30
0.0
 10
-14.02446456692913
 20
3.154625984251969
 30
0.0
 10
-13.99760236220472
 20
3.127759842519683
 30
0.0
 10
-13.99759842519685
 20
3.094625984251968
 30
0.0
 10
-13.99759842519685
 20
3.094625984251968
 30
0.0
 10
-13.99759842519685
 20
3.061488188976377
 30
0.0
 10
-14.02446456692913
 20
3.034625984251968
 30
0.0
 10
-14.05759842519685
 20
3.034622047244095
 30
0.0
 10
-14.05759842519685
 20
3.034622047244095
 30
0.0
 10
-14.09073622047244
 20
3.034622047244095
 30
0.0
 10
-14.11759842519685
 20
3.061488188976377
 30
0.0
 10
-14.11759842519685
 20
3.094622047244095
 30
0.0
  0
SPLINE
  5
AF
330
1F
100
AcDbEntity
  8
Master Layer 2
 62
     1
370
     9
100
AcDbSpline
210
0.0
220
0.0
230
1.0
 70
     9
 71
     3
 72
    20
 73
    16
 74
     0
 42
0.000000001
 43
0.0000000001
 40
0.0
 40
0.0
 40
0.0
 40
0.0
 40
0.2
 40
0.2
 40
0.2
 40
0.20000001
 40
0.4
 40
0.4
 40
0.4
 40
0.4000000100000002
 40
0.6
 40
0.6
 40
0.6
 40
0.6000000100000002
 40
1.0
 40
1.0
 40
1.0
 40
1.0
 10
-13.89059842519685
 20
4.833622047244094
 30
0.0
 10
-13.89059842519685
 20
4.866759842519683
 30
0.0
 10
-13.86373622047244
 20
4.893622047244093
 30
0.0
 10
-13.83060236220472
 20
4.893622047244093
 30
0.0
 10
-13.83060236220472
 20
4.893622047244093
 30
0.0
 10
-13.79746456692913
 20
4.893625984251968
 30
0.0
 10
-13.77060236220473
 20
4.866759842519683
 30
0.0
 10
-13.77059842519685
 20
4.833625984251966
 30
0.0
 10
-13.77059842519685
 20
4.833625984251966
 30
0.0
 10
-13.77059842519685
 20
4.800488188976378
 30
0.0
 10
-13.79746456692913
 20
4.773625984251967
 30
0.0
 10
-13.83059842519685
 20
4.773622047244094
 30
0.0
 10
-13.83059842519685
 20
4.773622047244094
 30
0.0
 10
-13.86373622047244
 20
4.773622047244094
 30
0.0
 10
-13.89059842519685
 20
4.800488188976378
 30
0.0
 10
-13.89059842519685
 20
4.833622047244094
 30
0.0
  0
SPLINE
  5
B0
330
1F
100
AcDbEntity
  8
Master Layer 2
 62
     1
370
     9
100
AcDbSpline
210
0.0
220
0.0
230
1.0
 70
     9
 71
     3
 72
    20
 73
    16
 74
     0
 42
0.000000001
 43
0.0000000001
 40
0.0
 40
0.0
 40
0.0
 40
0.0
 40
0.2
 40
0.2
 40
0.2
 40
0.20000001
 40
0.4
 40
0.4
 40
0.4
 40
0.4000000100000002
 40
0.6
 40
0.6
 40
0.6
 40
0.6000000100000002
 40
1.0
 40
1.0
 40
1.0
 40
1.0
 10
-12.08859842519685
 20
3.412622047244095
 30
0.0
 10
-12.08859842519685
 20
3.445759842519684
 30
0.0
 10
-12.06173622047244
 20
3.472622047244093
 30
0.0
 10
-12.02860236220472
 20
3.472622047244093
 30
0.0
 10
-12.02860236220472
 20
3.472622047244093
 30
0.0
 10
-11.99546456692913
 20
3.472625984251968
 30
0.0
 10
-11.96860236220472
 20
3.445759842519684
 30
0.0
 10
-11.96859842519685
 20
3.412625984251969
 30
0.0
 10
-11.96859842519685
 20
3.412625984251969
 30
0.0
 10
-11.96859842519685
 20
3.379488188976377
 30
0.0
 10
-11.99546456692913
 20
3.352625984251969
 30
0.0
 10
-12.02859842519685
 20
3.352622047244095
 30
0.0
 10
-12.02859842519685
 20
3.352622047244095
 30
0.0
 10
-12.06173622047244
 20
3.352622047244095
 30
0.0
 10
-12.08859842519685
 20
3.379488188976377
 30
0.0
 10
-12.08859842519685
 20
3.412622047244095
 30
0.0
  0
SPLINE
  5
B1
330
1F
100
AcDbEntity
  8
Master Layer 2
 62
     1
370
     9
100
AcDbSpline
210
0.0
220
0.0
230
1.0
 70
     9
 71
     3
 72
    20
 73
    16
 74
     0
 42
0.000000001
 43
0.0000000001
 40
0.0
 40
0.0
 40
0.0
 40
0.0
 40
0.2
 40
0.2
 40
0.2
 40
0.20000001
 40
0.4
 40
0.4
 40
0.4
 40
0.4000000100000002
 40
0.6
 40
0.6
 40
0.6
 40
0.6000000100000002
 40
1.0
 40
1.0
 40
1.0
 40
1.0
 10
-8.295598425196848
 20
4.109622047244095
 30
0.0
 10
-8.295598425196848
 20
4.142759842519684
 30
0.0
 10
-8.26873622047244
 20
4.169622047244094
 30
0.0
 10
-8.235602362204723
 20
4.169622047244094
 30
0.0
 10
-8.235602362204723
 20
4.169622047244094
 30
0.0
 10
-8.202464566929132
 20
4.169625984251967
 30
0.0
 10
-8.175602362204722
 20
4.142759842519684
 30
0.0
 10
-8.175598425196849
 20
4.109625984251968
 30
0.0
 10
-8.175598425196849
 20
4.109625984251968
 30
0.0
 10
-8.175598425196849
 20
4.076488188976377
 30
0.0
 10
-8.202464566929132
 20
4.049625984251968
 30
0.0
 10
-8.235598425196849
 20
4.049622047244094
 30
0.0
 10
-8.235598425196849
 20
4.049622047244094
 30
0.0
 10
-8.26873622047244
 20
4.049622047244094
 30
0.0
 10
-8.295598425196848
 20
4.076488188976377
 30
0.0
 10
-8.295598425196848
 20
4.109622047244095
 30
0.0
  0
SPLINE
  5
B2
330
1F
100
AcDbEntity
  8
Master Layer 2
 62
     1
370
     9
100
AcDbSpline
210
0.0
220
0.0
230
1.0
 70
     9
 71
     3
 72
    20
 73
    16
 74
     0
 42
0.000000001
 43
0.0000000001
 40
0.0
 40
0.0
 40
0.0
 40
0.0
 40
0.2
 40
0.2
 40
0.2
 40
0.20000001
 40
0.4
 40
0.4
 40
0.4
 40
0.4000000100000002
 40
0.6
 40
0.6
 40
0.6
 40
0.6000000100000002
 40
1.0
 40
1.0
 40
1.0
 40
1.0
 10
-10.76559842519685
 20
6.017622047244092
 30
0.0
 10
-10.76559842519685
 20
6.050759842519685
 30
0.0
 10
-10.73873622047244
 20
6.077622047244093
 30
0.0
 10
-10.70560236220472
 20
6.077622047244093
 30
0.0
 10
-10.70560236220472
 20
6.077622047244093
 30
0.0
 10
-10.67246456692913
 20
6.077625984251967
 30
0.0
 10
-10.64560236220473
 20
6.050759842519685
 30
0.0
 10
-10.64559842519685
 20
6.017625984251967
 30
0.0
 10
-10.64559842519685
 20
6.017625984251967
 30
0.0
 10
-10.64559842519685
 20
5.984488188976378
 30
0.0
 10
-10.67246456692913
 20
5.957625984251968
 30
0.0
 10
-10.70559842519685
 20
5.957622047244093
 30
0.0
 10
-10.70559842519685
 20
5.957622047244093
 30
0.0
 10
-10.73873622047244
 20
5.957622047244093
 30
0.0
 10
-10.76559842519685
 20
5.984488188976378
 30
0.0
 10
-10.76559842519685
 20
6.017622047244092
 30
0.0
  0
SPLINE
  5
B3
330
1F
100
AcDbEntity
  8
Master Layer 2
 62
     1
370
     9
100
AcDbSpline
210
0.0
220
0.0
230
1.0
 70
     9
 71
     3
 72
    20
 73
    16
 74
     0
 42
0.000000001
 43
0.0000000001
 40
0.0
 40
0.0
 40
0.0
 40
0.0
 40
0.2
 40
0.2
 40
0.2
 40
0.20000001
 40
0.4
 40
0.4
 40
0.4
 40
0.4000000100000002
 40
0.6
 40
0.6
 40
0.6
 40
0.6000000100000002
 40
1.0
 40
1.0
 40
1.0
 40
1.0
 10
-8.320598425196848
 20
8.161622047244092
 30
0.0
 10
-8.320598425196848
 20
8.194759842519685
 30
0.0
 10
-8.293736220472441
 20
8.221622047244093
 30
0.0
 10
-8.260602362204721
 20
8.221622047244093
 30
0.0
 10
-8.260602362204721
 20
8.221622047244093
 30
0.0
 10
-8.227464566929134
 20
8.221625984251968
 30
0.0
 10
-8.200602362204723
 20
8.194759842519685
 30
0.0
 10
-8.200598425196849
 20
8.161625984251967
 30
0.0
 10
-8.200598425196849
 20
8.161625984251967
 30
0.0
 10
-8.200598425196849
 20
8.128488188976378
 30
0.0
 10
-8.227464566929134
 20
8.10162598425197
 30
0.0
 10
-8.260598425196848
 20
8.101622047244092
 30
0.0
 10
-8.260598425196848
 20
8.101622047244092
 30
0.0
 10
-8.293736220472441
 20
8.101622047244092
 30
0.0
 10
-8.320598425196848
 20
8.128488188976378
 30
0.0
 10
-8.320598425196848
 20
8.161622047244092
 30
0.0
  0
SPLINE
  5
B4
330
1F
100
AcDbEntity
  8
Master Layer 2
370
     9
100
AcDbSpline
210
0.0
220
0.0
230
1.0
 70
     9
 71
     3
 72
    20
 73
    16
 74
     0
 42
0.000000001
 43
0.0000000001
 40
0.0
 40
0.0
 40
0.0
 40
0.0
 40
0.2
 40
0.2
 40
0.2
 40
0.20000001
 40
0.4
 40
0.4
 40
0.4
 40
0.4000000100000002
 40
0.6
 40
0.6
 40
0.6
 40
0.6000000100000002
 40
1.0
 40
1.0
 40
1.0
 40
1.0
 10
-11.58559842519685
 20
8.161622047244092
 30
0.0
 10
-11.58559842519685
 20
8.194759842519685
 30
0.0
 10
-11.55873622047244
 20
8.221622047244093
 30
0.0
 10
-11.52560236220472
 20
8.221622047244093
 30
0.0
 10
-11.52560236220472
 20
8.221622047244093
 30
0.0
 10
-11.49246456692913
 20
8.221625984251968
 30
0.0
 10
-11.46560236220472
 20
8.194759842519685
 30
0.0
 10
-11.46559842519685
 20
8.161625984251967
 30
0.0
 10
-11.46559842519685
 20
8.161625984251967
 30
0.0
 10
-11.46559842519685
 20
8.128488188976378
 30
0.0
 10
-11.49246456692913
 20
8.10162598425197
 30
0.0
 10
-11.52559842519685
 20
8.101622047244092
 30
0.0
 10
-11.52559842519685
 20
8.101622047244092
 30
0.0
 10
-11.55873622047244
 20
8.101622047244092
 30
0.0
 10
-11.58559842519685
 20
8.128488188976378
 30
0.0
 10
-11.58559842519685
 20
8.161622047244092
 30
0.0
  0
SPLINE
  5
B5
330
1F
100
AcDbEntity
  8
Master Layer 2
 62
     1
370
     9
100
AcDbSpline
210
0.0
220
0.0
230
1.0
 70
     9
 71
     3
 72
    20
 73
    16
 74
     0
 42
0.000000001
 43
0.0000000001
 40
0.0
 40
0.0
 40
0.0
 40
0.0
 40
0.2
 40
0.2
 40
0.2
 40
0.20000001
 40
0.4
 40
0.4
 40
0.4
 40
0.4000000100000002
 40
0.6
 40
0.6
 40
0.6
 40
0.6000000100000002
 40
1.0
 40
1.0
 40
1.0
 40
1.0
 10
-13.58559842519685
 20
8.161622047244092
 30
0.0
 10
-13.58559842519685
 20
8.194759842519685
 30
0.0
 10
-13.55873622047244
 20
8.221622047244093
 30
0.0
 10
-13.52560236220472
 20
8.221622047244093
 30
0.0
 10
-13.52560236220472
 20
8.221622047244093
 30
0.0
 10
-13.49246456692913
 20
8.221625984251968
 30
0.0
 10
-13.46560236220472
 20
8.194759842519685
 30
0.0
 10
-13.46559842519685
 20
8.161625984251967
 30
0.0
 10
-13.46559842519685
 20
8.161625984251967
 30
0.0
 10
-13.46559842519685
 20
8.128488188976378
 30
0.0
 10
-13.49246456692913
 20
8.10162598425197
 30
0.0
 10
-13.52559842519685
 20
8.101622047244092
 30
0.0
 10
-13.52559842519685
 20
8.101622047244092
 30
0.0
 10
-13.55873622047244
 20
8.101622047244092
 30
0.0
 10
-13.58559842519685
 20
8.128488188976378
 30
0.0
 10
-13.58559842519685
 20
8.161622047244092
 30
0.0
  0
SPLINE
  5
B6
330
1F
100
AcDbEntity
  8
Master Layer 2
 62
     1
370
     9
100
AcDbSpline
210
0.0
220
0.0
230
1.0
 70
     9
 71
     3
 72
    20
 73
    16
 74
     0
 42
0.000000001
 43
0.0000000001
 40
0.0
 40
0.0
 40
0.0
 40
0.0
 40
0.2
 40
0.2
 40
0.2
 40
0.20000001
 40
0.4
 40
0.4
 40
0.4
 40
0.4000000100000002
 40
0.6
 40
0.6
 40
0.6
 40
0.6000000100000002
 40
1.0
 40
1.0
 40
1.0
 40
1.0
 10
-11.77115354330709
 20
8.528622047244095
 30
0.0
 10
-11.77115354330709
 20
8.561240157480312
 30
0.0
 10
-11.74471653543307
 20
8.58767716535433
 30
0.0
 10
-11.71209842519685
 20
8.58767716535433
 30
0.0
 10
-11.71209842519685
 20
8.58767716535433
 30
0.0
 10
-11.6794842519685
 20
8.587681102362202
 30
0.0
 10
-11.65304724409449
 20
8.561240157480312
 30
0.0
 10
-11.65304330708661
 20
8.528625984251966
 30
0.0
 10
-11.65304330708661
 20
8.528625984251966
 30
0.0
 10
-11.65304330708661
 20
8.496007874015747
 30
0.0
 10
-11.6794842519685
 20
8.469570866141733
 30
0.0
 10
-11.71209842519685
 20
8.469566929133858
 30
0.0
 10
-11.71209842519685
 20
8.469566929133858
 30
0.0
 10
-11.74471653543307
 20
8.469566929133858
 30
0.0
 10
-11.77115354330709
 20
8.496007874015747
 30
0.0
 10
-11.77115354330709
 20
8.528622047244095
 30
0.0
  0
SPLINE
  5
B7
330
1F
100
AcDbEntity
  8
Master Layer 2
 62
     1
370
     9
100
AcDbSpline
210
0.0
220
0.0
230
1.0
 70
     9
 71
     3
 72
    20
 73
    16
 74
     0
 42
0.000000001
 43
0.0000000001
 40
0.0
 40
0.0
 40
0.0
 40
0.0
 40
0.2
 40
0.2
 40
0.2
 40
0.20000001
 40
0.4
 40
0.4
 40
0.4
 40
0.4000000100000002
 40
0.6
 40
0.6
 40
0.6
 40
0.6000000100000002
 40
1.0
 40
1.0
 40
1.0
 40
1.0
 10
-13.87679527559055
 20
8.457011811023621
 30
0.0
 10
-13.87679527559055
 20
8.489625984251969
 30
0.0
 10
-13.85035433070866
 20
8.516066929133858
 30
0.0
 10
-13.81774015748032
 20
8.516066929133858
 30
0.0
 10
-13.81774015748032
 20
8.516066929133858
 30
0.0
 10
-13.78512598425197
 20
8.516066929133858
 30
0.0
 10
-13.75868503937008
 20
8.489625984251969
 30
0.0
 10
-13.75868503937008
 20
8.457011811023621
 30
0.0
 10
-13.75868503937008
 20
8.457011811023621
 30
0.0
 10
-13.75868503937008
 20
8.424397637795275
 30
0.0
 10
-13.78512204724409
 20
8.397956692913384
 30
0.0
 10
-13.81774015748032
 20
8.397956692913384
 30
0.0
 10
-13.81774015748032
 20
8.397956692913384
 30
0.0
 10
-13.85035433070866
 20
8.397956692913384
 30
0.0
 10
-13.87679527559055
 20
8.424393700787401
 30
0.0
 10
-13.87679527559055
 20
8.457011811023621
 30
0.0
  0
SPLINE
  5
B8
330
1F
100
AcDbEntity
  8
Master Layer 2
 62
     1
370
     9
100
AcDbSpline
210
0.0
220
0.0
230
1.0
 70
     9
 71
     3
 72
    20
 73
    16
 74
     0
 42
0.000000001
 43
0.0000000001
 40
0.0
 40
0.0
 40
0.0
 40
0.0
 40
0.2
 40
0.2
 40
0.2
 40
0.20000001
 40
0.4
 40
0.4
 40
0.4
 40
0.4000000100000002
 40
0.6
 40
0.6
 40
0.6
 40
0.6000000100000002
 40
1.0
 40
1.0
 40
1.0
 40
1.0
 10
-15.52017716535433
 20
4.223322834645667
 30
0.0
 10
-15.52017716535433
 20
4.25594094488189
 30
0.0
 10
-15.49374015748032
 20
4.282377952755904
 30
0.0
 10
-15.46112204724409
 20
4.282377952755904
 30
0.0
 10
-15.46112204724409
 20
4.282377952755904
 30
0.0
 10
-15.42850787401575
 20
4.282377952755904
 30
0.0
 10
-15.40206692913386
 20
4.25594094488189
 30
0.0
 10
-15.40206692913386
 20
4.223322834645667
 30
0.0
 10
-15.40206692913386
 20
4.223322834645667
 30
0.0
 10
-15.40206692913386
 20
4.190708661417323
 30
0.0
 10
-15.42850787401575
 20
4.164267716535433
 30
0.0
 10
-15.46112204724409
 20
4.164267716535433
 30
0.0
 10
-15.46112204724409
 20
4.164267716535433
 30
0.0
 10
-15.49374015748032
 20
4.164267716535433
 30
0.0
 10
-15.52017716535433
 20
4.190708661417323
 30
0.0
 10
-15.52017716535433
 20
4.223322834645667
 30
0.0
  0
SPLINE
  5
B9
330
1F
100
AcDbEntity
  8
Master Layer 2
 62
     1
370
     9
100
AcDbSpline
210
0.0
220
0.0
230
1.0
 70
     8
 71
     3
 72
    20
 73
    16
 74
     0
 42
0.000000001
 43
0.0000000001
 40
0.0
 40
0.0
 40
0.0
 40
0.0
 40
0.2
 40
0.2
 40
0.2
 40
0.20000001
 40
0.4
 40
0.4
 40
0.4
 40
0.4000000100000002
 40
0.6
 40
0.6
 40
0.6
 40
0.6000000100000002
 40
1.0
 40
1.0
 40
1.0
 40
1.0
 10
-14.47346850393701
 20
1.97859842519685
 30
0.0
 10
-14.47346850393701
 20
2.011212598425196
 30
0.0
 10
-14.44702755905512
 20
2.037653543307087
 30
0.0
 10
-14.41441338582677
 20
2.037653543307087
 30
0.0
 10
-14.41441338582677
 20
2.037653543307087
 30
0.0
 10
-14.38179921259843
 20
2.037653543307087
 30
0.0
 10
-14.35535826771654
 20
2.011212598425196
 30
0.0
 10
-14.35535826771654
 20
1.97859842519685
 30
0.0
 10
-14.35535826771654
 20
1.97859842519685
 30
0.0
 10
-14.35535826771654
 20
1.945980314960628
 30
0.0
 10
-14.38179921259843
 20
1.919543307086614
 30
0.0
 10
-14.41441338582677
 20
1.919543307086614
 30
0.0
 10
-14.41441338582677
 20
1.919543307086614
 30
0.0
 10
-14.44702755905512
 20
1.919543307086614
 30
0.0
 10
-14.47346850393701
 20
1.945980314960628
 30
0.0
 10
-14.47346850393701
 20
1.978594488188975
 30
0.0
  0
SPLINE
  5
BA
330
1F
100
AcDbEntity
  8
Master Layer 2
 62
     1
370
     9
100
AcDbSpline
210
0.0
220
0.0
230
1.0
 70
     8
 71
     3
 72
    20
 73
    16
 74
     0
 42
0.000000001
 43
0.0000000001
 40
0.0
 40
0.0
 40
0.0
 40
0.0
 40
0.2
 40
0.2
 40
0.2
 40
0.20000001
 40
0.4
 40
0.4
 40
0.4
 40
0.4000000100000002
 40
0.6
 40
0.6
 40
0.6
 40
0.6000000100000002
 40
1.0
 40
1.0
 40
1.0
 40
1.0
 10
-11.19385433070866
 20
3.428622047244095
 30
0.0
 10
-11.19385433070866
 20
3.461236220472441
 30
0.0
 10
-11.16741338582677
 20
3.487677165354331
 30
0.0
 10
-11.13479921259843
 20
3.487677165354331
 30
0.0
 10
-11.13479921259843
 20
3.487677165354331
 30
0.0
 10
-11.10218503937008
 20
3.487677165354331
 30
0.0
 10
-11.07574409448819
 20
3.461236220472441
 30
0.0
 10
-11.07574409448819
 20
3.428622047244095
 30
0.0
 10
-11.07574409448819
 20
3.428622047244095
 30
0.0
 10
-11.07574409448819
 20
3.396003937007872
 30
0.0
 10
-11.10218503937008
 20
3.369566929133858
 30
0.0
 10
-11.13479921259843
 20
3.369566929133858
 30
0.0
 10
-11.13479921259843
 20
3.369566929133858
 30
0.0
 10
-11.16741338582677
 20
3.369562992125982
 30
0.0
 10
-11.19385433070866
 20
3.396003937007872
 30
0.0
 10
-11.19385433070866
 20
3.42861811023622
 30
0.0
  0
SPLINE
  5
BB
330
1F
100
AcDbEntity
  8
Master Layer 2
 62
     1
370
     9
100
AcDbSpline
210
0.0
220
0.0
230
1.0
 70
     9
 71
     3
 72
    20
 73
    16
 74
     0
 42
0.000000001
 43
0.0000000001
 40
0.0
 40
0.0
 40
0.0
 40
0.0
 40
0.2
 40
0.2
 40
0.2
 40
0.20000001
 40
0.4
 40
0.4
 40
0.4
 40
0.4000000100000002
 40
0.6
 40
0.6
 40
0.6
 40
0.6000000100000002
 40
1.0
 40
1.0
 40
1.0
 40
1.0
 10
-8.028263779527557
 20
3.562728346456693
 30
0.0
 10
-8.028263779527557
 20
3.595346456692912
 30
0.0
 10
-8.001822834645668
 20
3.621783464566928
 30
0.0
 10
-7.96920866141732
 20
3.621783464566928
 30
0.0
 10
-7.96920866141732
 20
3.621783464566928
 30
0.0
 10
-7.936594488188977
 20
3.621783464566928
 30
0.0
 10
-7.910153543307087
 20
3.595346456692912
 30
0.0
 10
-7.910153543307087
 20
3.562728346456693
 30
0.0
 10
-7.910153543307087
 20
3.562728346456693
 30
0.0
 10
-7.910153543307087
 20
3.530114173228346
 30
0.0
 10
-7.936590551181103
 20
3.503673228346456
 30
0.0
 10
-7.96920866141732
 20
3.503673228346456
 30
0.0
 10
-7.96920866141732
 20
3.503673228346456
 30
0.0
 10
-8.001822834645668
 20
3.503673228346456
 30
0.0
 10
-8.028263779527557
 20
3.530114173228346
 30
0.0
 10
-8.028263779527557
 20
3.562728346456693
 30
0.0
  0
SPLINE
  5
BC
330
1F
100
AcDbEntity
  8
Master Layer 2
 62
     1
370
     9
100
AcDbSpline
210
0.0
220
0.0
230
1.0
 70
     9
 71
     3
 72
    20
 73
    16
 74
     0
 42
0.000000001
 43
0.0000000001
 40
0.0
 40
0.0
 40
0.0
 40
0.0
 40
0.2
 40
0.2
 40
0.2
 40
0.20000001
 40
0.4
 40
0.4
 40
0.4
 40
0.4000000100000002
 40
0.6
 40
0.6
 40
0.6
 40
0.6000000100000002
 40
1.0
 40
1.0
 40
1.0
 40
1.0
 10
-8.028263779527557
 20
8.457011811023621
 30
0.0
 10
-8.028263779527557
 20
8.489625984251969
 30
0.0
 10
-8.001822834645668
 20
8.516066929133858
 30
0.0
 10
-7.96920866141732
 20
8.516066929133858
 30
0.0
 10
-7.96920866141732
 20
8.516066929133858
 30
0.0
 10
-7.936594488188977
 20
8.516066929133858
 30
0.0
 10
-7.910153543307087
 20
8.489625984251969
 30
0.0
 10
-7.910153543307087
 20
8.457011811023621
 30
0.0
 10
-7.910153543307087
 20
8.457011811023621
 30
0.0
 10
-7.910153543307087
 20
8.424397637795275
 30
0.0
 10
-7.936590551181103
 20
8.397956692913384
 30
0.0
 10
-7.96920866141732
 20
8.397956692913384
 30
0.0
 10
-7.96920866141732
 20
8.397956692913384
 30
0.0
 10
-8.001822834645668
 20
8.397956692913384
 30
0.0
 10
-8.028263779527557
 20
8.424393700787401
 30
0.0
 10
-8.028263779527557
 20
8.457011811023621
 30
0.0
  0
LWPOLYLINE
  5
148
330
1F
100
AcDbEntity
  8
Master Layer 2
 62
     1
370
     9
100
AcDbPolyline
 90
        5
 70
     1
 43
0.0
 10
-13.60625590551181
 20
5.303311023622045
 10
-13.60625590551181
 20
4.693074803149606
 10
-13.1023188976378
 20
4.693074803149606
 10
-13.1023188976378
 20
5.303311023622045
 10
-13.60625590551181
 20
5.303311023622045
  0
ENDSEC
  0
SECTION
  2
OBJECTS
  0
DICTIONARY
  5
C
330
0
100
AcDbDictionary
281
     1
  3
ACAD_CIP_PREVIOUS_PRODUCT_INFO
350
106
  3
ACAD_COLOR
350
EB
  3
ACAD_DETAILVIEWSTYLE
350
102
  3
ACAD_GROUP
350
D
  3
ACAD_LAYOUT
350
1A
  3
ACAD_MATERIAL
350
3B
  3
ACAD_MLEADERSTYLE
350
DE
  3
ACAD_MLINESTYLE
350
17
  3
ACAD_PLOTSETTINGS
350
19
  3
ACAD_PLOTSTYLENAME
350
E
  3
ACAD_SCALELIST
350
ED
  3
ACAD_SECTIONVIEWSTYLE
350
100
  3
ACAD_TABLESTYLE
350
DD
  3
ACAD_VISUALSTYLE
350
2A
  3
ACDB_RECOMPOSE_DATA
350
15E
  3
AcDbVariableDictionary
350
129
  0
DICTIONARY
  5
10E
330
2
100
AcDbDictionary
280
     1
281
     1
  3
ACAD_LAYERSTATES
360
10F
  0
DICTIONARY
  5
107
330
10
100
AcDbDictionary
280
     1
281
     1
  3
ADSK_XREC_LAYER_RECONCILED
360
108
  0
DICTIONARY
  5
109
330
77
100
AcDbDictionary
280
     1
281
     1
  3
ADSK_XREC_LAYER_RECONCILED
360
10A
  0
XRECORD
  5
106
102
{ACAD_REACTORS
330
C
102
}
330
C
100
AcDbXrecord
280
     1
300
ACDMAC
300
2016
300
ACDMAC_F_S
  0
DICTIONARY
  5
EB
102
{ACAD_REACTORS
330
C
102
}
330
C
100
AcDbDictionary
281
     1
  0
DICTIONARY
  5
102
102
{ACAD_REACTORS
330
C
102
}
330
C
100
AcDbDictionary
281
     1
  3
Imperial24
350
103
  0
DICTIONARY
  5
D
102
{ACAD_REACTORS
330
C
102
}
330
C
100
AcDbDictionary
281
     1
  0
DICTIONARY
  5
1A
102
{ACAD_REACTORS
330
C
102
}
330
C
100
AcDbDictionary
281
     1
  3
Layout1
350
1E
  3
Layout2
350
26
  3
Model
350
22
  0
DICTIONARY
  5
3B
102
{ACAD_REACTORS
330
C
102
}
330
C
100
AcDbDictionary
281
     1
  3
ByBlock
350
3D
  3
ByLayer
350
3C
  3
Global
350
3E
  0
DICTIONARY
  5
DE
102
{ACAD_REACTORS
330
C
102
}
330
C
100
AcDbDictionary
281
     1
  3
Standard
350
FF
  0
DICTIONARY
  5
17
102
{ACAD_REACTORS
330
C
102
}
330
C
100
AcDbDictionary
281
     1
  3
Standard
350
18
  0
DICTIONARY
  5
19
102
{ACAD_REACTORS
330
C
102
}
330
C
100
AcDbDictionary
281
     1
  0
ACDBDICTIONARYWDFLT
  5
E
102
{ACAD_REACTORS
330
C
102
}
330
C
100
AcDbDictionary
281
     1
  3
Normal
350
F
100
AcDbDictionaryWithDefault
340
F
  0
DICTIONARY
  5
ED
102
{ACAD_REACTORS
330
C
102
}
330
C
100
AcDbDictionary
281
     1
  3
A0
350
EE
  3
A1
350
EF
  3
A2
350
F0
  3
A3
350
F1
  3
A4
350
F2
  3
A5
350
F3
  3
A6
350
F4
  3
A7
350
F5
  3
A8
350
F6
  3
A9
350
F7
  3
B0
350
F8
  3
B1
350
F9
  3
B2
350
FA
  3
B3
350
FB
  3
B4
350
FC
  3
B5
350
FD
  3
B6
350
FE
  0
DICTIONARY
  5
100
102
{ACAD_REACTORS
330
C
102
}
330
C
100
AcDbDictionary
281
     1
  3
Imperial24
350
101
  0
DICTIONARY
  5
DD
102
{ACAD_REACTORS
330
C
102
}
330
C
100
AcDbDictionary
281
     1
  3
Standard
350
EC
  0
DICTIONARY
  5
2A
102
{ACAD_REACTORS
330
C
102
}
330
C
100
AcDbDictionary
281
     1
  3
2dWireframe
350
2F
  3
3D Hidden
350
31
  3
3dWireframe
350
30
  3
Basic
350
32
  3
Brighten
350
36
  3
ColorChange
350
3A
  3
Conceptual
350
34
  3
Dim
350
35
  3
EdgeColorOff
350
EA
  3
Facepattern
350
39
  3
Flat
350
2B
  3
FlatWithEdges
350
2C
  3
Gouraud
350
2D
  3
GouraudWithEdges
350
2E
  3
Hidden
350
E2
  3
JitterOff
350
E8
  3
Linepattern
350
38
  3
OverhangOff
350
E9
  3
Realistic
350
33
  3
Shaded
350
E7
  3
Shaded with edges
350
E6
  3
Shades of Gray
350
E3
  3
Sketchy
350
E4
  3
Thicken
350
37
  3
Wireframe
350
E1
  3
X-Ray
350
E5
  0
XRECORD
  5
15E
102
{ACAD_REACTORS
330
C
102
}
330
C
100
AcDbXrecord
280
     1
 90
        1
330
EC
330
101
330
103
  0
DICTIONARY
  5
129
102
{ACAD_REACTORS
330
C
102
}
330
C
100
AcDbDictionary
281
     1
  3
CANNOSCALE
350
12E
  3
CMLEADERSTYLE
350
12B
  3
CTABLESTYLE
350
12A
  3
CVIEWDETAILSTYLE
350
12C
  3
CVIEWSECTIONSTYLE
350
12D
  3
LAYEREVAL
350
12F
  3
LAYERNOTIFY
350
130
  0
DICTIONARY
  5
10F
102
{ACAD_REACTORS
330
10E
102
}
330
10E
100
AcDbDictionary
281
     1
  0
XRECORD
  5
108
102
{ACAD_REACTORS
330
107
102
}
330
107
100
AcDbXrecord
280
     1
290
     1
  0
XRECORD
  5
10A
102
{ACAD_REACTORS
330
109
102
}
330
109
100
AcDbXrecord
280
     1
290
     1
  0
ACDBDETAILVIEWSTYLE
  5
103
102
{ACAD_XDICTIONARY
360
135
102
}
102
{ACAD_REACTORS
330
102
102
}
330
102
100
AcDbModelDocViewStyle
 70
     0
  3
Imperial24
290
     0
100
AcDbDetailViewStyle
 70
     0
 71
     0
 90
        3
 71
     1
340
11
 62
   256
 40
0.24
340
0
 62
   256
 40
0.24
300

 40
0.36
280
     3
 71
     2
340
16
 90
       25
 62
   256
 71
     3
340
11
 62
   256
 40
0.24
 90
        1
 40
0.75
 90
        1
300
%<\AcVar ViewType \f "%tc1">% %<\AcVar ViewDetailId>%\PSCALE %<\AcVar ViewScale \f "%sn">%
 71
     4
340
16
 90
       25
 62
   256
340
16
 90
       25
 62
   256
280
     0
  0
LAYOUT
  5
1E
102
{ACAD_REACTORS
330
1A
102
}
330
1A
100
AcDbPlotSettings
  1

  2
none_device
  4

  6

 40
0.0
 41
0.0
 42
0.0
 43
0.0
 44
0.0
 45
0.0
 46
0.0
 47
0.0
 48
0.0
 49
0.0
140
0.0
141
0.0
142
1.0
143
1.0
 70
   688
 72
     0
 73
     0
 74
     5
  7

 75
    16
147
1.0
 76
     0
 77
     2
 78
   300
148
0.0
149
0.0
100
AcDbLayout
  1
Layout1
 70
     1
 71
     1
 10
0.0
 20
0.0
 11
12.0
 21
9.0
 12
0.0
 22
0.0
 32
0.0
 14
1.000000000000000E+20
 24
1.000000000000000E+20
 34
1.000000000000000E+20
 15
-1.000000000000000E+20
 25
-1.000000000000000E+20
 35
-1.000000000000000E+20
146
0.0
 13
0.0
 23
0.0
 33
0.0
 16
1.0
 26
0.0
 36
0.0
 17
0.0
 27
1.0
 37
0.0
 76
     0
330
1B
  0
LAYOUT
  5
26
102
{ACAD_REACTORS
330
1A
102
}
330
1A
100
AcDbPlotSettings
  1

  2
none_device
  4

  6

 40
0.0
 41
0.0
 42
0.0
 43
0.0
 44
0.0
 45
0.0
 46
0.0
 47
0.0
 48
0.0
 49
0.0
140
0.0
141
0.0
142
1.0
143
1.0
 70
   688
 72
     0
 73
     0
 74
     5
  7

 75
    16
147
1.0
 76
     0
 77
     2
 78
   300
148
0.0
149
0.0
100
AcDbLayout
  1
Layout2
 70
     1
 71
     2
 10
0.0
 20
0.0
 11
0.0
 21
0.0
 12
0.0
 22
0.0
 32
0.0
 14
0.0
 24
0.0
 34
0.0
 15
0.0
 25
0.0
 35
0.0
146
0.0
 13
0.0
 23
0.0
 33
0.0
 16
1.0
 26
0.0
 36
0.0
 17
0.0
 27
1.0
 37
0.0
 76
     0
330
23
  0
LAYOUT
  5
22
102
{ACAD_REACTORS
330
1A
102
}
330
1A
100
AcDbPlotSettings
  1

  2
none_device
  4

  6

 40
0.0
 41
0.0
 42
0.0
 43
0.0
 44
0.0
 45
0.0
 46
0.0
 47
0.0
 48
0.0
 49
0.0
140
0.0
141
0.0
142
1.0
143
1.0
 70
  1712
 72
     0
 73
     0
 74
     0
  7

 75
     0
147
1.0
 76
     0
 77
     2
 78
   300
148
0.0
149
0.0
100
AcDbLayout
  1
Model
 70
     1
 71
     0
 10
0.0
 20
0.0
 11
12.0
 21
9.0
 12
0.0
 22
0.0
 32
0.0
 14
-15.69704724409449
 24
1.739645669291339
 34
0.0
 15
-7.718429133858267
 25
8.704759842519685
 35
0.0
146
0.0
 13
0.0
 23
0.0
 33
0.0
 16
1.0
 26
0.0
 36
0.0
 17
0.0
 27
1.0
 37
0.0
 76
     0
330
1F
331
29
  0
MATERIAL
  5
3D
102
{ACAD_REACTORS
330
3B
102
}
330
3B
100
AcDbMaterial
  1
ByBlock
  0
MATERIAL
  5
3C
102
{ACAD_REACTORS
330
3B
102
}
330
3B
100
AcDbMaterial
  1
ByLayer
  0
MATERIAL
  5
3E
102
{ACAD_REACTORS
330
3B
102
}
330
3B
100
AcDbMaterial
  1
Global
  0
MLEADERSTYLE
  5
FF
102
{ACAD_REACTORS
330
DE
102
}
330
DE
100
AcDbMLeaderStyle
179
     2
170
     2
171
     1
172
     0
 90
        2
 40
0.0
 41
0.0
173
     1
 91
-1056964608
340
14
 92
       -2
290
     1
 42
0.09
291
     1
 43
0.36
  3
Standard
 44
0.18
300

342
11
174
     1
178
     6
175
     1
176
     0
 93
-1056964608
 45
0.18
292
     0
297
     0
 46
0.18
 94
-1056964608
 47
1.0
 49
1.0
140
1.0
293
     1
141
0.0
294
     1
177
     0
142
1.0
295
     0
296
     0
143
0.125
271
     0
272
     9
273
     9
298
     0
  0
MLINESTYLE
  5
18
102
{ACAD_REACTORS
330
17
102
}
330
17
100
AcDbMlineStyle
  2
STANDARD
 70
     0
  3

 62
   256
 51
90.0
 52
90.0
 71
     2
 49
0.5
 62
   256
  6
BYLAYER
 49
-0.5
 62
   256
  6
BYLAYER
  0
ACDBPLACEHOLDER
  5
F
102
{ACAD_REACTORS
330
E
102
}
330
E
  0
SCALE
  5
EE
102
{ACAD_REACTORS
330
ED
102
}
330
ED
100
AcDbScale
 70
     0
300
1:1
140
1.0
141
1.0
290
     1
  0
SCALE
  5
EF
102
{ACAD_REACTORS
330
ED
102
}
330
ED
100
AcDbScale
 70
     0
300
1/128" = 1'-0"
140
0.0078125
141
12.0
290
     0
  0
SCALE
  5
F0
102
{ACAD_REACTORS
330
ED
102
}
330
ED
100
AcDbScale
 70
     0
300
1/64" = 1'-0"
140
0.015625
141
12.0
290
     0
  0
SCALE
  5
F1
102
{ACAD_REACTORS
330
ED
102
}
330
ED
100
AcDbScale
 70
     0
300
1/32" = 1'-0"
140
0.03125
141
12.0
290
     0
  0
SCALE
  5
F2
102
{ACAD_REACTORS
330
ED
102
}
330
ED
100
AcDbScale
 70
     0
300
1/16" = 1'-0"
140
0.0625
141
12.0
290
     0
  0
SCALE
  5
F3
102
{ACAD_REACTORS
330
ED
102
}
330
ED
100
AcDbScale
 70
     0
300
3/32" = 1'-0"
140
0.09375
141
12.0
290
     0
  0
SCALE
  5
F4
102
{ACAD_REACTORS
330
ED
102
}
330
ED
100
AcDbScale
 70
     0
300
1/8" = 1'-0"
140
0.125
141
12.0
290
     0
  0
SCALE
  5
F5
102
{ACAD_REACTORS
330
ED
102
}
330
ED
100
AcDbScale
 70
     0
300
3/16" = 1'-0"
140
0.1875
141
12.0
290
     0
  0
SCALE
  5
F6
102
{ACAD_REACTORS
330
ED
102
}
330
ED
100
AcDbScale
 70
     0
300
1/4" = 1'-0"
140
0.25
141
12.0
290
     0
  0
SCALE
  5
F7
102
{ACAD_REACTORS
330
ED
102
}
330
ED
100
AcDbScale
 70
     0
300
3/8" = 1'-0"
140
0.375
141
12.0
290
     0
  0
SCALE
  5
F8
102
{ACAD_REACTORS
330
ED
102
}
330
ED
100
AcDbScale
 70
     0
300
1/2" = 1'-0"
140
0.5
141
12.0
290
     0
  0
SCALE
  5
F9
102
{ACAD_REACTORS
330
ED
102
}
330
ED
100
AcDbScale
 70
     0
300
3/4" = 1'-0"
140
0.75
141
12.0
290
     0
  0
SCALE
  5
FA
102
{ACAD_REACTORS
330
ED
102
}
330
ED
100
AcDbScale
 70
     0
300
1" = 1'-0"
140
1.0
141
12.0
290
     0
  0
SCALE
  5
FB
102
{ACAD_REACTORS
330
ED
102
}
330
ED
100
AcDbScale
 70
     0
300
1-1/2" = 1'-0"
140
1.5
141
12.0
290
     0
  0
SCALE
  5
FC
102
{ACAD_REACTORS
330
ED
102
}
330
ED
100
AcDbScale
 70
     0
300
3" = 1'-0"
140
3.0
141
12.0
290
     0
  0
SCALE
  5
FD
102
{ACAD_REACTORS
330
ED
102
}
330
ED
100
AcDbScale
 70
     0
300
6" = 1'-0"
140
6.0
141
12.0
290
     0
  0
SCALE
  5
FE
102
{ACAD_REACTORS
330
ED
102
}
330
ED
100
AcDbScale
 70
     0
300
1'-0" = 1'-0"
140
12.0
141
12.0
290
     0
  0
ACDBSECTIONVIEWSTYLE
  5
101
102
{ACAD_XDICTIONARY
360
133
102
}
102
{ACAD_REACTORS
330
100
102
}
330
100
100
AcDbModelDocViewStyle
 70
     0
  3
Imperial24
290
     0
100
AcDbSectionViewStyle
 70
     0
 71
     0
 90
       78
 71
     1
340
11
 62
   256
 40
0.24
340
0
340
0
 62
   256
 40
0.24
300
I, O, Q, S, X, Z
 40
0.48
 90
        3
 40
0.18
 90
        1
 71
     2
340
16
 90
       25
 62
   256
340
16
 90
       50
 62
   256
 40
0.24
 40
0.0
 40
0.24
 71
     3
340
11
 62
   256
 40
0.24
 90
        1
 40
0.75
 90
        1
300
%<\AcVar ViewType \f "%tc1">% %<\AcVar ViewSectionStartId>%-%<\AcVar ViewSectionEndId>%\PSCALE %<\AcVar ViewScale \f "%sn">%
 71
     4
 62
   256
 62
   257
300
ANSI31
 40
1.0
 90
        0
290
     0
290
     0
 90
        6
 40
0.0
 40
1.570796326794896
 40
0.2617993877991494
 40
1.308996938995747
 40
-0.2617993877991494
 40
1.832595714594045
  0
TABLESTYLE
  5
EC
102
{ACAD_XDICTIONARY
360
131
102
}
102
{ACAD_REACTORS
330
DD
102
}
330
DD
100
AcDbTableStyle
280
     0
  3
Standard
 70
     0
 71
     0
 40
0.06
 41
0.06
280
     0
281
     0
  7
Standard
140
0.18
170
     2
 62
     0
 63
     7
283
     0
 90
      512
 91
        0
  1

274
    -2
284
     1
 64
     0
275
    -2
285
     1
 65
     0
276
    -2
286
     1
 66
     0
277
    -2
287
     1
 67
     0
278
    -2
288
     1
 68
     0
279
    -2
289
     1
 69
     0
  7
Standard
140
0.25
170
     5
 62
     0
 63
     7
283
     0
 90
      512
 91
        0
  1

274
    -2
284
     1
 64
     0
275
    -2
285
     1
 65
     0
276
    -2
286
     1
 66
     0
277
    -2
287
     1
 67
     0
278
    -2
288
     1
 68
     0
279
    -2
289
     1
 69
     0
  7
Standard
140
0.18
170
     5
 62
     0
 63
     7
283
     0
 90
      512
 91
        0
  1

274
    -2
284
     1
 64
     0
275
    -2
285
     1
 65
     0
276
    -2
286
     1
 66
     0
277
    -2
287
     1
 67
     0
278
    -2
288
     1
 68
     0
279
    -2
289
     1
 69
     0
  0
VISUALSTYLE
  5
2F
102
{ACAD_REACTORS
330
2A
102
}
330
2A
100
AcDbVisualStyle
  2

 70
     4
177
     3
291
     0
 70
    58
 90
        0
176
     1
 90
        2
176
     1
 90
        0
176
     1
 90
        0
176
     1
 40
0.6
176
     1
 40
30.0
176
     1
 62
     7
420
 16777215
176
     1
 90
        1
176
     1
 90
        4
176
     1
 62
     7
176
     1
 62
   257
176
     1
 90
        1
176
     1
 90
        1
176
     1
 40
1.0
176
     1
 90
        0
176
     1
 62
   257
176
     1
 40
1.0
176
     1
 90
        1
176
     1
 90
        6
176
     1
 90
        2
176
     1
 62
     7
176
     1
 90
        5
176
     1
 90
        0
176
     1
 90
        0
176
     1
290
     0
176
     1
 90
        1
176
     1
 40
0.0
176
     1
 90
        0
176
     1
290
     1
176
     1
290
     1
176
     1
290
     0
176
     1
290
     0
176
     1
290
     0
176
     1
290
     0
176
     1
290
     0
176
     1
290
     0
176
     1
290
     0
176
     1
 90
       50
176
     1
 40
0.0
176
     1
 40
1.0
176
     1
 90
        0
176
     1
 62
    18
176
     1
 90
       50
176
     1
 90
        3
176
     1
 62
     5
420
      255
176
     1
290
     0
176
     1
 90
       50
176
     1
 90
       50
176
     1
 90
       50
176
     1
290
     0
176
     1
 90
       50
176
     1
 62
   256
176
     0
 40
1.0
176
     0
 90
        2
176
     1
  1
strokes_ogs.tif
176
     1
290
     0
176
     1
 40
1.0
176
     1
 40
1.0
176
     1
  0
VISUALSTYLE
  5
31
102
{ACAD_REACTORS
330
2A
102
}
330
2A
100
AcDbVisualStyle
  2

 70
     6
177
     3
291
     0
 70
    58
 90
        1
176
     1
 90
        2
176
     1
 90
        2
176
     1
 90
        0
176
     1
 40
0.6
176
     1
 40
30.0
176
     1
 62
     7
420
 16777215
176
     1
 90
        2
176
     1
 90
        2
176
     1
 62
     7
176
     1
 62
   257
176
     1
 90
        2
176
     1
 90
        1
176
     1
 40
40.0
176
     1
 90
        0
176
     1
 62
   257
176
     1
 40
1.0
176
     1
 90
        1
176
     1
 90
        6
176
     1
 90
        2
176
     1
 62
     7
176
     1
 90
        3
176
     1
 90
        0
176
     1
 90
        0
176
     1
290
     0
176
     1
 90
        1
176
     1
 40
0.0
176
     1
 90
        0
176
     1
290
     0
176
     1
290
     1
176
     1
290
     1
176
     1
290
     0
176
     1
290
     0
176
     1
290
     0
176
     1
290
     0
176
     1
290
     0
176
     1
290
     0
176
     1
 90
       50
176
     1
 40
0.0
176
     1
 40
1.0
176
     1
 90
        0
176
     1
 62
    18
176
     1
 90
       50
176
     1
 90
        3
176
     1
 62
     5
420
      255
176
     1
290
     0
176
     1
 90
       50
176
     1
 90
       50
176
     1
 90
       50
176
     1
290
     0
176
     1
 90
       50
176
     1
 62
   256
176
     0
 40
1.0
176
     0
 90
        2
176
     1
  1
strokes_ogs.tif
176
     1
290
     0
176
     1
 40
1.0
176
     1
 40
1.0
176
     1
  0
VISUALSTYLE
  5
30
102
{ACAD_REACTORS
330
2A
102
}
330
2A
100
AcDbVisualStyle
  2

 70
     5
177
     3
291
     0
 70
    58
 90
        0
176
     1
 90
        2
176
     1
 90
        0
176
     1
 90
        0
176
     1
 40
0.6
176
     1
 40
30.0
176
     1
 62
     7
420
 16777215
176
     1
 90
        1
176
     1
 90
        4
176
     1
 62
     7
176
     1
 62
   257
176
     1
 90
        1
176
     1
 90
        1
176
     1
 40
1.0
176
     1
 90
        0
176
     1
 62
   257
176
     1
 40
1.0
176
     1
 90
        1
176
     1
 90
        6
176
     1
 90
        2
176
     1
 62
     7
176
     1
 90
        5
176
     1
 90
        0
176
     1
 90
        0
176
     1
290
     0
176
     1
 90
        1
176
     1
 40
0.0
176
     1
 90
        0
176
     1
290
     0
176
     1
290
     1
176
     1
290
     1
176
     1
290
     0
176
     1
290
     0
176
     1
290
     0
176
     1
290
     0
176
     1
290
     0
176
     1
290
     0
176
     1
 90
       50
176
     1
 40
0.0
176
     1
 40
1.0
176
     1
 90
        0
176
     1
 62
    18
176
     1
 90
       50
176
     1
 90
        3
176
     1
 62
     5
420
      255
176
     1
290
     0
176
     1
 90
       50
176
     1
 90
       50
176
     1
 90
       50
176
     1
290
     0
176
     1
 90
       50
176
     1
 62
   256
176
     0
 40
1.0
176
     0
 90
        2
176
     1
  1
strokes_ogs.tif
176
     1
290
     0
176
     1
 40
1.0
176
     1
 40
1.0
176
     1
  0
VISUALSTYLE
  5
32
102
{ACAD_REACTORS
330
2A
102
}
330
2A
100
AcDbVisualStyle
  2

 70
     7
177
     3
291
     1
 70
    58
 90
        1
176
     1
 90
        0
176
     1
 90
        1
176
     1
 90
        0
176
     1
 40
0.6
176
     1
 40
30.0
176
     1
 62
     7
420
 16777215
176
     1
 90
        0
176
     1
 90
        4
176
     1
 62
     7
176
     1
 62
   257
176
     1
 90
        1
176
     1
 90
        1
176
     1
 40
1.0
176
     1
 90
        8
176
     1
 62
     7
176
     1
 40
1.0
176
     1
 90
        1
176
     1
 90
        6
176
     1
 90
        2
176
     1
 62
     7
176
     1
 90
        5
176
     1
 90
        0
176
     1
 90
        0
176
     1
290
     0
176
     1
 90
        1
176
     1
 40
0.0
176
     1
 90
        0
176
     1
290
     0
176
     1
290
     1
176
     1
290
     1
176
     1
290
     0
176
     1
290
     0
176
     1
290
     0
176
     1
290
     0
176
     1
290
     0
176
     1
290
     0
176
     1
 90
       50
176
     1
 40
0.0
176
     1
 40
1.0
176
     1
 90
        0
176
     1
 62
    18
176
     1
 90
       50
176
     1
 90
        3
176
     1
 62
     5
420
      255
176
     1
290
     0
176
     1
 90
       50
176
     1
 90
       50
176
     1
 90
       50
176
     1
290
     0
176
     1
 90
       50
176
     1
 62
   256
176
     0
 40
1.0
176
     0
 90
        2
176
     1
  1
strokes_ogs.tif
176
     1
290
     0
176
     1
 40
1.0
176
     1
 40
1.0
176
     1
  0
VISUALSTYLE
  5
36
102
{ACAD_REACTORS
330
2A
102
}
330
2A
100
AcDbVisualStyle
  2

 70
    12
177
     3
291
     1
 70
    58
 90
        2
176
     1
 90
        2
176
     1
 90
        0
176
     1
 90
        0
176
     1
 40
0.6
176
     1
 40
30.0
176
     1
 62
     7
420
 16777215
176
     1
 90
        1
176
     1
 90
        4
176
     1
 62
     7
176
     1
 62
   257
176
     1
 90
        1
176
     1
 90
        1
176
     1
 40
1.0
176
     1
 90
        8
176
     1
 62
     7
176
     1
 40
1.0
176
     1
 90
        1
176
     1
 90
        6
176
     1
 90
        2
176
     1
 62
     7
176
     1
 90
        5
176
     1
 90
        0
176
     1
 90
        0
176
     1
290
     0
176
     1
 90
        1
176
     1
 40
50.0
176
     1
 90
        0
176
     1
290
     0
176
     1
290
     1
176
     1
290
     1
176
     1
290
     0
176
     1
290
     0
176
     1
290
     0
176
     1
290
     0
176
     1
290
     0
176
     1
290
     0
176
     1
 90
       50
176
     1
 40
0.0
176
     1
 40
1.0
176
     1
 90
        0
176
     1
 62
    18
176
     1
 90
       50
176
     1
 90
        3
176
     1
 62
     5
420
      255
176
     1
290
     0
176
     1
 90
       50
176
     1
 90
       50
176
     1
 90
       50
176
     1
290
     0
176
     1
 90
       50
176
     1
 62
   256
176
     0
 40
1.0
176
     0
 90
        2
176
     1
  1
strokes_ogs.tif
176
     1
290
     0
176
     1
 40
1.0
176
     1
 40
1.0
176
     1
  0
VISUALSTYLE
  5
3A
102
{ACAD_REACTORS
330
2A
102
}
330
2A
100
AcDbVisualStyle
  2

 70
    16
177
     3
291
     1
 70
    58
 90
        2
176
     1
 90
        2
176
     1
 90
        3
176
     1
 90
        0
176
     1
 40
0.6
176
     1
 40
30.0
176
     1
 62
     8
420
  8421504
176
     1
 90
        1
176
     1
 90
        4
176
     1
 62
     7
176
     1
 62
   257
176
     1
 90
        1
176
     1
 90
        1
176
     1
 40
1.0
176
     1
 90
        8
176
     1
 62
     8
420
  8421504
176
     1
 40
1.0
176
     1
 90
        1
176
     1
 90
        6
176
     1
 90
        2
176
     1
 62
     7
176
     1
 90
        5
176
     1
 90
        0
176
     1
 90
        0
176
     1
290
     0
176
     1
 90
        1
176
     1
 40
0.0
176
     1
 90
        0
176
     1
290
     0
176
     1
290
     1
176
     1
290
     1
176
     1
290
     0
176
     1
290
     0
176
     1
290
     0
176
     1
290
     0
176
     1
290
     0
176
     1
290
     0
176
     1
 90
       50
176
     1
 40
0.0
176
     1
 40
1.0
176
     1
 90
        0
176
     1
 62
    18
176
     1
 90
       50
176
     1
 90
        3
176
     1
 62
     5
420
      255
176
     1
290
     0
176
     1
 90
       50
176
     1
 90
       50
176
     1
 90
       50
176
     1
290
     0
176
     1
 90
       50
176
     1
 62
   256
176
     0
 40
1.0
176
     0
 90
        2
176
     1
  1
strokes_ogs.tif
176
     1
290
     0
176
     1
 40
1.0
176
     1
 40
1.0
176
     1
  0
VISUALSTYLE
  5
34
102
{ACAD_REACTORS
330
2A
102
}
330
2A
100
AcDbVisualStyle
  2

 70
     9
177
     3
291
     0
 70
    58
 90
        3
176
     1
 90
        2
176
     1
 90
        0
176
     1
 90
        0
176
     1
 40
0.6
176
     1
 40
30.0
176
     1
 62
     7
420
 16777215
176
     1
 90
        2
176
     1
 90
        2
176
     1
 62
     7
176
     1
 62
   257
176
     1
 90
        1
176
     1
 90
        1
176
     1
 40
40.0
176
     1
 90
        8
176
     1
 62
     7
176
     1
 40
1.0
176
     1
 90
        1
176
     1
 90
        6
176
     1
 90
        2
176
     1
 62
     7
176
     1
 90
        3
176
     1
 90
        0
176
     1
 90
        0
176
     1
290
     0
176
     1
 90
        1
176
     1
 40
0.0
176
     1
 90
        0
176
     1
290
     0
176
     1
290
     1
176
     1
290
     1
176
     1
290
     0
176
     1
290
     0
176
     1
290
     0
176
     1
290
     0
176
     1
290
     0
176
     1
290
     0
176
     1
 90
       50
176
     1
 40
0.0
176
     1
 40
1.0
176
     1
 90
        0
176
     1
 62
    18
176
     1
 90
       50
176
     1
 90
        3
176
     1
 62
     5
420
      255
176
     1
290
     0
176
     1
 90
       50
176
     1
 90
       50
176
     1
 90
       50
176
     1
290
     0
176
     1
 90
       50
176
     1
 62
   256
176
     0
 40
1.0
176
     0
 90
        2
176
     1
  1
strokes_ogs.tif
176
     1
290
     0
176
     1
 40
1.0
176
     1
 40
1.0
176
     1
  0
VISUALSTYLE
  5
35
102
{ACAD_REACTORS
330
2A
102
}
330
2A
100
AcDbVisualStyle
  2

 70
    11
177
     3
291
     1
 70
    58
 90
        2
176
     1
 90
        2
176
     1
 90
        0
176
     1
 90
        0
176
     1
 40
0.6
176
     1
 40
30.0
176
     1
 62
     7
420
 16777215
176
     1
 90
        1
176
     1
 90
        4
176
     1
 62
     7
176
     1
 62
   257
176
     1
 90
        1
176
     1
 90
        1
176
     1
 40
1.0
176
     1
 90
        8
176
     1
 62
     7
176
     1
 40
1.0
176
     1
 90
        1
176
     1
 90
        6
176
     1
 90
        2
176
     1
 62
     7
176
     1
 90
        5
176
     1
 90
        0
176
     1
 90
        0
176
     1
290
     0
176
     1
 90
        1
176
     1
 40
-50.0
176
     1
 90
        0
176
     1
290
     0
176
     1
290
     1
176
     1
290
     1
176
     1
290
     0
176
     1
290
     0
176
     1
290
     0
176
     1
290
     0
176
     1
290
     0
176
     1
290
     0
176
     1
 90
       50
176
     1
 40
0.0
176
     1
 40
1.0
176
     1
 90
        0
176
     1
 62
    18
176
     1
 90
       50
176
     1
 90
        3
176
     1
 62
     5
420
      255
176
     1
290
     0
176
     1
 90
       50
176
     1
 90
       50
176
     1
 90
       50
176
     1
290
     0
176
     1
 90
       50
176
     1
 62
   256
176
     0
 40
1.0
176
     0
 90
        2
176
     1
  1
strokes_ogs.tif
176
     1
290
     0
176
     1
 40
1.0
176
     1
 40
1.0
176
     1
  0
VISUALSTYLE
  5
EA
102
{ACAD_REACTORS
330
2A
102
}
330
2A
100
AcDbVisualStyle
  2
EdgeColorOff
 70
    22
177
     3
291
     1
 70
    58
 90
        2
176
     0
 90
        2
176
     0
 90
        0
176
     0
 90
        0
176
     0
 40
0.6
176
     0
 40
30.0
176
     0
 62
     7
420
 16777215
176
     0
 90
        1
176
     0
 90
        4
176
     0
 62
     7
176
     0
 62
   257
176
     0
 90
        1
176
     0
 90
        1
176
     0
 40
1.0
176
     0
 90
        8
176
     2
 62
     7
176
     0
 40
1.0
176
     0
 90
        1
176
     0
 90
        6
176
     0
 90
        2
176
     0
 62
     7
176
     0
 90
        5
176
     0
 90
        0
176
     0
 90
        0
176
     0
290
     0
176
     0
 90
        1
176
     0
 40
0.0
176
     0
 90
        0
176
     0
290
     0
176
     1
290
     1
176
     1
290
     1
176
     1
290
     0
176
     1
290
     0
176
     1
290
     0
176
     1
290
     0
176
     1
290
     0
176
     1
290
     0
176
     1
 90
       50
176
     0
 40
0.0
176
     0
 40
1.0
176
     0
 90
        0
176
     0
 62
    18
176
     0
 90
       50
176
     0
 90
        3
176
     0
 62
     5
420
      255
176
     0
290
     0
176
     1
 90
       50
176
     0
 90
       50
176
     0
 90
       50
176
     0
290
     0
176
     1
 90
       50
176
     0
 62
   256
176
     0
 40
1.0
176
     0
 90
        2
176
     0
  1
strokes_ogs.tif
176
     0
290
     0
176
     1
 40
1.0
176
     0
 40
1.0
176
     0
  0
VISUALSTYLE
  5
39
102
{ACAD_REACTORS
330
2A
102
}
330
2A
100
AcDbVisualStyle
  2

 70
    15
177
     3
291
     1
 70
    58
 90
        2
176
     1
 90
        2
176
     1
 90
        0
176
     1
 90
        0
176
     1
 40
0.6
176
     1
 40
30.0
176
     1
 62
     7
420
 16777215
176
     1
 90
        1
176
     1
 90
        4
176
     1
 62
     7
176
     1
 62
   257
176
     1
 90
        1
176
     1
 90
        1
176
     1
 40
1.0
176
     1
 90
        8
176
     1
 62
     7
176
     1
 40
1.0
176
     1
 90
        1
176
     1
 90
        6
176
     1
 90
        2
176
     1
 62
     7
176
     1
 90
        5
176
     1
 90
        0
176
     1
 90
        0
176
     1
290
     0
176
     1
 90
        1
176
     1
 40
0.0
176
     1
 90
        0
176
     1
290
     0
176
     1
290
     1
176
     1
290
     1
176
     1
290
     0
176
     1
290
     0
176
     1
290
     0
176
     1
290
     0
176
     1
290
     0
176
     1
290
     0
176
     1
 90
       50
176
     1
 40
0.0
176
     1
 40
1.0
176
     1
 90
        0
176
     1
 62
    18
176
     1
 90
       50
176
     1
 90
        3
176
     1
 62
     5
420
      255
176
     1
290
     0
176
     1
 90
       50
176
     1
 90
       50
176
     1
 90
       50
176
     1
290
     0
176
     1
 90
       50
176
     1
 62
   256
176
     0
 40
1.0
176
     0
 90
        2
176
     1
  1
strokes_ogs.tif
176
     1
290
     0
176
     1
 40
1.0
176
     1
 40
1.0
176
     1
  0
VISUALSTYLE
  5
2B
102
{ACAD_REACTORS
330
2A
102
}
330
2A
100
AcDbVisualStyle
  2

 70
     0
177
     3
291
     1
 70
    58
 90
        2
176
     1
 90
        1
176
     1
 90
        1
176
     1
 90
        2
176
     1
 40
0.6
176
     1
 40
30.0
176
     1
 62
     7
420
 16777215
176
     1
 90
        0
176
     1
 90
        4
176
     1
 62
     7
176
     1
 62
   257
176
     1
 90
        1
176
     1
 90
        1
176
     1
 40
1.0
176
     1
 90
        8
176
     1
 62
     7
176
     1
 40
1.0
176
     1
 90
        1
176
     1
 90
        6
176
     1
 90
        2
176
     1
 62
     7
176
     1
 90
        5
176
     1
 90
        0
176
     1
 90
        0
176
     1
290
     0
176
     1
 90
       13
176
     1
 40
0.0
176
     1
 90
        0
176
     1
290
     0
176
     1
290
     1
176
     1
290
     1
176
     1
290
     0
176
     1
290
     0
176
     1
290
     0
176
     1
290
     0
176
     1
290
     0
176
     1
290
     0
176
     1
 90
       50
176
     1
 40
0.0
176
     1
 40
1.0
176
     1
 90
        0
176
     1
 62
    18
176
     1
 90
       50
176
     1
 90
        3
176
     1
 62
     5
420
      255
176
     1
290
     0
176
     1
 90
       50
176
     1
 90
       50
176
     1
 90
       50
176
     1
290
     0
176
     1
 90
       50
176
     1
 62
   256
176
     0
 40
1.0
176
     0
 90
        2
176
     1
  1
strokes_ogs.tif
176
     1
290
     0
176
     1
 40
1.0
176
     1
 40
1.0
176
     1
  0
VISUALSTYLE
  5
2C
102
{ACAD_REACTORS
330
2A
102
}
330
2A
100
AcDbVisualStyle
  2

 70
     1
177
     3
291
     1
 70
    58
 90
        2
176
     1
 90
        1
176
     1
 90
        1
176
     1
 90
        2
176
     1
 40
0.6
176
     1
 40
30.0
176
     1
 62
     7
420
 16777215
176
     1
 90
        1
176
     1
 90
        4
176
     1
 62
     7
176
     1
 62
   257
176
     1
 90
        1
176
     1
 90
        1
176
     1
 40
1.0
176
     1
 90
        0
176
     1
 62
   257
176
     1
 40
1.0
176
     1
 90
        1
176
     1
 90
        6
176
     1
 90
        2
176
     1
 62
     7
176
     1
 90
        5
176
     1
 90
        0
176
     1
 90
        0
176
     1
290
     0
176
     1
 90
       13
176
     1
 40
0.0
176
     1
 90
        0
176
     1
290
     0
176
     1
290
     1
176
     1
290
     1
176
     1
290
     0
176
     1
290
     0
176
     1
290
     0
176
     1
290
     0
176
     1
290
     0
176
     1
290
     0
176
     1
 90
       50
176
     1
 40
0.0
176
     1
 40
1.0
176
     1
 90
        0
176
     1
 62
    18
176
     1
 90
       50
176
     1
 90
        3
176
     1
 62
     5
420
      255
176
     1
290
     0
176
     1
 90
       50
176
     1
 90
       50
176
     1
 90
       50
176
     1
290
     0
176
     1
 90
       50
176
     1
 62
   256
176
     0
 40
1.0
176
     0
 90
        2
176
     1
  1
strokes_ogs.tif
176
     1
290
     0
176
     1
 40
1.0
176
     1
 40
1.0
176
     1
  0
VISUALSTYLE
  5
2D
102
{ACAD_REACTORS
330
2A
102
}
330
2A
100
AcDbVisualStyle
  2

 70
     2
177
     3
291
     1
 70
    58
 90
        2
176
     1
 90
        2
176
     1
 90
        1
176
     1
 90
        2
176
     1
 40
0.6
176
     1
 40
30.0
176
     1
 62
     7
420
 16777215
176
     1
 90
        0
176
     1
 90
        4
176
     1
 62
     7
176
     1
 62
   257
176
     1
 90
        1
176
     1
 90
        1
176
     1
 40
1.0
176
     1
 90
        0
176
     1
 62
     7
176
     1
 40
1.0
176
     1
 90
        1
176
     1
 90
        6
176
     1
 90
        2
176
     1
 62
     7
176
     1
 90
        5
176
     1
 90
        0
176
     1
 90
        0
176
     1
290
     0
176
     1
 90
       13
176
     1
 40
0.0
176
     1
 90
        0
176
     1
290
     0
176
     1
290
     1
176
     1
290
     1
176
     1
290
     0
176
     1
290
     0
176
     1
290
     0
176
     1
290
     0
176
     1
290
     0
176
     1
290
     0
176
     1
 90
       50
176
     1
 40
0.0
176
     1
 40
1.0
176
     1
 90
        0
176
     1
 62
    18
176
     1
 90
       50
176
     1
 90
        3
176
     1
 62
     5
420
      255
176
     1
290
     0
176
     1
 90
       50
176
     1
 90
       50
176
     1
 90
       50
176
     1
290
     0
176
     1
 90
       50
176
     1
 62
   256
176
     0
 40
1.0
176
     0
 90
        2
176
     1
  1
strokes_ogs.tif
176
     1
290
     0
176
     1
 40
1.0
176
     1
 40
1.0
176
     1
  0
VISUALSTYLE
  5
2E
102
{ACAD_REACTORS
330
2A
102
}
330
2A
100
AcDbVisualStyle
  2

 70
     3
177
     3
291
     1
 70
    58
 90
        2
176
     1
 90
        2
176
     1
 90
        1
176
     1
 90
        2
176
     1
 40
0.6
176
     1
 40
30.0
176
     1
 62
     7
420
 16777215
176
     1
 90
        1
176
     1
 90
        4
176
     1
 62
     7
176
     1
 62
   257
176
     1
 90
        1
176
     1
 90
        1
176
     1
 40
1.0
176
     1
 90
        0
176
     1
 62
   257
176
     1
 40
1.0
176
     1
 90
        1
176
     1
 90
        6
176
     1
 90
        2
176
     1
 62
     7
176
     1
 90
        5
176
     1
 90
        0
176
     1
 90
        0
176
     1
290
     0
176
     1
 90
       13
176
     1
 40
0.0
176
     1
 90
        0
176
     1
290
     0
176
     1
290
     1
176
     1
290
     1
176
     1
290
     0
176
     1
290
     0
176
     1
290
     0
176
     1
290
     0
176
     1
290
     0
176
     1
290
     0
176
     1
 90
       50
176
     1
 40
0.0
176
     1
 40
1.0
176
     1
 90
        0
176
     1
 62
    18
176
     1
 90
       50
176
     1
 90
        3
176
     1
 62
     5
420
      255
176
     1
290
     0
176
     1
 90
       50
176
     1
 90
       50
176
     1
 90
       50
176
     1
290
     0
176
     1
 90
       50
176
     1
 62
   256
176
     0
 40
1.0
176
     0
 90
        2
176
     1
  1
strokes_ogs.tif
176
     1
290
     0
176
     1
 40
1.0
176
     1
 40
1.0
176
     1
  0
VISUALSTYLE
  5
E2
102
{ACAD_REACTORS
330
2A
102
}
330
2A
100
AcDbVisualStyle
  2
Hidden
 70
     6
177
     3
291
     0
 70
    58
 90
        1
176
     1
 90
        2
176
     1
 90
        2
176
     1
 90
        0
176
     1
 40
0.6
176
     1
 40
30.0
176
     1
 62
     7
420
 16777215
176
     1
 90
        2
176
     1
 90
        2
176
     1
 62
     7
176
     1
 62
   257
176
     1
 90
        2
176
     1
 90
        1
176
     1
 40
40.0
176
     1
 90
        0
176
     1
 62
   257
176
     1
 40
1.0
176
     1
 90
        1
176
     1
 90
        6
176
     1
 90
        2
176
     1
 62
     7
176
     1
 90
        3
176
     1
 90
        0
176
     1
 90
        0
176
     1
290
     0
176
     1
 90
        1
176
     1
 40
0.0
176
     1
 90
        0
176
     1
290
     0
176
     1
290
     1
176
     1
290
     1
176
     1
290
     0
176
     1
290
     0
176
     1
290
     0
176
     1
290
     0
176
     1
290
     0
176
     1
290
     0
176
     1
 90
       50
176
     1
 40
0.0
176
     1
 40
1.0
176
     1
 90
        0
176
     1
 62
    18
176
     1
 90
       50
176
     1
 90
        3
176
     1
 62
     5
420
      255
176
     1
290
     0
176
     1
 90
       50
176
     1
 90
       50
176
     1
 90
       50
176
     1
290
     0
176
     1
 90
       50
176
     1
 62
   256
176
     0
 40
1.0
176
     0
 90
        2
176
     1
  1
strokes_ogs.tif
176
     1
290
     0
176
     1
 40
1.0
176
     1
 40
1.0
176
     1
  0
VISUALSTYLE
  5
E8
102
{ACAD_REACTORS
330
2A
102
}
330
2A
100
AcDbVisualStyle
  2
JitterOff
 70
    20
177
     3
291
     1
 70
    58
 90
        2
176
     0
 90
        2
176
     0
 90
        0
176
     0
 90
        0
176
     0
 40
0.6
176
     0
 40
30.0
176
     0
 62
     7
420
 16777215
176
     0
 90
        1
176
     0
 90
        4
176
     0
 62
     7
176
     0
 62
   257
176
     0
 90
        1
176
     0
 90
        1
176
     0
 40
1.0
176
     0
 90
       10
176
     2
 62
     7
176
     0
 40
1.0
176
     0
 90
        1
176
     0
 90
        6
176
     0
 90
        2
176
     0
 62
     7
176
     0
 90
        5
176
     0
 90
        0
176
     0
 90
        0
176
     0
290
     0
176
     0
 90
        1
176
     0
 40
0.0
176
     0
 90
        0
176
     0
290
     0
176
     1
290
     1
176
     1
290
     1
176
     1
290
     0
176
     1
290
     0
176
     1
290
     0
176
     1
290
     0
176
     1
290
     0
176
     1
290
     0
176
     1
 90
       50
176
     0
 40
0.0
176
     0
 40
1.0
176
     0
 90
        0
176
     0
 62
    18
176
     0
 90
       50
176
     0
 90
        3
176
     0
 62
     5
420
      255
176
     0
290
     0
176
     1
 90
       50
176
     0
 90
       50
176
     0
 90
       50
176
     0
290
     0
176
     1
 90
       50
176
     0
 62
   256
176
     0
 40
1.0
176
     0
 90
        2
176
     0
  1
strokes_ogs.tif
176
     0
290
     0
176
     1
 40
1.0
176
     0
 40
1.0
176
     0
  0
VISUALSTYLE
  5
38
102
{ACAD_REACTORS
330
2A
102
}
330
2A
100
AcDbVisualStyle
  2

 70
    14
177
     3
291
     1
 70
    58
 90
        2
176
     1
 90
        2
176
     1
 90
        0
176
     1
 90
        0
176
     1
 40
0.6
176
     1
 40
30.0
176
     1
 62
     7
420
 16777215
176
     1
 90
        1
176
     1
 90
        4
176
     1
 62
     7
176
     1
 62
   257
176
     1
 90
        7
176
     1
 90
        7
176
     1
 40
1.0
176
     1
 90
        8
176
     1
 62
     7
176
     1
 40
1.0
176
     1
 90
        1
176
     1
 90
        6
176
     1
 90
        2
176
     1
 62
     7
176
     1
 90
        5
176
     1
 90
        0
176
     1
 90
        0
176
     1
290
     0
176
     1
 90
        1
176
     1
 40
0.0
176
     1
 90
        0
176
     1
290
     0
176
     1
290
     1
176
     1
290
     1
176
     1
290
     0
176
     1
290
     0
176
     1
290
     0
176
     1
290
     0
176
     1
290
     0
176
     1
290
     0
176
     1
 90
       50
176
     1
 40
0.0
176
     1
 40
1.0
176
     1
 90
        0
176
     1
 62
    18
176
     1
 90
       50
176
     1
 90
        3
176
     1
 62
     5
420
      255
176
     1
290
     0
176
     1
 90
       50
176
     1
 90
       50
176
     1
 90
       50
176
     1
290
     0
176
     1
 90
       50
176
     1
 62
   256
176
     0
 40
1.0
176
     0
 90
        2
176
     1
  1
strokes_ogs.tif
176
     1
290
     0
176
     1
 40
1.0
176
     1
 40
1.0
176
     1
  0
VISUALSTYLE
  5
E9
102
{ACAD_REACTORS
330
2A
102
}
330
2A
100
AcDbVisualStyle
  2
OverhangOff
 70
    21
177
     3
291
     1
 70
    58
 90
        2
176
     0
 90
        2
176
     0
 90
        0
176
     0
 90
        0
176
     0
 40
0.6
176
     0
 40
30.0
176
     0
 62
     7
420
 16777215
176
     0
 90
        1
176
     0
 90
        4
176
     0
 62
     7
176
     0
 62
   257
176
     0
 90
        1
176
     0
 90
        1
176
     0
 40
1.0
176
     0
 90
        9
176
     2
 62
     7
176
     0
 40
1.0
176
     0
 90
        1
176
     0
 90
        6
176
     0
 90
        2
176
     0
 62
     7
176
     0
 90
        5
176
     0
 90
        0
176
     0
 90
        0
176
     0
290
     0
176
     0
 90
        1
176
     0
 40
0.0
176
     0
 90
        0
176
     0
290
     0
176
     1
290
     1
176
     1
290
     1
176
     1
290
     0
176
     1
290
     0
176
     1
290
     0
176
     1
290
     0
176
     1
290
     0
176
     1
290
     0
176
     1
 90
       50
176
     0
 40
0.0
176
     0
 40
1.0
176
     0
 90
        0
176
     0
 62
    18
176
     0
 90
       50
176
     0
 90
        3
176
     0
 62
     5
420
      255
176
     0
290
     0
176
     1
 90
       50
176
     0
 90
       50
176
     0
 90
       50
176
     0
290
     0
176
     1
 90
       50
176
     0
 62
   256
176
     0
 40
1.0
176
     0
 90
        2
176
     0
  1
strokes_ogs.tif
176
     0
290
     0
176
     1
 40
1.0
176
     0
 40
1.0
176
     0
  0
VISUALSTYLE
  5
33
102
{ACAD_REACTORS
330
2A
102
}
330
2A
100
AcDbVisualStyle
  2

 70
     8
177
     3
291
     0
 70
    58
 90
        2
176
     1
 90
        2
176
     1
 90
        0
176
     1
 90
        0
176
     1
 40
0.6
176
     1
 40
30.0
176
     1
 62
     7
420
 16777215
176
     1
 90
        1
176
     1
 90
        0
176
     1
 62
     7
176
     1
 62
   257
176
     1
 90
        1
176
     1
 90
        1
176
     1
 40
1.0
176
     1
 90
        8
176
     1
 62
     8
420
  7895160
176
     1
 40
1.0
176
     1
 90
        1
176
     1
 90
        6
176
     1
 90
        2
176
     1
 62
     7
176
     1
 90
        5
176
     1
 90
        0
176
     1
 90
        0
176
     1
290
     0
176
     1
 90
       13
176
     1
 40
0.0
176
     1
 90
        0
176
     1
290
     0
176
     1
290
     1
176
     1
290
     1
176
     1
290
     0
176
     1
290
     0
176
     1
290
     0
176
     1
290
     0
176
     1
290
     0
176
     1
290
     0
176
     1
 90
       50
176
     1
 40
0.0
176
     1
 40
1.0
176
     1
 90
        0
176
     1
 62
    18
176
     1
 90
       50
176
     1
 90
        3
176
     1
 62
     5
420
      255
176
     1
290
     0
176
     1
 90
       50
176
     1
 90
       50
176
     1
 90
       50
176
     1
290
     0
176
     1
 90
       50
176
     1
 62
   256
176
     0
 40
1.0
176
     0
 90
        2
176
     1
  1
strokes_ogs.tif
176
     1
290
     0
176
     1
 40
1.0
176
     1
 40
1.0
176
     1
  0
VISUALSTYLE
  5
E7
102
{ACAD_REACTORS
330
2A
102
}
330
2A
100
AcDbVisualStyle
  2
Shaded
 70
    27
177
     3
291
     0
 70
    58
 90
        2
176
     1
 90
        2
176
     1
 90
        1
176
     1
 90
        2
176
     1
 40
0.6
176
     1
 40
30.0
176
     1
 62
     7
420
 16777215
176
     1
 90
        0
176
     1
 90
        4
176
     1
 62
     7
176
     1
 62
   257
176
     1
 90
        1
176
     1
 90
        1
176
     1
 40
1.0
176
     1
 90
        8
176
     1
 62
   257
176
     1
 40
1.0
176
     1
 90
        1
176
     1
 90
        6
176
     1
 90
        2
176
     1
 62
     8
420
  7895160
176
     1
 90
        3
176
     1
 90
        0
176
     1
 90
        0
176
     1
290
     0
176
     1
 90
        5
176
     1
 40
0.0
176
     1
 90
        0
176
     1
290
     0
176
     1
290
     1
176
     1
290
     1
176
     1
290
     0
176
     1
290
     0
176
     1
290
     0
176
     1
290
     0
176
     1
290
     0
176
     1
290
     0
176
     1
 90
       50
176
     1
 40
0.0
176
     1
 40
1.0
176
     1
 90
        0
176
     1
 62
    18
176
     1
 90
       50
176
     1
 90
        3
176
     1
 62
     5
420
      255
176
     1
290
     0
176
     1
 90
       50
176
     1
 90
       50
176
     1
 90
       50
176
     1
290
     0
176
     1
 90
       50
176
     1
 62
   256
176
     0
 40
1.0
176
     0
 90
        2
176
     1
  1
strokes_ogs.tif
176
     1
290
     0
176
     1
 40
1.0
176
     1
 40
1.0
176
     1
  0
VISUALSTYLE
  5
E6
102
{ACAD_REACTORS
330
2A
102
}
330
2A
100
AcDbVisualStyle
  2
Shaded with edges
 70
    26
177
     3
291
     0
 70
    58
 90
        2
176
     1
 90
        2
176
     1
 90
        1
176
     1
 90
        2
176
     1
 40
0.6
176
     1
 40
30.0
176
     1
 62
     7
420
 16777215
176
     1
 90
        1
176
     1
 90
       10
176
     1
 62
     7
176
     1
 62
   257
176
     1
 90
        2
176
     1
 90
        1
176
     1
 40
1.0
176
     1
 90
        8
176
     1
 62
   257
176
     1
 40
1.0
176
     1
 90
        1
176
     1
 90
        6
176
     1
 90
        2
176
     1
 62
     7
176
     1
 90
        3
176
     1
 90
        0
176
     1
 90
        0
176
     1
290
     0
176
     1
 90
        5
176
     1
 40
0.0
176
     1
 90
        0
176
     1
290
     0
176
     1
290
     1
176
     1
290
     1
176
     1
290
     0
176
     1
290
     0
176
     1
290
     0
176
     1
290
     0
176
     1
290
     0
176
     1
290
     0
176
     1
 90
       50
176
     1
 40
0.0
176
     1
 40
1.0
176
     1
 90
        0
176
     1
 62
    18
176
     1
 90
       50
176
     1
 90
        3
176
     1
 62
     5
420
      255
176
     1
290
     0
176
     1
 90
       50
176
     1
 90
       50
176
     1
 90
       50
176
     1
290
     0
176
     1
 90
       50
176
     1
 62
   256
176
     0
 40
1.0
176
     0
 90
        2
176
     1
  1
strokes_ogs.tif
176
     1
290
     0
176
     1
 40
1.0
176
     1
 40
1.0
176
     1
  0
VISUALSTYLE
  5
E3
102
{ACAD_REACTORS
330
2A
102
}
330
2A
100
AcDbVisualStyle
  2
Shades of Gray
 70
    23
177
     3
291
     0
 70
    58
 90
        2
176
     1
 90
        2
176
     1
 90
        3
176
     1
 90
        0
176
     1
 40
0.6
176
     1
 40
30.0
176
     1
 62
     7
420
 16777215
176
     1
 90
        2
176
     1
 90
        2
176
     1
 62
     7
176
     1
 62
     7
176
     1
 90
        1
176
     1
 90
        1
176
     1
 40
40.0
176
     1
 90
        8
176
     1
 62
     7
176
     1
 40
1.0
176
     1
 90
        1
176
     1
 90
        6
176
     1
 90
        2
176
     1
 62
     7
176
     1
 90
        3
176
     1
 90
        0
176
     1
 90
        0
176
     1
290
     0
176
     1
 90
        1
176
     1
 40
0.0
176
     1
 90
        0
176
     1
290
     0
176
     1
290
     1
176
     1
290
     1
176
     1
290
     0
176
     1
290
     0
176
     1
290
     0
176
     1
290
     0
176
     1
290
     0
176
     1
290
     0
176
     1
 90
       50
176
     1
 40
0.0
176
     1
 40
1.0
176
     1
 90
        0
176
     1
 62
    18
176
     1
 90
       50
176
     1
 90
        3
176
     1
 62
     5
420
      255
176
     1
290
     0
176
     1
 90
       50
176
     1
 90
       50
176
     1
 90
       50
176
     1
290
     0
176
     1
 90
       50
176
     1
 62
   256
176
     0
 40
1.0
176
     0
 90
        2
176
     1
  1
strokes_ogs.tif
176
     1
290
     0
176
     1
 40
1.0
176
     1
 40
1.0
176
     1
  0
VISUALSTYLE
  5
E4
102
{ACAD_REACTORS
330
2A
102
}
330
2A
100
AcDbVisualStyle
  2
Sketchy
 70
    24
177
     3
291
     0
 70
    58
 90
        1
176
     1
 90
        2
176
     1
 90
        2
176
     1
 90
        0
176
     1
 40
0.6
176
     1
 40
30.0
176
     1
 62
     7
420
 16777215
176
     1
 90
        2
176
     1
 90
        2
176
     1
 62
     7
176
     1
 62
     7
176
     1
 90
        1
176
     1
 90
        1
176
     1
 40
40.0
176
     1
 90
       11
176
     1
 62
     7
176
     1
 40
1.0
176
     1
 90
        1
176
     1
 90
        6
176
     1
 90
        2
176
     1
 62
     7
176
     1
 90
        6
176
     1
 90
        0
176
     1
 90
        0
176
     1
290
     0
176
     1
 90
        1
176
     1
 40
0.0
176
     1
 90
        0
176
     1
290
     0
176
     1
290
     1
176
     1
290
     1
176
     1
290
     0
176
     1
290
     0
176
     1
290
     0
176
     1
290
     0
176
     1
290
     0
176
     1
290
     0
176
     1
 90
       50
176
     1
 40
0.0
176
     1
 40
1.0
176
     1
 90
        0
176
     1
 62
    18
176
     1
 90
       50
176
     1
 90
        3
176
     1
 62
     5
420
      255
176
     1
290
     0
176
     1
 90
       50
176
     1
 90
       50
176
     1
 90
       50
176
     1
290
     0
176
     1
 90
       50
176
     1
 62
   256
176
     0
 40
1.0
176
     0
 90
        2
176
     1
  1
strokes_ogs.tif
176
     1
290
     0
176
     1
 40
1.0
176
     1
 40
1.0
176
     1
  0
VISUALSTYLE
  5
37
102
{ACAD_REACTORS
330
2A
102
}
330
2A
100
AcDbVisualStyle
  2

 70
    13
177
     3
291
     1
 70
    58
 90
        2
176
     1
 90
        2
176
     1
 90
        0
176
     1
 90
        0
176
     1
 40
0.6
176
     1
 40
30.0
176
     1
 62
     7
420
 16777215
176
     1
 90
        1
176
     1
 90
        4
176
     1
 62
     7
176
     1
 62
   257
176
     1
 90
        1
176
     1
 90
        1
176
     1
 40
1.0
176
     1
 90
       12
176
     1
 62
     7
176
     1
 40
1.0
176
     1
 90
        1
176
     1
 90
        6
176
     1
 90
        2
176
     1
 62
     7
176
     1
 90
        5
176
     1
 90
        0
176
     1
 90
        0
176
     1
290
     0
176
     1
 90
        1
176
     1
 40
0.0
176
     1
 90
        0
176
     1
290
     0
176
     1
290
     1
176
     1
290
     1
176
     1
290
     0
176
     1
290
     0
176
     1
290
     0
176
     1
290
     0
176
     1
290
     0
176
     1
290
     0
176
     1
 90
       50
176
     1
 40
0.0
176
     1
 40
1.0
176
     1
 90
        0
176
     1
 62
    18
176
     1
 90
       50
176
     1
 90
        3
176
     1
 62
     5
420
      255
176
     1
290
     0
176
     1
 90
       50
176
     1
 90
       50
176
     1
 90
       50
176
     1
290
     0
176
     1
 90
       50
176
     1
 62
   256
176
     0
 40
1.0
176
     0
 90
        2
176
     1
  1
strokes_ogs.tif
176
     1
290
     0
176
     1
 40
1.0
176
     1
 40
1.0
176
     1
  0
VISUALSTYLE
  5
E1
102
{ACAD_REACTORS
330
2A
102
}
330
2A
100
AcDbVisualStyle
  2
Wireframe
 70
     5
177
     3
291
     0
 70
    58
 90
        0
176
     1
 90
        2
176
     1
 90
        0
176
     1
 90
        0
176
     1
 40
0.6
176
     1
 40
30.0
176
     1
 62
     7
420
 16777215
176
     1
 90
        1
176
     1
 90
        4
176
     1
 62
     7
176
     1
 62
   257
176
     1
 90
        1
176
     1
 90
        1
176
     1
 40
1.0
176
     1
 90
        0
176
     1
 62
   257
176
     1
 40
1.0
176
     1
 90
        1
176
     1
 90
        6
176
     1
 90
        2
176
     1
 62
     7
176
     1
 90
        3
176
     1
 90
        0
176
     1
 90
        0
176
     1
290
     0
176
     1
 90
        1
176
     1
 40
0.0
176
     1
 90
        0
176
     1
290
     0
176
     1
290
     1
176
     1
290
     1
176
     1
290
     0
176
     1
290
     0
176
     1
290
     0
176
     1
290
     0
176
     1
290
     0
176
     1
290
     0
176
     1
 90
       50
176
     1
 40
0.0
176
     1
 40
1.0
176
     1
 90
        0
176
     1
 62
    18
176
     1
 90
       50
176
     1
 90
        3
176
     1
 62
     5
420
      255
176
     1
290
     0
176
     1
 90
       50
176
     1
 90
       50
176
     1
 90
       50
176
     1
290
     0
176
     1
 90
       50
176
     1
 62
   256
176
     0
 40
1.0
176
     0
 90
        2
176
     1
  1
strokes_ogs.tif
176
     1
290
     0
176
     1
 40
1.0
176
     1
 40
1.0
176
     1
  0
VISUALSTYLE
  5
E5
102
{ACAD_REACTORS
330
2A
102
}
330
2A
100
AcDbVisualStyle
  2
X-Ray
 70
    25
177
     3
291
     0
 70
    58
 90
        2
176
     1
 90
        2
176
     1
 90
        1
176
     1
 90
        1
176
     1
 40
0.5
176
     1
 40
30.0
176
     1
 62
     7
420
 16777215
176
     1
 90
        1
176
     1
 90
        0
176
     1
 62
     7
176
     1
 62
   257
176
     1
 90
        1
176
     1
 90
        1
176
     1
 40
1.0
176
     1
 90
        8
176
     1
 62
     7
176
     1
 40
1.0
176
     1
 90
        1
176
     1
 90
        6
176
     1
 90
        2
176
     1
 62
     7
176
     1
 90
        3
176
     1
 90
        0
176
     1
 90
        0
176
     1
290
     0
176
     1
 90
       13
176
     1
 40
0.0
176
     1
 90
        0
176
     1
290
     0
176
     1
290
     1
176
     1
290
     1
176
     1
290
     0
176
     1
290
     0
176
     1
290
     0
176
     1
290
     0
176
     1
290
     0
176
     1
290
     0
176
     1
 90
       50
176
     1
 40
0.0
176
     1
 40
1.0
176
     1
 90
        0
176
     1
 62
    18
176
     1
 90
       50
176
     1
 90
        3
176
     1
 62
     5
420
      255
176
     1
290
     0
176
     1
 90
       50
176
     1
 90
       50
176
     1
 90
       50
176
     1
290
     0
176
     1
 90
       50
176
     1
 62
   256
176
     0
 40
1.0
176
     0
 90
        2
176
     1
  1
strokes_ogs.tif
176
     1
290
     0
176
     1
 40
1.0
176
     1
 40
1.0
176
     1
  0
DICTIONARYVAR
  5
12E
102
{ACAD_REACTORS
330
129
102
}
330
129
100
DictionaryVariables
280
     0
  1
1:1
  0
DICTIONARYVAR
  5
12B
102
{ACAD_REACTORS
330
129
102
}
330
129
100
DictionaryVariables
280
     0
  1
STANDARD
  0
DICTIONARYVAR
  5
12A
102
{ACAD_REACTORS
330
129
102
}
330
129
100
DictionaryVariables
280
     0
  1
STANDARD
  0
DICTIONARYVAR
  5
12C
102
{ACAD_REACTORS
330
129
102
}
330
129
100
DictionaryVariables
280
     0
  1
Imperial24
  0
DICTIONARYVAR
  5
12D
102
{ACAD_REACTORS
330
129
102
}
330
129
100
DictionaryVariables
280
     0
  1
Imperial24
  0
DICTIONARYVAR
  5
12F
102
{ACAD_REACTORS
330
129
102
}
330
129
100
DictionaryVariables
280
     0
  1
1
  0
DICTIONARYVAR
  5
130
102
{ACAD_REACTORS
330
129
102
}
330
129
100
DictionaryVariables
280
     0
  1
15
  0
DICTIONARY
  5
135
330
103
100
AcDbDictionary
280
     1
281
     1
  3
ACAD_XREC_ROUNDTRIP
360
15D
  0
DICTIONARY
  5
133
330
101
100
AcDbDictionary
280
     1
281
     1
  3
ACAD_XREC_ROUNDTRIP
360
15C
  0
DICTIONARY
  5
131
330
EC
100
AcDbDictionary
280
     1
281
     1
  3
ACAD_ROUNDTRIP_2008_TABLESTYLE_CELLSTYLEMAP
360
15B
  0
XRECORD
  5
15D
102
{ACAD_REACTORS
330
135
102
}
330
135
100
AcDbXrecord
280
     1
102
DISPLAYNAME
  1
Imperial24
102
FLAGS
 90
        0
  0
XRECORD
  5
15C
102
{ACAD_REACTORS
330
133
102
}
330
133
100
AcDbXrecord
280
     1
102
DISPLAYNAME
  1
Imperial24
102
FLAGS
 90
        0
  0
CELLSTYLEMAP
  5
15B
102
{ACAD_REACTORS
330
131
102
}
330
131
100
AcDbCellStyleMap
 90
        3
300
CELLSTYLE
  1
TABLEFORMAT_BEGIN
 90
        5
170
     1
 91
        0
 92
    32768
 62
   257
 93
        1
300
CONTENTFORMAT
  1
CONTENTFORMAT_BEGIN
 90
        0
 91
        0
 92
      512
 93
        0
300

 40
0.0
140
1.0
 94
        5
 62
     0
340
11
144
0.25
309
CONTENTFORMAT_END
171
     1
301
MARGIN
  1
CELLMARGIN_BEGIN
 40
0.06
 40
0.06
 40
0.06
 40
0.06
 40
0.18
 40
0.18
309
CELLMARGIN_END
 94
        6
 95
        1
302
GRIDFORMAT
  1
GRIDFORMAT_BEGIN
 90
        0
 91
        1
 62
     0
 92
       -2
340
0
 93
        0
 40
0.045
309
GRIDFORMAT_END
 95
        2
302
GRIDFORMAT
  1
GRIDFORMAT_BEGIN
 90
        0
 91
        1
 62
     0
 92
       -2
340
0
 93
        0
 40
0.045
309
GRIDFORMAT_END
 95
        4
302
GRIDFORMAT
  1
GRIDFORMAT_BEGIN
 90
        0
 91
        1
 62
     0
 92
       -2
340
0
 93
        0
 40
0.045
309
GRIDFORMAT_END
 95
        8
302
GRIDFORMAT
  1
GRIDFORMAT_BEGIN
 90
        0
 91
        1
 62
     0
 92
       -2
340
0
 93
        0
 40
0.045
309
GRIDFORMAT_END
 95
       16
302
GRIDFORMAT
  1
GRIDFORMAT_BEGIN
 90
        0
 91
        1
 62
     0
 92
       -2
340
0
 93
        0
 40
0.045
309
GRIDFORMAT_END
 95
       32
302
GRIDFORMAT
  1
GRIDFORMAT_BEGIN
 90
        0
 91
        1
 62
     0
 92
       -2
340
0
 93
        0
 40
0.045
309
GRIDFORMAT_END
309
TABLEFORMAT_END
  1
CELLSTYLE_BEGIN
 90
        1
 91
        1
300
_TITLE
309
CELLSTYLE_END
300
CELLSTYLE
  1
TABLEFORMAT_BEGIN
 90
        5
170
     1
 91
        0
 92
        0
 62
   257
 93
        1
300
CONTENTFORMAT
  1
CONTENTFORMAT_BEGIN
 90
        0
 91
        0
 92
      512
 93
        0
300

 40
0.0
140
1.0
 94
        5
 62
     0
340
11
144
0.18
309
CONTENTFORMAT_END
171
     1
301
MARGIN
  1
CELLMARGIN_BEGIN
 40
0.06
 40
0.06
 40
0.06
 40
0.06
 40
0.18
 40
0.18
309
CELLMARGIN_END
 94
        6
 95
        1
302
GRIDFORMAT
  1
GRIDFORMAT_BEGIN
 90
        0
 91
        1
 62
     0
 92
       -2
340
0
 93
        0
 40
0.045
309
GRIDFORMAT_END
 95
        2
302
GRIDFORMAT
  1
GRIDFORMAT_BEGIN
 90
        0
 91
        1
 62
     0
 92
       -2
340
0
 93
        0
 40
0.045
309
GRIDFORMAT_END
 95
        4
302
GRIDFORMAT
  1
GRIDFORMAT_BEGIN
 90
        0
 91
        1
 62
     0
 92
       -2
340
0
 93
        0
 40
0.045
309
GRIDFORMAT_END
 95
        8
302
GRIDFORMAT
  1
GRIDFORMAT_BEGIN
 90
        0
 91
        1
 62
     0
 92
       -2
340
0
 93
        0
 40
0.045
309
GRIDFORMAT_END
 95
       16
302
GRIDFORMAT
  1
GRIDFORMAT_BEGIN
 90
        0
 91
        1
 62
     0
 92
       -2
340
0
 93
        0
 40
0.045
309
GRIDFORMAT_END
 95
       32
302
GRIDFORMAT
  1
GRIDFORMAT_BEGIN
 90
        0
 91
        1
 62
     0
 92
       -2
340
0
 93
        0
 40
0.045
309
GRIDFORMAT_END
309
TABLEFORMAT_END
  1
CELLSTYLE_BEGIN
 90
        2
 91
        1
300
_HEADER
309
CELLSTYLE_END
300
CELLSTYLE
  1
TABLEFORMAT_BEGIN
 90
        5
170
     1
 91
        0
 92
        0
 62
   257
 93
        1
300
CONTENTFORMAT
  1
CONTENTFORMAT_BEGIN
 90
        0
 91
        0
 92
      512
 93
        0
300

 40
0.0
140
1.0
 94
        2
 62
     0
340
11
144
0.18
309
CONTENTFORMAT_END
171
     1
301
MARGIN
  1
CELLMARGIN_BEGIN
 40
0.06
 40
0.06
 40
0.06
 40
0.06
 40
0.18
 40
0.18
309
CELLMARGIN_END
 94
        6
 95
        1
302
GRIDFORMAT
  1
GRIDFORMAT_BEGIN
 90
        0
 91
        1
 62
     0
 92
       -2
340
0
 93
        0
 40
0.045
309
GRIDFORMAT_END
 95
        2
302
GRIDFORMAT
  1
GRIDFORMAT_BEGIN
 90
        0
 91
        1
 62
     0
 92
       -2
340
0
 93
        0
 40
0.045
309
GRIDFORMAT_END
 95
        4
302
GRIDFORMAT
  1
GRIDFORMAT_BEGIN
 90
        0
 91
        1
 62
     0
 92
       -2
340
0
 93
        0
 40
0.045
309
GRIDFORMAT_END
 95
        8
302
GRIDFORMAT
  1
GRIDFORMAT_BEGIN
 90
        0
 91
        1
 62
     0
 92
       -2
340
0
 93
        0
 40
0.045
309
GRIDFORMAT_END
 95
       16
302
GRIDFORMAT
  1
GRIDFORMAT_BEGIN
 90
        0
 91
        1
 62
     0
 92
       -2
340
0
 93
        0
 40
0.045
309
GRIDFORMAT_END
 95
       32
302
GRIDFORMAT
  1
GRIDFORMAT_BEGIN
 90
        0
 91
        1
 62
     0
 92
       -2
340
0
 93
        0
 40
0.045
309
GRIDFORMAT_END
309
TABLEFORMAT_END
  1
CELLSTYLE_BEGIN
 90
        3
 91
        2
300
_DATA
309
CELLSTYLE_END
  0
ENDSEC
  0
SECTION
  2
ACDSDATA
 70
     2
 71
     8
  0
ACDSSCHEMA
 90
        0
  1
AcDb_Thumbnail_Schema
  2
AcDbDs::ID
280
    10
 91
        8
  2
Thumbnail_Data
280
    15
 91
        0
101
ACDSRECORD
 95
        0
 90
        1
  2
AcDbDs::TreatedAsObjectData
280
     1
291
     1
101
ACDSRECORD
 95
        0
 90
        2
  2
AcDbDs::Legacy
280
     1
291
     1
101
ACDSRECORD
  1
AcDbDs::ID
 90
        3
  2
AcDs:Indexable
280
     1
291
     1
101
ACDSRECORD
  1
AcDbDs::ID
 90
        4
  2
AcDbDs::HandleAttribute
280
     7
282
     1
  0
ACDSSCHEMA
 90
        1
  1
AcDbDs::TreatedAsObjectDataSchema
  2
AcDbDs::TreatedAsObjectData
280
     1
 91
        0
  0
ACDSSCHEMA
 90
        2
  1
AcDbDs::LegacySchema
  2
AcDbDs::Legacy
280
     1
 91
        0
  0
ACDSSCHEMA
 90
        3
  1
AcDbDs::IndexedPropertySchema
  2
AcDs:Indexable
280
     1
 91
        0
  0
ACDSSCHEMA
 90
        4
  1
AcDbDs::HandleAttributeSchema
  2
AcDbDs::HandleAttribute
280
     7
 91
        1
284
     1
  0
ACDSRECORD
 90
        0
  2
AcDbDs::ID
280
    10
320
22
  2
Thumbnail_Data
280
    15
 94
     1659
310
89504E470D0A1A0A0000000D4948445200000100000000A60803000000029EA11300000300504C54452128300000000000000000000000000000000000000000000000000000000000000000330000660000990000CC0000FF0033000033330033660033990033CC0033FF0066000066330066660066990066CC0066FF0099
310
000099330099660099990099CC0099FF00CC0000CC3300CC6600CC9900CCCC00CCFF00FF0000FF3300FF6600FF9900FFCC00FFFF3300003300333300663300993300CC3300FF3333003333333333663333993333CC3333FF3366003366333366663366993366CC3366FF3399003399333399663399993399CC3399FF33CC00
310
33CC3333CC6633CC9933CCCC33CCFF33FF0033FF3333FF6633FF9933FFCC33FFFF6600006600336600666600996600CC6600FF6633006633336633666633996633CC6633FF6666006666336666666666996666CC6666FF6699006699336699666699996699CC6699FF66CC0066CC3366CC6666CC9966CCCC66CCFF66FF0066
310
FF3366FF6666FF9966FFCC66FFFF9900009900339900669900999900CC9900FF9933009933339933669933999933CC9933FF9966009966339966669966999966CC9966FF9999009999339999669999999999CC9999FF99CC0099CC3399CC6699CC9999CCCC99CCFF99FF0099FF3399FF6699FF9999FFCC99FFFFCC0000CC00
310
33CC0066CC0099CC00CCCC00FFCC3300CC3333CC3366CC3399CC33CCCC33FFCC6600CC6633CC6666CC6699CC66CCCC66FFCC9900CC9933CC9966CC9999CC99CCCC99FFCCCC00CCCC33CCCC66CCCC99CCCCCCCCCCFFCCFF00CCFF33CCFF66CCFF99CCFFCCCCFFFFFF0000FF0033FF0066FF0099FF00CCFF00FFFF3300FF3333
310
FF3366FF3399FF33CCFF33FFFF6600FF6633FF6666FF6699FF66CCFF66FFFF9900FF9933FF9966FF9999FF99CCFF99FFFFCC00FFCC33FFCC66FFCC99FFCCCCFFCCFFFFFF00FFFF33FFFF66FFFF99FFFFCCFFFFFF0000000D0D0D1A1A1A2828283535354343435050505D5D5D6B6B6B787878868686939393A1A1A1AEAEAEBB
310
BBBBC9C9C9D6D6D6E4E4E4F1F1F1FFFFFF000000000000000000000000000000000000000000000000000000000000544354A8000003314944415478DAED9DC172C3200C44F5FF1FA5BFE2DE438D23908881A62D927667DAE921F5781FC25A084D892008822008822008822008822008822008822008822008FAA0CA8CD67F
310
CB8FFD9D974DFC9613048F77C9AC0DED413BD5FFED7000805854FDFD9D66C0C500C05DBD4CBA0A03404D98700096DAC5F3E37FFBEA1E00ACBEC60F007E3B0FEAB04E03A857F304602A294D5E90FD01F8DC4489F90C000000000000C80D607ECD1F3A094E814905E07FAFFEA7B7C8B7320110AE59EC8FCCB37003403A15F6A4
310
6BF3C738006C7B8F00DA62D0A5111F40530CBA3400000000C03700B339D8CDD13900BB0D3EC7A328007615A60D220A678FC283A1CE138507CFB53C5198CC514F9403EA2D03000000C00880DD112302906DD0E8F8CC11D70202C073FCE78851F811006F6561EF001245617BDE230AE789C2BB00026E880000000040C6283CD8
310
11323B7ECC28BCB1E399350AFFA8BE8E9D0149A3F0EB44D360391C3B0ACB135DBB3B428E9F01ED79B6745B62D2BE28F62C009AD1E76C00D401574E3505947BEE374442476175BA99DFF5FE705158DBE7A96EFE260A7B02A08B9F27E3CC380A7BCA01653478730B00F751B8F4B53F052050142EAFFBBD1EF6130456A2B05917
310
4701B827AAF2C1E6CCA0B51C60D6C57915C0EA965BFBFC190007FEE96CD18F3EEEEC5FAD3F2880FE4CEC35837BB71C760A8C4AA05912AAB3000B51D8190075E681BEBFBA225988C2C703900474A1B3EC0F5B51D813002655FB92CA0201473980F4874554EB7511BC01C05112ECEFA6AEFD6BEF635A89B873D571DE72586D83
310
5C0CE8374AE06400ACB3009BEB7936368FFC4E01330B34C3CE5D8BEC92927F00661C349A217F68329CB727FA06C0E5FE7A24B2B9A5B42AA2D30918DBC0574BB7DC530015B9EEA901580060B6EB3E84F986C0EBFD801BC7771CB0AABFC4F1AF1AC1B53D56D39061BF44B26FC4416E33716CF76D1A127170F00E493CF7A40EC5
310
DC61C87AF013C505D0EEFB701AFB833C4C79EC5B0038937D4D40957F70FB2D003DF9C3DB9704D2157F9787B3DA1F2C6D4A1AFB26814CEE2D00B9ECD78F7FCE3AFC3D807CF649FC5B8192D2FE3DE9B3BABF863EB37D088220088220088220088220088220088220088220083A415F3A49E174903385F90000000049454E44AE
310
42608244AE426082
  0
ENDSEC
  0
EOF
